M48
; DRILL file {KiCad 9.0.8-9.0.8~ubuntu22.04.1} date 2026-05-03T22:59:40+0200
; FORMAT={-:-/ absolute / metric / decimal}
; #@! TF.CreationDate,2026-05-03T22:59:40+02:00
; #@! TF.GenerationSoftware,Kicad,Pcbnew,9.0.8-9.0.8~ubuntu22.04.1
; #@! TF.FileFunction,Plated,1,2,PTH
FMAT,2
METRIC
; #@! TA.AperFunction,Plated,PTH,ViaDrill
T1C0.300
; #@! TA.AperFunction,Plated,PTH,ViaDrill
T2C0.400
; #@! TA.AperFunction,Plated,PTH,ComponentDrill
T3C0.800
; #@! TA.AperFunction,Plated,PTH,ComponentDrill
T4C0.850
; #@! TA.AperFunction,Plated,PTH,ComponentDrill
T5C0.900
; #@! TA.AperFunction,Plated,PTH,ComponentDrill
T6C1.000
%
G90
G05
T1
X97.0Y-73.0
X97.0Y-78.0
X97.0Y-88.0
X98.8Y-53.8
X99.0Y-59.4
X100.4Y-53.0
X100.4Y-60.2
X102.5Y-50.0
X103.0Y-71.8
X104.681Y-63.784
X104.8Y-60.6
X104.8Y-71.8
X105.6Y-66.0
X106.8Y-59.8
X107.0Y-50.0
X108.0Y-78.0
X110.092Y-88.7
X114.2Y-49.6
X115.35Y-86.8
X115.8Y-88.6
X116.8Y-49.6
X117.6Y-72.2
X118.6Y-87.6
X119.4Y-80.8
X120.0Y-52.5
X120.0Y-57.5
X120.0Y-62.5
X120.0Y-67.5
X122.2Y-89.4
X123.8Y-84.2
X125.0Y-52.5
X125.0Y-57.5
X125.0Y-62.5
X125.0Y-67.5
X125.6Y-79.8
X127.2Y-49.6
X127.2Y-51.4
X127.4Y-69.6
X127.6Y-83.2
X129.4Y-83.4
X129.6Y-70.4
X129.8Y-49.6
X129.8Y-51.4
X130.4Y-71.8
X130.6Y-88.8
X131.4Y-70.4
X132.0Y-91.0
X133.2Y-67.4
X134.0Y-70.0
X134.6Y-67.4
X134.8Y-65.6
X135.0Y-69.4
X135.8Y-62.8
X137.6Y-55.8
X138.0Y-68.0
X139.0Y-50.0
X142.4Y-63.0
X143.0Y-91.0
X144.0Y-68.8
X144.4Y-53.4
X144.4Y-60.8
X145.0Y-71.0
X146.0Y-75.0
X146.8Y-64.2
X146.8Y-70.8
X147.0Y-50.0
X148.0Y-83.0
X148.4Y-53.4
X150.0Y-62.4
X150.2Y-53.4
X151.0Y-78.0
X151.2Y-73.6
X152.0Y-53.4
X152.2Y-67.0
X153.0Y-59.6
X153.0Y-61.8
X153.0Y-91.0
X156.0Y-50.0
X156.0Y-56.0
X156.0Y-62.0
X156.0Y-72.0
X156.0Y-82.0
T2
X125.2Y-75.2
X139.119Y-89.264
X140.2Y-84.8
T3
X134.6Y-76.6
X134.6Y-79.14
X134.6Y-81.68
X142.4Y-76.06
X142.4Y-78.6
X142.4Y-81.14
T4
X100.0Y-72.9
X100.0Y-74.9
T5
X100.8Y-89.5
X103.8Y-89.5
T6
X98.4Y-83.8
X99.0Y-65.2
X106.4Y-82.4
X108.6Y-85.2
X116.65Y-75.25
X120.25Y-75.25
X120.4Y-88.6
X126.1Y-77.8
X129.75Y-77.75
X131.2Y-61.2
X136.8Y-64.4
X137.4Y-52.4
X139.8Y-64.4
X142.0Y-89.0
X154.8Y-65.6
X155.25Y-89.2
X155.4Y-79.0
M30
