%TF.GenerationSoftware,KiCad,Pcbnew,9.0.8-9.0.8~ubuntu22.04.1*%
%TF.CreationDate,2026-05-03T22:59:43+02:00*%
%TF.ProjectId,radio_board,72616469-6f5f-4626-9f61-72642e6b6963,rev?*%
%TF.SameCoordinates,Original*%
%TF.FileFunction,Soldermask,Top*%
%TF.FilePolarity,Negative*%
%FSLAX46Y46*%
G04 Gerber Fmt 4.6, Leading zero omitted, Abs format (unit mm)*
G04 Created by KiCad (PCBNEW 9.0.8-9.0.8~ubuntu22.04.1) date 2026-05-03 22:59:43*
%MOMM*%
%LPD*%
G01*
G04 APERTURE LIST*
G04 Aperture macros list*
%AMRoundRect*
0 Rectangle with rounded corners*
0 $1 Rounding radius*
0 $2 $3 $4 $5 $6 $7 $8 $9 X,Y pos of 4 corners*
0 Add a 4 corners polygon primitive as box body*
4,1,4,$2,$3,$4,$5,$6,$7,$8,$9,$2,$3,0*
0 Add four circle primitives for the rounded corners*
1,1,$1+$1,$2,$3*
1,1,$1+$1,$4,$5*
1,1,$1+$1,$6,$7*
1,1,$1+$1,$8,$9*
0 Add four rect primitives between the rounded corners*
20,1,$1+$1,$2,$3,$4,$5,0*
20,1,$1+$1,$4,$5,$6,$7,0*
20,1,$1+$1,$6,$7,$8,$9,0*
20,1,$1+$1,$8,$9,$2,$3,0*%
G04 Aperture macros list end*
%ADD10RoundRect,0.237500X-0.237500X0.250000X-0.237500X-0.250000X0.237500X-0.250000X0.237500X0.250000X0*%
%ADD11R,1.200000X0.700000*%
%ADD12R,0.600000X1.520000*%
%ADD13C,0.900000*%
%ADD14R,1.100000X0.600000*%
%ADD15R,1.700000X1.700000*%
%ADD16C,2.000000*%
%ADD17RoundRect,0.237500X0.250000X0.237500X-0.250000X0.237500X-0.250000X-0.237500X0.250000X-0.237500X0*%
%ADD18C,2.500000*%
%ADD19RoundRect,0.237500X0.237500X-0.250000X0.237500X0.250000X-0.237500X0.250000X-0.237500X-0.250000X0*%
%ADD20RoundRect,0.150000X0.512500X0.150000X-0.512500X0.150000X-0.512500X-0.150000X0.512500X-0.150000X0*%
%ADD21RoundRect,0.237500X0.237500X-0.300000X0.237500X0.300000X-0.237500X0.300000X-0.237500X-0.300000X0*%
%ADD22RoundRect,0.237500X-0.287500X-0.237500X0.287500X-0.237500X0.287500X0.237500X-0.287500X0.237500X0*%
%ADD23RoundRect,0.237500X0.287500X0.237500X-0.287500X0.237500X-0.287500X-0.237500X0.287500X-0.237500X0*%
%ADD24RoundRect,0.150000X0.150000X-0.512500X0.150000X0.512500X-0.150000X0.512500X-0.150000X-0.512500X0*%
%ADD25RoundRect,0.237500X-0.250000X-0.237500X0.250000X-0.237500X0.250000X0.237500X-0.250000X0.237500X0*%
%ADD26R,0.700000X1.000000*%
%ADD27R,0.600000X0.360000*%
%ADD28R,1.600000X0.600000*%
%ADD29R,0.600000X1.600000*%
%ADD30RoundRect,0.162500X-0.617500X-0.162500X0.617500X-0.162500X0.617500X0.162500X-0.617500X0.162500X0*%
%ADD31C,3.000000*%
%ADD32O,0.364000X1.742000*%
%ADD33C,1.440000*%
%ADD34RoundRect,0.237500X0.237500X-0.287500X0.237500X0.287500X-0.237500X0.287500X-0.237500X-0.287500X0*%
%ADD35R,1.500000X1.500000*%
%ADD36R,1.400000X1.500000*%
%ADD37C,1.400000*%
%ADD38R,0.800000X0.864000*%
%ADD39R,1.400000X2.000000*%
%ADD40R,1.000000X2.200000*%
%ADD41R,1.300000X0.700000*%
%ADD42R,1.300000X0.800000*%
%ADD43R,1.300000X0.900000*%
%ADD44RoundRect,0.150000X-0.587500X-0.150000X0.587500X-0.150000X0.587500X0.150000X-0.587500X0.150000X0*%
G04 APERTURE END LIST*
%TO.C,R23*%
G36*
X108450000Y-73750000D02*
G01*
X111750000Y-73750000D01*
X111750000Y-73450000D01*
X108450000Y-73450000D01*
X108450000Y-73750000D01*
G37*
G36*
X109950000Y-75250000D02*
G01*
X110250000Y-75250000D01*
X110250000Y-71950000D01*
X109950000Y-71950000D01*
X109950000Y-75250000D01*
G37*
%TD*%
D10*
%TO.C,C6*%
X137200000Y-69825000D03*
X137200000Y-68000000D03*
%TD*%
%TO.C,C25*%
X139000000Y-69825000D03*
X139000000Y-68000000D03*
%TD*%
D11*
%TO.C,SW3*%
X105900000Y-90650000D03*
X105900000Y-88350000D03*
X98700000Y-90650000D03*
X98700000Y-88350000D03*
D12*
X104550000Y-87250000D03*
X103050000Y-87250000D03*
X100050000Y-87250000D03*
D13*
X103800000Y-89500000D03*
X100800000Y-89500000D03*
%TD*%
D14*
%TO.C,U6*%
X140600000Y-69800000D03*
X140600000Y-67900000D03*
X143200000Y-67900000D03*
X143200000Y-68850000D03*
X143200000Y-69800000D03*
%TD*%
D15*
%TO.C,J1*%
X154800000Y-65600000D03*
%TD*%
D10*
%TO.C,C18*%
X140500000Y-54675000D03*
X140500000Y-56500000D03*
%TD*%
D16*
%TO.C,TP33*%
X137400000Y-52400000D03*
%TD*%
D17*
%TO.C,R16*%
X149400000Y-72700000D03*
X151225000Y-72700000D03*
%TD*%
D18*
%TO.C,TP6*%
X99000000Y-68800000D03*
%TD*%
D17*
%TO.C,C12*%
X141800000Y-85800000D03*
X143625000Y-85800000D03*
%TD*%
D10*
%TO.C,C19*%
X138400000Y-61800000D03*
X138400000Y-59975000D03*
%TD*%
%TO.C,R2*%
X102000000Y-69800000D03*
X102000000Y-67975000D03*
%TD*%
%TO.C,C29*%
X127500000Y-82325000D03*
X127500000Y-80500000D03*
%TD*%
D19*
%TO.C,R9*%
X125500000Y-80587500D03*
X125500000Y-82412500D03*
%TD*%
D16*
%TO.C,TP5*%
X108600000Y-85200000D03*
%TD*%
%TO.C,TP3*%
X106400000Y-82400000D03*
%TD*%
D15*
%TO.C,J3*%
X120400000Y-88600000D03*
%TD*%
%TO.C,J2*%
X99000000Y-65200000D03*
%TD*%
D20*
%TO.C,U2*%
X103500000Y-65100000D03*
X103500000Y-64150000D03*
X103500000Y-63200000D03*
X105775000Y-63200000D03*
X105775000Y-64150000D03*
X105775000Y-65100000D03*
%TD*%
D17*
%TO.C,C3*%
X103975000Y-59800000D03*
X105800000Y-59800000D03*
%TD*%
D10*
%TO.C,R4*%
X102800000Y-51975000D03*
X102800000Y-53800000D03*
%TD*%
%TO.C,R3*%
X104600000Y-53800000D03*
X104600000Y-51975000D03*
%TD*%
D17*
%TO.C,R19*%
X125000000Y-87600000D03*
X126825000Y-87600000D03*
%TD*%
D19*
%TO.C,R22*%
X128600000Y-89512500D03*
X128600000Y-87687500D03*
%TD*%
D21*
%TO.C,C15*%
X135800000Y-60075000D03*
X135800000Y-61800000D03*
%TD*%
D10*
%TO.C,R12*%
X148500000Y-56500000D03*
X148500000Y-54675000D03*
%TD*%
%TO.C,R13*%
X153750000Y-56500000D03*
X153750000Y-54675000D03*
%TD*%
%TO.C,C27*%
X152000000Y-56500000D03*
X152000000Y-54675000D03*
%TD*%
D19*
%TO.C,R14*%
X146462500Y-54675000D03*
X146462500Y-56500000D03*
%TD*%
D10*
%TO.C,R10*%
X142500000Y-56500000D03*
X142500000Y-54675000D03*
%TD*%
%TO.C,C21*%
X150250000Y-56500000D03*
X150250000Y-54675000D03*
%TD*%
D19*
%TO.C,C11*%
X144500000Y-54675000D03*
X144500000Y-56500000D03*
%TD*%
D22*
%TO.C,D4*%
X105725000Y-68400000D03*
X103975000Y-68400000D03*
%TD*%
D23*
%TO.C,D3*%
X103850000Y-70200000D03*
X105600000Y-70200000D03*
%TD*%
D16*
%TO.C,TP1*%
X98400000Y-83800000D03*
%TD*%
D24*
%TO.C,U3*%
X103900000Y-74137500D03*
X104850000Y-74137500D03*
X105800000Y-74137500D03*
X105800000Y-71862500D03*
X103900000Y-71862500D03*
%TD*%
D19*
%TO.C,C13*%
X133800000Y-61775000D03*
X133800000Y-59950000D03*
%TD*%
%TO.C,R17*%
X129500000Y-82412500D03*
X129500000Y-80587500D03*
%TD*%
D10*
%TO.C,R21*%
X123200000Y-87600000D03*
X123200000Y-89425000D03*
%TD*%
D25*
%TO.C,R8*%
X137300000Y-85800000D03*
X139125000Y-85800000D03*
%TD*%
D15*
%TO.C,J4*%
X116650000Y-75250000D03*
%TD*%
D26*
%TO.C,SW2*%
X122820000Y-79750000D03*
X122820000Y-84250000D03*
X120680000Y-79750000D03*
X120680000Y-84250000D03*
%TD*%
D19*
%TO.C,R11*%
X140400000Y-61712500D03*
X140400000Y-59887500D03*
%TD*%
%TO.C,C2*%
X130500000Y-70412500D03*
X130500000Y-68587500D03*
%TD*%
D18*
%TO.C,TP47*%
X98500000Y-80250000D03*
%TD*%
D19*
%TO.C,C30*%
X117600000Y-87575000D03*
X117600000Y-89400000D03*
%TD*%
D27*
%TO.C,D2*%
X138000000Y-87800000D03*
X139300000Y-87800000D03*
%TD*%
D28*
%TO.C,U1*%
X115500000Y-49500000D03*
X115500000Y-50500000D03*
X115500000Y-51500000D03*
X115500000Y-52500000D03*
X115500000Y-53500000D03*
X115500000Y-54500000D03*
X115500000Y-55500000D03*
X115500000Y-56500000D03*
X115500000Y-57500000D03*
X115500000Y-58500000D03*
X115500000Y-59500000D03*
X115500000Y-60500000D03*
X115500000Y-61500000D03*
X115500000Y-62500000D03*
X115500000Y-63500000D03*
X115500000Y-64500000D03*
X115500000Y-65500000D03*
X115500000Y-66500000D03*
X115500000Y-67500000D03*
X115500000Y-68500000D03*
X115500000Y-69500000D03*
D29*
X117500000Y-71000000D03*
X118500000Y-71000000D03*
X119500000Y-71000000D03*
X120500000Y-71000000D03*
X121500000Y-71000000D03*
X122500000Y-71000000D03*
X123500000Y-71000000D03*
X124500000Y-71000000D03*
X125500000Y-71000000D03*
X126500000Y-71000000D03*
D28*
X128500000Y-69500000D03*
X128500000Y-68500000D03*
X128500000Y-67500000D03*
X128500000Y-66500000D03*
X128500000Y-65500000D03*
X128500000Y-64500000D03*
X128500000Y-63500000D03*
X128500000Y-62500000D03*
X128500000Y-61500000D03*
X128500000Y-60500000D03*
X128500000Y-59500000D03*
X128500000Y-58500000D03*
X128500000Y-57500000D03*
X128500000Y-56500000D03*
X128500000Y-55500000D03*
X128500000Y-54500000D03*
X128500000Y-53500000D03*
X128500000Y-52500000D03*
X128500000Y-51500000D03*
X128500000Y-50500000D03*
X128500000Y-49500000D03*
%TD*%
D15*
%TO.C,J5*%
X120250000Y-75250000D03*
%TD*%
D16*
%TO.C,TP49*%
X136800000Y-64400000D03*
%TD*%
D25*
%TO.C,R5*%
X103925000Y-66800000D03*
X105750000Y-66800000D03*
%TD*%
D30*
%TO.C,U7*%
X145600000Y-59900000D03*
X145600000Y-60850000D03*
X145600000Y-61800000D03*
X148300000Y-61800000D03*
X148300000Y-59900000D03*
%TD*%
D31*
%TO.C,TP51*%
X155400000Y-75200000D03*
%TD*%
D16*
%TO.C,TP34*%
X139800000Y-64400000D03*
%TD*%
D19*
%TO.C,C24*%
X145000000Y-69825000D03*
X145000000Y-68000000D03*
%TD*%
D25*
%TO.C,C5*%
X103975000Y-76137500D03*
X105800000Y-76137500D03*
%TD*%
D19*
%TO.C,C7*%
X146800000Y-69825000D03*
X146800000Y-68000000D03*
%TD*%
D25*
%TO.C,R20*%
X103975000Y-79637500D03*
X105800000Y-79637500D03*
%TD*%
%TO.C,R6*%
X104102500Y-77887500D03*
X105927500Y-77887500D03*
%TD*%
D16*
%TO.C,TP50*%
X155400000Y-79000000D03*
%TD*%
D32*
%TO.C,U8*%
X112740000Y-85600000D03*
X113390000Y-85600000D03*
X114040000Y-85600000D03*
X114690000Y-85600000D03*
X115350000Y-85600000D03*
X116000000Y-85600000D03*
X116650000Y-85600000D03*
X117300000Y-85600000D03*
X117950000Y-85600000D03*
X118600000Y-85600000D03*
X118600000Y-79860000D03*
X117950000Y-79860000D03*
X117300000Y-79860000D03*
X116650000Y-79860000D03*
X116000000Y-79860000D03*
X115350000Y-79860000D03*
X114690000Y-79860000D03*
X114040000Y-79860000D03*
X113390000Y-79860000D03*
X112740000Y-79860000D03*
%TD*%
D33*
%TO.C,RV1*%
X142400000Y-81140000D03*
X142400000Y-78600000D03*
X142400000Y-76060000D03*
%TD*%
D17*
%TO.C,C23*%
X153025000Y-58700000D03*
X151200000Y-58700000D03*
%TD*%
D25*
%TO.C,R7*%
X149400000Y-68700000D03*
X151225000Y-68700000D03*
%TD*%
D16*
%TO.C,TP45*%
X155250000Y-89200000D03*
%TD*%
%TO.C,TP2*%
X126100000Y-77800000D03*
%TD*%
D17*
%TO.C,C22*%
X151225000Y-66950000D03*
X149400000Y-66950000D03*
%TD*%
D34*
%TO.C,D1*%
X113400000Y-72837500D03*
X113400000Y-71087500D03*
%TD*%
D22*
%TO.C,D5*%
X125000000Y-89600000D03*
X126750000Y-89600000D03*
%TD*%
D35*
%TO.C,R23*%
X109200000Y-74500000D03*
X111000000Y-74500000D03*
X111000000Y-72700000D03*
X109200000Y-72700000D03*
%TD*%
D10*
%TO.C,C10*%
X142400000Y-59975000D03*
X142400000Y-61800000D03*
%TD*%
D17*
%TO.C,C8*%
X115750000Y-89550000D03*
X113925000Y-89550000D03*
%TD*%
D36*
%TO.C,U5*%
X100000000Y-72900000D03*
D37*
X100000000Y-74900000D03*
%TD*%
D16*
%TO.C,TP44*%
X129750000Y-77750000D03*
%TD*%
D25*
%TO.C,C26*%
X146925000Y-81350000D03*
X148750000Y-81350000D03*
%TD*%
D31*
%TO.C,TP43*%
X147000000Y-88800000D03*
%TD*%
D16*
%TO.C,TP14*%
X142000000Y-89000000D03*
%TD*%
D25*
%TO.C,R15*%
X149400000Y-65200000D03*
X151225000Y-65200000D03*
%TD*%
D17*
%TO.C,C16*%
X153025000Y-60700000D03*
X151200000Y-60700000D03*
%TD*%
D38*
%TO.C,L1*%
X148500000Y-78850000D03*
X147100000Y-78850000D03*
%TD*%
D19*
%TO.C,R18*%
X113250000Y-76750000D03*
X113250000Y-74925000D03*
%TD*%
%TO.C,R1*%
X113400000Y-69000000D03*
X113400000Y-67175000D03*
%TD*%
D16*
%TO.C,TP38*%
X131200000Y-61200000D03*
%TD*%
D21*
%TO.C,C14*%
X133800000Y-65600000D03*
X133800000Y-63875000D03*
%TD*%
D17*
%TO.C,C4*%
X105800000Y-61400000D03*
X103975000Y-61400000D03*
%TD*%
D31*
%TO.C,TP20*%
X155250000Y-85000000D03*
%TD*%
D25*
%TO.C,C28*%
X147000000Y-76600000D03*
X148825000Y-76600000D03*
%TD*%
D39*
%TO.C,USB1*%
X96800000Y-51280000D03*
D40*
X100390000Y-51330000D03*
X100390000Y-61870000D03*
D39*
X96800000Y-61920000D03*
D41*
X100440000Y-56100000D03*
D42*
X100440000Y-58120000D03*
D43*
X100440000Y-59350000D03*
D41*
X100440000Y-57100000D03*
D42*
X100440000Y-55080000D03*
D43*
X100440000Y-53850000D03*
%TD*%
D44*
%TO.C,Q1*%
X131925000Y-87050000D03*
X131925000Y-88950000D03*
X133800000Y-88000000D03*
%TD*%
D19*
%TO.C,C1*%
X132250000Y-70325000D03*
X132250000Y-68500000D03*
%TD*%
D17*
%TO.C,C20*%
X151225000Y-70800000D03*
X149400000Y-70800000D03*
%TD*%
%TO.C,C17*%
X153025000Y-62700000D03*
X151200000Y-62700000D03*
%TD*%
%TO.C,C9*%
X113975000Y-87800000D03*
X115800000Y-87800000D03*
%TD*%
D33*
%TO.C,RV2*%
X134600000Y-81680000D03*
X134600000Y-79140000D03*
X134600000Y-76600000D03*
%TD*%
M02*
