%TF.GenerationSoftware,KiCad,Pcbnew,9.0.8-9.0.8~ubuntu22.04.1*%
%TF.CreationDate,2026-05-03T22:59:43+02:00*%
%TF.ProjectId,radio_board,72616469-6f5f-4626-9f61-72642e6b6963,rev?*%
%TF.SameCoordinates,Original*%
%TF.FileFunction,Legend,Top*%
%TF.FilePolarity,Positive*%
%FSLAX46Y46*%
G04 Gerber Fmt 4.6, Leading zero omitted, Abs format (unit mm)*
G04 Created by KiCad (PCBNEW 9.0.8-9.0.8~ubuntu22.04.1) date 2026-05-03 22:59:43*
%MOMM*%
%LPD*%
G01*
G04 APERTURE LIST*
%ADD10C,0.100000*%
%ADD11C,0.300000*%
%ADD12C,0.150000*%
%ADD13C,0.125000*%
%ADD14C,0.120000*%
%ADD15C,0.000000*%
%ADD16C,0.250000*%
%ADD17C,0.060000*%
G04 APERTURE END LIST*
D10*
X126000000Y-75800000D02*
X126100000Y-76600000D01*
X130000000Y-74200000D02*
X130000000Y-76200000D01*
D11*
X119200000Y-72300000D02*
X119200000Y-73300000D01*
D10*
X108000000Y-78800000D02*
X107000000Y-81400000D01*
D12*
X137559580Y-72091666D02*
X137607200Y-72139285D01*
X137607200Y-72139285D02*
X137654819Y-72282142D01*
X137654819Y-72282142D02*
X137654819Y-72377380D01*
X137654819Y-72377380D02*
X137607200Y-72520237D01*
X137607200Y-72520237D02*
X137511961Y-72615475D01*
X137511961Y-72615475D02*
X137416723Y-72663094D01*
X137416723Y-72663094D02*
X137226247Y-72710713D01*
X137226247Y-72710713D02*
X137083390Y-72710713D01*
X137083390Y-72710713D02*
X136892914Y-72663094D01*
X136892914Y-72663094D02*
X136797676Y-72615475D01*
X136797676Y-72615475D02*
X136702438Y-72520237D01*
X136702438Y-72520237D02*
X136654819Y-72377380D01*
X136654819Y-72377380D02*
X136654819Y-72282142D01*
X136654819Y-72282142D02*
X136702438Y-72139285D01*
X136702438Y-72139285D02*
X136750057Y-72091666D01*
X136654819Y-71234523D02*
X136654819Y-71424999D01*
X136654819Y-71424999D02*
X136702438Y-71520237D01*
X136702438Y-71520237D02*
X136750057Y-71567856D01*
X136750057Y-71567856D02*
X136892914Y-71663094D01*
X136892914Y-71663094D02*
X137083390Y-71710713D01*
X137083390Y-71710713D02*
X137464342Y-71710713D01*
X137464342Y-71710713D02*
X137559580Y-71663094D01*
X137559580Y-71663094D02*
X137607200Y-71615475D01*
X137607200Y-71615475D02*
X137654819Y-71520237D01*
X137654819Y-71520237D02*
X137654819Y-71329761D01*
X137654819Y-71329761D02*
X137607200Y-71234523D01*
X137607200Y-71234523D02*
X137559580Y-71186904D01*
X137559580Y-71186904D02*
X137464342Y-71139285D01*
X137464342Y-71139285D02*
X137226247Y-71139285D01*
X137226247Y-71139285D02*
X137131009Y-71186904D01*
X137131009Y-71186904D02*
X137083390Y-71234523D01*
X137083390Y-71234523D02*
X137035771Y-71329761D01*
X137035771Y-71329761D02*
X137035771Y-71520237D01*
X137035771Y-71520237D02*
X137083390Y-71615475D01*
X137083390Y-71615475D02*
X137131009Y-71663094D01*
X137131009Y-71663094D02*
X137226247Y-71710713D01*
X139359580Y-72742857D02*
X139407200Y-72790476D01*
X139407200Y-72790476D02*
X139454819Y-72933333D01*
X139454819Y-72933333D02*
X139454819Y-73028571D01*
X139454819Y-73028571D02*
X139407200Y-73171428D01*
X139407200Y-73171428D02*
X139311961Y-73266666D01*
X139311961Y-73266666D02*
X139216723Y-73314285D01*
X139216723Y-73314285D02*
X139026247Y-73361904D01*
X139026247Y-73361904D02*
X138883390Y-73361904D01*
X138883390Y-73361904D02*
X138692914Y-73314285D01*
X138692914Y-73314285D02*
X138597676Y-73266666D01*
X138597676Y-73266666D02*
X138502438Y-73171428D01*
X138502438Y-73171428D02*
X138454819Y-73028571D01*
X138454819Y-73028571D02*
X138454819Y-72933333D01*
X138454819Y-72933333D02*
X138502438Y-72790476D01*
X138502438Y-72790476D02*
X138550057Y-72742857D01*
X138550057Y-72361904D02*
X138502438Y-72314285D01*
X138502438Y-72314285D02*
X138454819Y-72219047D01*
X138454819Y-72219047D02*
X138454819Y-71980952D01*
X138454819Y-71980952D02*
X138502438Y-71885714D01*
X138502438Y-71885714D02*
X138550057Y-71838095D01*
X138550057Y-71838095D02*
X138645295Y-71790476D01*
X138645295Y-71790476D02*
X138740533Y-71790476D01*
X138740533Y-71790476D02*
X138883390Y-71838095D01*
X138883390Y-71838095D02*
X139454819Y-72409523D01*
X139454819Y-72409523D02*
X139454819Y-71790476D01*
X138454819Y-70885714D02*
X138454819Y-71361904D01*
X138454819Y-71361904D02*
X138931009Y-71409523D01*
X138931009Y-71409523D02*
X138883390Y-71361904D01*
X138883390Y-71361904D02*
X138835771Y-71266666D01*
X138835771Y-71266666D02*
X138835771Y-71028571D01*
X138835771Y-71028571D02*
X138883390Y-70933333D01*
X138883390Y-70933333D02*
X138931009Y-70885714D01*
X138931009Y-70885714D02*
X139026247Y-70838095D01*
X139026247Y-70838095D02*
X139264342Y-70838095D01*
X139264342Y-70838095D02*
X139359580Y-70885714D01*
X139359580Y-70885714D02*
X139407200Y-70933333D01*
X139407200Y-70933333D02*
X139454819Y-71028571D01*
X139454819Y-71028571D02*
X139454819Y-71266666D01*
X139454819Y-71266666D02*
X139407200Y-71361904D01*
X139407200Y-71361904D02*
X139359580Y-71409523D01*
X141154819Y-66411904D02*
X141964342Y-66411904D01*
X141964342Y-66411904D02*
X142059580Y-66364285D01*
X142059580Y-66364285D02*
X142107200Y-66316666D01*
X142107200Y-66316666D02*
X142154819Y-66221428D01*
X142154819Y-66221428D02*
X142154819Y-66030952D01*
X142154819Y-66030952D02*
X142107200Y-65935714D01*
X142107200Y-65935714D02*
X142059580Y-65888095D01*
X142059580Y-65888095D02*
X141964342Y-65840476D01*
X141964342Y-65840476D02*
X141154819Y-65840476D01*
X141154819Y-64935714D02*
X141154819Y-65126190D01*
X141154819Y-65126190D02*
X141202438Y-65221428D01*
X141202438Y-65221428D02*
X141250057Y-65269047D01*
X141250057Y-65269047D02*
X141392914Y-65364285D01*
X141392914Y-65364285D02*
X141583390Y-65411904D01*
X141583390Y-65411904D02*
X141964342Y-65411904D01*
X141964342Y-65411904D02*
X142059580Y-65364285D01*
X142059580Y-65364285D02*
X142107200Y-65316666D01*
X142107200Y-65316666D02*
X142154819Y-65221428D01*
X142154819Y-65221428D02*
X142154819Y-65030952D01*
X142154819Y-65030952D02*
X142107200Y-64935714D01*
X142107200Y-64935714D02*
X142059580Y-64888095D01*
X142059580Y-64888095D02*
X141964342Y-64840476D01*
X141964342Y-64840476D02*
X141726247Y-64840476D01*
X141726247Y-64840476D02*
X141631009Y-64888095D01*
X141631009Y-64888095D02*
X141583390Y-64935714D01*
X141583390Y-64935714D02*
X141535771Y-65030952D01*
X141535771Y-65030952D02*
X141535771Y-65221428D01*
X141535771Y-65221428D02*
X141583390Y-65316666D01*
X141583390Y-65316666D02*
X141631009Y-65364285D01*
X141631009Y-65364285D02*
X141726247Y-65411904D01*
X155454819Y-70428570D02*
X155454819Y-69809523D01*
X155454819Y-69809523D02*
X155835771Y-70142856D01*
X155835771Y-70142856D02*
X155835771Y-69999999D01*
X155835771Y-69999999D02*
X155883390Y-69904761D01*
X155883390Y-69904761D02*
X155931009Y-69857142D01*
X155931009Y-69857142D02*
X156026247Y-69809523D01*
X156026247Y-69809523D02*
X156264342Y-69809523D01*
X156264342Y-69809523D02*
X156359580Y-69857142D01*
X156359580Y-69857142D02*
X156407200Y-69904761D01*
X156407200Y-69904761D02*
X156454819Y-69999999D01*
X156454819Y-69999999D02*
X156454819Y-70285713D01*
X156454819Y-70285713D02*
X156407200Y-70380951D01*
X156407200Y-70380951D02*
X156359580Y-70428570D01*
X156359580Y-69380951D02*
X156407200Y-69333332D01*
X156407200Y-69333332D02*
X156454819Y-69380951D01*
X156454819Y-69380951D02*
X156407200Y-69428570D01*
X156407200Y-69428570D02*
X156359580Y-69380951D01*
X156359580Y-69380951D02*
X156454819Y-69380951D01*
X155454819Y-68999999D02*
X155454819Y-68380952D01*
X155454819Y-68380952D02*
X155835771Y-68714285D01*
X155835771Y-68714285D02*
X155835771Y-68571428D01*
X155835771Y-68571428D02*
X155883390Y-68476190D01*
X155883390Y-68476190D02*
X155931009Y-68428571D01*
X155931009Y-68428571D02*
X156026247Y-68380952D01*
X156026247Y-68380952D02*
X156264342Y-68380952D01*
X156264342Y-68380952D02*
X156359580Y-68428571D01*
X156359580Y-68428571D02*
X156407200Y-68476190D01*
X156407200Y-68476190D02*
X156454819Y-68571428D01*
X156454819Y-68571428D02*
X156454819Y-68857142D01*
X156454819Y-68857142D02*
X156407200Y-68952380D01*
X156407200Y-68952380D02*
X156359580Y-68999999D01*
X155788152Y-68047618D02*
X156454819Y-67809523D01*
X156454819Y-67809523D02*
X155788152Y-67571428D01*
X140759580Y-53042857D02*
X140807200Y-53090476D01*
X140807200Y-53090476D02*
X140854819Y-53233333D01*
X140854819Y-53233333D02*
X140854819Y-53328571D01*
X140854819Y-53328571D02*
X140807200Y-53471428D01*
X140807200Y-53471428D02*
X140711961Y-53566666D01*
X140711961Y-53566666D02*
X140616723Y-53614285D01*
X140616723Y-53614285D02*
X140426247Y-53661904D01*
X140426247Y-53661904D02*
X140283390Y-53661904D01*
X140283390Y-53661904D02*
X140092914Y-53614285D01*
X140092914Y-53614285D02*
X139997676Y-53566666D01*
X139997676Y-53566666D02*
X139902438Y-53471428D01*
X139902438Y-53471428D02*
X139854819Y-53328571D01*
X139854819Y-53328571D02*
X139854819Y-53233333D01*
X139854819Y-53233333D02*
X139902438Y-53090476D01*
X139902438Y-53090476D02*
X139950057Y-53042857D01*
X140854819Y-52090476D02*
X140854819Y-52661904D01*
X140854819Y-52376190D02*
X139854819Y-52376190D01*
X139854819Y-52376190D02*
X139997676Y-52471428D01*
X139997676Y-52471428D02*
X140092914Y-52566666D01*
X140092914Y-52566666D02*
X140140533Y-52661904D01*
X140283390Y-51519047D02*
X140235771Y-51614285D01*
X140235771Y-51614285D02*
X140188152Y-51661904D01*
X140188152Y-51661904D02*
X140092914Y-51709523D01*
X140092914Y-51709523D02*
X140045295Y-51709523D01*
X140045295Y-51709523D02*
X139950057Y-51661904D01*
X139950057Y-51661904D02*
X139902438Y-51614285D01*
X139902438Y-51614285D02*
X139854819Y-51519047D01*
X139854819Y-51519047D02*
X139854819Y-51328571D01*
X139854819Y-51328571D02*
X139902438Y-51233333D01*
X139902438Y-51233333D02*
X139950057Y-51185714D01*
X139950057Y-51185714D02*
X140045295Y-51138095D01*
X140045295Y-51138095D02*
X140092914Y-51138095D01*
X140092914Y-51138095D02*
X140188152Y-51185714D01*
X140188152Y-51185714D02*
X140235771Y-51233333D01*
X140235771Y-51233333D02*
X140283390Y-51328571D01*
X140283390Y-51328571D02*
X140283390Y-51519047D01*
X140283390Y-51519047D02*
X140331009Y-51614285D01*
X140331009Y-51614285D02*
X140378628Y-51661904D01*
X140378628Y-51661904D02*
X140473866Y-51709523D01*
X140473866Y-51709523D02*
X140664342Y-51709523D01*
X140664342Y-51709523D02*
X140759580Y-51661904D01*
X140759580Y-51661904D02*
X140807200Y-51614285D01*
X140807200Y-51614285D02*
X140854819Y-51519047D01*
X140854819Y-51519047D02*
X140854819Y-51328571D01*
X140854819Y-51328571D02*
X140807200Y-51233333D01*
X140807200Y-51233333D02*
X140759580Y-51185714D01*
X140759580Y-51185714D02*
X140664342Y-51138095D01*
X140664342Y-51138095D02*
X140473866Y-51138095D01*
X140473866Y-51138095D02*
X140378628Y-51185714D01*
X140378628Y-51185714D02*
X140331009Y-51233333D01*
X140331009Y-51233333D02*
X140283390Y-51328571D01*
X134428571Y-50407200D02*
X134571428Y-50454819D01*
X134571428Y-50454819D02*
X134809523Y-50454819D01*
X134809523Y-50454819D02*
X134904761Y-50407200D01*
X134904761Y-50407200D02*
X134952380Y-50359580D01*
X134952380Y-50359580D02*
X134999999Y-50264342D01*
X134999999Y-50264342D02*
X134999999Y-50169104D01*
X134999999Y-50169104D02*
X134952380Y-50073866D01*
X134952380Y-50073866D02*
X134904761Y-50026247D01*
X134904761Y-50026247D02*
X134809523Y-49978628D01*
X134809523Y-49978628D02*
X134619047Y-49931009D01*
X134619047Y-49931009D02*
X134523809Y-49883390D01*
X134523809Y-49883390D02*
X134476190Y-49835771D01*
X134476190Y-49835771D02*
X134428571Y-49740533D01*
X134428571Y-49740533D02*
X134428571Y-49645295D01*
X134428571Y-49645295D02*
X134476190Y-49550057D01*
X134476190Y-49550057D02*
X134523809Y-49502438D01*
X134523809Y-49502438D02*
X134619047Y-49454819D01*
X134619047Y-49454819D02*
X134857142Y-49454819D01*
X134857142Y-49454819D02*
X134999999Y-49502438D01*
X135428571Y-50454819D02*
X135428571Y-49454819D01*
X135428571Y-49454819D02*
X135809523Y-49454819D01*
X135809523Y-49454819D02*
X135904761Y-49502438D01*
X135904761Y-49502438D02*
X135952380Y-49550057D01*
X135952380Y-49550057D02*
X135999999Y-49645295D01*
X135999999Y-49645295D02*
X135999999Y-49788152D01*
X135999999Y-49788152D02*
X135952380Y-49883390D01*
X135952380Y-49883390D02*
X135904761Y-49931009D01*
X135904761Y-49931009D02*
X135809523Y-49978628D01*
X135809523Y-49978628D02*
X135428571Y-49978628D01*
X136428571Y-50454819D02*
X136428571Y-49454819D01*
X136999999Y-50454819D02*
X136571428Y-49883390D01*
X136999999Y-49454819D02*
X136428571Y-50026247D01*
X137190476Y-50550057D02*
X137952380Y-50550057D01*
X138666666Y-50454819D02*
X138190476Y-50454819D01*
X138190476Y-50454819D02*
X138190476Y-49454819D01*
X139000000Y-50454819D02*
X139000000Y-49454819D01*
X139000000Y-49454819D02*
X139380952Y-49454819D01*
X139380952Y-49454819D02*
X139476190Y-49502438D01*
X139476190Y-49502438D02*
X139523809Y-49550057D01*
X139523809Y-49550057D02*
X139571428Y-49645295D01*
X139571428Y-49645295D02*
X139571428Y-49788152D01*
X139571428Y-49788152D02*
X139523809Y-49883390D01*
X139523809Y-49883390D02*
X139476190Y-49931009D01*
X139476190Y-49931009D02*
X139380952Y-49978628D01*
X139380952Y-49978628D02*
X139000000Y-49978628D01*
X153157142Y-73154819D02*
X152823809Y-72678628D01*
X152585714Y-73154819D02*
X152585714Y-72154819D01*
X152585714Y-72154819D02*
X152966666Y-72154819D01*
X152966666Y-72154819D02*
X153061904Y-72202438D01*
X153061904Y-72202438D02*
X153109523Y-72250057D01*
X153109523Y-72250057D02*
X153157142Y-72345295D01*
X153157142Y-72345295D02*
X153157142Y-72488152D01*
X153157142Y-72488152D02*
X153109523Y-72583390D01*
X153109523Y-72583390D02*
X153061904Y-72631009D01*
X153061904Y-72631009D02*
X152966666Y-72678628D01*
X152966666Y-72678628D02*
X152585714Y-72678628D01*
X154109523Y-73154819D02*
X153538095Y-73154819D01*
X153823809Y-73154819D02*
X153823809Y-72154819D01*
X153823809Y-72154819D02*
X153728571Y-72297676D01*
X153728571Y-72297676D02*
X153633333Y-72392914D01*
X153633333Y-72392914D02*
X153538095Y-72440533D01*
X154966666Y-72154819D02*
X154776190Y-72154819D01*
X154776190Y-72154819D02*
X154680952Y-72202438D01*
X154680952Y-72202438D02*
X154633333Y-72250057D01*
X154633333Y-72250057D02*
X154538095Y-72392914D01*
X154538095Y-72392914D02*
X154490476Y-72583390D01*
X154490476Y-72583390D02*
X154490476Y-72964342D01*
X154490476Y-72964342D02*
X154538095Y-73059580D01*
X154538095Y-73059580D02*
X154585714Y-73107200D01*
X154585714Y-73107200D02*
X154680952Y-73154819D01*
X154680952Y-73154819D02*
X154871428Y-73154819D01*
X154871428Y-73154819D02*
X154966666Y-73107200D01*
X154966666Y-73107200D02*
X155014285Y-73059580D01*
X155014285Y-73059580D02*
X155061904Y-72964342D01*
X155061904Y-72964342D02*
X155061904Y-72726247D01*
X155061904Y-72726247D02*
X155014285Y-72631009D01*
X155014285Y-72631009D02*
X154966666Y-72583390D01*
X154966666Y-72583390D02*
X154871428Y-72535771D01*
X154871428Y-72535771D02*
X154680952Y-72535771D01*
X154680952Y-72535771D02*
X154585714Y-72583390D01*
X154585714Y-72583390D02*
X154538095Y-72631009D01*
X154538095Y-72631009D02*
X154490476Y-72726247D01*
D13*
X96634333Y-69835713D02*
X96634333Y-69454761D01*
X96562904Y-69049998D02*
X96586714Y-68978570D01*
X96586714Y-68978570D02*
X96610523Y-68954760D01*
X96610523Y-68954760D02*
X96658142Y-68930951D01*
X96658142Y-68930951D02*
X96729571Y-68930951D01*
X96729571Y-68930951D02*
X96777190Y-68954760D01*
X96777190Y-68954760D02*
X96801000Y-68978570D01*
X96801000Y-68978570D02*
X96824809Y-69026189D01*
X96824809Y-69026189D02*
X96824809Y-69216665D01*
X96824809Y-69216665D02*
X96324809Y-69216665D01*
X96324809Y-69216665D02*
X96324809Y-69049998D01*
X96324809Y-69049998D02*
X96348619Y-69002379D01*
X96348619Y-69002379D02*
X96372428Y-68978570D01*
X96372428Y-68978570D02*
X96420047Y-68954760D01*
X96420047Y-68954760D02*
X96467666Y-68954760D01*
X96467666Y-68954760D02*
X96515285Y-68978570D01*
X96515285Y-68978570D02*
X96539095Y-69002379D01*
X96539095Y-69002379D02*
X96562904Y-69049998D01*
X96562904Y-69049998D02*
X96562904Y-69216665D01*
X96681952Y-68740474D02*
X96681952Y-68502379D01*
X96824809Y-68788093D02*
X96324809Y-68621427D01*
X96324809Y-68621427D02*
X96824809Y-68454760D01*
X96324809Y-68359522D02*
X96324809Y-68073808D01*
X96824809Y-68216665D02*
X96324809Y-68216665D01*
X96324809Y-67978570D02*
X96324809Y-67692856D01*
X96824809Y-67835713D02*
X96324809Y-67835713D01*
D12*
X141957142Y-84759580D02*
X141909523Y-84807200D01*
X141909523Y-84807200D02*
X141766666Y-84854819D01*
X141766666Y-84854819D02*
X141671428Y-84854819D01*
X141671428Y-84854819D02*
X141528571Y-84807200D01*
X141528571Y-84807200D02*
X141433333Y-84711961D01*
X141433333Y-84711961D02*
X141385714Y-84616723D01*
X141385714Y-84616723D02*
X141338095Y-84426247D01*
X141338095Y-84426247D02*
X141338095Y-84283390D01*
X141338095Y-84283390D02*
X141385714Y-84092914D01*
X141385714Y-84092914D02*
X141433333Y-83997676D01*
X141433333Y-83997676D02*
X141528571Y-83902438D01*
X141528571Y-83902438D02*
X141671428Y-83854819D01*
X141671428Y-83854819D02*
X141766666Y-83854819D01*
X141766666Y-83854819D02*
X141909523Y-83902438D01*
X141909523Y-83902438D02*
X141957142Y-83950057D01*
X142909523Y-84854819D02*
X142338095Y-84854819D01*
X142623809Y-84854819D02*
X142623809Y-83854819D01*
X142623809Y-83854819D02*
X142528571Y-83997676D01*
X142528571Y-83997676D02*
X142433333Y-84092914D01*
X142433333Y-84092914D02*
X142338095Y-84140533D01*
X143290476Y-83950057D02*
X143338095Y-83902438D01*
X143338095Y-83902438D02*
X143433333Y-83854819D01*
X143433333Y-83854819D02*
X143671428Y-83854819D01*
X143671428Y-83854819D02*
X143766666Y-83902438D01*
X143766666Y-83902438D02*
X143814285Y-83950057D01*
X143814285Y-83950057D02*
X143861904Y-84045295D01*
X143861904Y-84045295D02*
X143861904Y-84140533D01*
X143861904Y-84140533D02*
X143814285Y-84283390D01*
X143814285Y-84283390D02*
X143242857Y-84854819D01*
X143242857Y-84854819D02*
X143861904Y-84854819D01*
X138667735Y-58682143D02*
X138703450Y-58717857D01*
X138703450Y-58717857D02*
X138739164Y-58825000D01*
X138739164Y-58825000D02*
X138739164Y-58896428D01*
X138739164Y-58896428D02*
X138703450Y-59003571D01*
X138703450Y-59003571D02*
X138632021Y-59075000D01*
X138632021Y-59075000D02*
X138560592Y-59110714D01*
X138560592Y-59110714D02*
X138417735Y-59146428D01*
X138417735Y-59146428D02*
X138310592Y-59146428D01*
X138310592Y-59146428D02*
X138167735Y-59110714D01*
X138167735Y-59110714D02*
X138096307Y-59075000D01*
X138096307Y-59075000D02*
X138024878Y-59003571D01*
X138024878Y-59003571D02*
X137989164Y-58896428D01*
X137989164Y-58896428D02*
X137989164Y-58825000D01*
X137989164Y-58825000D02*
X138024878Y-58717857D01*
X138024878Y-58717857D02*
X138060592Y-58682143D01*
X138739164Y-57967857D02*
X138739164Y-58396428D01*
X138739164Y-58182143D02*
X137989164Y-58182143D01*
X137989164Y-58182143D02*
X138096307Y-58253571D01*
X138096307Y-58253571D02*
X138167735Y-58325000D01*
X138167735Y-58325000D02*
X138203450Y-58396428D01*
X138739164Y-57610714D02*
X138739164Y-57467857D01*
X138739164Y-57467857D02*
X138703450Y-57396428D01*
X138703450Y-57396428D02*
X138667735Y-57360714D01*
X138667735Y-57360714D02*
X138560592Y-57289285D01*
X138560592Y-57289285D02*
X138417735Y-57253571D01*
X138417735Y-57253571D02*
X138132021Y-57253571D01*
X138132021Y-57253571D02*
X138060592Y-57289285D01*
X138060592Y-57289285D02*
X138024878Y-57325000D01*
X138024878Y-57325000D02*
X137989164Y-57396428D01*
X137989164Y-57396428D02*
X137989164Y-57539285D01*
X137989164Y-57539285D02*
X138024878Y-57610714D01*
X138024878Y-57610714D02*
X138060592Y-57646428D01*
X138060592Y-57646428D02*
X138132021Y-57682142D01*
X138132021Y-57682142D02*
X138310592Y-57682142D01*
X138310592Y-57682142D02*
X138382021Y-57646428D01*
X138382021Y-57646428D02*
X138417735Y-57610714D01*
X138417735Y-57610714D02*
X138453450Y-57539285D01*
X138453450Y-57539285D02*
X138453450Y-57396428D01*
X138453450Y-57396428D02*
X138417735Y-57325000D01*
X138417735Y-57325000D02*
X138382021Y-57289285D01*
X138382021Y-57289285D02*
X138310592Y-57253571D01*
X102454819Y-71966666D02*
X101978628Y-72299999D01*
X102454819Y-72538094D02*
X101454819Y-72538094D01*
X101454819Y-72538094D02*
X101454819Y-72157142D01*
X101454819Y-72157142D02*
X101502438Y-72061904D01*
X101502438Y-72061904D02*
X101550057Y-72014285D01*
X101550057Y-72014285D02*
X101645295Y-71966666D01*
X101645295Y-71966666D02*
X101788152Y-71966666D01*
X101788152Y-71966666D02*
X101883390Y-72014285D01*
X101883390Y-72014285D02*
X101931009Y-72061904D01*
X101931009Y-72061904D02*
X101978628Y-72157142D01*
X101978628Y-72157142D02*
X101978628Y-72538094D01*
X101550057Y-71585713D02*
X101502438Y-71538094D01*
X101502438Y-71538094D02*
X101454819Y-71442856D01*
X101454819Y-71442856D02*
X101454819Y-71204761D01*
X101454819Y-71204761D02*
X101502438Y-71109523D01*
X101502438Y-71109523D02*
X101550057Y-71061904D01*
X101550057Y-71061904D02*
X101645295Y-71014285D01*
X101645295Y-71014285D02*
X101740533Y-71014285D01*
X101740533Y-71014285D02*
X101883390Y-71061904D01*
X101883390Y-71061904D02*
X102454819Y-71633332D01*
X102454819Y-71633332D02*
X102454819Y-71014285D01*
X127959580Y-85042857D02*
X128007200Y-85090476D01*
X128007200Y-85090476D02*
X128054819Y-85233333D01*
X128054819Y-85233333D02*
X128054819Y-85328571D01*
X128054819Y-85328571D02*
X128007200Y-85471428D01*
X128007200Y-85471428D02*
X127911961Y-85566666D01*
X127911961Y-85566666D02*
X127816723Y-85614285D01*
X127816723Y-85614285D02*
X127626247Y-85661904D01*
X127626247Y-85661904D02*
X127483390Y-85661904D01*
X127483390Y-85661904D02*
X127292914Y-85614285D01*
X127292914Y-85614285D02*
X127197676Y-85566666D01*
X127197676Y-85566666D02*
X127102438Y-85471428D01*
X127102438Y-85471428D02*
X127054819Y-85328571D01*
X127054819Y-85328571D02*
X127054819Y-85233333D01*
X127054819Y-85233333D02*
X127102438Y-85090476D01*
X127102438Y-85090476D02*
X127150057Y-85042857D01*
X127150057Y-84661904D02*
X127102438Y-84614285D01*
X127102438Y-84614285D02*
X127054819Y-84519047D01*
X127054819Y-84519047D02*
X127054819Y-84280952D01*
X127054819Y-84280952D02*
X127102438Y-84185714D01*
X127102438Y-84185714D02*
X127150057Y-84138095D01*
X127150057Y-84138095D02*
X127245295Y-84090476D01*
X127245295Y-84090476D02*
X127340533Y-84090476D01*
X127340533Y-84090476D02*
X127483390Y-84138095D01*
X127483390Y-84138095D02*
X128054819Y-84709523D01*
X128054819Y-84709523D02*
X128054819Y-84090476D01*
X128054819Y-83614285D02*
X128054819Y-83423809D01*
X128054819Y-83423809D02*
X128007200Y-83328571D01*
X128007200Y-83328571D02*
X127959580Y-83280952D01*
X127959580Y-83280952D02*
X127816723Y-83185714D01*
X127816723Y-83185714D02*
X127626247Y-83138095D01*
X127626247Y-83138095D02*
X127245295Y-83138095D01*
X127245295Y-83138095D02*
X127150057Y-83185714D01*
X127150057Y-83185714D02*
X127102438Y-83233333D01*
X127102438Y-83233333D02*
X127054819Y-83328571D01*
X127054819Y-83328571D02*
X127054819Y-83519047D01*
X127054819Y-83519047D02*
X127102438Y-83614285D01*
X127102438Y-83614285D02*
X127150057Y-83661904D01*
X127150057Y-83661904D02*
X127245295Y-83709523D01*
X127245295Y-83709523D02*
X127483390Y-83709523D01*
X127483390Y-83709523D02*
X127578628Y-83661904D01*
X127578628Y-83661904D02*
X127626247Y-83614285D01*
X127626247Y-83614285D02*
X127673866Y-83519047D01*
X127673866Y-83519047D02*
X127673866Y-83328571D01*
X127673866Y-83328571D02*
X127626247Y-83233333D01*
X127626247Y-83233333D02*
X127578628Y-83185714D01*
X127578628Y-83185714D02*
X127483390Y-83138095D01*
X126054819Y-84166666D02*
X125578628Y-84499999D01*
X126054819Y-84738094D02*
X125054819Y-84738094D01*
X125054819Y-84738094D02*
X125054819Y-84357142D01*
X125054819Y-84357142D02*
X125102438Y-84261904D01*
X125102438Y-84261904D02*
X125150057Y-84214285D01*
X125150057Y-84214285D02*
X125245295Y-84166666D01*
X125245295Y-84166666D02*
X125388152Y-84166666D01*
X125388152Y-84166666D02*
X125483390Y-84214285D01*
X125483390Y-84214285D02*
X125531009Y-84261904D01*
X125531009Y-84261904D02*
X125578628Y-84357142D01*
X125578628Y-84357142D02*
X125578628Y-84738094D01*
X126054819Y-83690475D02*
X126054819Y-83499999D01*
X126054819Y-83499999D02*
X126007200Y-83404761D01*
X126007200Y-83404761D02*
X125959580Y-83357142D01*
X125959580Y-83357142D02*
X125816723Y-83261904D01*
X125816723Y-83261904D02*
X125626247Y-83214285D01*
X125626247Y-83214285D02*
X125245295Y-83214285D01*
X125245295Y-83214285D02*
X125150057Y-83261904D01*
X125150057Y-83261904D02*
X125102438Y-83309523D01*
X125102438Y-83309523D02*
X125054819Y-83404761D01*
X125054819Y-83404761D02*
X125054819Y-83595237D01*
X125054819Y-83595237D02*
X125102438Y-83690475D01*
X125102438Y-83690475D02*
X125150057Y-83738094D01*
X125150057Y-83738094D02*
X125245295Y-83785713D01*
X125245295Y-83785713D02*
X125483390Y-83785713D01*
X125483390Y-83785713D02*
X125578628Y-83738094D01*
X125578628Y-83738094D02*
X125626247Y-83690475D01*
X125626247Y-83690475D02*
X125673866Y-83595237D01*
X125673866Y-83595237D02*
X125673866Y-83404761D01*
X125673866Y-83404761D02*
X125626247Y-83309523D01*
X125626247Y-83309523D02*
X125578628Y-83261904D01*
X125578628Y-83261904D02*
X125483390Y-83214285D01*
X107838095Y-86752438D02*
X107742857Y-86704819D01*
X107742857Y-86704819D02*
X107600000Y-86704819D01*
X107600000Y-86704819D02*
X107457143Y-86752438D01*
X107457143Y-86752438D02*
X107361905Y-86847676D01*
X107361905Y-86847676D02*
X107314286Y-86942914D01*
X107314286Y-86942914D02*
X107266667Y-87133390D01*
X107266667Y-87133390D02*
X107266667Y-87276247D01*
X107266667Y-87276247D02*
X107314286Y-87466723D01*
X107314286Y-87466723D02*
X107361905Y-87561961D01*
X107361905Y-87561961D02*
X107457143Y-87657200D01*
X107457143Y-87657200D02*
X107600000Y-87704819D01*
X107600000Y-87704819D02*
X107695238Y-87704819D01*
X107695238Y-87704819D02*
X107838095Y-87657200D01*
X107838095Y-87657200D02*
X107885714Y-87609580D01*
X107885714Y-87609580D02*
X107885714Y-87276247D01*
X107885714Y-87276247D02*
X107695238Y-87276247D01*
X108314286Y-87704819D02*
X108314286Y-86704819D01*
X108314286Y-86704819D02*
X108885714Y-87704819D01*
X108885714Y-87704819D02*
X108885714Y-86704819D01*
X109361905Y-87704819D02*
X109361905Y-86704819D01*
X109361905Y-86704819D02*
X109600000Y-86704819D01*
X109600000Y-86704819D02*
X109742857Y-86752438D01*
X109742857Y-86752438D02*
X109838095Y-86847676D01*
X109838095Y-86847676D02*
X109885714Y-86942914D01*
X109885714Y-86942914D02*
X109933333Y-87133390D01*
X109933333Y-87133390D02*
X109933333Y-87276247D01*
X109933333Y-87276247D02*
X109885714Y-87466723D01*
X109885714Y-87466723D02*
X109838095Y-87561961D01*
X109838095Y-87561961D02*
X109742857Y-87657200D01*
X109742857Y-87657200D02*
X109600000Y-87704819D01*
X109600000Y-87704819D02*
X109361905Y-87704819D01*
D13*
X108634333Y-83326189D02*
X108634333Y-82945237D01*
X108824809Y-83135713D02*
X108443857Y-83135713D01*
X108562904Y-82540474D02*
X108586714Y-82469046D01*
X108586714Y-82469046D02*
X108610523Y-82445236D01*
X108610523Y-82445236D02*
X108658142Y-82421427D01*
X108658142Y-82421427D02*
X108729571Y-82421427D01*
X108729571Y-82421427D02*
X108777190Y-82445236D01*
X108777190Y-82445236D02*
X108801000Y-82469046D01*
X108801000Y-82469046D02*
X108824809Y-82516665D01*
X108824809Y-82516665D02*
X108824809Y-82707141D01*
X108824809Y-82707141D02*
X108324809Y-82707141D01*
X108324809Y-82707141D02*
X108324809Y-82540474D01*
X108324809Y-82540474D02*
X108348619Y-82492855D01*
X108348619Y-82492855D02*
X108372428Y-82469046D01*
X108372428Y-82469046D02*
X108420047Y-82445236D01*
X108420047Y-82445236D02*
X108467666Y-82445236D01*
X108467666Y-82445236D02*
X108515285Y-82469046D01*
X108515285Y-82469046D02*
X108539095Y-82492855D01*
X108539095Y-82492855D02*
X108562904Y-82540474D01*
X108562904Y-82540474D02*
X108562904Y-82707141D01*
X108681952Y-82230950D02*
X108681952Y-81992855D01*
X108824809Y-82278569D02*
X108324809Y-82111903D01*
X108324809Y-82111903D02*
X108824809Y-81945236D01*
X108324809Y-81849998D02*
X108324809Y-81564284D01*
X108824809Y-81707141D02*
X108324809Y-81707141D01*
X108324809Y-81469046D02*
X108324809Y-81183332D01*
X108824809Y-81326189D02*
X108324809Y-81326189D01*
X108872428Y-81135714D02*
X108872428Y-80754761D01*
X108681952Y-80659523D02*
X108681952Y-80421428D01*
X108824809Y-80707142D02*
X108324809Y-80540476D01*
X108324809Y-80540476D02*
X108824809Y-80373809D01*
X108562904Y-80040476D02*
X108562904Y-80207143D01*
X108824809Y-80207143D02*
X108324809Y-80207143D01*
X108324809Y-80207143D02*
X108324809Y-79969048D01*
X108324809Y-79850000D02*
X108324809Y-79564286D01*
X108824809Y-79707143D02*
X108324809Y-79707143D01*
X108562904Y-79397620D02*
X108562904Y-79230953D01*
X108824809Y-79159525D02*
X108824809Y-79397620D01*
X108824809Y-79397620D02*
X108324809Y-79397620D01*
X108324809Y-79397620D02*
X108324809Y-79159525D01*
X108824809Y-78659525D02*
X108586714Y-78826191D01*
X108824809Y-78945239D02*
X108324809Y-78945239D01*
X108324809Y-78945239D02*
X108324809Y-78754763D01*
X108324809Y-78754763D02*
X108348619Y-78707144D01*
X108348619Y-78707144D02*
X108372428Y-78683334D01*
X108372428Y-78683334D02*
X108420047Y-78659525D01*
X108420047Y-78659525D02*
X108491476Y-78659525D01*
X108491476Y-78659525D02*
X108539095Y-78683334D01*
X108539095Y-78683334D02*
X108562904Y-78707144D01*
X108562904Y-78707144D02*
X108586714Y-78754763D01*
X108586714Y-78754763D02*
X108586714Y-78945239D01*
X108872428Y-78564287D02*
X108872428Y-78183334D01*
X108801000Y-78088096D02*
X108824809Y-78016668D01*
X108824809Y-78016668D02*
X108824809Y-77897620D01*
X108824809Y-77897620D02*
X108801000Y-77850001D01*
X108801000Y-77850001D02*
X108777190Y-77826192D01*
X108777190Y-77826192D02*
X108729571Y-77802382D01*
X108729571Y-77802382D02*
X108681952Y-77802382D01*
X108681952Y-77802382D02*
X108634333Y-77826192D01*
X108634333Y-77826192D02*
X108610523Y-77850001D01*
X108610523Y-77850001D02*
X108586714Y-77897620D01*
X108586714Y-77897620D02*
X108562904Y-77992858D01*
X108562904Y-77992858D02*
X108539095Y-78040477D01*
X108539095Y-78040477D02*
X108515285Y-78064287D01*
X108515285Y-78064287D02*
X108467666Y-78088096D01*
X108467666Y-78088096D02*
X108420047Y-78088096D01*
X108420047Y-78088096D02*
X108372428Y-78064287D01*
X108372428Y-78064287D02*
X108348619Y-78040477D01*
X108348619Y-78040477D02*
X108324809Y-77992858D01*
X108324809Y-77992858D02*
X108324809Y-77873811D01*
X108324809Y-77873811D02*
X108348619Y-77802382D01*
X108824809Y-77588097D02*
X108324809Y-77588097D01*
X108562904Y-77588097D02*
X108562904Y-77302383D01*
X108824809Y-77302383D02*
X108324809Y-77302383D01*
X108324809Y-77064287D02*
X108729571Y-77064287D01*
X108729571Y-77064287D02*
X108777190Y-77040477D01*
X108777190Y-77040477D02*
X108801000Y-77016668D01*
X108801000Y-77016668D02*
X108824809Y-76969049D01*
X108824809Y-76969049D02*
X108824809Y-76873811D01*
X108824809Y-76873811D02*
X108801000Y-76826192D01*
X108801000Y-76826192D02*
X108777190Y-76802382D01*
X108777190Y-76802382D02*
X108729571Y-76778573D01*
X108729571Y-76778573D02*
X108324809Y-76778573D01*
X108824809Y-76540477D02*
X108324809Y-76540477D01*
X108324809Y-76540477D02*
X108824809Y-76254763D01*
X108824809Y-76254763D02*
X108324809Y-76254763D01*
X108324809Y-76088095D02*
X108324809Y-75802381D01*
X108824809Y-75945238D02*
X108324809Y-75945238D01*
D12*
X119947618Y-91654819D02*
X119614285Y-91178628D01*
X119376190Y-91654819D02*
X119376190Y-90654819D01*
X119376190Y-90654819D02*
X119757142Y-90654819D01*
X119757142Y-90654819D02*
X119852380Y-90702438D01*
X119852380Y-90702438D02*
X119899999Y-90750057D01*
X119899999Y-90750057D02*
X119947618Y-90845295D01*
X119947618Y-90845295D02*
X119947618Y-90988152D01*
X119947618Y-90988152D02*
X119899999Y-91083390D01*
X119899999Y-91083390D02*
X119852380Y-91131009D01*
X119852380Y-91131009D02*
X119757142Y-91178628D01*
X119757142Y-91178628D02*
X119376190Y-91178628D01*
X120376190Y-91131009D02*
X120709523Y-91131009D01*
X120852380Y-91654819D02*
X120376190Y-91654819D01*
X120376190Y-91654819D02*
X120376190Y-90654819D01*
X120376190Y-90654819D02*
X120852380Y-90654819D01*
X121233333Y-91607200D02*
X121376190Y-91654819D01*
X121376190Y-91654819D02*
X121614285Y-91654819D01*
X121614285Y-91654819D02*
X121709523Y-91607200D01*
X121709523Y-91607200D02*
X121757142Y-91559580D01*
X121757142Y-91559580D02*
X121804761Y-91464342D01*
X121804761Y-91464342D02*
X121804761Y-91369104D01*
X121804761Y-91369104D02*
X121757142Y-91273866D01*
X121757142Y-91273866D02*
X121709523Y-91226247D01*
X121709523Y-91226247D02*
X121614285Y-91178628D01*
X121614285Y-91178628D02*
X121423809Y-91131009D01*
X121423809Y-91131009D02*
X121328571Y-91083390D01*
X121328571Y-91083390D02*
X121280952Y-91035771D01*
X121280952Y-91035771D02*
X121233333Y-90940533D01*
X121233333Y-90940533D02*
X121233333Y-90845295D01*
X121233333Y-90845295D02*
X121280952Y-90750057D01*
X121280952Y-90750057D02*
X121328571Y-90702438D01*
X121328571Y-90702438D02*
X121423809Y-90654819D01*
X121423809Y-90654819D02*
X121661904Y-90654819D01*
X121661904Y-90654819D02*
X121804761Y-90702438D01*
X122233333Y-91131009D02*
X122566666Y-91131009D01*
X122709523Y-91654819D02*
X122233333Y-91654819D01*
X122233333Y-91654819D02*
X122233333Y-90654819D01*
X122233333Y-90654819D02*
X122709523Y-90654819D01*
X122995238Y-90654819D02*
X123566666Y-90654819D01*
X123280952Y-91654819D02*
X123280952Y-90654819D01*
X96302438Y-65961904D02*
X96254819Y-66057142D01*
X96254819Y-66057142D02*
X96254819Y-66199999D01*
X96254819Y-66199999D02*
X96302438Y-66342856D01*
X96302438Y-66342856D02*
X96397676Y-66438094D01*
X96397676Y-66438094D02*
X96492914Y-66485713D01*
X96492914Y-66485713D02*
X96683390Y-66533332D01*
X96683390Y-66533332D02*
X96826247Y-66533332D01*
X96826247Y-66533332D02*
X97016723Y-66485713D01*
X97016723Y-66485713D02*
X97111961Y-66438094D01*
X97111961Y-66438094D02*
X97207200Y-66342856D01*
X97207200Y-66342856D02*
X97254819Y-66199999D01*
X97254819Y-66199999D02*
X97254819Y-66104761D01*
X97254819Y-66104761D02*
X97207200Y-65961904D01*
X97207200Y-65961904D02*
X97159580Y-65914285D01*
X97159580Y-65914285D02*
X96826247Y-65914285D01*
X96826247Y-65914285D02*
X96826247Y-66104761D01*
X97254819Y-65485713D02*
X96254819Y-65485713D01*
X96254819Y-65485713D02*
X97254819Y-64914285D01*
X97254819Y-64914285D02*
X96254819Y-64914285D01*
X97254819Y-64438094D02*
X96254819Y-64438094D01*
X96254819Y-64438094D02*
X96254819Y-64199999D01*
X96254819Y-64199999D02*
X96302438Y-64057142D01*
X96302438Y-64057142D02*
X96397676Y-63961904D01*
X96397676Y-63961904D02*
X96492914Y-63914285D01*
X96492914Y-63914285D02*
X96683390Y-63866666D01*
X96683390Y-63866666D02*
X96826247Y-63866666D01*
X96826247Y-63866666D02*
X97016723Y-63914285D01*
X97016723Y-63914285D02*
X97111961Y-63961904D01*
X97111961Y-63961904D02*
X97207200Y-64057142D01*
X97207200Y-64057142D02*
X97254819Y-64199999D01*
X97254819Y-64199999D02*
X97254819Y-64438094D01*
X107238095Y-63654819D02*
X107238095Y-64464342D01*
X107238095Y-64464342D02*
X107285714Y-64559580D01*
X107285714Y-64559580D02*
X107333333Y-64607200D01*
X107333333Y-64607200D02*
X107428571Y-64654819D01*
X107428571Y-64654819D02*
X107619047Y-64654819D01*
X107619047Y-64654819D02*
X107714285Y-64607200D01*
X107714285Y-64607200D02*
X107761904Y-64559580D01*
X107761904Y-64559580D02*
X107809523Y-64464342D01*
X107809523Y-64464342D02*
X107809523Y-63654819D01*
X108238095Y-63750057D02*
X108285714Y-63702438D01*
X108285714Y-63702438D02*
X108380952Y-63654819D01*
X108380952Y-63654819D02*
X108619047Y-63654819D01*
X108619047Y-63654819D02*
X108714285Y-63702438D01*
X108714285Y-63702438D02*
X108761904Y-63750057D01*
X108761904Y-63750057D02*
X108809523Y-63845295D01*
X108809523Y-63845295D02*
X108809523Y-63940533D01*
X108809523Y-63940533D02*
X108761904Y-64083390D01*
X108761904Y-64083390D02*
X108190476Y-64654819D01*
X108190476Y-64654819D02*
X108809523Y-64654819D01*
X107633333Y-60159580D02*
X107585714Y-60207200D01*
X107585714Y-60207200D02*
X107442857Y-60254819D01*
X107442857Y-60254819D02*
X107347619Y-60254819D01*
X107347619Y-60254819D02*
X107204762Y-60207200D01*
X107204762Y-60207200D02*
X107109524Y-60111961D01*
X107109524Y-60111961D02*
X107061905Y-60016723D01*
X107061905Y-60016723D02*
X107014286Y-59826247D01*
X107014286Y-59826247D02*
X107014286Y-59683390D01*
X107014286Y-59683390D02*
X107061905Y-59492914D01*
X107061905Y-59492914D02*
X107109524Y-59397676D01*
X107109524Y-59397676D02*
X107204762Y-59302438D01*
X107204762Y-59302438D02*
X107347619Y-59254819D01*
X107347619Y-59254819D02*
X107442857Y-59254819D01*
X107442857Y-59254819D02*
X107585714Y-59302438D01*
X107585714Y-59302438D02*
X107633333Y-59350057D01*
X107966667Y-59254819D02*
X108585714Y-59254819D01*
X108585714Y-59254819D02*
X108252381Y-59635771D01*
X108252381Y-59635771D02*
X108395238Y-59635771D01*
X108395238Y-59635771D02*
X108490476Y-59683390D01*
X108490476Y-59683390D02*
X108538095Y-59731009D01*
X108538095Y-59731009D02*
X108585714Y-59826247D01*
X108585714Y-59826247D02*
X108585714Y-60064342D01*
X108585714Y-60064342D02*
X108538095Y-60159580D01*
X108538095Y-60159580D02*
X108490476Y-60207200D01*
X108490476Y-60207200D02*
X108395238Y-60254819D01*
X108395238Y-60254819D02*
X108109524Y-60254819D01*
X108109524Y-60254819D02*
X108014286Y-60207200D01*
X108014286Y-60207200D02*
X107966667Y-60159580D01*
X102633333Y-50654819D02*
X102300000Y-50178628D01*
X102061905Y-50654819D02*
X102061905Y-49654819D01*
X102061905Y-49654819D02*
X102442857Y-49654819D01*
X102442857Y-49654819D02*
X102538095Y-49702438D01*
X102538095Y-49702438D02*
X102585714Y-49750057D01*
X102585714Y-49750057D02*
X102633333Y-49845295D01*
X102633333Y-49845295D02*
X102633333Y-49988152D01*
X102633333Y-49988152D02*
X102585714Y-50083390D01*
X102585714Y-50083390D02*
X102538095Y-50131009D01*
X102538095Y-50131009D02*
X102442857Y-50178628D01*
X102442857Y-50178628D02*
X102061905Y-50178628D01*
X103490476Y-49988152D02*
X103490476Y-50654819D01*
X103252381Y-49607200D02*
X103014286Y-50321485D01*
X103014286Y-50321485D02*
X103633333Y-50321485D01*
X104833333Y-50654819D02*
X104500000Y-50178628D01*
X104261905Y-50654819D02*
X104261905Y-49654819D01*
X104261905Y-49654819D02*
X104642857Y-49654819D01*
X104642857Y-49654819D02*
X104738095Y-49702438D01*
X104738095Y-49702438D02*
X104785714Y-49750057D01*
X104785714Y-49750057D02*
X104833333Y-49845295D01*
X104833333Y-49845295D02*
X104833333Y-49988152D01*
X104833333Y-49988152D02*
X104785714Y-50083390D01*
X104785714Y-50083390D02*
X104738095Y-50131009D01*
X104738095Y-50131009D02*
X104642857Y-50178628D01*
X104642857Y-50178628D02*
X104261905Y-50178628D01*
X105166667Y-49654819D02*
X105785714Y-49654819D01*
X105785714Y-49654819D02*
X105452381Y-50035771D01*
X105452381Y-50035771D02*
X105595238Y-50035771D01*
X105595238Y-50035771D02*
X105690476Y-50083390D01*
X105690476Y-50083390D02*
X105738095Y-50131009D01*
X105738095Y-50131009D02*
X105785714Y-50226247D01*
X105785714Y-50226247D02*
X105785714Y-50464342D01*
X105785714Y-50464342D02*
X105738095Y-50559580D01*
X105738095Y-50559580D02*
X105690476Y-50607200D01*
X105690476Y-50607200D02*
X105595238Y-50654819D01*
X105595238Y-50654819D02*
X105309524Y-50654819D01*
X105309524Y-50654819D02*
X105214286Y-50607200D01*
X105214286Y-50607200D02*
X105166667Y-50559580D01*
X124757142Y-86529819D02*
X124423809Y-86053628D01*
X124185714Y-86529819D02*
X124185714Y-85529819D01*
X124185714Y-85529819D02*
X124566666Y-85529819D01*
X124566666Y-85529819D02*
X124661904Y-85577438D01*
X124661904Y-85577438D02*
X124709523Y-85625057D01*
X124709523Y-85625057D02*
X124757142Y-85720295D01*
X124757142Y-85720295D02*
X124757142Y-85863152D01*
X124757142Y-85863152D02*
X124709523Y-85958390D01*
X124709523Y-85958390D02*
X124661904Y-86006009D01*
X124661904Y-86006009D02*
X124566666Y-86053628D01*
X124566666Y-86053628D02*
X124185714Y-86053628D01*
X125709523Y-86529819D02*
X125138095Y-86529819D01*
X125423809Y-86529819D02*
X125423809Y-85529819D01*
X125423809Y-85529819D02*
X125328571Y-85672676D01*
X125328571Y-85672676D02*
X125233333Y-85767914D01*
X125233333Y-85767914D02*
X125138095Y-85815533D01*
X126185714Y-86529819D02*
X126376190Y-86529819D01*
X126376190Y-86529819D02*
X126471428Y-86482200D01*
X126471428Y-86482200D02*
X126519047Y-86434580D01*
X126519047Y-86434580D02*
X126614285Y-86291723D01*
X126614285Y-86291723D02*
X126661904Y-86101247D01*
X126661904Y-86101247D02*
X126661904Y-85720295D01*
X126661904Y-85720295D02*
X126614285Y-85625057D01*
X126614285Y-85625057D02*
X126566666Y-85577438D01*
X126566666Y-85577438D02*
X126471428Y-85529819D01*
X126471428Y-85529819D02*
X126280952Y-85529819D01*
X126280952Y-85529819D02*
X126185714Y-85577438D01*
X126185714Y-85577438D02*
X126138095Y-85625057D01*
X126138095Y-85625057D02*
X126090476Y-85720295D01*
X126090476Y-85720295D02*
X126090476Y-85958390D01*
X126090476Y-85958390D02*
X126138095Y-86053628D01*
X126138095Y-86053628D02*
X126185714Y-86101247D01*
X126185714Y-86101247D02*
X126280952Y-86148866D01*
X126280952Y-86148866D02*
X126471428Y-86148866D01*
X126471428Y-86148866D02*
X126566666Y-86101247D01*
X126566666Y-86101247D02*
X126614285Y-86053628D01*
X126614285Y-86053628D02*
X126661904Y-85958390D01*
X128357142Y-91654819D02*
X128023809Y-91178628D01*
X127785714Y-91654819D02*
X127785714Y-90654819D01*
X127785714Y-90654819D02*
X128166666Y-90654819D01*
X128166666Y-90654819D02*
X128261904Y-90702438D01*
X128261904Y-90702438D02*
X128309523Y-90750057D01*
X128309523Y-90750057D02*
X128357142Y-90845295D01*
X128357142Y-90845295D02*
X128357142Y-90988152D01*
X128357142Y-90988152D02*
X128309523Y-91083390D01*
X128309523Y-91083390D02*
X128261904Y-91131009D01*
X128261904Y-91131009D02*
X128166666Y-91178628D01*
X128166666Y-91178628D02*
X127785714Y-91178628D01*
X128738095Y-90750057D02*
X128785714Y-90702438D01*
X128785714Y-90702438D02*
X128880952Y-90654819D01*
X128880952Y-90654819D02*
X129119047Y-90654819D01*
X129119047Y-90654819D02*
X129214285Y-90702438D01*
X129214285Y-90702438D02*
X129261904Y-90750057D01*
X129261904Y-90750057D02*
X129309523Y-90845295D01*
X129309523Y-90845295D02*
X129309523Y-90940533D01*
X129309523Y-90940533D02*
X129261904Y-91083390D01*
X129261904Y-91083390D02*
X128690476Y-91654819D01*
X128690476Y-91654819D02*
X129309523Y-91654819D01*
X129690476Y-90750057D02*
X129738095Y-90702438D01*
X129738095Y-90702438D02*
X129833333Y-90654819D01*
X129833333Y-90654819D02*
X130071428Y-90654819D01*
X130071428Y-90654819D02*
X130166666Y-90702438D01*
X130166666Y-90702438D02*
X130214285Y-90750057D01*
X130214285Y-90750057D02*
X130261904Y-90845295D01*
X130261904Y-90845295D02*
X130261904Y-90940533D01*
X130261904Y-90940533D02*
X130214285Y-91083390D01*
X130214285Y-91083390D02*
X129642857Y-91654819D01*
X129642857Y-91654819D02*
X130261904Y-91654819D01*
X136159580Y-58242857D02*
X136207200Y-58290476D01*
X136207200Y-58290476D02*
X136254819Y-58433333D01*
X136254819Y-58433333D02*
X136254819Y-58528571D01*
X136254819Y-58528571D02*
X136207200Y-58671428D01*
X136207200Y-58671428D02*
X136111961Y-58766666D01*
X136111961Y-58766666D02*
X136016723Y-58814285D01*
X136016723Y-58814285D02*
X135826247Y-58861904D01*
X135826247Y-58861904D02*
X135683390Y-58861904D01*
X135683390Y-58861904D02*
X135492914Y-58814285D01*
X135492914Y-58814285D02*
X135397676Y-58766666D01*
X135397676Y-58766666D02*
X135302438Y-58671428D01*
X135302438Y-58671428D02*
X135254819Y-58528571D01*
X135254819Y-58528571D02*
X135254819Y-58433333D01*
X135254819Y-58433333D02*
X135302438Y-58290476D01*
X135302438Y-58290476D02*
X135350057Y-58242857D01*
X136254819Y-57290476D02*
X136254819Y-57861904D01*
X136254819Y-57576190D02*
X135254819Y-57576190D01*
X135254819Y-57576190D02*
X135397676Y-57671428D01*
X135397676Y-57671428D02*
X135492914Y-57766666D01*
X135492914Y-57766666D02*
X135540533Y-57861904D01*
X135254819Y-56385714D02*
X135254819Y-56861904D01*
X135254819Y-56861904D02*
X135731009Y-56909523D01*
X135731009Y-56909523D02*
X135683390Y-56861904D01*
X135683390Y-56861904D02*
X135635771Y-56766666D01*
X135635771Y-56766666D02*
X135635771Y-56528571D01*
X135635771Y-56528571D02*
X135683390Y-56433333D01*
X135683390Y-56433333D02*
X135731009Y-56385714D01*
X135731009Y-56385714D02*
X135826247Y-56338095D01*
X135826247Y-56338095D02*
X136064342Y-56338095D01*
X136064342Y-56338095D02*
X136159580Y-56385714D01*
X136159580Y-56385714D02*
X136207200Y-56433333D01*
X136207200Y-56433333D02*
X136254819Y-56528571D01*
X136254819Y-56528571D02*
X136254819Y-56766666D01*
X136254819Y-56766666D02*
X136207200Y-56861904D01*
X136207200Y-56861904D02*
X136159580Y-56909523D01*
X148954819Y-53142857D02*
X148478628Y-53476190D01*
X148954819Y-53714285D02*
X147954819Y-53714285D01*
X147954819Y-53714285D02*
X147954819Y-53333333D01*
X147954819Y-53333333D02*
X148002438Y-53238095D01*
X148002438Y-53238095D02*
X148050057Y-53190476D01*
X148050057Y-53190476D02*
X148145295Y-53142857D01*
X148145295Y-53142857D02*
X148288152Y-53142857D01*
X148288152Y-53142857D02*
X148383390Y-53190476D01*
X148383390Y-53190476D02*
X148431009Y-53238095D01*
X148431009Y-53238095D02*
X148478628Y-53333333D01*
X148478628Y-53333333D02*
X148478628Y-53714285D01*
X148954819Y-52190476D02*
X148954819Y-52761904D01*
X148954819Y-52476190D02*
X147954819Y-52476190D01*
X147954819Y-52476190D02*
X148097676Y-52571428D01*
X148097676Y-52571428D02*
X148192914Y-52666666D01*
X148192914Y-52666666D02*
X148240533Y-52761904D01*
X148050057Y-51809523D02*
X148002438Y-51761904D01*
X148002438Y-51761904D02*
X147954819Y-51666666D01*
X147954819Y-51666666D02*
X147954819Y-51428571D01*
X147954819Y-51428571D02*
X148002438Y-51333333D01*
X148002438Y-51333333D02*
X148050057Y-51285714D01*
X148050057Y-51285714D02*
X148145295Y-51238095D01*
X148145295Y-51238095D02*
X148240533Y-51238095D01*
X148240533Y-51238095D02*
X148383390Y-51285714D01*
X148383390Y-51285714D02*
X148954819Y-51857142D01*
X148954819Y-51857142D02*
X148954819Y-51238095D01*
X154204819Y-53067857D02*
X153728628Y-53401190D01*
X154204819Y-53639285D02*
X153204819Y-53639285D01*
X153204819Y-53639285D02*
X153204819Y-53258333D01*
X153204819Y-53258333D02*
X153252438Y-53163095D01*
X153252438Y-53163095D02*
X153300057Y-53115476D01*
X153300057Y-53115476D02*
X153395295Y-53067857D01*
X153395295Y-53067857D02*
X153538152Y-53067857D01*
X153538152Y-53067857D02*
X153633390Y-53115476D01*
X153633390Y-53115476D02*
X153681009Y-53163095D01*
X153681009Y-53163095D02*
X153728628Y-53258333D01*
X153728628Y-53258333D02*
X153728628Y-53639285D01*
X154204819Y-52115476D02*
X154204819Y-52686904D01*
X154204819Y-52401190D02*
X153204819Y-52401190D01*
X153204819Y-52401190D02*
X153347676Y-52496428D01*
X153347676Y-52496428D02*
X153442914Y-52591666D01*
X153442914Y-52591666D02*
X153490533Y-52686904D01*
X153204819Y-51782142D02*
X153204819Y-51163095D01*
X153204819Y-51163095D02*
X153585771Y-51496428D01*
X153585771Y-51496428D02*
X153585771Y-51353571D01*
X153585771Y-51353571D02*
X153633390Y-51258333D01*
X153633390Y-51258333D02*
X153681009Y-51210714D01*
X153681009Y-51210714D02*
X153776247Y-51163095D01*
X153776247Y-51163095D02*
X154014342Y-51163095D01*
X154014342Y-51163095D02*
X154109580Y-51210714D01*
X154109580Y-51210714D02*
X154157200Y-51258333D01*
X154157200Y-51258333D02*
X154204819Y-51353571D01*
X154204819Y-51353571D02*
X154204819Y-51639285D01*
X154204819Y-51639285D02*
X154157200Y-51734523D01*
X154157200Y-51734523D02*
X154109580Y-51782142D01*
X152339580Y-52957857D02*
X152387200Y-53005476D01*
X152387200Y-53005476D02*
X152434819Y-53148333D01*
X152434819Y-53148333D02*
X152434819Y-53243571D01*
X152434819Y-53243571D02*
X152387200Y-53386428D01*
X152387200Y-53386428D02*
X152291961Y-53481666D01*
X152291961Y-53481666D02*
X152196723Y-53529285D01*
X152196723Y-53529285D02*
X152006247Y-53576904D01*
X152006247Y-53576904D02*
X151863390Y-53576904D01*
X151863390Y-53576904D02*
X151672914Y-53529285D01*
X151672914Y-53529285D02*
X151577676Y-53481666D01*
X151577676Y-53481666D02*
X151482438Y-53386428D01*
X151482438Y-53386428D02*
X151434819Y-53243571D01*
X151434819Y-53243571D02*
X151434819Y-53148333D01*
X151434819Y-53148333D02*
X151482438Y-53005476D01*
X151482438Y-53005476D02*
X151530057Y-52957857D01*
X151530057Y-52576904D02*
X151482438Y-52529285D01*
X151482438Y-52529285D02*
X151434819Y-52434047D01*
X151434819Y-52434047D02*
X151434819Y-52195952D01*
X151434819Y-52195952D02*
X151482438Y-52100714D01*
X151482438Y-52100714D02*
X151530057Y-52053095D01*
X151530057Y-52053095D02*
X151625295Y-52005476D01*
X151625295Y-52005476D02*
X151720533Y-52005476D01*
X151720533Y-52005476D02*
X151863390Y-52053095D01*
X151863390Y-52053095D02*
X152434819Y-52624523D01*
X152434819Y-52624523D02*
X152434819Y-52005476D01*
X151434819Y-51672142D02*
X151434819Y-51005476D01*
X151434819Y-51005476D02*
X152434819Y-51434047D01*
X146917319Y-52892857D02*
X146441128Y-53226190D01*
X146917319Y-53464285D02*
X145917319Y-53464285D01*
X145917319Y-53464285D02*
X145917319Y-53083333D01*
X145917319Y-53083333D02*
X145964938Y-52988095D01*
X145964938Y-52988095D02*
X146012557Y-52940476D01*
X146012557Y-52940476D02*
X146107795Y-52892857D01*
X146107795Y-52892857D02*
X146250652Y-52892857D01*
X146250652Y-52892857D02*
X146345890Y-52940476D01*
X146345890Y-52940476D02*
X146393509Y-52988095D01*
X146393509Y-52988095D02*
X146441128Y-53083333D01*
X146441128Y-53083333D02*
X146441128Y-53464285D01*
X146917319Y-51940476D02*
X146917319Y-52511904D01*
X146917319Y-52226190D02*
X145917319Y-52226190D01*
X145917319Y-52226190D02*
X146060176Y-52321428D01*
X146060176Y-52321428D02*
X146155414Y-52416666D01*
X146155414Y-52416666D02*
X146203033Y-52511904D01*
X146250652Y-51083333D02*
X146917319Y-51083333D01*
X145869700Y-51321428D02*
X146583985Y-51559523D01*
X146583985Y-51559523D02*
X146583985Y-50940476D01*
X142954819Y-53067857D02*
X142478628Y-53401190D01*
X142954819Y-53639285D02*
X141954819Y-53639285D01*
X141954819Y-53639285D02*
X141954819Y-53258333D01*
X141954819Y-53258333D02*
X142002438Y-53163095D01*
X142002438Y-53163095D02*
X142050057Y-53115476D01*
X142050057Y-53115476D02*
X142145295Y-53067857D01*
X142145295Y-53067857D02*
X142288152Y-53067857D01*
X142288152Y-53067857D02*
X142383390Y-53115476D01*
X142383390Y-53115476D02*
X142431009Y-53163095D01*
X142431009Y-53163095D02*
X142478628Y-53258333D01*
X142478628Y-53258333D02*
X142478628Y-53639285D01*
X142954819Y-52115476D02*
X142954819Y-52686904D01*
X142954819Y-52401190D02*
X141954819Y-52401190D01*
X141954819Y-52401190D02*
X142097676Y-52496428D01*
X142097676Y-52496428D02*
X142192914Y-52591666D01*
X142192914Y-52591666D02*
X142240533Y-52686904D01*
X141954819Y-51496428D02*
X141954819Y-51401190D01*
X141954819Y-51401190D02*
X142002438Y-51305952D01*
X142002438Y-51305952D02*
X142050057Y-51258333D01*
X142050057Y-51258333D02*
X142145295Y-51210714D01*
X142145295Y-51210714D02*
X142335771Y-51163095D01*
X142335771Y-51163095D02*
X142573866Y-51163095D01*
X142573866Y-51163095D02*
X142764342Y-51210714D01*
X142764342Y-51210714D02*
X142859580Y-51258333D01*
X142859580Y-51258333D02*
X142907200Y-51305952D01*
X142907200Y-51305952D02*
X142954819Y-51401190D01*
X142954819Y-51401190D02*
X142954819Y-51496428D01*
X142954819Y-51496428D02*
X142907200Y-51591666D01*
X142907200Y-51591666D02*
X142859580Y-51639285D01*
X142859580Y-51639285D02*
X142764342Y-51686904D01*
X142764342Y-51686904D02*
X142573866Y-51734523D01*
X142573866Y-51734523D02*
X142335771Y-51734523D01*
X142335771Y-51734523D02*
X142145295Y-51686904D01*
X142145295Y-51686904D02*
X142050057Y-51639285D01*
X142050057Y-51639285D02*
X142002438Y-51591666D01*
X142002438Y-51591666D02*
X141954819Y-51496428D01*
X150609580Y-52980357D02*
X150657200Y-53027976D01*
X150657200Y-53027976D02*
X150704819Y-53170833D01*
X150704819Y-53170833D02*
X150704819Y-53266071D01*
X150704819Y-53266071D02*
X150657200Y-53408928D01*
X150657200Y-53408928D02*
X150561961Y-53504166D01*
X150561961Y-53504166D02*
X150466723Y-53551785D01*
X150466723Y-53551785D02*
X150276247Y-53599404D01*
X150276247Y-53599404D02*
X150133390Y-53599404D01*
X150133390Y-53599404D02*
X149942914Y-53551785D01*
X149942914Y-53551785D02*
X149847676Y-53504166D01*
X149847676Y-53504166D02*
X149752438Y-53408928D01*
X149752438Y-53408928D02*
X149704819Y-53266071D01*
X149704819Y-53266071D02*
X149704819Y-53170833D01*
X149704819Y-53170833D02*
X149752438Y-53027976D01*
X149752438Y-53027976D02*
X149800057Y-52980357D01*
X149800057Y-52599404D02*
X149752438Y-52551785D01*
X149752438Y-52551785D02*
X149704819Y-52456547D01*
X149704819Y-52456547D02*
X149704819Y-52218452D01*
X149704819Y-52218452D02*
X149752438Y-52123214D01*
X149752438Y-52123214D02*
X149800057Y-52075595D01*
X149800057Y-52075595D02*
X149895295Y-52027976D01*
X149895295Y-52027976D02*
X149990533Y-52027976D01*
X149990533Y-52027976D02*
X150133390Y-52075595D01*
X150133390Y-52075595D02*
X150704819Y-52647023D01*
X150704819Y-52647023D02*
X150704819Y-52027976D01*
X150704819Y-51075595D02*
X150704819Y-51647023D01*
X150704819Y-51361309D02*
X149704819Y-51361309D01*
X149704819Y-51361309D02*
X149847676Y-51456547D01*
X149847676Y-51456547D02*
X149942914Y-51551785D01*
X149942914Y-51551785D02*
X149990533Y-51647023D01*
X144859580Y-53142857D02*
X144907200Y-53190476D01*
X144907200Y-53190476D02*
X144954819Y-53333333D01*
X144954819Y-53333333D02*
X144954819Y-53428571D01*
X144954819Y-53428571D02*
X144907200Y-53571428D01*
X144907200Y-53571428D02*
X144811961Y-53666666D01*
X144811961Y-53666666D02*
X144716723Y-53714285D01*
X144716723Y-53714285D02*
X144526247Y-53761904D01*
X144526247Y-53761904D02*
X144383390Y-53761904D01*
X144383390Y-53761904D02*
X144192914Y-53714285D01*
X144192914Y-53714285D02*
X144097676Y-53666666D01*
X144097676Y-53666666D02*
X144002438Y-53571428D01*
X144002438Y-53571428D02*
X143954819Y-53428571D01*
X143954819Y-53428571D02*
X143954819Y-53333333D01*
X143954819Y-53333333D02*
X144002438Y-53190476D01*
X144002438Y-53190476D02*
X144050057Y-53142857D01*
X144954819Y-52190476D02*
X144954819Y-52761904D01*
X144954819Y-52476190D02*
X143954819Y-52476190D01*
X143954819Y-52476190D02*
X144097676Y-52571428D01*
X144097676Y-52571428D02*
X144192914Y-52666666D01*
X144192914Y-52666666D02*
X144240533Y-52761904D01*
X144954819Y-51238095D02*
X144954819Y-51809523D01*
X144954819Y-51523809D02*
X143954819Y-51523809D01*
X143954819Y-51523809D02*
X144097676Y-51619047D01*
X144097676Y-51619047D02*
X144192914Y-51714285D01*
X144192914Y-51714285D02*
X144240533Y-51809523D01*
X107061905Y-68854819D02*
X107061905Y-67854819D01*
X107061905Y-67854819D02*
X107300000Y-67854819D01*
X107300000Y-67854819D02*
X107442857Y-67902438D01*
X107442857Y-67902438D02*
X107538095Y-67997676D01*
X107538095Y-67997676D02*
X107585714Y-68092914D01*
X107585714Y-68092914D02*
X107633333Y-68283390D01*
X107633333Y-68283390D02*
X107633333Y-68426247D01*
X107633333Y-68426247D02*
X107585714Y-68616723D01*
X107585714Y-68616723D02*
X107538095Y-68711961D01*
X107538095Y-68711961D02*
X107442857Y-68807200D01*
X107442857Y-68807200D02*
X107300000Y-68854819D01*
X107300000Y-68854819D02*
X107061905Y-68854819D01*
X108490476Y-68188152D02*
X108490476Y-68854819D01*
X108252381Y-67807200D02*
X108014286Y-68521485D01*
X108014286Y-68521485D02*
X108633333Y-68521485D01*
X107061905Y-70654819D02*
X107061905Y-69654819D01*
X107061905Y-69654819D02*
X107300000Y-69654819D01*
X107300000Y-69654819D02*
X107442857Y-69702438D01*
X107442857Y-69702438D02*
X107538095Y-69797676D01*
X107538095Y-69797676D02*
X107585714Y-69892914D01*
X107585714Y-69892914D02*
X107633333Y-70083390D01*
X107633333Y-70083390D02*
X107633333Y-70226247D01*
X107633333Y-70226247D02*
X107585714Y-70416723D01*
X107585714Y-70416723D02*
X107538095Y-70511961D01*
X107538095Y-70511961D02*
X107442857Y-70607200D01*
X107442857Y-70607200D02*
X107300000Y-70654819D01*
X107300000Y-70654819D02*
X107061905Y-70654819D01*
X107966667Y-69654819D02*
X108585714Y-69654819D01*
X108585714Y-69654819D02*
X108252381Y-70035771D01*
X108252381Y-70035771D02*
X108395238Y-70035771D01*
X108395238Y-70035771D02*
X108490476Y-70083390D01*
X108490476Y-70083390D02*
X108538095Y-70131009D01*
X108538095Y-70131009D02*
X108585714Y-70226247D01*
X108585714Y-70226247D02*
X108585714Y-70464342D01*
X108585714Y-70464342D02*
X108538095Y-70559580D01*
X108538095Y-70559580D02*
X108490476Y-70607200D01*
X108490476Y-70607200D02*
X108395238Y-70654819D01*
X108395238Y-70654819D02*
X108109524Y-70654819D01*
X108109524Y-70654819D02*
X108014286Y-70607200D01*
X108014286Y-70607200D02*
X107966667Y-70559580D01*
D13*
X96434333Y-85557142D02*
X96434333Y-85176190D01*
X96624809Y-85366666D02*
X96243857Y-85366666D01*
X96362904Y-84771427D02*
X96386714Y-84699999D01*
X96386714Y-84699999D02*
X96410523Y-84676189D01*
X96410523Y-84676189D02*
X96458142Y-84652380D01*
X96458142Y-84652380D02*
X96529571Y-84652380D01*
X96529571Y-84652380D02*
X96577190Y-84676189D01*
X96577190Y-84676189D02*
X96601000Y-84699999D01*
X96601000Y-84699999D02*
X96624809Y-84747618D01*
X96624809Y-84747618D02*
X96624809Y-84938094D01*
X96624809Y-84938094D02*
X96124809Y-84938094D01*
X96124809Y-84938094D02*
X96124809Y-84771427D01*
X96124809Y-84771427D02*
X96148619Y-84723808D01*
X96148619Y-84723808D02*
X96172428Y-84699999D01*
X96172428Y-84699999D02*
X96220047Y-84676189D01*
X96220047Y-84676189D02*
X96267666Y-84676189D01*
X96267666Y-84676189D02*
X96315285Y-84699999D01*
X96315285Y-84699999D02*
X96339095Y-84723808D01*
X96339095Y-84723808D02*
X96362904Y-84771427D01*
X96362904Y-84771427D02*
X96362904Y-84938094D01*
X96481952Y-84461903D02*
X96481952Y-84223808D01*
X96624809Y-84509522D02*
X96124809Y-84342856D01*
X96124809Y-84342856D02*
X96624809Y-84176189D01*
X96124809Y-84080951D02*
X96124809Y-83795237D01*
X96624809Y-83938094D02*
X96124809Y-83938094D01*
X96124809Y-83699999D02*
X96124809Y-83414285D01*
X96624809Y-83557142D02*
X96124809Y-83557142D01*
X96672428Y-83366667D02*
X96672428Y-82985714D01*
X96624809Y-82866667D02*
X96124809Y-82866667D01*
X96124809Y-82866667D02*
X96124809Y-82676191D01*
X96124809Y-82676191D02*
X96148619Y-82628572D01*
X96148619Y-82628572D02*
X96172428Y-82604762D01*
X96172428Y-82604762D02*
X96220047Y-82580953D01*
X96220047Y-82580953D02*
X96291476Y-82580953D01*
X96291476Y-82580953D02*
X96339095Y-82604762D01*
X96339095Y-82604762D02*
X96362904Y-82628572D01*
X96362904Y-82628572D02*
X96386714Y-82676191D01*
X96386714Y-82676191D02*
X96386714Y-82866667D01*
X96624809Y-82080953D02*
X96386714Y-82247619D01*
X96624809Y-82366667D02*
X96124809Y-82366667D01*
X96124809Y-82366667D02*
X96124809Y-82176191D01*
X96124809Y-82176191D02*
X96148619Y-82128572D01*
X96148619Y-82128572D02*
X96172428Y-82104762D01*
X96172428Y-82104762D02*
X96220047Y-82080953D01*
X96220047Y-82080953D02*
X96291476Y-82080953D01*
X96291476Y-82080953D02*
X96339095Y-82104762D01*
X96339095Y-82104762D02*
X96362904Y-82128572D01*
X96362904Y-82128572D02*
X96386714Y-82176191D01*
X96386714Y-82176191D02*
X96386714Y-82366667D01*
X96362904Y-81866667D02*
X96362904Y-81700000D01*
X96624809Y-81628572D02*
X96624809Y-81866667D01*
X96624809Y-81866667D02*
X96124809Y-81866667D01*
X96124809Y-81866667D02*
X96124809Y-81628572D01*
X96672428Y-81533334D02*
X96672428Y-81152381D01*
X96601000Y-81057143D02*
X96624809Y-80985715D01*
X96624809Y-80985715D02*
X96624809Y-80866667D01*
X96624809Y-80866667D02*
X96601000Y-80819048D01*
X96601000Y-80819048D02*
X96577190Y-80795239D01*
X96577190Y-80795239D02*
X96529571Y-80771429D01*
X96529571Y-80771429D02*
X96481952Y-80771429D01*
X96481952Y-80771429D02*
X96434333Y-80795239D01*
X96434333Y-80795239D02*
X96410523Y-80819048D01*
X96410523Y-80819048D02*
X96386714Y-80866667D01*
X96386714Y-80866667D02*
X96362904Y-80961905D01*
X96362904Y-80961905D02*
X96339095Y-81009524D01*
X96339095Y-81009524D02*
X96315285Y-81033334D01*
X96315285Y-81033334D02*
X96267666Y-81057143D01*
X96267666Y-81057143D02*
X96220047Y-81057143D01*
X96220047Y-81057143D02*
X96172428Y-81033334D01*
X96172428Y-81033334D02*
X96148619Y-81009524D01*
X96148619Y-81009524D02*
X96124809Y-80961905D01*
X96124809Y-80961905D02*
X96124809Y-80842858D01*
X96124809Y-80842858D02*
X96148619Y-80771429D01*
X96624809Y-80557144D02*
X96124809Y-80557144D01*
X96362904Y-80557144D02*
X96362904Y-80271430D01*
X96624809Y-80271430D02*
X96124809Y-80271430D01*
X96124809Y-80033334D02*
X96529571Y-80033334D01*
X96529571Y-80033334D02*
X96577190Y-80009524D01*
X96577190Y-80009524D02*
X96601000Y-79985715D01*
X96601000Y-79985715D02*
X96624809Y-79938096D01*
X96624809Y-79938096D02*
X96624809Y-79842858D01*
X96624809Y-79842858D02*
X96601000Y-79795239D01*
X96601000Y-79795239D02*
X96577190Y-79771429D01*
X96577190Y-79771429D02*
X96529571Y-79747620D01*
X96529571Y-79747620D02*
X96124809Y-79747620D01*
X96624809Y-79509524D02*
X96124809Y-79509524D01*
X96124809Y-79509524D02*
X96624809Y-79223810D01*
X96624809Y-79223810D02*
X96124809Y-79223810D01*
X96124809Y-79057142D02*
X96124809Y-78771428D01*
X96624809Y-78914285D02*
X96124809Y-78914285D01*
D12*
X106638095Y-72854819D02*
X106638095Y-73664342D01*
X106638095Y-73664342D02*
X106685714Y-73759580D01*
X106685714Y-73759580D02*
X106733333Y-73807200D01*
X106733333Y-73807200D02*
X106828571Y-73854819D01*
X106828571Y-73854819D02*
X107019047Y-73854819D01*
X107019047Y-73854819D02*
X107114285Y-73807200D01*
X107114285Y-73807200D02*
X107161904Y-73759580D01*
X107161904Y-73759580D02*
X107209523Y-73664342D01*
X107209523Y-73664342D02*
X107209523Y-72854819D01*
X107590476Y-72854819D02*
X108209523Y-72854819D01*
X108209523Y-72854819D02*
X107876190Y-73235771D01*
X107876190Y-73235771D02*
X108019047Y-73235771D01*
X108019047Y-73235771D02*
X108114285Y-73283390D01*
X108114285Y-73283390D02*
X108161904Y-73331009D01*
X108161904Y-73331009D02*
X108209523Y-73426247D01*
X108209523Y-73426247D02*
X108209523Y-73664342D01*
X108209523Y-73664342D02*
X108161904Y-73759580D01*
X108161904Y-73759580D02*
X108114285Y-73807200D01*
X108114285Y-73807200D02*
X108019047Y-73854819D01*
X108019047Y-73854819D02*
X107733333Y-73854819D01*
X107733333Y-73854819D02*
X107638095Y-73807200D01*
X107638095Y-73807200D02*
X107590476Y-73759580D01*
X134159580Y-58042857D02*
X134207200Y-58090476D01*
X134207200Y-58090476D02*
X134254819Y-58233333D01*
X134254819Y-58233333D02*
X134254819Y-58328571D01*
X134254819Y-58328571D02*
X134207200Y-58471428D01*
X134207200Y-58471428D02*
X134111961Y-58566666D01*
X134111961Y-58566666D02*
X134016723Y-58614285D01*
X134016723Y-58614285D02*
X133826247Y-58661904D01*
X133826247Y-58661904D02*
X133683390Y-58661904D01*
X133683390Y-58661904D02*
X133492914Y-58614285D01*
X133492914Y-58614285D02*
X133397676Y-58566666D01*
X133397676Y-58566666D02*
X133302438Y-58471428D01*
X133302438Y-58471428D02*
X133254819Y-58328571D01*
X133254819Y-58328571D02*
X133254819Y-58233333D01*
X133254819Y-58233333D02*
X133302438Y-58090476D01*
X133302438Y-58090476D02*
X133350057Y-58042857D01*
X134254819Y-57090476D02*
X134254819Y-57661904D01*
X134254819Y-57376190D02*
X133254819Y-57376190D01*
X133254819Y-57376190D02*
X133397676Y-57471428D01*
X133397676Y-57471428D02*
X133492914Y-57566666D01*
X133492914Y-57566666D02*
X133540533Y-57661904D01*
X133254819Y-56757142D02*
X133254819Y-56138095D01*
X133254819Y-56138095D02*
X133635771Y-56471428D01*
X133635771Y-56471428D02*
X133635771Y-56328571D01*
X133635771Y-56328571D02*
X133683390Y-56233333D01*
X133683390Y-56233333D02*
X133731009Y-56185714D01*
X133731009Y-56185714D02*
X133826247Y-56138095D01*
X133826247Y-56138095D02*
X134064342Y-56138095D01*
X134064342Y-56138095D02*
X134159580Y-56185714D01*
X134159580Y-56185714D02*
X134207200Y-56233333D01*
X134207200Y-56233333D02*
X134254819Y-56328571D01*
X134254819Y-56328571D02*
X134254819Y-56614285D01*
X134254819Y-56614285D02*
X134207200Y-56709523D01*
X134207200Y-56709523D02*
X134159580Y-56757142D01*
X129962319Y-85042857D02*
X129486128Y-85376190D01*
X129962319Y-85614285D02*
X128962319Y-85614285D01*
X128962319Y-85614285D02*
X128962319Y-85233333D01*
X128962319Y-85233333D02*
X129009938Y-85138095D01*
X129009938Y-85138095D02*
X129057557Y-85090476D01*
X129057557Y-85090476D02*
X129152795Y-85042857D01*
X129152795Y-85042857D02*
X129295652Y-85042857D01*
X129295652Y-85042857D02*
X129390890Y-85090476D01*
X129390890Y-85090476D02*
X129438509Y-85138095D01*
X129438509Y-85138095D02*
X129486128Y-85233333D01*
X129486128Y-85233333D02*
X129486128Y-85614285D01*
X129962319Y-84090476D02*
X129962319Y-84661904D01*
X129962319Y-84376190D02*
X128962319Y-84376190D01*
X128962319Y-84376190D02*
X129105176Y-84471428D01*
X129105176Y-84471428D02*
X129200414Y-84566666D01*
X129200414Y-84566666D02*
X129248033Y-84661904D01*
X128962319Y-83757142D02*
X128962319Y-83090476D01*
X128962319Y-83090476D02*
X129962319Y-83519047D01*
X121757142Y-86454819D02*
X121423809Y-85978628D01*
X121185714Y-86454819D02*
X121185714Y-85454819D01*
X121185714Y-85454819D02*
X121566666Y-85454819D01*
X121566666Y-85454819D02*
X121661904Y-85502438D01*
X121661904Y-85502438D02*
X121709523Y-85550057D01*
X121709523Y-85550057D02*
X121757142Y-85645295D01*
X121757142Y-85645295D02*
X121757142Y-85788152D01*
X121757142Y-85788152D02*
X121709523Y-85883390D01*
X121709523Y-85883390D02*
X121661904Y-85931009D01*
X121661904Y-85931009D02*
X121566666Y-85978628D01*
X121566666Y-85978628D02*
X121185714Y-85978628D01*
X122138095Y-85550057D02*
X122185714Y-85502438D01*
X122185714Y-85502438D02*
X122280952Y-85454819D01*
X122280952Y-85454819D02*
X122519047Y-85454819D01*
X122519047Y-85454819D02*
X122614285Y-85502438D01*
X122614285Y-85502438D02*
X122661904Y-85550057D01*
X122661904Y-85550057D02*
X122709523Y-85645295D01*
X122709523Y-85645295D02*
X122709523Y-85740533D01*
X122709523Y-85740533D02*
X122661904Y-85883390D01*
X122661904Y-85883390D02*
X122090476Y-86454819D01*
X122090476Y-86454819D02*
X122709523Y-86454819D01*
X123661904Y-86454819D02*
X123090476Y-86454819D01*
X123376190Y-86454819D02*
X123376190Y-85454819D01*
X123376190Y-85454819D02*
X123280952Y-85597676D01*
X123280952Y-85597676D02*
X123185714Y-85692914D01*
X123185714Y-85692914D02*
X123090476Y-85740533D01*
X138133333Y-84854819D02*
X137800000Y-84378628D01*
X137561905Y-84854819D02*
X137561905Y-83854819D01*
X137561905Y-83854819D02*
X137942857Y-83854819D01*
X137942857Y-83854819D02*
X138038095Y-83902438D01*
X138038095Y-83902438D02*
X138085714Y-83950057D01*
X138085714Y-83950057D02*
X138133333Y-84045295D01*
X138133333Y-84045295D02*
X138133333Y-84188152D01*
X138133333Y-84188152D02*
X138085714Y-84283390D01*
X138085714Y-84283390D02*
X138038095Y-84331009D01*
X138038095Y-84331009D02*
X137942857Y-84378628D01*
X137942857Y-84378628D02*
X137561905Y-84378628D01*
X138704762Y-84283390D02*
X138609524Y-84235771D01*
X138609524Y-84235771D02*
X138561905Y-84188152D01*
X138561905Y-84188152D02*
X138514286Y-84092914D01*
X138514286Y-84092914D02*
X138514286Y-84045295D01*
X138514286Y-84045295D02*
X138561905Y-83950057D01*
X138561905Y-83950057D02*
X138609524Y-83902438D01*
X138609524Y-83902438D02*
X138704762Y-83854819D01*
X138704762Y-83854819D02*
X138895238Y-83854819D01*
X138895238Y-83854819D02*
X138990476Y-83902438D01*
X138990476Y-83902438D02*
X139038095Y-83950057D01*
X139038095Y-83950057D02*
X139085714Y-84045295D01*
X139085714Y-84045295D02*
X139085714Y-84092914D01*
X139085714Y-84092914D02*
X139038095Y-84188152D01*
X139038095Y-84188152D02*
X138990476Y-84235771D01*
X138990476Y-84235771D02*
X138895238Y-84283390D01*
X138895238Y-84283390D02*
X138704762Y-84283390D01*
X138704762Y-84283390D02*
X138609524Y-84331009D01*
X138609524Y-84331009D02*
X138561905Y-84378628D01*
X138561905Y-84378628D02*
X138514286Y-84473866D01*
X138514286Y-84473866D02*
X138514286Y-84664342D01*
X138514286Y-84664342D02*
X138561905Y-84759580D01*
X138561905Y-84759580D02*
X138609524Y-84807200D01*
X138609524Y-84807200D02*
X138704762Y-84854819D01*
X138704762Y-84854819D02*
X138895238Y-84854819D01*
X138895238Y-84854819D02*
X138990476Y-84807200D01*
X138990476Y-84807200D02*
X139038095Y-84759580D01*
X139038095Y-84759580D02*
X139085714Y-84664342D01*
X139085714Y-84664342D02*
X139085714Y-84473866D01*
X139085714Y-84473866D02*
X139038095Y-84378628D01*
X139038095Y-84378628D02*
X138990476Y-84331009D01*
X138990476Y-84331009D02*
X138895238Y-84283390D01*
X114528571Y-73103450D02*
X114635714Y-73139164D01*
X114635714Y-73139164D02*
X114814285Y-73139164D01*
X114814285Y-73139164D02*
X114885714Y-73103450D01*
X114885714Y-73103450D02*
X114921428Y-73067735D01*
X114921428Y-73067735D02*
X114957142Y-72996307D01*
X114957142Y-72996307D02*
X114957142Y-72924878D01*
X114957142Y-72924878D02*
X114921428Y-72853450D01*
X114921428Y-72853450D02*
X114885714Y-72817735D01*
X114885714Y-72817735D02*
X114814285Y-72782021D01*
X114814285Y-72782021D02*
X114671428Y-72746307D01*
X114671428Y-72746307D02*
X114599999Y-72710592D01*
X114599999Y-72710592D02*
X114564285Y-72674878D01*
X114564285Y-72674878D02*
X114528571Y-72603450D01*
X114528571Y-72603450D02*
X114528571Y-72532021D01*
X114528571Y-72532021D02*
X114564285Y-72460592D01*
X114564285Y-72460592D02*
X114599999Y-72424878D01*
X114599999Y-72424878D02*
X114671428Y-72389164D01*
X114671428Y-72389164D02*
X114849999Y-72389164D01*
X114849999Y-72389164D02*
X114957142Y-72424878D01*
X115207142Y-72389164D02*
X115385714Y-73139164D01*
X115385714Y-73139164D02*
X115528571Y-72603450D01*
X115528571Y-72603450D02*
X115671428Y-73139164D01*
X115671428Y-73139164D02*
X115850000Y-72389164D01*
X116135714Y-73139164D02*
X116135714Y-72389164D01*
X116135714Y-72389164D02*
X116314285Y-72389164D01*
X116314285Y-72389164D02*
X116421428Y-72424878D01*
X116421428Y-72424878D02*
X116492857Y-72496307D01*
X116492857Y-72496307D02*
X116528571Y-72567735D01*
X116528571Y-72567735D02*
X116564285Y-72710592D01*
X116564285Y-72710592D02*
X116564285Y-72817735D01*
X116564285Y-72817735D02*
X116528571Y-72960592D01*
X116528571Y-72960592D02*
X116492857Y-73032021D01*
X116492857Y-73032021D02*
X116421428Y-73103450D01*
X116421428Y-73103450D02*
X116314285Y-73139164D01*
X116314285Y-73139164D02*
X116135714Y-73139164D01*
X117314285Y-73067735D02*
X117278571Y-73103450D01*
X117278571Y-73103450D02*
X117171428Y-73139164D01*
X117171428Y-73139164D02*
X117100000Y-73139164D01*
X117100000Y-73139164D02*
X116992857Y-73103450D01*
X116992857Y-73103450D02*
X116921428Y-73032021D01*
X116921428Y-73032021D02*
X116885714Y-72960592D01*
X116885714Y-72960592D02*
X116850000Y-72817735D01*
X116850000Y-72817735D02*
X116850000Y-72710592D01*
X116850000Y-72710592D02*
X116885714Y-72567735D01*
X116885714Y-72567735D02*
X116921428Y-72496307D01*
X116921428Y-72496307D02*
X116992857Y-72424878D01*
X116992857Y-72424878D02*
X117100000Y-72389164D01*
X117100000Y-72389164D02*
X117171428Y-72389164D01*
X117171428Y-72389164D02*
X117278571Y-72424878D01*
X117278571Y-72424878D02*
X117314285Y-72460592D01*
X117992857Y-73139164D02*
X117635714Y-73139164D01*
X117635714Y-73139164D02*
X117635714Y-72389164D01*
X118242857Y-73139164D02*
X118242857Y-72389164D01*
X118671428Y-73139164D02*
X118350000Y-72710592D01*
X118671428Y-72389164D02*
X118242857Y-72817735D01*
X140739164Y-58682143D02*
X140382021Y-58932143D01*
X140739164Y-59110714D02*
X139989164Y-59110714D01*
X139989164Y-59110714D02*
X139989164Y-58825000D01*
X139989164Y-58825000D02*
X140024878Y-58753571D01*
X140024878Y-58753571D02*
X140060592Y-58717857D01*
X140060592Y-58717857D02*
X140132021Y-58682143D01*
X140132021Y-58682143D02*
X140239164Y-58682143D01*
X140239164Y-58682143D02*
X140310592Y-58717857D01*
X140310592Y-58717857D02*
X140346307Y-58753571D01*
X140346307Y-58753571D02*
X140382021Y-58825000D01*
X140382021Y-58825000D02*
X140382021Y-59110714D01*
X140739164Y-57967857D02*
X140739164Y-58396428D01*
X140739164Y-58182143D02*
X139989164Y-58182143D01*
X139989164Y-58182143D02*
X140096307Y-58253571D01*
X140096307Y-58253571D02*
X140167735Y-58325000D01*
X140167735Y-58325000D02*
X140203450Y-58396428D01*
X140739164Y-57253571D02*
X140739164Y-57682142D01*
X140739164Y-57467857D02*
X139989164Y-57467857D01*
X139989164Y-57467857D02*
X140096307Y-57539285D01*
X140096307Y-57539285D02*
X140167735Y-57610714D01*
X140167735Y-57610714D02*
X140203450Y-57682142D01*
X130333333Y-72359580D02*
X130285714Y-72407200D01*
X130285714Y-72407200D02*
X130142857Y-72454819D01*
X130142857Y-72454819D02*
X130047619Y-72454819D01*
X130047619Y-72454819D02*
X129904762Y-72407200D01*
X129904762Y-72407200D02*
X129809524Y-72311961D01*
X129809524Y-72311961D02*
X129761905Y-72216723D01*
X129761905Y-72216723D02*
X129714286Y-72026247D01*
X129714286Y-72026247D02*
X129714286Y-71883390D01*
X129714286Y-71883390D02*
X129761905Y-71692914D01*
X129761905Y-71692914D02*
X129809524Y-71597676D01*
X129809524Y-71597676D02*
X129904762Y-71502438D01*
X129904762Y-71502438D02*
X130047619Y-71454819D01*
X130047619Y-71454819D02*
X130142857Y-71454819D01*
X130142857Y-71454819D02*
X130285714Y-71502438D01*
X130285714Y-71502438D02*
X130333333Y-71550057D01*
X130714286Y-71550057D02*
X130761905Y-71502438D01*
X130761905Y-71502438D02*
X130857143Y-71454819D01*
X130857143Y-71454819D02*
X131095238Y-71454819D01*
X131095238Y-71454819D02*
X131190476Y-71502438D01*
X131190476Y-71502438D02*
X131238095Y-71550057D01*
X131238095Y-71550057D02*
X131285714Y-71645295D01*
X131285714Y-71645295D02*
X131285714Y-71740533D01*
X131285714Y-71740533D02*
X131238095Y-71883390D01*
X131238095Y-71883390D02*
X130666667Y-72454819D01*
X130666667Y-72454819D02*
X131285714Y-72454819D01*
X116757142Y-91359580D02*
X116709523Y-91407200D01*
X116709523Y-91407200D02*
X116566666Y-91454819D01*
X116566666Y-91454819D02*
X116471428Y-91454819D01*
X116471428Y-91454819D02*
X116328571Y-91407200D01*
X116328571Y-91407200D02*
X116233333Y-91311961D01*
X116233333Y-91311961D02*
X116185714Y-91216723D01*
X116185714Y-91216723D02*
X116138095Y-91026247D01*
X116138095Y-91026247D02*
X116138095Y-90883390D01*
X116138095Y-90883390D02*
X116185714Y-90692914D01*
X116185714Y-90692914D02*
X116233333Y-90597676D01*
X116233333Y-90597676D02*
X116328571Y-90502438D01*
X116328571Y-90502438D02*
X116471428Y-90454819D01*
X116471428Y-90454819D02*
X116566666Y-90454819D01*
X116566666Y-90454819D02*
X116709523Y-90502438D01*
X116709523Y-90502438D02*
X116757142Y-90550057D01*
X117090476Y-90454819D02*
X117709523Y-90454819D01*
X117709523Y-90454819D02*
X117376190Y-90835771D01*
X117376190Y-90835771D02*
X117519047Y-90835771D01*
X117519047Y-90835771D02*
X117614285Y-90883390D01*
X117614285Y-90883390D02*
X117661904Y-90931009D01*
X117661904Y-90931009D02*
X117709523Y-91026247D01*
X117709523Y-91026247D02*
X117709523Y-91264342D01*
X117709523Y-91264342D02*
X117661904Y-91359580D01*
X117661904Y-91359580D02*
X117614285Y-91407200D01*
X117614285Y-91407200D02*
X117519047Y-91454819D01*
X117519047Y-91454819D02*
X117233333Y-91454819D01*
X117233333Y-91454819D02*
X117138095Y-91407200D01*
X117138095Y-91407200D02*
X117090476Y-91359580D01*
X118328571Y-90454819D02*
X118423809Y-90454819D01*
X118423809Y-90454819D02*
X118519047Y-90502438D01*
X118519047Y-90502438D02*
X118566666Y-90550057D01*
X118566666Y-90550057D02*
X118614285Y-90645295D01*
X118614285Y-90645295D02*
X118661904Y-90835771D01*
X118661904Y-90835771D02*
X118661904Y-91073866D01*
X118661904Y-91073866D02*
X118614285Y-91264342D01*
X118614285Y-91264342D02*
X118566666Y-91359580D01*
X118566666Y-91359580D02*
X118519047Y-91407200D01*
X118519047Y-91407200D02*
X118423809Y-91454819D01*
X118423809Y-91454819D02*
X118328571Y-91454819D01*
X118328571Y-91454819D02*
X118233333Y-91407200D01*
X118233333Y-91407200D02*
X118185714Y-91359580D01*
X118185714Y-91359580D02*
X118138095Y-91264342D01*
X118138095Y-91264342D02*
X118090476Y-91073866D01*
X118090476Y-91073866D02*
X118090476Y-90835771D01*
X118090476Y-90835771D02*
X118138095Y-90645295D01*
X118138095Y-90645295D02*
X118185714Y-90550057D01*
X118185714Y-90550057D02*
X118233333Y-90502438D01*
X118233333Y-90502438D02*
X118328571Y-90454819D01*
X135861905Y-88254819D02*
X135861905Y-87254819D01*
X135861905Y-87254819D02*
X136100000Y-87254819D01*
X136100000Y-87254819D02*
X136242857Y-87302438D01*
X136242857Y-87302438D02*
X136338095Y-87397676D01*
X136338095Y-87397676D02*
X136385714Y-87492914D01*
X136385714Y-87492914D02*
X136433333Y-87683390D01*
X136433333Y-87683390D02*
X136433333Y-87826247D01*
X136433333Y-87826247D02*
X136385714Y-88016723D01*
X136385714Y-88016723D02*
X136338095Y-88111961D01*
X136338095Y-88111961D02*
X136242857Y-88207200D01*
X136242857Y-88207200D02*
X136100000Y-88254819D01*
X136100000Y-88254819D02*
X135861905Y-88254819D01*
X136814286Y-87350057D02*
X136861905Y-87302438D01*
X136861905Y-87302438D02*
X136957143Y-87254819D01*
X136957143Y-87254819D02*
X137195238Y-87254819D01*
X137195238Y-87254819D02*
X137290476Y-87302438D01*
X137290476Y-87302438D02*
X137338095Y-87350057D01*
X137338095Y-87350057D02*
X137385714Y-87445295D01*
X137385714Y-87445295D02*
X137385714Y-87540533D01*
X137385714Y-87540533D02*
X137338095Y-87683390D01*
X137338095Y-87683390D02*
X136766667Y-88254819D01*
X136766667Y-88254819D02*
X137385714Y-88254819D01*
X119810714Y-73103450D02*
X119917857Y-73139164D01*
X119917857Y-73139164D02*
X120096428Y-73139164D01*
X120096428Y-73139164D02*
X120167857Y-73103450D01*
X120167857Y-73103450D02*
X120203571Y-73067735D01*
X120203571Y-73067735D02*
X120239285Y-72996307D01*
X120239285Y-72996307D02*
X120239285Y-72924878D01*
X120239285Y-72924878D02*
X120203571Y-72853450D01*
X120203571Y-72853450D02*
X120167857Y-72817735D01*
X120167857Y-72817735D02*
X120096428Y-72782021D01*
X120096428Y-72782021D02*
X119953571Y-72746307D01*
X119953571Y-72746307D02*
X119882142Y-72710592D01*
X119882142Y-72710592D02*
X119846428Y-72674878D01*
X119846428Y-72674878D02*
X119810714Y-72603450D01*
X119810714Y-72603450D02*
X119810714Y-72532021D01*
X119810714Y-72532021D02*
X119846428Y-72460592D01*
X119846428Y-72460592D02*
X119882142Y-72424878D01*
X119882142Y-72424878D02*
X119953571Y-72389164D01*
X119953571Y-72389164D02*
X120132142Y-72389164D01*
X120132142Y-72389164D02*
X120239285Y-72424878D01*
X120489285Y-72389164D02*
X120667857Y-73139164D01*
X120667857Y-73139164D02*
X120810714Y-72603450D01*
X120810714Y-72603450D02*
X120953571Y-73139164D01*
X120953571Y-73139164D02*
X121132143Y-72389164D01*
X121417857Y-73139164D02*
X121417857Y-72389164D01*
X121417857Y-72389164D02*
X121596428Y-72389164D01*
X121596428Y-72389164D02*
X121703571Y-72424878D01*
X121703571Y-72424878D02*
X121775000Y-72496307D01*
X121775000Y-72496307D02*
X121810714Y-72567735D01*
X121810714Y-72567735D02*
X121846428Y-72710592D01*
X121846428Y-72710592D02*
X121846428Y-72817735D01*
X121846428Y-72817735D02*
X121810714Y-72960592D01*
X121810714Y-72960592D02*
X121775000Y-73032021D01*
X121775000Y-73032021D02*
X121703571Y-73103450D01*
X121703571Y-73103450D02*
X121596428Y-73139164D01*
X121596428Y-73139164D02*
X121417857Y-73139164D01*
X122167857Y-73139164D02*
X122167857Y-72389164D01*
X122667857Y-72389164D02*
X122810714Y-72389164D01*
X122810714Y-72389164D02*
X122882143Y-72424878D01*
X122882143Y-72424878D02*
X122953571Y-72496307D01*
X122953571Y-72496307D02*
X122989286Y-72639164D01*
X122989286Y-72639164D02*
X122989286Y-72889164D01*
X122989286Y-72889164D02*
X122953571Y-73032021D01*
X122953571Y-73032021D02*
X122882143Y-73103450D01*
X122882143Y-73103450D02*
X122810714Y-73139164D01*
X122810714Y-73139164D02*
X122667857Y-73139164D01*
X122667857Y-73139164D02*
X122596429Y-73103450D01*
X122596429Y-73103450D02*
X122525000Y-73032021D01*
X122525000Y-73032021D02*
X122489286Y-72889164D01*
X122489286Y-72889164D02*
X122489286Y-72639164D01*
X122489286Y-72639164D02*
X122525000Y-72496307D01*
X122525000Y-72496307D02*
X122596429Y-72424878D01*
X122596429Y-72424878D02*
X122667857Y-72389164D01*
D13*
X134971428Y-66824809D02*
X134971428Y-66324809D01*
X134971428Y-66324809D02*
X135138095Y-66681952D01*
X135138095Y-66681952D02*
X135304761Y-66324809D01*
X135304761Y-66324809D02*
X135304761Y-66824809D01*
X135542857Y-66824809D02*
X135542857Y-66324809D01*
X136066666Y-66777190D02*
X136042857Y-66801000D01*
X136042857Y-66801000D02*
X135971428Y-66824809D01*
X135971428Y-66824809D02*
X135923809Y-66824809D01*
X135923809Y-66824809D02*
X135852381Y-66801000D01*
X135852381Y-66801000D02*
X135804762Y-66753380D01*
X135804762Y-66753380D02*
X135780952Y-66705761D01*
X135780952Y-66705761D02*
X135757143Y-66610523D01*
X135757143Y-66610523D02*
X135757143Y-66539095D01*
X135757143Y-66539095D02*
X135780952Y-66443857D01*
X135780952Y-66443857D02*
X135804762Y-66396238D01*
X135804762Y-66396238D02*
X135852381Y-66348619D01*
X135852381Y-66348619D02*
X135923809Y-66324809D01*
X135923809Y-66324809D02*
X135971428Y-66324809D01*
X135971428Y-66324809D02*
X136042857Y-66348619D01*
X136042857Y-66348619D02*
X136066666Y-66372428D01*
X136376190Y-66324809D02*
X136423809Y-66324809D01*
X136423809Y-66324809D02*
X136471428Y-66348619D01*
X136471428Y-66348619D02*
X136495238Y-66372428D01*
X136495238Y-66372428D02*
X136519047Y-66420047D01*
X136519047Y-66420047D02*
X136542857Y-66515285D01*
X136542857Y-66515285D02*
X136542857Y-66634333D01*
X136542857Y-66634333D02*
X136519047Y-66729571D01*
X136519047Y-66729571D02*
X136495238Y-66777190D01*
X136495238Y-66777190D02*
X136471428Y-66801000D01*
X136471428Y-66801000D02*
X136423809Y-66824809D01*
X136423809Y-66824809D02*
X136376190Y-66824809D01*
X136376190Y-66824809D02*
X136328571Y-66801000D01*
X136328571Y-66801000D02*
X136304762Y-66777190D01*
X136304762Y-66777190D02*
X136280952Y-66729571D01*
X136280952Y-66729571D02*
X136257143Y-66634333D01*
X136257143Y-66634333D02*
X136257143Y-66515285D01*
X136257143Y-66515285D02*
X136280952Y-66420047D01*
X136280952Y-66420047D02*
X136304762Y-66372428D01*
X136304762Y-66372428D02*
X136328571Y-66348619D01*
X136328571Y-66348619D02*
X136376190Y-66324809D01*
X136638095Y-66872428D02*
X137019047Y-66872428D01*
X137376189Y-66824809D02*
X137138094Y-66824809D01*
X137138094Y-66824809D02*
X137138094Y-66324809D01*
X137542856Y-66824809D02*
X137542856Y-66324809D01*
X137542856Y-66324809D02*
X137828570Y-66824809D01*
X137828570Y-66824809D02*
X137828570Y-66324809D01*
D12*
X107633333Y-67254819D02*
X107300000Y-66778628D01*
X107061905Y-67254819D02*
X107061905Y-66254819D01*
X107061905Y-66254819D02*
X107442857Y-66254819D01*
X107442857Y-66254819D02*
X107538095Y-66302438D01*
X107538095Y-66302438D02*
X107585714Y-66350057D01*
X107585714Y-66350057D02*
X107633333Y-66445295D01*
X107633333Y-66445295D02*
X107633333Y-66588152D01*
X107633333Y-66588152D02*
X107585714Y-66683390D01*
X107585714Y-66683390D02*
X107538095Y-66731009D01*
X107538095Y-66731009D02*
X107442857Y-66778628D01*
X107442857Y-66778628D02*
X107061905Y-66778628D01*
X108538095Y-66254819D02*
X108061905Y-66254819D01*
X108061905Y-66254819D02*
X108014286Y-66731009D01*
X108014286Y-66731009D02*
X108061905Y-66683390D01*
X108061905Y-66683390D02*
X108157143Y-66635771D01*
X108157143Y-66635771D02*
X108395238Y-66635771D01*
X108395238Y-66635771D02*
X108490476Y-66683390D01*
X108490476Y-66683390D02*
X108538095Y-66731009D01*
X108538095Y-66731009D02*
X108585714Y-66826247D01*
X108585714Y-66826247D02*
X108585714Y-67064342D01*
X108585714Y-67064342D02*
X108538095Y-67159580D01*
X108538095Y-67159580D02*
X108490476Y-67207200D01*
X108490476Y-67207200D02*
X108395238Y-67254819D01*
X108395238Y-67254819D02*
X108157143Y-67254819D01*
X108157143Y-67254819D02*
X108061905Y-67207200D01*
X108061905Y-67207200D02*
X108014286Y-67159580D01*
X146438095Y-57804819D02*
X146438095Y-58614342D01*
X146438095Y-58614342D02*
X146485714Y-58709580D01*
X146485714Y-58709580D02*
X146533333Y-58757200D01*
X146533333Y-58757200D02*
X146628571Y-58804819D01*
X146628571Y-58804819D02*
X146819047Y-58804819D01*
X146819047Y-58804819D02*
X146914285Y-58757200D01*
X146914285Y-58757200D02*
X146961904Y-58709580D01*
X146961904Y-58709580D02*
X147009523Y-58614342D01*
X147009523Y-58614342D02*
X147009523Y-57804819D01*
X147390476Y-57804819D02*
X148057142Y-57804819D01*
X148057142Y-57804819D02*
X147628571Y-58804819D01*
X150728572Y-75254819D02*
X150728572Y-74254819D01*
X150728572Y-74254819D02*
X151061905Y-74969104D01*
X151061905Y-74969104D02*
X151395238Y-74254819D01*
X151395238Y-74254819D02*
X151395238Y-75254819D01*
X151871429Y-75254819D02*
X151871429Y-74254819D01*
X152919047Y-75159580D02*
X152871428Y-75207200D01*
X152871428Y-75207200D02*
X152728571Y-75254819D01*
X152728571Y-75254819D02*
X152633333Y-75254819D01*
X152633333Y-75254819D02*
X152490476Y-75207200D01*
X152490476Y-75207200D02*
X152395238Y-75111961D01*
X152395238Y-75111961D02*
X152347619Y-75016723D01*
X152347619Y-75016723D02*
X152300000Y-74826247D01*
X152300000Y-74826247D02*
X152300000Y-74683390D01*
X152300000Y-74683390D02*
X152347619Y-74492914D01*
X152347619Y-74492914D02*
X152395238Y-74397676D01*
X152395238Y-74397676D02*
X152490476Y-74302438D01*
X152490476Y-74302438D02*
X152633333Y-74254819D01*
X152633333Y-74254819D02*
X152728571Y-74254819D01*
X152728571Y-74254819D02*
X152871428Y-74302438D01*
X152871428Y-74302438D02*
X152919047Y-74350057D01*
D13*
X138302381Y-66601000D02*
X138373809Y-66624809D01*
X138373809Y-66624809D02*
X138492857Y-66624809D01*
X138492857Y-66624809D02*
X138540476Y-66601000D01*
X138540476Y-66601000D02*
X138564285Y-66577190D01*
X138564285Y-66577190D02*
X138588095Y-66529571D01*
X138588095Y-66529571D02*
X138588095Y-66481952D01*
X138588095Y-66481952D02*
X138564285Y-66434333D01*
X138564285Y-66434333D02*
X138540476Y-66410523D01*
X138540476Y-66410523D02*
X138492857Y-66386714D01*
X138492857Y-66386714D02*
X138397619Y-66362904D01*
X138397619Y-66362904D02*
X138350000Y-66339095D01*
X138350000Y-66339095D02*
X138326190Y-66315285D01*
X138326190Y-66315285D02*
X138302381Y-66267666D01*
X138302381Y-66267666D02*
X138302381Y-66220047D01*
X138302381Y-66220047D02*
X138326190Y-66172428D01*
X138326190Y-66172428D02*
X138350000Y-66148619D01*
X138350000Y-66148619D02*
X138397619Y-66124809D01*
X138397619Y-66124809D02*
X138516666Y-66124809D01*
X138516666Y-66124809D02*
X138588095Y-66148619D01*
X138802380Y-66624809D02*
X138802380Y-66124809D01*
X138802380Y-66124809D02*
X138992856Y-66124809D01*
X138992856Y-66124809D02*
X139040475Y-66148619D01*
X139040475Y-66148619D02*
X139064285Y-66172428D01*
X139064285Y-66172428D02*
X139088094Y-66220047D01*
X139088094Y-66220047D02*
X139088094Y-66291476D01*
X139088094Y-66291476D02*
X139064285Y-66339095D01*
X139064285Y-66339095D02*
X139040475Y-66362904D01*
X139040475Y-66362904D02*
X138992856Y-66386714D01*
X138992856Y-66386714D02*
X138802380Y-66386714D01*
X139302380Y-66624809D02*
X139302380Y-66124809D01*
X139588094Y-66624809D02*
X139373809Y-66339095D01*
X139588094Y-66124809D02*
X139302380Y-66410523D01*
X139683333Y-66672428D02*
X140064285Y-66672428D01*
X140421427Y-66624809D02*
X140183332Y-66624809D01*
X140183332Y-66624809D02*
X140183332Y-66124809D01*
X140588094Y-66624809D02*
X140588094Y-66124809D01*
X140588094Y-66124809D02*
X140873808Y-66624809D01*
X140873808Y-66624809D02*
X140873808Y-66124809D01*
D12*
X145559580Y-72842857D02*
X145607200Y-72890476D01*
X145607200Y-72890476D02*
X145654819Y-73033333D01*
X145654819Y-73033333D02*
X145654819Y-73128571D01*
X145654819Y-73128571D02*
X145607200Y-73271428D01*
X145607200Y-73271428D02*
X145511961Y-73366666D01*
X145511961Y-73366666D02*
X145416723Y-73414285D01*
X145416723Y-73414285D02*
X145226247Y-73461904D01*
X145226247Y-73461904D02*
X145083390Y-73461904D01*
X145083390Y-73461904D02*
X144892914Y-73414285D01*
X144892914Y-73414285D02*
X144797676Y-73366666D01*
X144797676Y-73366666D02*
X144702438Y-73271428D01*
X144702438Y-73271428D02*
X144654819Y-73128571D01*
X144654819Y-73128571D02*
X144654819Y-73033333D01*
X144654819Y-73033333D02*
X144702438Y-72890476D01*
X144702438Y-72890476D02*
X144750057Y-72842857D01*
X144750057Y-72461904D02*
X144702438Y-72414285D01*
X144702438Y-72414285D02*
X144654819Y-72319047D01*
X144654819Y-72319047D02*
X144654819Y-72080952D01*
X144654819Y-72080952D02*
X144702438Y-71985714D01*
X144702438Y-71985714D02*
X144750057Y-71938095D01*
X144750057Y-71938095D02*
X144845295Y-71890476D01*
X144845295Y-71890476D02*
X144940533Y-71890476D01*
X144940533Y-71890476D02*
X145083390Y-71938095D01*
X145083390Y-71938095D02*
X145654819Y-72509523D01*
X145654819Y-72509523D02*
X145654819Y-71890476D01*
X144988152Y-71033333D02*
X145654819Y-71033333D01*
X144607200Y-71271428D02*
X145321485Y-71509523D01*
X145321485Y-71509523D02*
X145321485Y-70890476D01*
X102133333Y-76497080D02*
X102085714Y-76544700D01*
X102085714Y-76544700D02*
X101942857Y-76592319D01*
X101942857Y-76592319D02*
X101847619Y-76592319D01*
X101847619Y-76592319D02*
X101704762Y-76544700D01*
X101704762Y-76544700D02*
X101609524Y-76449461D01*
X101609524Y-76449461D02*
X101561905Y-76354223D01*
X101561905Y-76354223D02*
X101514286Y-76163747D01*
X101514286Y-76163747D02*
X101514286Y-76020890D01*
X101514286Y-76020890D02*
X101561905Y-75830414D01*
X101561905Y-75830414D02*
X101609524Y-75735176D01*
X101609524Y-75735176D02*
X101704762Y-75639938D01*
X101704762Y-75639938D02*
X101847619Y-75592319D01*
X101847619Y-75592319D02*
X101942857Y-75592319D01*
X101942857Y-75592319D02*
X102085714Y-75639938D01*
X102085714Y-75639938D02*
X102133333Y-75687557D01*
X103038095Y-75592319D02*
X102561905Y-75592319D01*
X102561905Y-75592319D02*
X102514286Y-76068509D01*
X102514286Y-76068509D02*
X102561905Y-76020890D01*
X102561905Y-76020890D02*
X102657143Y-75973271D01*
X102657143Y-75973271D02*
X102895238Y-75973271D01*
X102895238Y-75973271D02*
X102990476Y-76020890D01*
X102990476Y-76020890D02*
X103038095Y-76068509D01*
X103038095Y-76068509D02*
X103085714Y-76163747D01*
X103085714Y-76163747D02*
X103085714Y-76401842D01*
X103085714Y-76401842D02*
X103038095Y-76497080D01*
X103038095Y-76497080D02*
X102990476Y-76544700D01*
X102990476Y-76544700D02*
X102895238Y-76592319D01*
X102895238Y-76592319D02*
X102657143Y-76592319D01*
X102657143Y-76592319D02*
X102561905Y-76544700D01*
X102561905Y-76544700D02*
X102514286Y-76497080D01*
X147157080Y-72116666D02*
X147204700Y-72164285D01*
X147204700Y-72164285D02*
X147252319Y-72307142D01*
X147252319Y-72307142D02*
X147252319Y-72402380D01*
X147252319Y-72402380D02*
X147204700Y-72545237D01*
X147204700Y-72545237D02*
X147109461Y-72640475D01*
X147109461Y-72640475D02*
X147014223Y-72688094D01*
X147014223Y-72688094D02*
X146823747Y-72735713D01*
X146823747Y-72735713D02*
X146680890Y-72735713D01*
X146680890Y-72735713D02*
X146490414Y-72688094D01*
X146490414Y-72688094D02*
X146395176Y-72640475D01*
X146395176Y-72640475D02*
X146299938Y-72545237D01*
X146299938Y-72545237D02*
X146252319Y-72402380D01*
X146252319Y-72402380D02*
X146252319Y-72307142D01*
X146252319Y-72307142D02*
X146299938Y-72164285D01*
X146299938Y-72164285D02*
X146347557Y-72116666D01*
X146252319Y-71783332D02*
X146252319Y-71116666D01*
X146252319Y-71116666D02*
X147252319Y-71545237D01*
X101157142Y-80092319D02*
X100823809Y-79616128D01*
X100585714Y-80092319D02*
X100585714Y-79092319D01*
X100585714Y-79092319D02*
X100966666Y-79092319D01*
X100966666Y-79092319D02*
X101061904Y-79139938D01*
X101061904Y-79139938D02*
X101109523Y-79187557D01*
X101109523Y-79187557D02*
X101157142Y-79282795D01*
X101157142Y-79282795D02*
X101157142Y-79425652D01*
X101157142Y-79425652D02*
X101109523Y-79520890D01*
X101109523Y-79520890D02*
X101061904Y-79568509D01*
X101061904Y-79568509D02*
X100966666Y-79616128D01*
X100966666Y-79616128D02*
X100585714Y-79616128D01*
X101538095Y-79187557D02*
X101585714Y-79139938D01*
X101585714Y-79139938D02*
X101680952Y-79092319D01*
X101680952Y-79092319D02*
X101919047Y-79092319D01*
X101919047Y-79092319D02*
X102014285Y-79139938D01*
X102014285Y-79139938D02*
X102061904Y-79187557D01*
X102061904Y-79187557D02*
X102109523Y-79282795D01*
X102109523Y-79282795D02*
X102109523Y-79378033D01*
X102109523Y-79378033D02*
X102061904Y-79520890D01*
X102061904Y-79520890D02*
X101490476Y-80092319D01*
X101490476Y-80092319D02*
X102109523Y-80092319D01*
X102728571Y-79092319D02*
X102823809Y-79092319D01*
X102823809Y-79092319D02*
X102919047Y-79139938D01*
X102919047Y-79139938D02*
X102966666Y-79187557D01*
X102966666Y-79187557D02*
X103014285Y-79282795D01*
X103014285Y-79282795D02*
X103061904Y-79473271D01*
X103061904Y-79473271D02*
X103061904Y-79711366D01*
X103061904Y-79711366D02*
X103014285Y-79901842D01*
X103014285Y-79901842D02*
X102966666Y-79997080D01*
X102966666Y-79997080D02*
X102919047Y-80044700D01*
X102919047Y-80044700D02*
X102823809Y-80092319D01*
X102823809Y-80092319D02*
X102728571Y-80092319D01*
X102728571Y-80092319D02*
X102633333Y-80044700D01*
X102633333Y-80044700D02*
X102585714Y-79997080D01*
X102585714Y-79997080D02*
X102538095Y-79901842D01*
X102538095Y-79901842D02*
X102490476Y-79711366D01*
X102490476Y-79711366D02*
X102490476Y-79473271D01*
X102490476Y-79473271D02*
X102538095Y-79282795D01*
X102538095Y-79282795D02*
X102585714Y-79187557D01*
X102585714Y-79187557D02*
X102633333Y-79139938D01*
X102633333Y-79139938D02*
X102728571Y-79092319D01*
X102335833Y-78342319D02*
X102002500Y-77866128D01*
X101764405Y-78342319D02*
X101764405Y-77342319D01*
X101764405Y-77342319D02*
X102145357Y-77342319D01*
X102145357Y-77342319D02*
X102240595Y-77389938D01*
X102240595Y-77389938D02*
X102288214Y-77437557D01*
X102288214Y-77437557D02*
X102335833Y-77532795D01*
X102335833Y-77532795D02*
X102335833Y-77675652D01*
X102335833Y-77675652D02*
X102288214Y-77770890D01*
X102288214Y-77770890D02*
X102240595Y-77818509D01*
X102240595Y-77818509D02*
X102145357Y-77866128D01*
X102145357Y-77866128D02*
X101764405Y-77866128D01*
X103192976Y-77342319D02*
X103002500Y-77342319D01*
X103002500Y-77342319D02*
X102907262Y-77389938D01*
X102907262Y-77389938D02*
X102859643Y-77437557D01*
X102859643Y-77437557D02*
X102764405Y-77580414D01*
X102764405Y-77580414D02*
X102716786Y-77770890D01*
X102716786Y-77770890D02*
X102716786Y-78151842D01*
X102716786Y-78151842D02*
X102764405Y-78247080D01*
X102764405Y-78247080D02*
X102812024Y-78294700D01*
X102812024Y-78294700D02*
X102907262Y-78342319D01*
X102907262Y-78342319D02*
X103097738Y-78342319D01*
X103097738Y-78342319D02*
X103192976Y-78294700D01*
X103192976Y-78294700D02*
X103240595Y-78247080D01*
X103240595Y-78247080D02*
X103288214Y-78151842D01*
X103288214Y-78151842D02*
X103288214Y-77913747D01*
X103288214Y-77913747D02*
X103240595Y-77818509D01*
X103240595Y-77818509D02*
X103192976Y-77770890D01*
X103192976Y-77770890D02*
X103097738Y-77723271D01*
X103097738Y-77723271D02*
X102907262Y-77723271D01*
X102907262Y-77723271D02*
X102812024Y-77770890D01*
X102812024Y-77770890D02*
X102764405Y-77818509D01*
X102764405Y-77818509D02*
X102716786Y-77913747D01*
X115053095Y-81882319D02*
X115053095Y-82691842D01*
X115053095Y-82691842D02*
X115100714Y-82787080D01*
X115100714Y-82787080D02*
X115148333Y-82834700D01*
X115148333Y-82834700D02*
X115243571Y-82882319D01*
X115243571Y-82882319D02*
X115434047Y-82882319D01*
X115434047Y-82882319D02*
X115529285Y-82834700D01*
X115529285Y-82834700D02*
X115576904Y-82787080D01*
X115576904Y-82787080D02*
X115624523Y-82691842D01*
X115624523Y-82691842D02*
X115624523Y-81882319D01*
X116243571Y-82310890D02*
X116148333Y-82263271D01*
X116148333Y-82263271D02*
X116100714Y-82215652D01*
X116100714Y-82215652D02*
X116053095Y-82120414D01*
X116053095Y-82120414D02*
X116053095Y-82072795D01*
X116053095Y-82072795D02*
X116100714Y-81977557D01*
X116100714Y-81977557D02*
X116148333Y-81929938D01*
X116148333Y-81929938D02*
X116243571Y-81882319D01*
X116243571Y-81882319D02*
X116434047Y-81882319D01*
X116434047Y-81882319D02*
X116529285Y-81929938D01*
X116529285Y-81929938D02*
X116576904Y-81977557D01*
X116576904Y-81977557D02*
X116624523Y-82072795D01*
X116624523Y-82072795D02*
X116624523Y-82120414D01*
X116624523Y-82120414D02*
X116576904Y-82215652D01*
X116576904Y-82215652D02*
X116529285Y-82263271D01*
X116529285Y-82263271D02*
X116434047Y-82310890D01*
X116434047Y-82310890D02*
X116243571Y-82310890D01*
X116243571Y-82310890D02*
X116148333Y-82358509D01*
X116148333Y-82358509D02*
X116100714Y-82406128D01*
X116100714Y-82406128D02*
X116053095Y-82501366D01*
X116053095Y-82501366D02*
X116053095Y-82691842D01*
X116053095Y-82691842D02*
X116100714Y-82787080D01*
X116100714Y-82787080D02*
X116148333Y-82834700D01*
X116148333Y-82834700D02*
X116243571Y-82882319D01*
X116243571Y-82882319D02*
X116434047Y-82882319D01*
X116434047Y-82882319D02*
X116529285Y-82834700D01*
X116529285Y-82834700D02*
X116576904Y-82787080D01*
X116576904Y-82787080D02*
X116624523Y-82691842D01*
X116624523Y-82691842D02*
X116624523Y-82501366D01*
X116624523Y-82501366D02*
X116576904Y-82406128D01*
X116576904Y-82406128D02*
X116529285Y-82358509D01*
X116529285Y-82358509D02*
X116434047Y-82310890D01*
X155057142Y-59059580D02*
X155009523Y-59107200D01*
X155009523Y-59107200D02*
X154866666Y-59154819D01*
X154866666Y-59154819D02*
X154771428Y-59154819D01*
X154771428Y-59154819D02*
X154628571Y-59107200D01*
X154628571Y-59107200D02*
X154533333Y-59011961D01*
X154533333Y-59011961D02*
X154485714Y-58916723D01*
X154485714Y-58916723D02*
X154438095Y-58726247D01*
X154438095Y-58726247D02*
X154438095Y-58583390D01*
X154438095Y-58583390D02*
X154485714Y-58392914D01*
X154485714Y-58392914D02*
X154533333Y-58297676D01*
X154533333Y-58297676D02*
X154628571Y-58202438D01*
X154628571Y-58202438D02*
X154771428Y-58154819D01*
X154771428Y-58154819D02*
X154866666Y-58154819D01*
X154866666Y-58154819D02*
X155009523Y-58202438D01*
X155009523Y-58202438D02*
X155057142Y-58250057D01*
X155438095Y-58250057D02*
X155485714Y-58202438D01*
X155485714Y-58202438D02*
X155580952Y-58154819D01*
X155580952Y-58154819D02*
X155819047Y-58154819D01*
X155819047Y-58154819D02*
X155914285Y-58202438D01*
X155914285Y-58202438D02*
X155961904Y-58250057D01*
X155961904Y-58250057D02*
X156009523Y-58345295D01*
X156009523Y-58345295D02*
X156009523Y-58440533D01*
X156009523Y-58440533D02*
X155961904Y-58583390D01*
X155961904Y-58583390D02*
X155390476Y-59154819D01*
X155390476Y-59154819D02*
X156009523Y-59154819D01*
X156342857Y-58154819D02*
X156961904Y-58154819D01*
X156961904Y-58154819D02*
X156628571Y-58535771D01*
X156628571Y-58535771D02*
X156771428Y-58535771D01*
X156771428Y-58535771D02*
X156866666Y-58583390D01*
X156866666Y-58583390D02*
X156914285Y-58631009D01*
X156914285Y-58631009D02*
X156961904Y-58726247D01*
X156961904Y-58726247D02*
X156961904Y-58964342D01*
X156961904Y-58964342D02*
X156914285Y-59059580D01*
X156914285Y-59059580D02*
X156866666Y-59107200D01*
X156866666Y-59107200D02*
X156771428Y-59154819D01*
X156771428Y-59154819D02*
X156485714Y-59154819D01*
X156485714Y-59154819D02*
X156390476Y-59107200D01*
X156390476Y-59107200D02*
X156342857Y-59059580D01*
X153383333Y-69154819D02*
X153050000Y-68678628D01*
X152811905Y-69154819D02*
X152811905Y-68154819D01*
X152811905Y-68154819D02*
X153192857Y-68154819D01*
X153192857Y-68154819D02*
X153288095Y-68202438D01*
X153288095Y-68202438D02*
X153335714Y-68250057D01*
X153335714Y-68250057D02*
X153383333Y-68345295D01*
X153383333Y-68345295D02*
X153383333Y-68488152D01*
X153383333Y-68488152D02*
X153335714Y-68583390D01*
X153335714Y-68583390D02*
X153288095Y-68631009D01*
X153288095Y-68631009D02*
X153192857Y-68678628D01*
X153192857Y-68678628D02*
X152811905Y-68678628D01*
X153716667Y-68154819D02*
X154383333Y-68154819D01*
X154383333Y-68154819D02*
X153954762Y-69154819D01*
X123217856Y-75539164D02*
X123217856Y-74789164D01*
X123217856Y-74789164D02*
X123503570Y-74789164D01*
X123503570Y-74789164D02*
X123574999Y-74824878D01*
X123574999Y-74824878D02*
X123610713Y-74860592D01*
X123610713Y-74860592D02*
X123646427Y-74932021D01*
X123646427Y-74932021D02*
X123646427Y-75039164D01*
X123646427Y-75039164D02*
X123610713Y-75110592D01*
X123610713Y-75110592D02*
X123574999Y-75146307D01*
X123574999Y-75146307D02*
X123503570Y-75182021D01*
X123503570Y-75182021D02*
X123217856Y-75182021D01*
X123860713Y-74789164D02*
X124289285Y-74789164D01*
X124074999Y-75539164D02*
X124074999Y-74789164D01*
X124432142Y-74789164D02*
X124860714Y-74789164D01*
X124646428Y-75539164D02*
X124646428Y-74789164D01*
X124932143Y-75610592D02*
X125503571Y-75610592D01*
X125575000Y-74789164D02*
X126003572Y-74789164D01*
X125789286Y-75539164D02*
X125789286Y-74789164D01*
X126253572Y-75539164D02*
X126253572Y-75039164D01*
X126253572Y-75182021D02*
X126289286Y-75110592D01*
X126289286Y-75110592D02*
X126325001Y-75074878D01*
X126325001Y-75074878D02*
X126396429Y-75039164D01*
X126396429Y-75039164D02*
X126467858Y-75039164D01*
X126717858Y-75539164D02*
X126717858Y-75039164D01*
X126717858Y-74789164D02*
X126682144Y-74824878D01*
X126682144Y-74824878D02*
X126717858Y-74860592D01*
X126717858Y-74860592D02*
X126753572Y-74824878D01*
X126753572Y-74824878D02*
X126717858Y-74789164D01*
X126717858Y-74789164D02*
X126717858Y-74860592D01*
X127396430Y-75039164D02*
X127396430Y-75646307D01*
X127396430Y-75646307D02*
X127360715Y-75717735D01*
X127360715Y-75717735D02*
X127325001Y-75753450D01*
X127325001Y-75753450D02*
X127253572Y-75789164D01*
X127253572Y-75789164D02*
X127146430Y-75789164D01*
X127146430Y-75789164D02*
X127075001Y-75753450D01*
X127396430Y-75503450D02*
X127325001Y-75539164D01*
X127325001Y-75539164D02*
X127182144Y-75539164D01*
X127182144Y-75539164D02*
X127110715Y-75503450D01*
X127110715Y-75503450D02*
X127075001Y-75467735D01*
X127075001Y-75467735D02*
X127039287Y-75396307D01*
X127039287Y-75396307D02*
X127039287Y-75182021D01*
X127039287Y-75182021D02*
X127075001Y-75110592D01*
X127075001Y-75110592D02*
X127110715Y-75074878D01*
X127110715Y-75074878D02*
X127182144Y-75039164D01*
X127182144Y-75039164D02*
X127325001Y-75039164D01*
X127325001Y-75039164D02*
X127396430Y-75074878D01*
X128075001Y-75039164D02*
X128075001Y-75646307D01*
X128075001Y-75646307D02*
X128039286Y-75717735D01*
X128039286Y-75717735D02*
X128003572Y-75753450D01*
X128003572Y-75753450D02*
X127932143Y-75789164D01*
X127932143Y-75789164D02*
X127825001Y-75789164D01*
X127825001Y-75789164D02*
X127753572Y-75753450D01*
X128075001Y-75503450D02*
X128003572Y-75539164D01*
X128003572Y-75539164D02*
X127860715Y-75539164D01*
X127860715Y-75539164D02*
X127789286Y-75503450D01*
X127789286Y-75503450D02*
X127753572Y-75467735D01*
X127753572Y-75467735D02*
X127717858Y-75396307D01*
X127717858Y-75396307D02*
X127717858Y-75182021D01*
X127717858Y-75182021D02*
X127753572Y-75110592D01*
X127753572Y-75110592D02*
X127789286Y-75074878D01*
X127789286Y-75074878D02*
X127860715Y-75039164D01*
X127860715Y-75039164D02*
X128003572Y-75039164D01*
X128003572Y-75039164D02*
X128075001Y-75074878D01*
X128717857Y-75503450D02*
X128646429Y-75539164D01*
X128646429Y-75539164D02*
X128503572Y-75539164D01*
X128503572Y-75539164D02*
X128432143Y-75503450D01*
X128432143Y-75503450D02*
X128396429Y-75432021D01*
X128396429Y-75432021D02*
X128396429Y-75146307D01*
X128396429Y-75146307D02*
X128432143Y-75074878D01*
X128432143Y-75074878D02*
X128503572Y-75039164D01*
X128503572Y-75039164D02*
X128646429Y-75039164D01*
X128646429Y-75039164D02*
X128717857Y-75074878D01*
X128717857Y-75074878D02*
X128753572Y-75146307D01*
X128753572Y-75146307D02*
X128753572Y-75217735D01*
X128753572Y-75217735D02*
X128396429Y-75289164D01*
X129075000Y-75539164D02*
X129075000Y-75039164D01*
X129075000Y-75182021D02*
X129110714Y-75110592D01*
X129110714Y-75110592D02*
X129146429Y-75074878D01*
X129146429Y-75074878D02*
X129217857Y-75039164D01*
X129217857Y-75039164D02*
X129289286Y-75039164D01*
X146319642Y-67109580D02*
X146272023Y-67157200D01*
X146272023Y-67157200D02*
X146129166Y-67204819D01*
X146129166Y-67204819D02*
X146033928Y-67204819D01*
X146033928Y-67204819D02*
X145891071Y-67157200D01*
X145891071Y-67157200D02*
X145795833Y-67061961D01*
X145795833Y-67061961D02*
X145748214Y-66966723D01*
X145748214Y-66966723D02*
X145700595Y-66776247D01*
X145700595Y-66776247D02*
X145700595Y-66633390D01*
X145700595Y-66633390D02*
X145748214Y-66442914D01*
X145748214Y-66442914D02*
X145795833Y-66347676D01*
X145795833Y-66347676D02*
X145891071Y-66252438D01*
X145891071Y-66252438D02*
X146033928Y-66204819D01*
X146033928Y-66204819D02*
X146129166Y-66204819D01*
X146129166Y-66204819D02*
X146272023Y-66252438D01*
X146272023Y-66252438D02*
X146319642Y-66300057D01*
X146700595Y-66300057D02*
X146748214Y-66252438D01*
X146748214Y-66252438D02*
X146843452Y-66204819D01*
X146843452Y-66204819D02*
X147081547Y-66204819D01*
X147081547Y-66204819D02*
X147176785Y-66252438D01*
X147176785Y-66252438D02*
X147224404Y-66300057D01*
X147224404Y-66300057D02*
X147272023Y-66395295D01*
X147272023Y-66395295D02*
X147272023Y-66490533D01*
X147272023Y-66490533D02*
X147224404Y-66633390D01*
X147224404Y-66633390D02*
X146652976Y-67204819D01*
X146652976Y-67204819D02*
X147272023Y-67204819D01*
X147652976Y-66300057D02*
X147700595Y-66252438D01*
X147700595Y-66252438D02*
X147795833Y-66204819D01*
X147795833Y-66204819D02*
X148033928Y-66204819D01*
X148033928Y-66204819D02*
X148129166Y-66252438D01*
X148129166Y-66252438D02*
X148176785Y-66300057D01*
X148176785Y-66300057D02*
X148224404Y-66395295D01*
X148224404Y-66395295D02*
X148224404Y-66490533D01*
X148224404Y-66490533D02*
X148176785Y-66633390D01*
X148176785Y-66633390D02*
X147605357Y-67204819D01*
X147605357Y-67204819D02*
X148224404Y-67204819D01*
X110861905Y-71654819D02*
X110861905Y-70654819D01*
X110861905Y-70654819D02*
X111100000Y-70654819D01*
X111100000Y-70654819D02*
X111242857Y-70702438D01*
X111242857Y-70702438D02*
X111338095Y-70797676D01*
X111338095Y-70797676D02*
X111385714Y-70892914D01*
X111385714Y-70892914D02*
X111433333Y-71083390D01*
X111433333Y-71083390D02*
X111433333Y-71226247D01*
X111433333Y-71226247D02*
X111385714Y-71416723D01*
X111385714Y-71416723D02*
X111338095Y-71511961D01*
X111338095Y-71511961D02*
X111242857Y-71607200D01*
X111242857Y-71607200D02*
X111100000Y-71654819D01*
X111100000Y-71654819D02*
X110861905Y-71654819D01*
X112385714Y-71654819D02*
X111814286Y-71654819D01*
X112100000Y-71654819D02*
X112100000Y-70654819D01*
X112100000Y-70654819D02*
X112004762Y-70797676D01*
X112004762Y-70797676D02*
X111909524Y-70892914D01*
X111909524Y-70892914D02*
X111814286Y-70940533D01*
X125061905Y-91654819D02*
X125061905Y-90654819D01*
X125061905Y-90654819D02*
X125300000Y-90654819D01*
X125300000Y-90654819D02*
X125442857Y-90702438D01*
X125442857Y-90702438D02*
X125538095Y-90797676D01*
X125538095Y-90797676D02*
X125585714Y-90892914D01*
X125585714Y-90892914D02*
X125633333Y-91083390D01*
X125633333Y-91083390D02*
X125633333Y-91226247D01*
X125633333Y-91226247D02*
X125585714Y-91416723D01*
X125585714Y-91416723D02*
X125538095Y-91511961D01*
X125538095Y-91511961D02*
X125442857Y-91607200D01*
X125442857Y-91607200D02*
X125300000Y-91654819D01*
X125300000Y-91654819D02*
X125061905Y-91654819D01*
X126538095Y-90654819D02*
X126061905Y-90654819D01*
X126061905Y-90654819D02*
X126014286Y-91131009D01*
X126014286Y-91131009D02*
X126061905Y-91083390D01*
X126061905Y-91083390D02*
X126157143Y-91035771D01*
X126157143Y-91035771D02*
X126395238Y-91035771D01*
X126395238Y-91035771D02*
X126490476Y-91083390D01*
X126490476Y-91083390D02*
X126538095Y-91131009D01*
X126538095Y-91131009D02*
X126585714Y-91226247D01*
X126585714Y-91226247D02*
X126585714Y-91464342D01*
X126585714Y-91464342D02*
X126538095Y-91559580D01*
X126538095Y-91559580D02*
X126490476Y-91607200D01*
X126490476Y-91607200D02*
X126395238Y-91654819D01*
X126395238Y-91654819D02*
X126157143Y-91654819D01*
X126157143Y-91654819D02*
X126061905Y-91607200D01*
X126061905Y-91607200D02*
X126014286Y-91559580D01*
X142667735Y-58882143D02*
X142703450Y-58917857D01*
X142703450Y-58917857D02*
X142739164Y-59025000D01*
X142739164Y-59025000D02*
X142739164Y-59096428D01*
X142739164Y-59096428D02*
X142703450Y-59203571D01*
X142703450Y-59203571D02*
X142632021Y-59275000D01*
X142632021Y-59275000D02*
X142560592Y-59310714D01*
X142560592Y-59310714D02*
X142417735Y-59346428D01*
X142417735Y-59346428D02*
X142310592Y-59346428D01*
X142310592Y-59346428D02*
X142167735Y-59310714D01*
X142167735Y-59310714D02*
X142096307Y-59275000D01*
X142096307Y-59275000D02*
X142024878Y-59203571D01*
X142024878Y-59203571D02*
X141989164Y-59096428D01*
X141989164Y-59096428D02*
X141989164Y-59025000D01*
X141989164Y-59025000D02*
X142024878Y-58917857D01*
X142024878Y-58917857D02*
X142060592Y-58882143D01*
X142739164Y-58167857D02*
X142739164Y-58596428D01*
X142739164Y-58382143D02*
X141989164Y-58382143D01*
X141989164Y-58382143D02*
X142096307Y-58453571D01*
X142096307Y-58453571D02*
X142167735Y-58525000D01*
X142167735Y-58525000D02*
X142203450Y-58596428D01*
X141989164Y-57703571D02*
X141989164Y-57632142D01*
X141989164Y-57632142D02*
X142024878Y-57560714D01*
X142024878Y-57560714D02*
X142060592Y-57525000D01*
X142060592Y-57525000D02*
X142132021Y-57489285D01*
X142132021Y-57489285D02*
X142274878Y-57453571D01*
X142274878Y-57453571D02*
X142453450Y-57453571D01*
X142453450Y-57453571D02*
X142596307Y-57489285D01*
X142596307Y-57489285D02*
X142667735Y-57525000D01*
X142667735Y-57525000D02*
X142703450Y-57560714D01*
X142703450Y-57560714D02*
X142739164Y-57632142D01*
X142739164Y-57632142D02*
X142739164Y-57703571D01*
X142739164Y-57703571D02*
X142703450Y-57775000D01*
X142703450Y-57775000D02*
X142667735Y-57810714D01*
X142667735Y-57810714D02*
X142596307Y-57846428D01*
X142596307Y-57846428D02*
X142453450Y-57882142D01*
X142453450Y-57882142D02*
X142274878Y-57882142D01*
X142274878Y-57882142D02*
X142132021Y-57846428D01*
X142132021Y-57846428D02*
X142060592Y-57810714D01*
X142060592Y-57810714D02*
X142024878Y-57775000D01*
X142024878Y-57775000D02*
X141989164Y-57703571D01*
X111633333Y-89959580D02*
X111585714Y-90007200D01*
X111585714Y-90007200D02*
X111442857Y-90054819D01*
X111442857Y-90054819D02*
X111347619Y-90054819D01*
X111347619Y-90054819D02*
X111204762Y-90007200D01*
X111204762Y-90007200D02*
X111109524Y-89911961D01*
X111109524Y-89911961D02*
X111061905Y-89816723D01*
X111061905Y-89816723D02*
X111014286Y-89626247D01*
X111014286Y-89626247D02*
X111014286Y-89483390D01*
X111014286Y-89483390D02*
X111061905Y-89292914D01*
X111061905Y-89292914D02*
X111109524Y-89197676D01*
X111109524Y-89197676D02*
X111204762Y-89102438D01*
X111204762Y-89102438D02*
X111347619Y-89054819D01*
X111347619Y-89054819D02*
X111442857Y-89054819D01*
X111442857Y-89054819D02*
X111585714Y-89102438D01*
X111585714Y-89102438D02*
X111633333Y-89150057D01*
X112204762Y-89483390D02*
X112109524Y-89435771D01*
X112109524Y-89435771D02*
X112061905Y-89388152D01*
X112061905Y-89388152D02*
X112014286Y-89292914D01*
X112014286Y-89292914D02*
X112014286Y-89245295D01*
X112014286Y-89245295D02*
X112061905Y-89150057D01*
X112061905Y-89150057D02*
X112109524Y-89102438D01*
X112109524Y-89102438D02*
X112204762Y-89054819D01*
X112204762Y-89054819D02*
X112395238Y-89054819D01*
X112395238Y-89054819D02*
X112490476Y-89102438D01*
X112490476Y-89102438D02*
X112538095Y-89150057D01*
X112538095Y-89150057D02*
X112585714Y-89245295D01*
X112585714Y-89245295D02*
X112585714Y-89292914D01*
X112585714Y-89292914D02*
X112538095Y-89388152D01*
X112538095Y-89388152D02*
X112490476Y-89435771D01*
X112490476Y-89435771D02*
X112395238Y-89483390D01*
X112395238Y-89483390D02*
X112204762Y-89483390D01*
X112204762Y-89483390D02*
X112109524Y-89531009D01*
X112109524Y-89531009D02*
X112061905Y-89578628D01*
X112061905Y-89578628D02*
X112014286Y-89673866D01*
X112014286Y-89673866D02*
X112014286Y-89864342D01*
X112014286Y-89864342D02*
X112061905Y-89959580D01*
X112061905Y-89959580D02*
X112109524Y-90007200D01*
X112109524Y-90007200D02*
X112204762Y-90054819D01*
X112204762Y-90054819D02*
X112395238Y-90054819D01*
X112395238Y-90054819D02*
X112490476Y-90007200D01*
X112490476Y-90007200D02*
X112538095Y-89959580D01*
X112538095Y-89959580D02*
X112585714Y-89864342D01*
X112585714Y-89864342D02*
X112585714Y-89673866D01*
X112585714Y-89673866D02*
X112538095Y-89578628D01*
X112538095Y-89578628D02*
X112490476Y-89531009D01*
X112490476Y-89531009D02*
X112395238Y-89483390D01*
X95454819Y-74661904D02*
X96264342Y-74661904D01*
X96264342Y-74661904D02*
X96359580Y-74614285D01*
X96359580Y-74614285D02*
X96407200Y-74566666D01*
X96407200Y-74566666D02*
X96454819Y-74471428D01*
X96454819Y-74471428D02*
X96454819Y-74280952D01*
X96454819Y-74280952D02*
X96407200Y-74185714D01*
X96407200Y-74185714D02*
X96359580Y-74138095D01*
X96359580Y-74138095D02*
X96264342Y-74090476D01*
X96264342Y-74090476D02*
X95454819Y-74090476D01*
X95454819Y-73138095D02*
X95454819Y-73614285D01*
X95454819Y-73614285D02*
X95931009Y-73661904D01*
X95931009Y-73661904D02*
X95883390Y-73614285D01*
X95883390Y-73614285D02*
X95835771Y-73519047D01*
X95835771Y-73519047D02*
X95835771Y-73280952D01*
X95835771Y-73280952D02*
X95883390Y-73185714D01*
X95883390Y-73185714D02*
X95931009Y-73138095D01*
X95931009Y-73138095D02*
X96026247Y-73090476D01*
X96026247Y-73090476D02*
X96264342Y-73090476D01*
X96264342Y-73090476D02*
X96359580Y-73138095D01*
X96359580Y-73138095D02*
X96407200Y-73185714D01*
X96407200Y-73185714D02*
X96454819Y-73280952D01*
X96454819Y-73280952D02*
X96454819Y-73519047D01*
X96454819Y-73519047D02*
X96407200Y-73614285D01*
X96407200Y-73614285D02*
X96359580Y-73661904D01*
X126310716Y-73703450D02*
X126417859Y-73739164D01*
X126417859Y-73739164D02*
X126596430Y-73739164D01*
X126596430Y-73739164D02*
X126667859Y-73703450D01*
X126667859Y-73703450D02*
X126703573Y-73667735D01*
X126703573Y-73667735D02*
X126739287Y-73596307D01*
X126739287Y-73596307D02*
X126739287Y-73524878D01*
X126739287Y-73524878D02*
X126703573Y-73453450D01*
X126703573Y-73453450D02*
X126667859Y-73417735D01*
X126667859Y-73417735D02*
X126596430Y-73382021D01*
X126596430Y-73382021D02*
X126453573Y-73346307D01*
X126453573Y-73346307D02*
X126382144Y-73310592D01*
X126382144Y-73310592D02*
X126346430Y-73274878D01*
X126346430Y-73274878D02*
X126310716Y-73203450D01*
X126310716Y-73203450D02*
X126310716Y-73132021D01*
X126310716Y-73132021D02*
X126346430Y-73060592D01*
X126346430Y-73060592D02*
X126382144Y-73024878D01*
X126382144Y-73024878D02*
X126453573Y-72989164D01*
X126453573Y-72989164D02*
X126632144Y-72989164D01*
X126632144Y-72989164D02*
X126739287Y-73024878D01*
X127382145Y-73239164D02*
X127382145Y-73989164D01*
X127382145Y-73703450D02*
X127310716Y-73739164D01*
X127310716Y-73739164D02*
X127167859Y-73739164D01*
X127167859Y-73739164D02*
X127096430Y-73703450D01*
X127096430Y-73703450D02*
X127060716Y-73667735D01*
X127060716Y-73667735D02*
X127025002Y-73596307D01*
X127025002Y-73596307D02*
X127025002Y-73382021D01*
X127025002Y-73382021D02*
X127060716Y-73310592D01*
X127060716Y-73310592D02*
X127096430Y-73274878D01*
X127096430Y-73274878D02*
X127167859Y-73239164D01*
X127167859Y-73239164D02*
X127310716Y-73239164D01*
X127310716Y-73239164D02*
X127382145Y-73274878D01*
X128060716Y-73239164D02*
X128060716Y-73739164D01*
X127739287Y-73239164D02*
X127739287Y-73632021D01*
X127739287Y-73632021D02*
X127775001Y-73703450D01*
X127775001Y-73703450D02*
X127846430Y-73739164D01*
X127846430Y-73739164D02*
X127953573Y-73739164D01*
X127953573Y-73739164D02*
X128025001Y-73703450D01*
X128025001Y-73703450D02*
X128060716Y-73667735D01*
X128703572Y-73703450D02*
X128632144Y-73739164D01*
X128632144Y-73739164D02*
X128489287Y-73739164D01*
X128489287Y-73739164D02*
X128417858Y-73703450D01*
X128417858Y-73703450D02*
X128382144Y-73632021D01*
X128382144Y-73632021D02*
X128382144Y-73346307D01*
X128382144Y-73346307D02*
X128417858Y-73274878D01*
X128417858Y-73274878D02*
X128489287Y-73239164D01*
X128489287Y-73239164D02*
X128632144Y-73239164D01*
X128632144Y-73239164D02*
X128703572Y-73274878D01*
X128703572Y-73274878D02*
X128739287Y-73346307D01*
X128739287Y-73346307D02*
X128739287Y-73417735D01*
X128739287Y-73417735D02*
X128382144Y-73489164D01*
X129167858Y-73739164D02*
X129096429Y-73703450D01*
X129096429Y-73703450D02*
X129060715Y-73632021D01*
X129060715Y-73632021D02*
X129060715Y-72989164D01*
X129775001Y-73703450D02*
X129703572Y-73739164D01*
X129703572Y-73739164D02*
X129560715Y-73739164D01*
X129560715Y-73739164D02*
X129489286Y-73703450D01*
X129489286Y-73703450D02*
X129453572Y-73667735D01*
X129453572Y-73667735D02*
X129417858Y-73596307D01*
X129417858Y-73596307D02*
X129417858Y-73382021D01*
X129417858Y-73382021D02*
X129453572Y-73310592D01*
X129453572Y-73310592D02*
X129489286Y-73274878D01*
X129489286Y-73274878D02*
X129560715Y-73239164D01*
X129560715Y-73239164D02*
X129703572Y-73239164D01*
X129703572Y-73239164D02*
X129775001Y-73274878D01*
X130096429Y-73739164D02*
X130096429Y-72989164D01*
X130417858Y-73739164D02*
X130417858Y-73346307D01*
X130417858Y-73346307D02*
X130382143Y-73274878D01*
X130382143Y-73274878D02*
X130310715Y-73239164D01*
X130310715Y-73239164D02*
X130203572Y-73239164D01*
X130203572Y-73239164D02*
X130132143Y-73274878D01*
X130132143Y-73274878D02*
X130096429Y-73310592D01*
X130596429Y-73810592D02*
X131167857Y-73810592D01*
X131667858Y-73739164D02*
X131667858Y-72989164D01*
X131667858Y-73703450D02*
X131596429Y-73739164D01*
X131596429Y-73739164D02*
X131453572Y-73739164D01*
X131453572Y-73739164D02*
X131382143Y-73703450D01*
X131382143Y-73703450D02*
X131346429Y-73667735D01*
X131346429Y-73667735D02*
X131310715Y-73596307D01*
X131310715Y-73596307D02*
X131310715Y-73382021D01*
X131310715Y-73382021D02*
X131346429Y-73310592D01*
X131346429Y-73310592D02*
X131382143Y-73274878D01*
X131382143Y-73274878D02*
X131453572Y-73239164D01*
X131453572Y-73239164D02*
X131596429Y-73239164D01*
X131596429Y-73239164D02*
X131667858Y-73274878D01*
X132310714Y-73703450D02*
X132239286Y-73739164D01*
X132239286Y-73739164D02*
X132096429Y-73739164D01*
X132096429Y-73739164D02*
X132025000Y-73703450D01*
X132025000Y-73703450D02*
X131989286Y-73632021D01*
X131989286Y-73632021D02*
X131989286Y-73346307D01*
X131989286Y-73346307D02*
X132025000Y-73274878D01*
X132025000Y-73274878D02*
X132096429Y-73239164D01*
X132096429Y-73239164D02*
X132239286Y-73239164D01*
X132239286Y-73239164D02*
X132310714Y-73274878D01*
X132310714Y-73274878D02*
X132346429Y-73346307D01*
X132346429Y-73346307D02*
X132346429Y-73417735D01*
X132346429Y-73417735D02*
X131989286Y-73489164D01*
X132560714Y-73239164D02*
X132846428Y-73239164D01*
X132667857Y-72989164D02*
X132667857Y-73632021D01*
X132667857Y-73632021D02*
X132703571Y-73703450D01*
X132703571Y-73703450D02*
X132775000Y-73739164D01*
X132775000Y-73739164D02*
X132846428Y-73739164D01*
X133382142Y-73703450D02*
X133310714Y-73739164D01*
X133310714Y-73739164D02*
X133167857Y-73739164D01*
X133167857Y-73739164D02*
X133096428Y-73703450D01*
X133096428Y-73703450D02*
X133060714Y-73632021D01*
X133060714Y-73632021D02*
X133060714Y-73346307D01*
X133060714Y-73346307D02*
X133096428Y-73274878D01*
X133096428Y-73274878D02*
X133167857Y-73239164D01*
X133167857Y-73239164D02*
X133310714Y-73239164D01*
X133310714Y-73239164D02*
X133382142Y-73274878D01*
X133382142Y-73274878D02*
X133417857Y-73346307D01*
X133417857Y-73346307D02*
X133417857Y-73417735D01*
X133417857Y-73417735D02*
X133060714Y-73489164D01*
X134060714Y-73703450D02*
X133989285Y-73739164D01*
X133989285Y-73739164D02*
X133846428Y-73739164D01*
X133846428Y-73739164D02*
X133774999Y-73703450D01*
X133774999Y-73703450D02*
X133739285Y-73667735D01*
X133739285Y-73667735D02*
X133703571Y-73596307D01*
X133703571Y-73596307D02*
X133703571Y-73382021D01*
X133703571Y-73382021D02*
X133739285Y-73310592D01*
X133739285Y-73310592D02*
X133774999Y-73274878D01*
X133774999Y-73274878D02*
X133846428Y-73239164D01*
X133846428Y-73239164D02*
X133989285Y-73239164D01*
X133989285Y-73239164D02*
X134060714Y-73274878D01*
X134274999Y-73239164D02*
X134560713Y-73239164D01*
X134382142Y-72989164D02*
X134382142Y-73632021D01*
X134382142Y-73632021D02*
X134417856Y-73703450D01*
X134417856Y-73703450D02*
X134489285Y-73739164D01*
X134489285Y-73739164D02*
X134560713Y-73739164D01*
X151107142Y-81709580D02*
X151059523Y-81757200D01*
X151059523Y-81757200D02*
X150916666Y-81804819D01*
X150916666Y-81804819D02*
X150821428Y-81804819D01*
X150821428Y-81804819D02*
X150678571Y-81757200D01*
X150678571Y-81757200D02*
X150583333Y-81661961D01*
X150583333Y-81661961D02*
X150535714Y-81566723D01*
X150535714Y-81566723D02*
X150488095Y-81376247D01*
X150488095Y-81376247D02*
X150488095Y-81233390D01*
X150488095Y-81233390D02*
X150535714Y-81042914D01*
X150535714Y-81042914D02*
X150583333Y-80947676D01*
X150583333Y-80947676D02*
X150678571Y-80852438D01*
X150678571Y-80852438D02*
X150821428Y-80804819D01*
X150821428Y-80804819D02*
X150916666Y-80804819D01*
X150916666Y-80804819D02*
X151059523Y-80852438D01*
X151059523Y-80852438D02*
X151107142Y-80900057D01*
X151488095Y-80900057D02*
X151535714Y-80852438D01*
X151535714Y-80852438D02*
X151630952Y-80804819D01*
X151630952Y-80804819D02*
X151869047Y-80804819D01*
X151869047Y-80804819D02*
X151964285Y-80852438D01*
X151964285Y-80852438D02*
X152011904Y-80900057D01*
X152011904Y-80900057D02*
X152059523Y-80995295D01*
X152059523Y-80995295D02*
X152059523Y-81090533D01*
X152059523Y-81090533D02*
X152011904Y-81233390D01*
X152011904Y-81233390D02*
X151440476Y-81804819D01*
X151440476Y-81804819D02*
X152059523Y-81804819D01*
X152916666Y-80804819D02*
X152726190Y-80804819D01*
X152726190Y-80804819D02*
X152630952Y-80852438D01*
X152630952Y-80852438D02*
X152583333Y-80900057D01*
X152583333Y-80900057D02*
X152488095Y-81042914D01*
X152488095Y-81042914D02*
X152440476Y-81233390D01*
X152440476Y-81233390D02*
X152440476Y-81614342D01*
X152440476Y-81614342D02*
X152488095Y-81709580D01*
X152488095Y-81709580D02*
X152535714Y-81757200D01*
X152535714Y-81757200D02*
X152630952Y-81804819D01*
X152630952Y-81804819D02*
X152821428Y-81804819D01*
X152821428Y-81804819D02*
X152916666Y-81757200D01*
X152916666Y-81757200D02*
X152964285Y-81709580D01*
X152964285Y-81709580D02*
X153011904Y-81614342D01*
X153011904Y-81614342D02*
X153011904Y-81376247D01*
X153011904Y-81376247D02*
X152964285Y-81281009D01*
X152964285Y-81281009D02*
X152916666Y-81233390D01*
X152916666Y-81233390D02*
X152821428Y-81185771D01*
X152821428Y-81185771D02*
X152630952Y-81185771D01*
X152630952Y-81185771D02*
X152535714Y-81233390D01*
X152535714Y-81233390D02*
X152488095Y-81281009D01*
X152488095Y-81281009D02*
X152440476Y-81376247D01*
X144023810Y-90654819D02*
X144595238Y-90654819D01*
X144309524Y-91654819D02*
X144309524Y-90654819D01*
X145500000Y-91654819D02*
X145166667Y-91178628D01*
X144928572Y-91654819D02*
X144928572Y-90654819D01*
X144928572Y-90654819D02*
X145309524Y-90654819D01*
X145309524Y-90654819D02*
X145404762Y-90702438D01*
X145404762Y-90702438D02*
X145452381Y-90750057D01*
X145452381Y-90750057D02*
X145500000Y-90845295D01*
X145500000Y-90845295D02*
X145500000Y-90988152D01*
X145500000Y-90988152D02*
X145452381Y-91083390D01*
X145452381Y-91083390D02*
X145404762Y-91131009D01*
X145404762Y-91131009D02*
X145309524Y-91178628D01*
X145309524Y-91178628D02*
X144928572Y-91178628D01*
X145928572Y-91654819D02*
X145928572Y-90654819D01*
X146928571Y-90702438D02*
X146833333Y-90654819D01*
X146833333Y-90654819D02*
X146690476Y-90654819D01*
X146690476Y-90654819D02*
X146547619Y-90702438D01*
X146547619Y-90702438D02*
X146452381Y-90797676D01*
X146452381Y-90797676D02*
X146404762Y-90892914D01*
X146404762Y-90892914D02*
X146357143Y-91083390D01*
X146357143Y-91083390D02*
X146357143Y-91226247D01*
X146357143Y-91226247D02*
X146404762Y-91416723D01*
X146404762Y-91416723D02*
X146452381Y-91511961D01*
X146452381Y-91511961D02*
X146547619Y-91607200D01*
X146547619Y-91607200D02*
X146690476Y-91654819D01*
X146690476Y-91654819D02*
X146785714Y-91654819D01*
X146785714Y-91654819D02*
X146928571Y-91607200D01*
X146928571Y-91607200D02*
X146976190Y-91559580D01*
X146976190Y-91559580D02*
X146976190Y-91226247D01*
X146976190Y-91226247D02*
X146785714Y-91226247D01*
X147928571Y-90702438D02*
X147833333Y-90654819D01*
X147833333Y-90654819D02*
X147690476Y-90654819D01*
X147690476Y-90654819D02*
X147547619Y-90702438D01*
X147547619Y-90702438D02*
X147452381Y-90797676D01*
X147452381Y-90797676D02*
X147404762Y-90892914D01*
X147404762Y-90892914D02*
X147357143Y-91083390D01*
X147357143Y-91083390D02*
X147357143Y-91226247D01*
X147357143Y-91226247D02*
X147404762Y-91416723D01*
X147404762Y-91416723D02*
X147452381Y-91511961D01*
X147452381Y-91511961D02*
X147547619Y-91607200D01*
X147547619Y-91607200D02*
X147690476Y-91654819D01*
X147690476Y-91654819D02*
X147785714Y-91654819D01*
X147785714Y-91654819D02*
X147928571Y-91607200D01*
X147928571Y-91607200D02*
X147976190Y-91559580D01*
X147976190Y-91559580D02*
X147976190Y-91226247D01*
X147976190Y-91226247D02*
X147785714Y-91226247D01*
X148404762Y-91131009D02*
X148738095Y-91131009D01*
X148880952Y-91654819D02*
X148404762Y-91654819D01*
X148404762Y-91654819D02*
X148404762Y-90654819D01*
X148404762Y-90654819D02*
X148880952Y-90654819D01*
X149880952Y-91654819D02*
X149547619Y-91178628D01*
X149309524Y-91654819D02*
X149309524Y-90654819D01*
X149309524Y-90654819D02*
X149690476Y-90654819D01*
X149690476Y-90654819D02*
X149785714Y-90702438D01*
X149785714Y-90702438D02*
X149833333Y-90750057D01*
X149833333Y-90750057D02*
X149880952Y-90845295D01*
X149880952Y-90845295D02*
X149880952Y-90988152D01*
X149880952Y-90988152D02*
X149833333Y-91083390D01*
X149833333Y-91083390D02*
X149785714Y-91131009D01*
X149785714Y-91131009D02*
X149690476Y-91178628D01*
X149690476Y-91178628D02*
X149309524Y-91178628D01*
X146157142Y-65454819D02*
X145823809Y-64978628D01*
X145585714Y-65454819D02*
X145585714Y-64454819D01*
X145585714Y-64454819D02*
X145966666Y-64454819D01*
X145966666Y-64454819D02*
X146061904Y-64502438D01*
X146061904Y-64502438D02*
X146109523Y-64550057D01*
X146109523Y-64550057D02*
X146157142Y-64645295D01*
X146157142Y-64645295D02*
X146157142Y-64788152D01*
X146157142Y-64788152D02*
X146109523Y-64883390D01*
X146109523Y-64883390D02*
X146061904Y-64931009D01*
X146061904Y-64931009D02*
X145966666Y-64978628D01*
X145966666Y-64978628D02*
X145585714Y-64978628D01*
X147109523Y-65454819D02*
X146538095Y-65454819D01*
X146823809Y-65454819D02*
X146823809Y-64454819D01*
X146823809Y-64454819D02*
X146728571Y-64597676D01*
X146728571Y-64597676D02*
X146633333Y-64692914D01*
X146633333Y-64692914D02*
X146538095Y-64740533D01*
X148014285Y-64454819D02*
X147538095Y-64454819D01*
X147538095Y-64454819D02*
X147490476Y-64931009D01*
X147490476Y-64931009D02*
X147538095Y-64883390D01*
X147538095Y-64883390D02*
X147633333Y-64835771D01*
X147633333Y-64835771D02*
X147871428Y-64835771D01*
X147871428Y-64835771D02*
X147966666Y-64883390D01*
X147966666Y-64883390D02*
X148014285Y-64931009D01*
X148014285Y-64931009D02*
X148061904Y-65026247D01*
X148061904Y-65026247D02*
X148061904Y-65264342D01*
X148061904Y-65264342D02*
X148014285Y-65359580D01*
X148014285Y-65359580D02*
X147966666Y-65407200D01*
X147966666Y-65407200D02*
X147871428Y-65454819D01*
X147871428Y-65454819D02*
X147633333Y-65454819D01*
X147633333Y-65454819D02*
X147538095Y-65407200D01*
X147538095Y-65407200D02*
X147490476Y-65359580D01*
X155307142Y-61059580D02*
X155259523Y-61107200D01*
X155259523Y-61107200D02*
X155116666Y-61154819D01*
X155116666Y-61154819D02*
X155021428Y-61154819D01*
X155021428Y-61154819D02*
X154878571Y-61107200D01*
X154878571Y-61107200D02*
X154783333Y-61011961D01*
X154783333Y-61011961D02*
X154735714Y-60916723D01*
X154735714Y-60916723D02*
X154688095Y-60726247D01*
X154688095Y-60726247D02*
X154688095Y-60583390D01*
X154688095Y-60583390D02*
X154735714Y-60392914D01*
X154735714Y-60392914D02*
X154783333Y-60297676D01*
X154783333Y-60297676D02*
X154878571Y-60202438D01*
X154878571Y-60202438D02*
X155021428Y-60154819D01*
X155021428Y-60154819D02*
X155116666Y-60154819D01*
X155116666Y-60154819D02*
X155259523Y-60202438D01*
X155259523Y-60202438D02*
X155307142Y-60250057D01*
X156259523Y-61154819D02*
X155688095Y-61154819D01*
X155973809Y-61154819D02*
X155973809Y-60154819D01*
X155973809Y-60154819D02*
X155878571Y-60297676D01*
X155878571Y-60297676D02*
X155783333Y-60392914D01*
X155783333Y-60392914D02*
X155688095Y-60440533D01*
X157116666Y-60154819D02*
X156926190Y-60154819D01*
X156926190Y-60154819D02*
X156830952Y-60202438D01*
X156830952Y-60202438D02*
X156783333Y-60250057D01*
X156783333Y-60250057D02*
X156688095Y-60392914D01*
X156688095Y-60392914D02*
X156640476Y-60583390D01*
X156640476Y-60583390D02*
X156640476Y-60964342D01*
X156640476Y-60964342D02*
X156688095Y-61059580D01*
X156688095Y-61059580D02*
X156735714Y-61107200D01*
X156735714Y-61107200D02*
X156830952Y-61154819D01*
X156830952Y-61154819D02*
X157021428Y-61154819D01*
X157021428Y-61154819D02*
X157116666Y-61107200D01*
X157116666Y-61107200D02*
X157164285Y-61059580D01*
X157164285Y-61059580D02*
X157211904Y-60964342D01*
X157211904Y-60964342D02*
X157211904Y-60726247D01*
X157211904Y-60726247D02*
X157164285Y-60631009D01*
X157164285Y-60631009D02*
X157116666Y-60583390D01*
X157116666Y-60583390D02*
X157021428Y-60535771D01*
X157021428Y-60535771D02*
X156830952Y-60535771D01*
X156830952Y-60535771D02*
X156735714Y-60583390D01*
X156735714Y-60583390D02*
X156688095Y-60631009D01*
X156688095Y-60631009D02*
X156640476Y-60726247D01*
X150833333Y-79304819D02*
X150357143Y-79304819D01*
X150357143Y-79304819D02*
X150357143Y-78304819D01*
X151690476Y-79304819D02*
X151119048Y-79304819D01*
X151404762Y-79304819D02*
X151404762Y-78304819D01*
X151404762Y-78304819D02*
X151309524Y-78447676D01*
X151309524Y-78447676D02*
X151214286Y-78542914D01*
X151214286Y-78542914D02*
X151119048Y-78590533D01*
X110357142Y-76854819D02*
X110023809Y-76378628D01*
X109785714Y-76854819D02*
X109785714Y-75854819D01*
X109785714Y-75854819D02*
X110166666Y-75854819D01*
X110166666Y-75854819D02*
X110261904Y-75902438D01*
X110261904Y-75902438D02*
X110309523Y-75950057D01*
X110309523Y-75950057D02*
X110357142Y-76045295D01*
X110357142Y-76045295D02*
X110357142Y-76188152D01*
X110357142Y-76188152D02*
X110309523Y-76283390D01*
X110309523Y-76283390D02*
X110261904Y-76331009D01*
X110261904Y-76331009D02*
X110166666Y-76378628D01*
X110166666Y-76378628D02*
X109785714Y-76378628D01*
X111309523Y-76854819D02*
X110738095Y-76854819D01*
X111023809Y-76854819D02*
X111023809Y-75854819D01*
X111023809Y-75854819D02*
X110928571Y-75997676D01*
X110928571Y-75997676D02*
X110833333Y-76092914D01*
X110833333Y-76092914D02*
X110738095Y-76140533D01*
X111880952Y-76283390D02*
X111785714Y-76235771D01*
X111785714Y-76235771D02*
X111738095Y-76188152D01*
X111738095Y-76188152D02*
X111690476Y-76092914D01*
X111690476Y-76092914D02*
X111690476Y-76045295D01*
X111690476Y-76045295D02*
X111738095Y-75950057D01*
X111738095Y-75950057D02*
X111785714Y-75902438D01*
X111785714Y-75902438D02*
X111880952Y-75854819D01*
X111880952Y-75854819D02*
X112071428Y-75854819D01*
X112071428Y-75854819D02*
X112166666Y-75902438D01*
X112166666Y-75902438D02*
X112214285Y-75950057D01*
X112214285Y-75950057D02*
X112261904Y-76045295D01*
X112261904Y-76045295D02*
X112261904Y-76092914D01*
X112261904Y-76092914D02*
X112214285Y-76188152D01*
X112214285Y-76188152D02*
X112166666Y-76235771D01*
X112166666Y-76235771D02*
X112071428Y-76283390D01*
X112071428Y-76283390D02*
X111880952Y-76283390D01*
X111880952Y-76283390D02*
X111785714Y-76331009D01*
X111785714Y-76331009D02*
X111738095Y-76378628D01*
X111738095Y-76378628D02*
X111690476Y-76473866D01*
X111690476Y-76473866D02*
X111690476Y-76664342D01*
X111690476Y-76664342D02*
X111738095Y-76759580D01*
X111738095Y-76759580D02*
X111785714Y-76807200D01*
X111785714Y-76807200D02*
X111880952Y-76854819D01*
X111880952Y-76854819D02*
X112071428Y-76854819D01*
X112071428Y-76854819D02*
X112166666Y-76807200D01*
X112166666Y-76807200D02*
X112214285Y-76759580D01*
X112214285Y-76759580D02*
X112261904Y-76664342D01*
X112261904Y-76664342D02*
X112261904Y-76473866D01*
X112261904Y-76473866D02*
X112214285Y-76378628D01*
X112214285Y-76378628D02*
X112166666Y-76331009D01*
X112166666Y-76331009D02*
X112071428Y-76283390D01*
X111583333Y-68704819D02*
X111250000Y-68228628D01*
X111011905Y-68704819D02*
X111011905Y-67704819D01*
X111011905Y-67704819D02*
X111392857Y-67704819D01*
X111392857Y-67704819D02*
X111488095Y-67752438D01*
X111488095Y-67752438D02*
X111535714Y-67800057D01*
X111535714Y-67800057D02*
X111583333Y-67895295D01*
X111583333Y-67895295D02*
X111583333Y-68038152D01*
X111583333Y-68038152D02*
X111535714Y-68133390D01*
X111535714Y-68133390D02*
X111488095Y-68181009D01*
X111488095Y-68181009D02*
X111392857Y-68228628D01*
X111392857Y-68228628D02*
X111011905Y-68228628D01*
X112535714Y-68704819D02*
X111964286Y-68704819D01*
X112250000Y-68704819D02*
X112250000Y-67704819D01*
X112250000Y-67704819D02*
X112154762Y-67847676D01*
X112154762Y-67847676D02*
X112059524Y-67942914D01*
X112059524Y-67942914D02*
X111964286Y-67990533D01*
X131654819Y-59433332D02*
X130654819Y-59433332D01*
X130654819Y-59433332D02*
X131369104Y-59099999D01*
X131369104Y-59099999D02*
X130654819Y-58766666D01*
X130654819Y-58766666D02*
X131654819Y-58766666D01*
X131654819Y-58290475D02*
X130654819Y-58290475D01*
X131559580Y-57242857D02*
X131607200Y-57290476D01*
X131607200Y-57290476D02*
X131654819Y-57433333D01*
X131654819Y-57433333D02*
X131654819Y-57528571D01*
X131654819Y-57528571D02*
X131607200Y-57671428D01*
X131607200Y-57671428D02*
X131511961Y-57766666D01*
X131511961Y-57766666D02*
X131416723Y-57814285D01*
X131416723Y-57814285D02*
X131226247Y-57861904D01*
X131226247Y-57861904D02*
X131083390Y-57861904D01*
X131083390Y-57861904D02*
X130892914Y-57814285D01*
X130892914Y-57814285D02*
X130797676Y-57766666D01*
X130797676Y-57766666D02*
X130702438Y-57671428D01*
X130702438Y-57671428D02*
X130654819Y-57528571D01*
X130654819Y-57528571D02*
X130654819Y-57433333D01*
X130654819Y-57433333D02*
X130702438Y-57290476D01*
X130702438Y-57290476D02*
X130750057Y-57242857D01*
X130654819Y-56623809D02*
X130654819Y-56528571D01*
X130654819Y-56528571D02*
X130702438Y-56433333D01*
X130702438Y-56433333D02*
X130750057Y-56385714D01*
X130750057Y-56385714D02*
X130845295Y-56338095D01*
X130845295Y-56338095D02*
X131035771Y-56290476D01*
X131035771Y-56290476D02*
X131273866Y-56290476D01*
X131273866Y-56290476D02*
X131464342Y-56338095D01*
X131464342Y-56338095D02*
X131559580Y-56385714D01*
X131559580Y-56385714D02*
X131607200Y-56433333D01*
X131607200Y-56433333D02*
X131654819Y-56528571D01*
X131654819Y-56528571D02*
X131654819Y-56623809D01*
X131654819Y-56623809D02*
X131607200Y-56719047D01*
X131607200Y-56719047D02*
X131559580Y-56766666D01*
X131559580Y-56766666D02*
X131464342Y-56814285D01*
X131464342Y-56814285D02*
X131273866Y-56861904D01*
X131273866Y-56861904D02*
X131035771Y-56861904D01*
X131035771Y-56861904D02*
X130845295Y-56814285D01*
X130845295Y-56814285D02*
X130750057Y-56766666D01*
X130750057Y-56766666D02*
X130702438Y-56719047D01*
X130702438Y-56719047D02*
X130654819Y-56623809D01*
X131750057Y-56100000D02*
X131750057Y-55338095D01*
X131654819Y-54623809D02*
X131654819Y-55099999D01*
X131654819Y-55099999D02*
X130654819Y-55099999D01*
X131654819Y-54290475D02*
X130654819Y-54290475D01*
X130654819Y-54290475D02*
X130654819Y-53909523D01*
X130654819Y-53909523D02*
X130702438Y-53814285D01*
X130702438Y-53814285D02*
X130750057Y-53766666D01*
X130750057Y-53766666D02*
X130845295Y-53719047D01*
X130845295Y-53719047D02*
X130988152Y-53719047D01*
X130988152Y-53719047D02*
X131083390Y-53766666D01*
X131083390Y-53766666D02*
X131131009Y-53814285D01*
X131131009Y-53814285D02*
X131178628Y-53909523D01*
X131178628Y-53909523D02*
X131178628Y-54290475D01*
X132559580Y-65242857D02*
X132607200Y-65290476D01*
X132607200Y-65290476D02*
X132654819Y-65433333D01*
X132654819Y-65433333D02*
X132654819Y-65528571D01*
X132654819Y-65528571D02*
X132607200Y-65671428D01*
X132607200Y-65671428D02*
X132511961Y-65766666D01*
X132511961Y-65766666D02*
X132416723Y-65814285D01*
X132416723Y-65814285D02*
X132226247Y-65861904D01*
X132226247Y-65861904D02*
X132083390Y-65861904D01*
X132083390Y-65861904D02*
X131892914Y-65814285D01*
X131892914Y-65814285D02*
X131797676Y-65766666D01*
X131797676Y-65766666D02*
X131702438Y-65671428D01*
X131702438Y-65671428D02*
X131654819Y-65528571D01*
X131654819Y-65528571D02*
X131654819Y-65433333D01*
X131654819Y-65433333D02*
X131702438Y-65290476D01*
X131702438Y-65290476D02*
X131750057Y-65242857D01*
X132654819Y-64290476D02*
X132654819Y-64861904D01*
X132654819Y-64576190D02*
X131654819Y-64576190D01*
X131654819Y-64576190D02*
X131797676Y-64671428D01*
X131797676Y-64671428D02*
X131892914Y-64766666D01*
X131892914Y-64766666D02*
X131940533Y-64861904D01*
X131988152Y-63433333D02*
X132654819Y-63433333D01*
X131607200Y-63671428D02*
X132321485Y-63909523D01*
X132321485Y-63909523D02*
X132321485Y-63290476D01*
X107633333Y-61959580D02*
X107585714Y-62007200D01*
X107585714Y-62007200D02*
X107442857Y-62054819D01*
X107442857Y-62054819D02*
X107347619Y-62054819D01*
X107347619Y-62054819D02*
X107204762Y-62007200D01*
X107204762Y-62007200D02*
X107109524Y-61911961D01*
X107109524Y-61911961D02*
X107061905Y-61816723D01*
X107061905Y-61816723D02*
X107014286Y-61626247D01*
X107014286Y-61626247D02*
X107014286Y-61483390D01*
X107014286Y-61483390D02*
X107061905Y-61292914D01*
X107061905Y-61292914D02*
X107109524Y-61197676D01*
X107109524Y-61197676D02*
X107204762Y-61102438D01*
X107204762Y-61102438D02*
X107347619Y-61054819D01*
X107347619Y-61054819D02*
X107442857Y-61054819D01*
X107442857Y-61054819D02*
X107585714Y-61102438D01*
X107585714Y-61102438D02*
X107633333Y-61150057D01*
X108490476Y-61388152D02*
X108490476Y-62054819D01*
X108252381Y-61007200D02*
X108014286Y-61721485D01*
X108014286Y-61721485D02*
X108633333Y-61721485D01*
X150514286Y-87807200D02*
X150657143Y-87854819D01*
X150657143Y-87854819D02*
X150895238Y-87854819D01*
X150895238Y-87854819D02*
X150990476Y-87807200D01*
X150990476Y-87807200D02*
X151038095Y-87759580D01*
X151038095Y-87759580D02*
X151085714Y-87664342D01*
X151085714Y-87664342D02*
X151085714Y-87569104D01*
X151085714Y-87569104D02*
X151038095Y-87473866D01*
X151038095Y-87473866D02*
X150990476Y-87426247D01*
X150990476Y-87426247D02*
X150895238Y-87378628D01*
X150895238Y-87378628D02*
X150704762Y-87331009D01*
X150704762Y-87331009D02*
X150609524Y-87283390D01*
X150609524Y-87283390D02*
X150561905Y-87235771D01*
X150561905Y-87235771D02*
X150514286Y-87140533D01*
X150514286Y-87140533D02*
X150514286Y-87045295D01*
X150514286Y-87045295D02*
X150561905Y-86950057D01*
X150561905Y-86950057D02*
X150609524Y-86902438D01*
X150609524Y-86902438D02*
X150704762Y-86854819D01*
X150704762Y-86854819D02*
X150942857Y-86854819D01*
X150942857Y-86854819D02*
X151085714Y-86902438D01*
X151514286Y-87854819D02*
X151514286Y-86854819D01*
X151514286Y-86854819D02*
X151895238Y-86854819D01*
X151895238Y-86854819D02*
X151990476Y-86902438D01*
X151990476Y-86902438D02*
X152038095Y-86950057D01*
X152038095Y-86950057D02*
X152085714Y-87045295D01*
X152085714Y-87045295D02*
X152085714Y-87188152D01*
X152085714Y-87188152D02*
X152038095Y-87283390D01*
X152038095Y-87283390D02*
X151990476Y-87331009D01*
X151990476Y-87331009D02*
X151895238Y-87378628D01*
X151895238Y-87378628D02*
X151514286Y-87378628D01*
X152514286Y-87854819D02*
X152514286Y-86854819D01*
X153085714Y-87854819D02*
X152657143Y-87283390D01*
X153085714Y-86854819D02*
X152514286Y-87426247D01*
X150857142Y-76959580D02*
X150809523Y-77007200D01*
X150809523Y-77007200D02*
X150666666Y-77054819D01*
X150666666Y-77054819D02*
X150571428Y-77054819D01*
X150571428Y-77054819D02*
X150428571Y-77007200D01*
X150428571Y-77007200D02*
X150333333Y-76911961D01*
X150333333Y-76911961D02*
X150285714Y-76816723D01*
X150285714Y-76816723D02*
X150238095Y-76626247D01*
X150238095Y-76626247D02*
X150238095Y-76483390D01*
X150238095Y-76483390D02*
X150285714Y-76292914D01*
X150285714Y-76292914D02*
X150333333Y-76197676D01*
X150333333Y-76197676D02*
X150428571Y-76102438D01*
X150428571Y-76102438D02*
X150571428Y-76054819D01*
X150571428Y-76054819D02*
X150666666Y-76054819D01*
X150666666Y-76054819D02*
X150809523Y-76102438D01*
X150809523Y-76102438D02*
X150857142Y-76150057D01*
X151238095Y-76150057D02*
X151285714Y-76102438D01*
X151285714Y-76102438D02*
X151380952Y-76054819D01*
X151380952Y-76054819D02*
X151619047Y-76054819D01*
X151619047Y-76054819D02*
X151714285Y-76102438D01*
X151714285Y-76102438D02*
X151761904Y-76150057D01*
X151761904Y-76150057D02*
X151809523Y-76245295D01*
X151809523Y-76245295D02*
X151809523Y-76340533D01*
X151809523Y-76340533D02*
X151761904Y-76483390D01*
X151761904Y-76483390D02*
X151190476Y-77054819D01*
X151190476Y-77054819D02*
X151809523Y-77054819D01*
X152380952Y-76483390D02*
X152285714Y-76435771D01*
X152285714Y-76435771D02*
X152238095Y-76388152D01*
X152238095Y-76388152D02*
X152190476Y-76292914D01*
X152190476Y-76292914D02*
X152190476Y-76245295D01*
X152190476Y-76245295D02*
X152238095Y-76150057D01*
X152238095Y-76150057D02*
X152285714Y-76102438D01*
X152285714Y-76102438D02*
X152380952Y-76054819D01*
X152380952Y-76054819D02*
X152571428Y-76054819D01*
X152571428Y-76054819D02*
X152666666Y-76102438D01*
X152666666Y-76102438D02*
X152714285Y-76150057D01*
X152714285Y-76150057D02*
X152761904Y-76245295D01*
X152761904Y-76245295D02*
X152761904Y-76292914D01*
X152761904Y-76292914D02*
X152714285Y-76388152D01*
X152714285Y-76388152D02*
X152666666Y-76435771D01*
X152666666Y-76435771D02*
X152571428Y-76483390D01*
X152571428Y-76483390D02*
X152380952Y-76483390D01*
X152380952Y-76483390D02*
X152285714Y-76531009D01*
X152285714Y-76531009D02*
X152238095Y-76578628D01*
X152238095Y-76578628D02*
X152190476Y-76673866D01*
X152190476Y-76673866D02*
X152190476Y-76864342D01*
X152190476Y-76864342D02*
X152238095Y-76959580D01*
X152238095Y-76959580D02*
X152285714Y-77007200D01*
X152285714Y-77007200D02*
X152380952Y-77054819D01*
X152380952Y-77054819D02*
X152571428Y-77054819D01*
X152571428Y-77054819D02*
X152666666Y-77007200D01*
X152666666Y-77007200D02*
X152714285Y-76959580D01*
X152714285Y-76959580D02*
X152761904Y-76864342D01*
X152761904Y-76864342D02*
X152761904Y-76673866D01*
X152761904Y-76673866D02*
X152714285Y-76578628D01*
X152714285Y-76578628D02*
X152666666Y-76531009D01*
X152666666Y-76531009D02*
X152571428Y-76483390D01*
X132704761Y-85950057D02*
X132609523Y-85902438D01*
X132609523Y-85902438D02*
X132514285Y-85807200D01*
X132514285Y-85807200D02*
X132371428Y-85664342D01*
X132371428Y-85664342D02*
X132276190Y-85616723D01*
X132276190Y-85616723D02*
X132180952Y-85616723D01*
X132228571Y-85854819D02*
X132133333Y-85807200D01*
X132133333Y-85807200D02*
X132038095Y-85711961D01*
X132038095Y-85711961D02*
X131990476Y-85521485D01*
X131990476Y-85521485D02*
X131990476Y-85188152D01*
X131990476Y-85188152D02*
X132038095Y-84997676D01*
X132038095Y-84997676D02*
X132133333Y-84902438D01*
X132133333Y-84902438D02*
X132228571Y-84854819D01*
X132228571Y-84854819D02*
X132419047Y-84854819D01*
X132419047Y-84854819D02*
X132514285Y-84902438D01*
X132514285Y-84902438D02*
X132609523Y-84997676D01*
X132609523Y-84997676D02*
X132657142Y-85188152D01*
X132657142Y-85188152D02*
X132657142Y-85521485D01*
X132657142Y-85521485D02*
X132609523Y-85711961D01*
X132609523Y-85711961D02*
X132514285Y-85807200D01*
X132514285Y-85807200D02*
X132419047Y-85854819D01*
X132419047Y-85854819D02*
X132228571Y-85854819D01*
X133609523Y-85854819D02*
X133038095Y-85854819D01*
X133323809Y-85854819D02*
X133323809Y-84854819D01*
X133323809Y-84854819D02*
X133228571Y-84997676D01*
X133228571Y-84997676D02*
X133133333Y-85092914D01*
X133133333Y-85092914D02*
X133038095Y-85140533D01*
X132333333Y-72359580D02*
X132285714Y-72407200D01*
X132285714Y-72407200D02*
X132142857Y-72454819D01*
X132142857Y-72454819D02*
X132047619Y-72454819D01*
X132047619Y-72454819D02*
X131904762Y-72407200D01*
X131904762Y-72407200D02*
X131809524Y-72311961D01*
X131809524Y-72311961D02*
X131761905Y-72216723D01*
X131761905Y-72216723D02*
X131714286Y-72026247D01*
X131714286Y-72026247D02*
X131714286Y-71883390D01*
X131714286Y-71883390D02*
X131761905Y-71692914D01*
X131761905Y-71692914D02*
X131809524Y-71597676D01*
X131809524Y-71597676D02*
X131904762Y-71502438D01*
X131904762Y-71502438D02*
X132047619Y-71454819D01*
X132047619Y-71454819D02*
X132142857Y-71454819D01*
X132142857Y-71454819D02*
X132285714Y-71502438D01*
X132285714Y-71502438D02*
X132333333Y-71550057D01*
X133285714Y-72454819D02*
X132714286Y-72454819D01*
X133000000Y-72454819D02*
X133000000Y-71454819D01*
X133000000Y-71454819D02*
X132904762Y-71597676D01*
X132904762Y-71597676D02*
X132809524Y-71692914D01*
X132809524Y-71692914D02*
X132714286Y-71740533D01*
X153157142Y-70909580D02*
X153109523Y-70957200D01*
X153109523Y-70957200D02*
X152966666Y-71004819D01*
X152966666Y-71004819D02*
X152871428Y-71004819D01*
X152871428Y-71004819D02*
X152728571Y-70957200D01*
X152728571Y-70957200D02*
X152633333Y-70861961D01*
X152633333Y-70861961D02*
X152585714Y-70766723D01*
X152585714Y-70766723D02*
X152538095Y-70576247D01*
X152538095Y-70576247D02*
X152538095Y-70433390D01*
X152538095Y-70433390D02*
X152585714Y-70242914D01*
X152585714Y-70242914D02*
X152633333Y-70147676D01*
X152633333Y-70147676D02*
X152728571Y-70052438D01*
X152728571Y-70052438D02*
X152871428Y-70004819D01*
X152871428Y-70004819D02*
X152966666Y-70004819D01*
X152966666Y-70004819D02*
X153109523Y-70052438D01*
X153109523Y-70052438D02*
X153157142Y-70100057D01*
X153538095Y-70100057D02*
X153585714Y-70052438D01*
X153585714Y-70052438D02*
X153680952Y-70004819D01*
X153680952Y-70004819D02*
X153919047Y-70004819D01*
X153919047Y-70004819D02*
X154014285Y-70052438D01*
X154014285Y-70052438D02*
X154061904Y-70100057D01*
X154061904Y-70100057D02*
X154109523Y-70195295D01*
X154109523Y-70195295D02*
X154109523Y-70290533D01*
X154109523Y-70290533D02*
X154061904Y-70433390D01*
X154061904Y-70433390D02*
X153490476Y-71004819D01*
X153490476Y-71004819D02*
X154109523Y-71004819D01*
X154728571Y-70004819D02*
X154823809Y-70004819D01*
X154823809Y-70004819D02*
X154919047Y-70052438D01*
X154919047Y-70052438D02*
X154966666Y-70100057D01*
X154966666Y-70100057D02*
X155014285Y-70195295D01*
X155014285Y-70195295D02*
X155061904Y-70385771D01*
X155061904Y-70385771D02*
X155061904Y-70623866D01*
X155061904Y-70623866D02*
X155014285Y-70814342D01*
X155014285Y-70814342D02*
X154966666Y-70909580D01*
X154966666Y-70909580D02*
X154919047Y-70957200D01*
X154919047Y-70957200D02*
X154823809Y-71004819D01*
X154823809Y-71004819D02*
X154728571Y-71004819D01*
X154728571Y-71004819D02*
X154633333Y-70957200D01*
X154633333Y-70957200D02*
X154585714Y-70909580D01*
X154585714Y-70909580D02*
X154538095Y-70814342D01*
X154538095Y-70814342D02*
X154490476Y-70623866D01*
X154490476Y-70623866D02*
X154490476Y-70385771D01*
X154490476Y-70385771D02*
X154538095Y-70195295D01*
X154538095Y-70195295D02*
X154585714Y-70100057D01*
X154585714Y-70100057D02*
X154633333Y-70052438D01*
X154633333Y-70052438D02*
X154728571Y-70004819D01*
X155307142Y-63059580D02*
X155259523Y-63107200D01*
X155259523Y-63107200D02*
X155116666Y-63154819D01*
X155116666Y-63154819D02*
X155021428Y-63154819D01*
X155021428Y-63154819D02*
X154878571Y-63107200D01*
X154878571Y-63107200D02*
X154783333Y-63011961D01*
X154783333Y-63011961D02*
X154735714Y-62916723D01*
X154735714Y-62916723D02*
X154688095Y-62726247D01*
X154688095Y-62726247D02*
X154688095Y-62583390D01*
X154688095Y-62583390D02*
X154735714Y-62392914D01*
X154735714Y-62392914D02*
X154783333Y-62297676D01*
X154783333Y-62297676D02*
X154878571Y-62202438D01*
X154878571Y-62202438D02*
X155021428Y-62154819D01*
X155021428Y-62154819D02*
X155116666Y-62154819D01*
X155116666Y-62154819D02*
X155259523Y-62202438D01*
X155259523Y-62202438D02*
X155307142Y-62250057D01*
X156259523Y-63154819D02*
X155688095Y-63154819D01*
X155973809Y-63154819D02*
X155973809Y-62154819D01*
X155973809Y-62154819D02*
X155878571Y-62297676D01*
X155878571Y-62297676D02*
X155783333Y-62392914D01*
X155783333Y-62392914D02*
X155688095Y-62440533D01*
X156592857Y-62154819D02*
X157259523Y-62154819D01*
X157259523Y-62154819D02*
X156830952Y-63154819D01*
X111658333Y-88209580D02*
X111610714Y-88257200D01*
X111610714Y-88257200D02*
X111467857Y-88304819D01*
X111467857Y-88304819D02*
X111372619Y-88304819D01*
X111372619Y-88304819D02*
X111229762Y-88257200D01*
X111229762Y-88257200D02*
X111134524Y-88161961D01*
X111134524Y-88161961D02*
X111086905Y-88066723D01*
X111086905Y-88066723D02*
X111039286Y-87876247D01*
X111039286Y-87876247D02*
X111039286Y-87733390D01*
X111039286Y-87733390D02*
X111086905Y-87542914D01*
X111086905Y-87542914D02*
X111134524Y-87447676D01*
X111134524Y-87447676D02*
X111229762Y-87352438D01*
X111229762Y-87352438D02*
X111372619Y-87304819D01*
X111372619Y-87304819D02*
X111467857Y-87304819D01*
X111467857Y-87304819D02*
X111610714Y-87352438D01*
X111610714Y-87352438D02*
X111658333Y-87400057D01*
X112134524Y-88304819D02*
X112325000Y-88304819D01*
X112325000Y-88304819D02*
X112420238Y-88257200D01*
X112420238Y-88257200D02*
X112467857Y-88209580D01*
X112467857Y-88209580D02*
X112563095Y-88066723D01*
X112563095Y-88066723D02*
X112610714Y-87876247D01*
X112610714Y-87876247D02*
X112610714Y-87495295D01*
X112610714Y-87495295D02*
X112563095Y-87400057D01*
X112563095Y-87400057D02*
X112515476Y-87352438D01*
X112515476Y-87352438D02*
X112420238Y-87304819D01*
X112420238Y-87304819D02*
X112229762Y-87304819D01*
X112229762Y-87304819D02*
X112134524Y-87352438D01*
X112134524Y-87352438D02*
X112086905Y-87400057D01*
X112086905Y-87400057D02*
X112039286Y-87495295D01*
X112039286Y-87495295D02*
X112039286Y-87733390D01*
X112039286Y-87733390D02*
X112086905Y-87828628D01*
X112086905Y-87828628D02*
X112134524Y-87876247D01*
X112134524Y-87876247D02*
X112229762Y-87923866D01*
X112229762Y-87923866D02*
X112420238Y-87923866D01*
X112420238Y-87923866D02*
X112515476Y-87876247D01*
X112515476Y-87876247D02*
X112563095Y-87828628D01*
X112563095Y-87828628D02*
X112610714Y-87733390D01*
D14*
%TO.C,C6*%
X137722500Y-68657776D02*
X137722500Y-69167224D01*
X136677500Y-68657776D02*
X136677500Y-69167224D01*
%TO.C,C25*%
X139522500Y-68657776D02*
X139522500Y-69167224D01*
X138477500Y-68657776D02*
X138477500Y-69167224D01*
D15*
%TO.C,G\u002A\u002A\u002A*%
G36*
X104828942Y-55640287D02*
G01*
X104832675Y-55641077D01*
X104840204Y-55642846D01*
X104846489Y-55646102D01*
X104851205Y-55652768D01*
X104854024Y-55664766D01*
X104854618Y-55684020D01*
X104852661Y-55712452D01*
X104847823Y-55751984D01*
X104839779Y-55804539D01*
X104828201Y-55872041D01*
X104812761Y-55956411D01*
X104793131Y-56059573D01*
X104768986Y-56183448D01*
X104739997Y-56329960D01*
X104705836Y-56501032D01*
X104666176Y-56698585D01*
X104620691Y-56924544D01*
X104578260Y-57135130D01*
X104583923Y-57135464D01*
X104605068Y-57111194D01*
X104639717Y-57065199D01*
X104685889Y-57000361D01*
X104741603Y-56919559D01*
X104804879Y-56825675D01*
X104873737Y-56721589D01*
X104946197Y-56610182D01*
X105020277Y-56494333D01*
X105037208Y-56467566D01*
X105134195Y-56314376D01*
X105215659Y-56186958D01*
X105283097Y-56083323D01*
X105338007Y-56001484D01*
X105381886Y-55939449D01*
X105416232Y-55895231D01*
X105442541Y-55866840D01*
X105462311Y-55852286D01*
X105477040Y-55849581D01*
X105488225Y-55856736D01*
X105492532Y-55862693D01*
X105494213Y-55869436D01*
X105491429Y-55881146D01*
X105482323Y-55901035D01*
X105465038Y-55932316D01*
X105437716Y-55978200D01*
X105398501Y-56041899D01*
X105345535Y-56126624D01*
X105276961Y-56235589D01*
X105276371Y-56236525D01*
X105166219Y-56410062D01*
X105063621Y-56568893D01*
X104959810Y-56726490D01*
X104873967Y-56854829D01*
X104828389Y-56922800D01*
X104787686Y-56983867D01*
X104756317Y-57031320D01*
X104738795Y-57058355D01*
X104745043Y-57054771D01*
X104771944Y-57030087D01*
X104817333Y-56986434D01*
X104879045Y-56925946D01*
X104954914Y-56850753D01*
X105042776Y-56762989D01*
X105140466Y-56664786D01*
X105219116Y-56585326D01*
X105324522Y-56479036D01*
X105423263Y-56380281D01*
X105512926Y-56291411D01*
X105591102Y-56214780D01*
X105655381Y-56152740D01*
X105703350Y-56107641D01*
X105732601Y-56081837D01*
X105740598Y-56076512D01*
X105761621Y-56089936D01*
X105769578Y-56103819D01*
X105765804Y-56116786D01*
X105748128Y-56142266D01*
X105715274Y-56181632D01*
X105665963Y-56236254D01*
X105598917Y-56307505D01*
X105512859Y-56396757D01*
X105406509Y-56505381D01*
X105278591Y-56634748D01*
X105219673Y-56694044D01*
X104659399Y-57257246D01*
X104648646Y-57369251D01*
X104635000Y-57464728D01*
X104612487Y-57532764D01*
X104576837Y-57578160D01*
X104523777Y-57605714D01*
X104449037Y-57620224D01*
X104423105Y-57622646D01*
X104307397Y-57631733D01*
X104303941Y-57700068D01*
X104300485Y-57768403D01*
X104380909Y-57736702D01*
X104437551Y-57718109D01*
X104490547Y-57706704D01*
X104510830Y-57705002D01*
X104565111Y-57720190D01*
X104615285Y-57761521D01*
X104655109Y-57822642D01*
X104672311Y-57869320D01*
X104686407Y-57943886D01*
X104692845Y-58027722D01*
X104691572Y-58109376D01*
X104682533Y-58177400D01*
X104673890Y-58205675D01*
X104644882Y-58245835D01*
X104606946Y-58258870D01*
X104564653Y-58247289D01*
X104522572Y-58213604D01*
X104485275Y-58160324D01*
X104457332Y-58089958D01*
X104456303Y-58086187D01*
X104440446Y-58041555D01*
X104422713Y-58012179D01*
X104416179Y-58007228D01*
X104401539Y-58008105D01*
X104395976Y-58028105D01*
X104399414Y-58071173D01*
X104411777Y-58141255D01*
X104413442Y-58149605D01*
X104422879Y-58205660D01*
X104422668Y-58242170D01*
X104412055Y-58270915D01*
X104404926Y-58282577D01*
X104374236Y-58315775D01*
X104341907Y-58319274D01*
X104303197Y-58292926D01*
X104289412Y-58278944D01*
X104255676Y-58231458D01*
X104230352Y-58176799D01*
X104229189Y-58173111D01*
X104213887Y-58133092D01*
X104193456Y-58115823D01*
X104156736Y-58112055D01*
X104155525Y-58112053D01*
X104077745Y-58097565D01*
X104004771Y-58053068D01*
X103958690Y-58007497D01*
X103907353Y-57928033D01*
X103879894Y-57831859D01*
X103874065Y-57748792D01*
X103873975Y-57670466D01*
X103764065Y-57681296D01*
X103697727Y-57684827D01*
X103651263Y-57676798D01*
X103619283Y-57652358D01*
X103596398Y-57606656D01*
X103577220Y-57534839D01*
X103571474Y-57507912D01*
X103556903Y-57447024D01*
X103541541Y-57397806D01*
X103528433Y-57369844D01*
X103527081Y-57368297D01*
X103508301Y-57355268D01*
X103465205Y-57328265D01*
X103401663Y-57289621D01*
X103321547Y-57241668D01*
X103228726Y-57186740D01*
X103127073Y-57127169D01*
X103125000Y-57125960D01*
X102962453Y-57031093D01*
X102825840Y-56951116D01*
X102712920Y-56884599D01*
X102621448Y-56830112D01*
X102549180Y-56786222D01*
X102493874Y-56751500D01*
X102453286Y-56724516D01*
X102425172Y-56703837D01*
X102407289Y-56688035D01*
X102397393Y-56675677D01*
X102393241Y-56665334D01*
X102392557Y-56658880D01*
X102405004Y-56646495D01*
X102442919Y-56653529D01*
X102505805Y-56679745D01*
X102593165Y-56724911D01*
X102704503Y-56788791D01*
X102831923Y-56866530D01*
X102874409Y-56892592D01*
X102934569Y-56928914D01*
X103006599Y-56972056D01*
X103084696Y-57018575D01*
X103163055Y-57065030D01*
X103235874Y-57107978D01*
X103297348Y-57143978D01*
X103341674Y-57169588D01*
X103361591Y-57180645D01*
X103358041Y-57173540D01*
X103333596Y-57145955D01*
X103290553Y-57100269D01*
X103231213Y-57038857D01*
X103157874Y-56964096D01*
X103072837Y-56878364D01*
X102978399Y-56784038D01*
X102966751Y-56772460D01*
X102869632Y-56675385D01*
X102780239Y-56584903D01*
X102701135Y-56503695D01*
X102634884Y-56434440D01*
X102584049Y-56379821D01*
X102551192Y-56342516D01*
X102538877Y-56325208D01*
X102538846Y-56324909D01*
X102542871Y-56310069D01*
X102556079Y-56307533D01*
X102580168Y-56318723D01*
X102616838Y-56345058D01*
X102667787Y-56387961D01*
X102734715Y-56448851D01*
X102819321Y-56529149D01*
X102923303Y-56630276D01*
X103031015Y-56736468D01*
X103129647Y-56833993D01*
X103222152Y-56925188D01*
X103305701Y-57007284D01*
X103377468Y-57077517D01*
X103434626Y-57133118D01*
X103474346Y-57171321D01*
X103493802Y-57189360D01*
X103493847Y-57189398D01*
X103502062Y-57191393D01*
X103501194Y-57174996D01*
X103490510Y-57138056D01*
X103469279Y-57078422D01*
X103436767Y-56993943D01*
X103392244Y-56882467D01*
X103374668Y-56839085D01*
X103302660Y-56660647D01*
X103237803Y-56497527D01*
X103180898Y-56351848D01*
X103132744Y-56225733D01*
X103094141Y-56121303D01*
X103065889Y-56040681D01*
X103048788Y-55985990D01*
X103043590Y-55960484D01*
X103051036Y-55934273D01*
X103070669Y-55935823D01*
X103098431Y-55964674D01*
X103100008Y-55966893D01*
X103112650Y-55991388D01*
X103135266Y-56041878D01*
X103166028Y-56114011D01*
X103203106Y-56203431D01*
X103244673Y-56305784D01*
X103288902Y-56416716D01*
X103289693Y-56418720D01*
X103374591Y-56632177D01*
X103451771Y-56823174D01*
X103520748Y-56990585D01*
X103581035Y-57133278D01*
X103632147Y-57250125D01*
X103673596Y-57339997D01*
X103704896Y-57401764D01*
X103725563Y-57434298D01*
X103728201Y-57437040D01*
X103745577Y-57450499D01*
X103763966Y-57454802D01*
X103791032Y-57448580D01*
X103834441Y-57430466D01*
X103877962Y-57410303D01*
X103926028Y-57388317D01*
X103965436Y-57373041D01*
X104003931Y-57363198D01*
X104049254Y-57357510D01*
X104109149Y-57354702D01*
X104191358Y-57353497D01*
X104224039Y-57353238D01*
X104451987Y-57351539D01*
X104479571Y-57222982D01*
X104488851Y-57178680D01*
X104503651Y-57106693D01*
X104523111Y-57011269D01*
X104546369Y-56896656D01*
X104572564Y-56767100D01*
X104600834Y-56626849D01*
X104630318Y-56480152D01*
X104639375Y-56435002D01*
X104675538Y-56254676D01*
X104705905Y-56103694D01*
X104731104Y-55979476D01*
X104751762Y-55879444D01*
X104768508Y-55801017D01*
X104781969Y-55741616D01*
X104792775Y-55698661D01*
X104801552Y-55669572D01*
X104808929Y-55651770D01*
X104815535Y-55642675D01*
X104821996Y-55639707D01*
X104828942Y-55640287D01*
G37*
G36*
X104138029Y-56986075D02*
G01*
X104193390Y-57023177D01*
X104228471Y-57077328D01*
X104239177Y-57142240D01*
X104221783Y-57210853D01*
X104177698Y-57271189D01*
X104118806Y-57304655D01*
X104050923Y-57309581D01*
X103979867Y-57284296D01*
X103975332Y-57281600D01*
X103919777Y-57231978D01*
X103893264Y-57172136D01*
X103896468Y-57107846D01*
X103930065Y-57044882D01*
X103945616Y-57027669D01*
X103988867Y-56990975D01*
X104030049Y-56974951D01*
X104066482Y-56972310D01*
X104138029Y-56986075D01*
G37*
G36*
X107024552Y-55775806D02*
G01*
X107117495Y-55776360D01*
X107184944Y-55778412D01*
X107233961Y-55782869D01*
X107271609Y-55790640D01*
X107304952Y-55802631D01*
X107332199Y-55815343D01*
X107437157Y-55882943D01*
X107517497Y-55970378D01*
X107573466Y-56078234D01*
X107605309Y-56207102D01*
X107613273Y-56357567D01*
X107605636Y-56468378D01*
X107573384Y-56657849D01*
X107521105Y-56822250D01*
X107448947Y-56961342D01*
X107357062Y-57074887D01*
X107245599Y-57162646D01*
X107134489Y-57217203D01*
X107067507Y-57235346D01*
X106979157Y-57249225D01*
X106879982Y-57258193D01*
X106780530Y-57261602D01*
X106691346Y-57258803D01*
X106622976Y-57249148D01*
X106621318Y-57248736D01*
X106509688Y-57205489D01*
X106411359Y-57138040D01*
X106332792Y-57051698D01*
X106290289Y-56976743D01*
X106274518Y-56921373D01*
X106262888Y-56842460D01*
X106255824Y-56748813D01*
X106254823Y-56700648D01*
X106616191Y-56700648D01*
X106620989Y-56812188D01*
X106641113Y-56898766D01*
X106677316Y-56962647D01*
X106730355Y-57006093D01*
X106780999Y-57026451D01*
X106838260Y-57032267D01*
X106909093Y-57025751D01*
X106978016Y-57009276D01*
X107023500Y-56989242D01*
X107091574Y-56928831D01*
X107148894Y-56839342D01*
X107194647Y-56722704D01*
X107228019Y-56580850D01*
X107243648Y-56466890D01*
X107252504Y-56340789D01*
X107249883Y-56239861D01*
X107235257Y-56158610D01*
X107208102Y-56091543D01*
X107207634Y-56090685D01*
X107158949Y-56032790D01*
X107092697Y-55996792D01*
X107015626Y-55982924D01*
X106934484Y-55991422D01*
X106856019Y-56022520D01*
X106787350Y-56076064D01*
X106738460Y-56145335D01*
X106695545Y-56242134D01*
X106660179Y-56361725D01*
X106633935Y-56499372D01*
X106625961Y-56561882D01*
X106616191Y-56700648D01*
X106254823Y-56700648D01*
X106253755Y-56649241D01*
X106257107Y-56552554D01*
X106265766Y-56470981D01*
X106303430Y-56298036D01*
X106359234Y-56151072D01*
X106434385Y-56028253D01*
X106530089Y-55927745D01*
X106647553Y-55847712D01*
X106689998Y-55826096D01*
X106733754Y-55806006D01*
X106770591Y-55792106D01*
X106808032Y-55783265D01*
X106853602Y-55778353D01*
X106914825Y-55776239D01*
X106999226Y-55775791D01*
X107024552Y-55775806D01*
G37*
G36*
X108877105Y-56260702D02*
G01*
X108933095Y-56276782D01*
X108976287Y-56306646D01*
X109007404Y-56352802D01*
X109027167Y-56417756D01*
X109036299Y-56504016D01*
X109035520Y-56614089D01*
X109025554Y-56750482D01*
X109007121Y-56915702D01*
X109004219Y-56938813D01*
X108992883Y-57028933D01*
X108983152Y-57107736D01*
X108975711Y-57169558D01*
X108971246Y-57208737D01*
X108970257Y-57219678D01*
X108955153Y-57225314D01*
X108914545Y-57229741D01*
X108855486Y-57232364D01*
X108814839Y-57232823D01*
X108659422Y-57232823D01*
X108668655Y-57179906D01*
X108678050Y-57117766D01*
X108688466Y-57035550D01*
X108699049Y-56941718D01*
X108708944Y-56844730D01*
X108717296Y-56753048D01*
X108723250Y-56675133D01*
X108725951Y-56619444D01*
X108726026Y-56612128D01*
X108720284Y-56542715D01*
X108701940Y-56501660D01*
X108669314Y-56486645D01*
X108637767Y-56490210D01*
X108602204Y-56504792D01*
X108573706Y-56531355D01*
X108550667Y-56573968D01*
X108531484Y-56636697D01*
X108514551Y-56723610D01*
X108498264Y-56838775D01*
X108497335Y-56846168D01*
X108485711Y-56938711D01*
X108474713Y-57025433D01*
X108465334Y-57098567D01*
X108458566Y-57150345D01*
X108456772Y-57163624D01*
X108447236Y-57232823D01*
X108301695Y-57232823D01*
X108226367Y-57231354D01*
X108179847Y-57226611D01*
X108158497Y-57218084D01*
X108156120Y-57212470D01*
X108157796Y-57190583D01*
X108162486Y-57141664D01*
X108169648Y-57071048D01*
X108178738Y-56984073D01*
X108189216Y-56886075D01*
X108190261Y-56876412D01*
X108202635Y-56756090D01*
X108210460Y-56664425D01*
X108213903Y-56597857D01*
X108213133Y-56552821D01*
X108208317Y-56525755D01*
X108206926Y-56522278D01*
X108178951Y-56490874D01*
X108140228Y-56484435D01*
X108097409Y-56500401D01*
X108057140Y-56536209D01*
X108026073Y-56589296D01*
X108024850Y-56592436D01*
X108015903Y-56628498D01*
X108004558Y-56695112D01*
X107991075Y-56790375D01*
X107975716Y-56912386D01*
X107958741Y-57059241D01*
X107949965Y-57139201D01*
X107939848Y-57232823D01*
X107787488Y-57232823D01*
X107715735Y-57232164D01*
X107670597Y-57229448D01*
X107646140Y-57223563D01*
X107636427Y-57213400D01*
X107635207Y-57204329D01*
X107636994Y-57181021D01*
X107641991Y-57129929D01*
X107649714Y-57055625D01*
X107659680Y-56962679D01*
X107671406Y-56855663D01*
X107683822Y-56744361D01*
X107696759Y-56628693D01*
X107708415Y-56523210D01*
X107718307Y-56432375D01*
X107725955Y-56360650D01*
X107730876Y-56312496D01*
X107732590Y-56292534D01*
X107743149Y-56282093D01*
X107776970Y-56275601D01*
X107837694Y-56272563D01*
X107881440Y-56272182D01*
X108030060Y-56272182D01*
X108019914Y-56341380D01*
X108009768Y-56410579D01*
X108046327Y-56367529D01*
X108122056Y-56300813D01*
X108210635Y-56264009D01*
X108283898Y-56255960D01*
X108372448Y-56266729D01*
X108438550Y-56298533D01*
X108480306Y-56350414D01*
X108483080Y-56356695D01*
X108500572Y-56391141D01*
X108518520Y-56398985D01*
X108544603Y-56380553D01*
X108564438Y-56360148D01*
X108643488Y-56298492D01*
X108737918Y-56263194D01*
X108807596Y-56255900D01*
X108877105Y-56260702D01*
G37*
G36*
X109898991Y-56264067D02*
G01*
X109965048Y-56290366D01*
X110010349Y-56337490D01*
X110037151Y-56408132D01*
X110047712Y-56504988D01*
X110048048Y-56540035D01*
X110044885Y-56621182D01*
X110036826Y-56728615D01*
X110024437Y-56856519D01*
X110008288Y-56999078D01*
X109988946Y-57150475D01*
X109987165Y-57163624D01*
X109977749Y-57232823D01*
X109823329Y-57232823D01*
X109668909Y-57232823D01*
X109677578Y-57179906D01*
X109685340Y-57125754D01*
X109694533Y-57051244D01*
X109704367Y-56964109D01*
X109714049Y-56872082D01*
X109722790Y-56782896D01*
X109729796Y-56704285D01*
X109734278Y-56643982D01*
X109735513Y-56613813D01*
X109728520Y-56544034D01*
X109706653Y-56501658D01*
X109668576Y-56484471D01*
X109657153Y-56483848D01*
X109613988Y-56488981D01*
X109578387Y-56506501D01*
X109548973Y-56539587D01*
X109524372Y-56591421D01*
X109503208Y-56665182D01*
X109484105Y-56764051D01*
X109465689Y-56891208D01*
X109459376Y-56941148D01*
X109448340Y-57031475D01*
X109438855Y-57110285D01*
X109431581Y-57171999D01*
X109427177Y-57211039D01*
X109426154Y-57222013D01*
X109411052Y-57226658D01*
X109370462Y-57230303D01*
X109311453Y-57232454D01*
X109271475Y-57232823D01*
X109116795Y-57232823D01*
X109116795Y-57186228D01*
X109118581Y-57156658D01*
X109123575Y-57100192D01*
X109131235Y-57022283D01*
X109141019Y-56928382D01*
X109152382Y-56823941D01*
X109156931Y-56783248D01*
X109169054Y-56674151D01*
X109180149Y-56571585D01*
X109189592Y-56481516D01*
X109196763Y-56409909D01*
X109201040Y-56362732D01*
X109201707Y-56353592D01*
X109206346Y-56280323D01*
X109356955Y-56275641D01*
X109507564Y-56270960D01*
X109507745Y-56340769D01*
X109507925Y-56410579D01*
X109548154Y-56359549D01*
X109610976Y-56305179D01*
X109696123Y-56269955D01*
X109798138Y-56256037D01*
X109809920Y-56255900D01*
X109898991Y-56264067D01*
G37*
G36*
X110474339Y-56272655D02*
G01*
X110523082Y-56274710D01*
X110550079Y-56279299D01*
X110560736Y-56287373D01*
X110560461Y-56299885D01*
X110560248Y-56300675D01*
X110556334Y-56323816D01*
X110549217Y-56374853D01*
X110539465Y-56449340D01*
X110527650Y-56542828D01*
X110514342Y-56650869D01*
X110500111Y-56769016D01*
X110498685Y-56780996D01*
X110444965Y-57232823D01*
X110285624Y-57232823D01*
X110206701Y-57231557D01*
X110156524Y-57227440D01*
X110131362Y-57219996D01*
X110126636Y-57212470D01*
X110128514Y-57190296D01*
X110133503Y-57141434D01*
X110140997Y-57071546D01*
X110150391Y-56986295D01*
X110159281Y-56907182D01*
X110171600Y-56797813D01*
X110184274Y-56684137D01*
X110196153Y-56576534D01*
X110206090Y-56485386D01*
X110210185Y-56447214D01*
X110228798Y-56272182D01*
X110398445Y-56272182D01*
X110474339Y-56272655D01*
G37*
G36*
X111181188Y-55819253D02*
G01*
X111301487Y-55821264D01*
X111394168Y-55823487D01*
X111464178Y-55826405D01*
X111516463Y-55830495D01*
X111555967Y-55836238D01*
X111587637Y-55844114D01*
X111616419Y-55854602D01*
X111636818Y-55863451D01*
X111721425Y-55912783D01*
X111780907Y-55975554D01*
X111817712Y-56056003D01*
X111834289Y-56158372D01*
X111835807Y-56208169D01*
X111824815Y-56319293D01*
X111794446Y-56431155D01*
X111748927Y-56528502D01*
X111745486Y-56534058D01*
X111683287Y-56605929D01*
X111596927Y-56668304D01*
X111494397Y-56716834D01*
X111383690Y-56747171D01*
X111343402Y-56752798D01*
X111254716Y-56761804D01*
X111192056Y-56768001D01*
X111149062Y-56771956D01*
X111119370Y-56774237D01*
X111096620Y-56775411D01*
X111085662Y-56775765D01*
X111067417Y-56777447D01*
X111054662Y-56785027D01*
X111045523Y-56804100D01*
X111038124Y-56840258D01*
X111030591Y-56899095D01*
X111023874Y-56960098D01*
X111015047Y-57038563D01*
X111006507Y-57109065D01*
X110999348Y-57162878D01*
X110995348Y-57188047D01*
X110986644Y-57232823D01*
X110814873Y-57232823D01*
X110643102Y-57232823D01*
X110653670Y-57131060D01*
X110660604Y-57066348D01*
X110670145Y-56980267D01*
X110681788Y-56877136D01*
X110695026Y-56761272D01*
X110709354Y-56636995D01*
X110721052Y-56536286D01*
X111072106Y-56536286D01*
X111184827Y-56529917D01*
X111262475Y-56521530D01*
X111316523Y-56505361D01*
X111342845Y-56489784D01*
X111399377Y-56435240D01*
X111434495Y-56368725D01*
X111451047Y-56283433D01*
X111453269Y-56226003D01*
X111449861Y-56151671D01*
X111436073Y-56101054D01*
X111406559Y-56068746D01*
X111355973Y-56049343D01*
X111278968Y-56037442D01*
X111265332Y-56036022D01*
X111207374Y-56031496D01*
X111163132Y-56030458D01*
X111141580Y-56033096D01*
X111141129Y-56033446D01*
X111135845Y-56052246D01*
X111128138Y-56096738D01*
X111119052Y-56160230D01*
X111109787Y-56234650D01*
X111100212Y-56316059D01*
X111091234Y-56390722D01*
X111083935Y-56449737D01*
X111079772Y-56481574D01*
X111072106Y-56536286D01*
X110721052Y-56536286D01*
X110724265Y-56508623D01*
X110739255Y-56380473D01*
X110753816Y-56256866D01*
X110767444Y-56142118D01*
X110779631Y-56040549D01*
X110789874Y-55956478D01*
X110797664Y-55894221D01*
X110802497Y-55858099D01*
X110803557Y-55851593D01*
X110811414Y-55813634D01*
X111181188Y-55819253D01*
G37*
G36*
X112934748Y-55913976D02*
G01*
X112927887Y-55970148D01*
X112921035Y-56012914D01*
X112916036Y-56032021D01*
X112897659Y-56037070D01*
X112853867Y-56041102D01*
X112791803Y-56043625D01*
X112738591Y-56044233D01*
X112668516Y-56044596D01*
X112612322Y-56045578D01*
X112576796Y-56047017D01*
X112567797Y-56048303D01*
X112564575Y-56070409D01*
X112557976Y-56119924D01*
X112548568Y-56192318D01*
X112536921Y-56283062D01*
X112523604Y-56387624D01*
X112509187Y-56501475D01*
X112494239Y-56620085D01*
X112479330Y-56738922D01*
X112465029Y-56853456D01*
X112451905Y-56959158D01*
X112440529Y-57051496D01*
X112431468Y-57125941D01*
X112425293Y-57177961D01*
X112422574Y-57203028D01*
X112422495Y-57204329D01*
X112419123Y-57216837D01*
X112405798Y-57225072D01*
X112377010Y-57229903D01*
X112327249Y-57232196D01*
X112251004Y-57232819D01*
X112241518Y-57232823D01*
X112060984Y-57232823D01*
X112070673Y-57171765D01*
X112075026Y-57140232D01*
X112082579Y-57081028D01*
X112092761Y-56998830D01*
X112104999Y-56898310D01*
X112118720Y-56784145D01*
X112133353Y-56661008D01*
X112136967Y-56630387D01*
X112151688Y-56506284D01*
X112165608Y-56390474D01*
X112178161Y-56287536D01*
X112188785Y-56202047D01*
X112196913Y-56138584D01*
X112201983Y-56101727D01*
X112202715Y-56097150D01*
X112211860Y-56044233D01*
X112040161Y-56044233D01*
X111868462Y-56044233D01*
X111868641Y-55991316D01*
X111871621Y-55937154D01*
X111878570Y-55879439D01*
X111878842Y-55877773D01*
X111888865Y-55817146D01*
X112417440Y-55812644D01*
X112946015Y-55808143D01*
X112934748Y-55913976D01*
G37*
G36*
X114050257Y-55854717D02*
G01*
X114048042Y-55894561D01*
X114042485Y-55948629D01*
X114039902Y-55968691D01*
X114029548Y-56044233D01*
X113846391Y-56044233D01*
X113663234Y-56044233D01*
X113645303Y-56170419D01*
X113638832Y-56217732D01*
X113629566Y-56287912D01*
X113618099Y-56376241D01*
X113605025Y-56478006D01*
X113590939Y-56588489D01*
X113576436Y-56702974D01*
X113562109Y-56816747D01*
X113548553Y-56925091D01*
X113536362Y-57023290D01*
X113526131Y-57106628D01*
X113518455Y-57170390D01*
X113513927Y-57209860D01*
X113512949Y-57220499D01*
X113497764Y-57225451D01*
X113456590Y-57229453D01*
X113395999Y-57232053D01*
X113333846Y-57232823D01*
X113261874Y-57232285D01*
X113203710Y-57230829D01*
X113165927Y-57228685D01*
X113154744Y-57226486D01*
X113156663Y-57209056D01*
X113162048Y-57163842D01*
X113170340Y-57095374D01*
X113180979Y-57008183D01*
X113193406Y-56906799D01*
X113207063Y-56795752D01*
X113221389Y-56679573D01*
X113235825Y-56562791D01*
X113249813Y-56449939D01*
X113262792Y-56345545D01*
X113274205Y-56254140D01*
X113283491Y-56180255D01*
X113290092Y-56128420D01*
X113293143Y-56105291D01*
X113301667Y-56044233D01*
X113138654Y-56044233D01*
X112975641Y-56044233D01*
X112975820Y-55991316D01*
X112978796Y-55937295D01*
X112985747Y-55879458D01*
X112986092Y-55877342D01*
X112996184Y-55816284D01*
X113523220Y-55816284D01*
X114050257Y-55816284D01*
X114050257Y-55854717D01*
G37*
G36*
X104548001Y-54881020D02*
G01*
X104657847Y-54882121D01*
X104746509Y-54884362D01*
X104819673Y-54888076D01*
X104883029Y-54893598D01*
X104942264Y-54901261D01*
X105003066Y-54911398D01*
X105034756Y-54917293D01*
X105265545Y-54971647D01*
X105468312Y-55041599D01*
X105643796Y-55127474D01*
X105792734Y-55229599D01*
X105842916Y-55273096D01*
X105938233Y-55372730D01*
X106004667Y-55470493D01*
X106044995Y-55572117D01*
X106062000Y-55683330D01*
X106062949Y-55726605D01*
X106054772Y-55835042D01*
X106031966Y-55914705D01*
X105994399Y-55965980D01*
X105976954Y-55977716D01*
X105943161Y-55983233D01*
X105897625Y-55967603D01*
X105836817Y-55929272D01*
X105795714Y-55898057D01*
X105689589Y-55826929D01*
X105557329Y-55759299D01*
X105405353Y-55697768D01*
X105240076Y-55644938D01*
X105069781Y-55603786D01*
X104963668Y-55586962D01*
X104833457Y-55573691D01*
X104687452Y-55564258D01*
X104533955Y-55558951D01*
X104381267Y-55558052D01*
X104237692Y-55561849D01*
X104111532Y-55570626D01*
X104109863Y-55570792D01*
X103883984Y-55600264D01*
X103662262Y-55642356D01*
X103451273Y-55695362D01*
X103257595Y-55757577D01*
X103087804Y-55827295D01*
X103049628Y-55845812D01*
X102873115Y-55944903D01*
X102710365Y-56056724D01*
X102565724Y-56177539D01*
X102443537Y-56303611D01*
X102348151Y-56431205D01*
X102326257Y-56467720D01*
X102277155Y-56550817D01*
X102237151Y-56606784D01*
X102201896Y-56638149D01*
X102167039Y-56647438D01*
X102128228Y-56637178D01*
X102081286Y-56610011D01*
X102018434Y-56549672D01*
X101974888Y-56468094D01*
X101951656Y-56370972D01*
X101949744Y-56264004D01*
X101970162Y-56152887D01*
X101990159Y-56094809D01*
X102038540Y-55987380D01*
X102093880Y-55891410D01*
X102161952Y-55798590D01*
X102248528Y-55700612D01*
X102302757Y-55644887D01*
X102500257Y-55468521D01*
X102719295Y-55314173D01*
X102960701Y-55181442D01*
X103225308Y-55069925D01*
X103513946Y-54979222D01*
X103825128Y-54909358D01*
X103883529Y-54899877D01*
X103946833Y-54892619D01*
X104020176Y-54887332D01*
X104108693Y-54883766D01*
X104217519Y-54881669D01*
X104351787Y-54880792D01*
X104411282Y-54880726D01*
X104548001Y-54881020D01*
G37*
G36*
X110484526Y-55775587D02*
G01*
X110554812Y-55803166D01*
X110598281Y-55848948D01*
X110614615Y-55912581D01*
X110614744Y-55919676D01*
X110602199Y-55995596D01*
X110563459Y-56052909D01*
X110516872Y-56085031D01*
X110442114Y-56108685D01*
X110371327Y-56102648D01*
X110310190Y-56067542D01*
X110304132Y-56061767D01*
X110266556Y-56002935D01*
X110255294Y-55934223D01*
X110272021Y-55866783D01*
X110274213Y-55862528D01*
X110305998Y-55829680D01*
X110357706Y-55800466D01*
X110416732Y-55780097D01*
X110470472Y-55773782D01*
X110484526Y-55775587D01*
G37*
D16*
%TO.C,SW3*%
X105700000Y-88890000D02*
X105700000Y-90090000D01*
X105070000Y-88000000D02*
X105060000Y-88000000D01*
X103720000Y-92480000D02*
X103720000Y-90880000D01*
X102450000Y-92480000D02*
X103720000Y-92480000D01*
X102450000Y-90880000D02*
X102450000Y-92480000D01*
X100800000Y-88000000D02*
X102300000Y-88000000D01*
X99550000Y-90900000D02*
X105050000Y-90900000D01*
X98900000Y-88890000D02*
X98900000Y-90090000D01*
D15*
D17*
%TO.C,U6*%
X143330000Y-70300000D02*
G75*
G02*
X143270000Y-70300000I-30000J0D01*
G01*
X143270000Y-70300000D02*
G75*
G02*
X143330000Y-70300000I30000J0D01*
G01*
D10*
X141000000Y-67300000D02*
X141000000Y-67450000D01*
X141000000Y-67300000D02*
X142800000Y-67300000D01*
X141000000Y-68350000D02*
X141000000Y-69350000D01*
X141000000Y-70250000D02*
X141000000Y-70400000D01*
X141000000Y-70400000D02*
X142800000Y-70400000D01*
X142800000Y-67300000D02*
X142800000Y-67450000D01*
X142800000Y-68350000D02*
X142800000Y-68400000D01*
X142800000Y-69300000D02*
X142800000Y-69350000D01*
X142800000Y-70250000D02*
X142800000Y-70400000D01*
D14*
%TO.C,J1*%
X156130000Y-66810000D02*
X156130000Y-66930000D01*
X156130000Y-64270000D02*
X156130000Y-65600000D01*
X154800000Y-64270000D02*
X156130000Y-64270000D01*
X153470000Y-66930000D02*
X156130000Y-66930000D01*
X153470000Y-66810000D02*
X153470000Y-66930000D01*
%TO.C,C18*%
X139977500Y-55332776D02*
X139977500Y-55842224D01*
X141022500Y-55332776D02*
X141022500Y-55842224D01*
%TO.C,TP33*%
X138600000Y-52400000D02*
G75*
G02*
X136200000Y-52400000I-1200000J0D01*
G01*
X136200000Y-52400000D02*
G75*
G02*
X138600000Y-52400000I1200000J0D01*
G01*
%TO.C,R16*%
X150567224Y-73222500D02*
X150057776Y-73222500D01*
X150567224Y-72177500D02*
X150057776Y-72177500D01*
%TO.C,TP6*%
X100450000Y-68800000D02*
G75*
G02*
X97550000Y-68800000I-1450000J0D01*
G01*
X97550000Y-68800000D02*
G75*
G02*
X100450000Y-68800000I1450000J0D01*
G01*
%TO.C,C12*%
X142967224Y-86322500D02*
X142457776Y-86322500D01*
X142967224Y-85277500D02*
X142457776Y-85277500D01*
%TO.C,C19*%
X137877500Y-60632776D02*
X137877500Y-61142224D01*
X138922500Y-60632776D02*
X138922500Y-61142224D01*
%TO.C,R2*%
X101477500Y-68632776D02*
X101477500Y-69142224D01*
X102522500Y-68632776D02*
X102522500Y-69142224D01*
%TO.C,C29*%
X128022500Y-81157776D02*
X128022500Y-81667224D01*
X126977500Y-81157776D02*
X126977500Y-81667224D01*
%TO.C,R9*%
X124977500Y-81754724D02*
X124977500Y-81245276D01*
X126022500Y-81754724D02*
X126022500Y-81245276D01*
%TO.C,TP5*%
X109800000Y-85200000D02*
G75*
G02*
X107400000Y-85200000I-1200000J0D01*
G01*
X107400000Y-85200000D02*
G75*
G02*
X109800000Y-85200000I1200000J0D01*
G01*
%TO.C,TP3*%
X107600000Y-82400000D02*
G75*
G02*
X105200000Y-82400000I-1200000J0D01*
G01*
X105200000Y-82400000D02*
G75*
G02*
X107600000Y-82400000I1200000J0D01*
G01*
%TO.C,J3*%
X119070000Y-89810000D02*
X119070000Y-89930000D01*
X119070000Y-89930000D02*
X121730000Y-89930000D01*
X120400000Y-87270000D02*
X121730000Y-87270000D01*
X121730000Y-87270000D02*
X121730000Y-88600000D01*
X121730000Y-89810000D02*
X121730000Y-89930000D01*
%TO.C,J2*%
X97670000Y-66410000D02*
X97670000Y-66530000D01*
X97670000Y-66530000D02*
X100330000Y-66530000D01*
X99000000Y-63870000D02*
X100330000Y-63870000D01*
X100330000Y-63870000D02*
X100330000Y-65200000D01*
X100330000Y-66410000D02*
X100330000Y-66530000D01*
%TO.C,U2*%
X106327500Y-65990000D02*
X105847500Y-65990000D01*
X106087500Y-65660000D01*
X106327500Y-65990000D01*
G36*
X106327500Y-65990000D02*
G01*
X105847500Y-65990000D01*
X106087500Y-65660000D01*
X106327500Y-65990000D01*
G37*
X103727500Y-62590000D02*
X105547500Y-62590000D01*
X103727500Y-62640000D02*
X103727500Y-62590000D01*
X103727500Y-65710000D02*
X103727500Y-65660000D01*
X105547500Y-62590000D02*
X105547500Y-62640000D01*
X105547500Y-65660000D02*
X105547500Y-65710000D01*
X105547500Y-65710000D02*
X103727500Y-65710000D01*
%TO.C,C3*%
X105142224Y-60322500D02*
X104632776Y-60322500D01*
X105142224Y-59277500D02*
X104632776Y-59277500D01*
%TO.C,R4*%
X102277500Y-52632776D02*
X102277500Y-53142224D01*
X103322500Y-52632776D02*
X103322500Y-53142224D01*
%TO.C,R3*%
X105122500Y-52632776D02*
X105122500Y-53142224D01*
X104077500Y-52632776D02*
X104077500Y-53142224D01*
%TO.C,R19*%
X126167224Y-87077500D02*
X125657776Y-87077500D01*
X126167224Y-88122500D02*
X125657776Y-88122500D01*
%TO.C,R22*%
X128077500Y-88854724D02*
X128077500Y-88345276D01*
X129122500Y-88854724D02*
X129122500Y-88345276D01*
%TO.C,C15*%
X135290000Y-61083767D02*
X135290000Y-60791233D01*
X136310000Y-61083767D02*
X136310000Y-60791233D01*
%TO.C,R12*%
X149022500Y-55332776D02*
X149022500Y-55842224D01*
X147977500Y-55332776D02*
X147977500Y-55842224D01*
%TO.C,R13*%
X154272500Y-55332776D02*
X154272500Y-55842224D01*
X153227500Y-55332776D02*
X153227500Y-55842224D01*
%TO.C,C27*%
X152522500Y-55332776D02*
X152522500Y-55842224D01*
X151477500Y-55332776D02*
X151477500Y-55842224D01*
%TO.C,R14*%
X146985000Y-55842224D02*
X146985000Y-55332776D01*
X145940000Y-55842224D02*
X145940000Y-55332776D01*
%TO.C,R10*%
X143022500Y-55332776D02*
X143022500Y-55842224D01*
X141977500Y-55332776D02*
X141977500Y-55842224D01*
%TO.C,C21*%
X150772500Y-55332776D02*
X150772500Y-55842224D01*
X149727500Y-55332776D02*
X149727500Y-55842224D01*
%TO.C,C11*%
X145022500Y-55842224D02*
X145022500Y-55332776D01*
X143977500Y-55842224D02*
X143977500Y-55332776D01*
%TO.C,D4*%
X103190000Y-69135000D02*
X105650000Y-69135000D01*
X103190000Y-67665000D02*
X103190000Y-69135000D01*
X105650000Y-67665000D02*
X103190000Y-67665000D01*
%TO.C,D3*%
X106385000Y-69465000D02*
X103925000Y-69465000D01*
X106385000Y-70935000D02*
X106385000Y-69465000D01*
X103925000Y-70935000D02*
X106385000Y-70935000D01*
%TO.C,TP1*%
X99600000Y-83800000D02*
G75*
G02*
X97200000Y-83800000I-1200000J0D01*
G01*
X97200000Y-83800000D02*
G75*
G02*
X99600000Y-83800000I1200000J0D01*
G01*
%TO.C,U3*%
X103290000Y-72090000D02*
X103340000Y-72090000D01*
X103290000Y-73910000D02*
X103290000Y-72090000D01*
X103340000Y-73910000D02*
X103290000Y-73910000D01*
X104460000Y-72090000D02*
X105240000Y-72090000D01*
X106360000Y-72090000D02*
X106410000Y-72090000D01*
X106410000Y-72090000D02*
X106410000Y-73910000D01*
X106410000Y-73910000D02*
X106360000Y-73910000D01*
X103340000Y-74450000D02*
X103010000Y-74690000D01*
X103010000Y-74210000D01*
X103340000Y-74450000D01*
G36*
X103340000Y-74450000D02*
G01*
X103010000Y-74690000D01*
X103010000Y-74210000D01*
X103340000Y-74450000D01*
G37*
%TO.C,C13*%
X133277500Y-61117224D02*
X133277500Y-60607776D01*
X134322500Y-61117224D02*
X134322500Y-60607776D01*
%TO.C,R17*%
X128977500Y-81754724D02*
X128977500Y-81245276D01*
X130022500Y-81754724D02*
X130022500Y-81245276D01*
%TO.C,R21*%
X122677500Y-88257776D02*
X122677500Y-88767224D01*
X123722500Y-88257776D02*
X123722500Y-88767224D01*
%TO.C,R8*%
X137957776Y-85277500D02*
X138467224Y-85277500D01*
X137957776Y-86322500D02*
X138467224Y-86322500D01*
%TO.C,J4*%
X115320000Y-76460000D02*
X115320000Y-76580000D01*
X115320000Y-76580000D02*
X117980000Y-76580000D01*
X116650000Y-73920000D02*
X117980000Y-73920000D01*
X117980000Y-73920000D02*
X117980000Y-75250000D01*
X117980000Y-76460000D02*
X117980000Y-76580000D01*
D16*
%TO.C,SW2*%
X120150000Y-79900000D02*
X120150000Y-84100000D01*
X120570000Y-83520000D02*
X120150000Y-83100000D01*
X120600000Y-80480000D02*
X120150000Y-80930000D01*
X120990000Y-81230000D02*
X120990000Y-82760000D01*
X121260000Y-84100000D02*
X122240000Y-84100000D01*
X122240000Y-79900000D02*
X121260000Y-79900000D01*
X122240000Y-79900000D02*
X122240000Y-79900000D01*
X122240000Y-79900000D02*
X122240000Y-79900000D01*
X122510000Y-81230000D02*
X122510000Y-82760000D01*
X122820000Y-80480000D02*
X123350000Y-81000000D01*
X122880000Y-83520000D02*
X123350000Y-83050000D01*
X123350000Y-79900000D02*
X123350000Y-84100000D01*
X120990000Y-81230000D02*
G75*
G02*
X122510000Y-81230000I760000J0D01*
G01*
X122510000Y-82760000D02*
G75*
G02*
X120990000Y-82760000I-760000J0D01*
G01*
D14*
%TO.C,R11*%
X139877500Y-61054724D02*
X139877500Y-60545276D01*
X140922500Y-61054724D02*
X140922500Y-60545276D01*
%TO.C,C2*%
X129977500Y-69754724D02*
X129977500Y-69245276D01*
X131022500Y-69754724D02*
X131022500Y-69245276D01*
%TO.C,TP47*%
X99950000Y-80250000D02*
G75*
G02*
X97050000Y-80250000I-1450000J0D01*
G01*
X97050000Y-80250000D02*
G75*
G02*
X99950000Y-80250000I1450000J0D01*
G01*
%TO.C,C30*%
X117077500Y-88742224D02*
X117077500Y-88232776D01*
X118122500Y-88742224D02*
X118122500Y-88232776D01*
D12*
%TO.C,D2*%
X137740000Y-87320000D02*
X137740000Y-87440000D01*
X137740000Y-88160000D02*
X137740000Y-88280000D01*
X137740000Y-88280000D02*
X137970000Y-88280000D01*
X137970000Y-87320000D02*
X137740000Y-87320000D01*
X137970000Y-87320000D02*
X139330000Y-87320000D01*
X137970000Y-88280000D02*
X139330000Y-88280000D01*
D17*
X137880000Y-88200000D02*
G75*
G02*
X137820000Y-88200000I-30000J0D01*
G01*
X137820000Y-88200000D02*
G75*
G02*
X137880000Y-88200000I30000J0D01*
G01*
D15*
G36*
X138050001Y-87467590D02*
G01*
X137745201Y-87467590D01*
X137745201Y-87247601D01*
X138050001Y-87247601D01*
X138050001Y-87467590D01*
G37*
G36*
X138090413Y-88352018D02*
G01*
X137785613Y-88352018D01*
X137785613Y-88132029D01*
X138090413Y-88132029D01*
X138090413Y-88352018D01*
G37*
D14*
%TO.C,U1*%
X115300000Y-43800000D02*
X128700000Y-43800000D01*
X115300000Y-44600000D02*
X114900000Y-44600000D01*
X115300000Y-44600000D02*
X115300000Y-43800000D01*
X115300000Y-71200000D02*
X115300000Y-70000000D01*
X116900000Y-71200000D02*
X115300000Y-71200000D01*
X121100000Y-60400000D02*
X123100000Y-58400000D01*
X122000000Y-57300000D02*
X122000000Y-61700000D01*
X122000000Y-61700000D02*
X123098316Y-60601684D01*
X123100000Y-58400000D02*
X122000000Y-57300000D01*
X123100000Y-60600000D02*
X121100000Y-58600000D01*
X127100000Y-71200000D02*
X128700000Y-71200000D01*
X128700000Y-43800000D02*
X128700000Y-44600000D01*
X128700000Y-71200000D02*
X128700000Y-70000000D01*
X120300001Y-57800000D02*
G75*
G02*
X123699999Y-57800000I1699999J-600000D01*
G01*
X120300002Y-61200000D02*
G75*
G02*
X120279524Y-57841587I3399998J1700000D01*
G01*
X123699999Y-61200000D02*
G75*
G02*
X120300001Y-61200000I-1699999J600000D01*
G01*
X123720476Y-57841587D02*
G75*
G02*
X123699998Y-61200000I-3420469J-1658413D01*
G01*
X114560555Y-49500000D02*
G75*
G02*
X113839445Y-49500000I-360555J0D01*
G01*
X113839445Y-49500000D02*
G75*
G02*
X114560555Y-49500000I360555J0D01*
G01*
%TO.C,J5*%
X118920000Y-76460000D02*
X118920000Y-76580000D01*
X118920000Y-76580000D02*
X121580000Y-76580000D01*
X120250000Y-73920000D02*
X121580000Y-73920000D01*
X121580000Y-73920000D02*
X121580000Y-75250000D01*
X121580000Y-76460000D02*
X121580000Y-76580000D01*
%TO.C,TP49*%
X138000000Y-64400000D02*
G75*
G02*
X135600000Y-64400000I-1200000J0D01*
G01*
X135600000Y-64400000D02*
G75*
G02*
X138000000Y-64400000I1200000J0D01*
G01*
%TO.C,R5*%
X104582776Y-66277500D02*
X105092224Y-66277500D01*
X104582776Y-67322500D02*
X105092224Y-67322500D01*
%TO.C,U7*%
X146050000Y-62460000D02*
X147850000Y-62460000D01*
X147050000Y-59240000D02*
X146250000Y-59240000D01*
X147050000Y-59240000D02*
X147850000Y-59240000D01*
X145750000Y-59290000D02*
X145510000Y-58960000D01*
X145990000Y-58960000D01*
X145750000Y-59290000D01*
G36*
X145750000Y-59290000D02*
G01*
X145510000Y-58960000D01*
X145990000Y-58960000D01*
X145750000Y-59290000D01*
G37*
%TO.C,TP51*%
X157150000Y-75200000D02*
G75*
G02*
X153650000Y-75200000I-1750000J0D01*
G01*
X153650000Y-75200000D02*
G75*
G02*
X157150000Y-75200000I1750000J0D01*
G01*
%TO.C,TP34*%
X141000000Y-64400000D02*
G75*
G02*
X138600000Y-64400000I-1200000J0D01*
G01*
X138600000Y-64400000D02*
G75*
G02*
X141000000Y-64400000I1200000J0D01*
G01*
%TO.C,C24*%
X145522500Y-69167224D02*
X145522500Y-68657776D01*
X144477500Y-69167224D02*
X144477500Y-68657776D01*
%TO.C,C5*%
X104632776Y-75615000D02*
X105142224Y-75615000D01*
X104632776Y-76660000D02*
X105142224Y-76660000D01*
%TO.C,C7*%
X147322500Y-69167224D02*
X147322500Y-68657776D01*
X146277500Y-69167224D02*
X146277500Y-68657776D01*
%TO.C,R20*%
X104632776Y-79115000D02*
X105142224Y-79115000D01*
X104632776Y-80160000D02*
X105142224Y-80160000D01*
%TO.C,R6*%
X104760276Y-78410000D02*
X105269724Y-78410000D01*
X104760276Y-77365000D02*
X105269724Y-77365000D01*
%TO.C,TP50*%
X156600000Y-79000000D02*
G75*
G02*
X154200000Y-79000000I-1200000J0D01*
G01*
X154200000Y-79000000D02*
G75*
G02*
X156600000Y-79000000I1200000J0D01*
G01*
D12*
%TO.C,U8*%
X112340000Y-80960000D02*
X119000000Y-80960000D01*
X112340000Y-84500000D02*
X112340000Y-80960000D01*
X119000000Y-80960000D02*
X119000000Y-84500000D01*
X119000000Y-84500000D02*
X112340000Y-84500000D01*
D11*
X112260000Y-85600000D02*
G75*
G02*
X111960000Y-85600000I-150000J0D01*
G01*
X111960000Y-85600000D02*
G75*
G02*
X112260000Y-85600000I150000J0D01*
G01*
D17*
X112450000Y-85930000D02*
G75*
G02*
X112390000Y-85930000I-30000J0D01*
G01*
X112390000Y-85930000D02*
G75*
G02*
X112450000Y-85930000I30000J0D01*
G01*
D11*
X112900000Y-83750000D02*
G75*
G02*
X112580000Y-83750000I-160000J0D01*
G01*
X112580000Y-83750000D02*
G75*
G02*
X112900000Y-83750000I160000J0D01*
G01*
D14*
%TO.C,RV1*%
X139870000Y-73725000D02*
X144920000Y-73725000D01*
X139870000Y-83475000D02*
X139870000Y-73725000D01*
X144920000Y-73725000D02*
X144920000Y-83475000D01*
X144920000Y-83475000D02*
X139870000Y-83475000D01*
%TO.C,C23*%
X152367224Y-58177500D02*
X151857776Y-58177500D01*
X152367224Y-59222500D02*
X151857776Y-59222500D01*
%TO.C,R7*%
X150057776Y-68177500D02*
X150567224Y-68177500D01*
X150057776Y-69222500D02*
X150567224Y-69222500D01*
%TO.C,TP45*%
X156450000Y-89200000D02*
G75*
G02*
X154050000Y-89200000I-1200000J0D01*
G01*
X154050000Y-89200000D02*
G75*
G02*
X156450000Y-89200000I1200000J0D01*
G01*
%TO.C,TP2*%
X127300000Y-77800000D02*
G75*
G02*
X124900000Y-77800000I-1200000J0D01*
G01*
X124900000Y-77800000D02*
G75*
G02*
X127300000Y-77800000I1200000J0D01*
G01*
%TO.C,C22*%
X150567224Y-66427500D02*
X150057776Y-66427500D01*
X150567224Y-67472500D02*
X150057776Y-67472500D01*
%TO.C,D1*%
X112665000Y-71162500D02*
X112665000Y-73622500D01*
X112665000Y-73622500D02*
X114135000Y-73622500D01*
X114135000Y-73622500D02*
X114135000Y-71162500D01*
%TO.C,D5*%
X126675000Y-88865000D02*
X124215000Y-88865000D01*
X124215000Y-90335000D02*
X126675000Y-90335000D01*
X124215000Y-88865000D02*
X124215000Y-90335000D01*
%TO.C,R23*%
X108450000Y-71950000D02*
X111750000Y-71950000D01*
X108450000Y-75250000D02*
X108450000Y-71950000D01*
X111750000Y-71950000D02*
X111750000Y-75250000D01*
X111750000Y-75250000D02*
X108450000Y-75250000D01*
%TO.C,C10*%
X141877500Y-60632776D02*
X141877500Y-61142224D01*
X142922500Y-60632776D02*
X142922500Y-61142224D01*
%TO.C,C8*%
X115092224Y-89027500D02*
X114582776Y-89027500D01*
X115092224Y-90072500D02*
X114582776Y-90072500D01*
D16*
%TO.C,U5*%
X93800000Y-74900000D02*
X98100000Y-74900000D01*
X93800000Y-76900000D02*
X93800000Y-70900000D01*
X93800000Y-76900000D02*
X101400000Y-76900000D01*
X96000000Y-71900000D02*
X99800000Y-71900000D01*
X96000000Y-72500000D02*
X96000000Y-71900000D01*
X96000000Y-75300000D02*
X99800000Y-75300000D01*
X96000000Y-75900000D02*
X96000000Y-75300000D01*
X98100000Y-72900000D02*
X93900000Y-72900000D01*
X98100000Y-74900000D02*
X98100000Y-72900000D01*
X99800000Y-71920000D02*
X99800000Y-71900000D01*
X99800000Y-72500000D02*
X96000000Y-72500000D01*
X99800000Y-73920000D02*
X99800000Y-73880000D01*
X99800000Y-75900000D02*
X96000000Y-75900000D01*
X99800000Y-75900000D02*
X99800000Y-75880000D01*
X101400000Y-70900000D02*
X93840000Y-70900000D01*
X101400000Y-70900000D02*
X101400000Y-71900000D01*
X101400000Y-71900000D02*
X99800000Y-71900000D01*
X101400000Y-75900000D02*
X99800000Y-75900000D01*
X101400000Y-76900000D02*
X101400000Y-75900000D01*
D14*
%TO.C,TP44*%
X130950000Y-77750000D02*
G75*
G02*
X128550000Y-77750000I-1200000J0D01*
G01*
X128550000Y-77750000D02*
G75*
G02*
X130950000Y-77750000I1200000J0D01*
G01*
%TO.C,C26*%
X147582776Y-80827500D02*
X148092224Y-80827500D01*
X147582776Y-81872500D02*
X148092224Y-81872500D01*
%TO.C,TP43*%
X148750000Y-88800000D02*
G75*
G02*
X145250000Y-88800000I-1750000J0D01*
G01*
X145250000Y-88800000D02*
G75*
G02*
X148750000Y-88800000I1750000J0D01*
G01*
%TO.C,TP14*%
X143200000Y-89000000D02*
G75*
G02*
X140800000Y-89000000I-1200000J0D01*
G01*
X140800000Y-89000000D02*
G75*
G02*
X143200000Y-89000000I1200000J0D01*
G01*
%TO.C,R15*%
X150057776Y-64677500D02*
X150567224Y-64677500D01*
X150057776Y-65722500D02*
X150567224Y-65722500D01*
%TO.C,C16*%
X152367224Y-60177500D02*
X151857776Y-60177500D01*
X152367224Y-61222500D02*
X151857776Y-61222500D01*
D12*
%TO.C,L1*%
X146380000Y-78330000D02*
X146530000Y-78200000D01*
X146380000Y-79350000D02*
X146380000Y-78330000D01*
X146530000Y-78200000D02*
X147290000Y-78200000D01*
X146530000Y-79500000D02*
X146380000Y-79350000D01*
X146530000Y-79500000D02*
X147290000Y-79500000D01*
X149070000Y-78200000D02*
X148310000Y-78200000D01*
X149070000Y-78200000D02*
X149220000Y-78350000D01*
X149070000Y-79500000D02*
X148310000Y-79500000D01*
X149220000Y-78350000D02*
X149220000Y-79370000D01*
X149220000Y-79370000D02*
X149070000Y-79500000D01*
D17*
X148630000Y-78450000D02*
G75*
G02*
X148570000Y-78450000I-30000J0D01*
G01*
X148570000Y-78450000D02*
G75*
G02*
X148630000Y-78450000I30000J0D01*
G01*
D14*
%TO.C,R18*%
X112727500Y-76092224D02*
X112727500Y-75582776D01*
X113772500Y-76092224D02*
X113772500Y-75582776D01*
%TO.C,R1*%
X112877500Y-68342224D02*
X112877500Y-67832776D01*
X113922500Y-68342224D02*
X113922500Y-67832776D01*
%TO.C,TP38*%
X132400000Y-61200000D02*
G75*
G02*
X130000000Y-61200000I-1200000J0D01*
G01*
X130000000Y-61200000D02*
G75*
G02*
X132400000Y-61200000I1200000J0D01*
G01*
%TO.C,C14*%
X133290000Y-64883767D02*
X133290000Y-64591233D01*
X134310000Y-64883767D02*
X134310000Y-64591233D01*
%TO.C,C4*%
X105142224Y-61922500D02*
X104632776Y-61922500D01*
X105142224Y-60877500D02*
X104632776Y-60877500D01*
%TO.C,TP20*%
X157000000Y-85000000D02*
G75*
G02*
X153500000Y-85000000I-1750000J0D01*
G01*
X153500000Y-85000000D02*
G75*
G02*
X157000000Y-85000000I1750000J0D01*
G01*
%TO.C,C28*%
X147657776Y-76077500D02*
X148167224Y-76077500D01*
X147657776Y-77122500D02*
X148167224Y-77122500D01*
D16*
%TO.C,USB1*%
X93990000Y-52100000D02*
X93990000Y-61100000D01*
X93990000Y-52100000D02*
X95860000Y-52100000D01*
X93990000Y-61100000D02*
X95860000Y-61100000D01*
X97720000Y-52100000D02*
X99660000Y-52100000D01*
X97720000Y-61100000D02*
X99660000Y-61100000D01*
X100820000Y-52510000D02*
X100820000Y-53170000D01*
X100820000Y-60030000D02*
X100820000Y-60690000D01*
D14*
%TO.C,Q1*%
X132102500Y-86440000D02*
X133622500Y-86440000D01*
X132102500Y-86490000D02*
X132102500Y-86440000D01*
X132102500Y-88390000D02*
X132102500Y-87610000D01*
X132102500Y-89560000D02*
X132102500Y-89510000D01*
X133622500Y-86440000D02*
X133622500Y-87440000D01*
X133622500Y-88560000D02*
X133622500Y-89560000D01*
X133622500Y-89560000D02*
X132102500Y-89560000D01*
X131802500Y-87950000D02*
X131322500Y-87950000D01*
X131562500Y-87620000D01*
X131802500Y-87950000D01*
G36*
X131802500Y-87950000D02*
G01*
X131322500Y-87950000D01*
X131562500Y-87620000D01*
X131802500Y-87950000D01*
G37*
%TO.C,C1*%
X131727500Y-69667224D02*
X131727500Y-69157776D01*
X132772500Y-69667224D02*
X132772500Y-69157776D01*
%TO.C,C20*%
X150567224Y-70277500D02*
X150057776Y-70277500D01*
X150567224Y-71322500D02*
X150057776Y-71322500D01*
%TO.C,C17*%
X152367224Y-62177500D02*
X151857776Y-62177500D01*
X152367224Y-63222500D02*
X151857776Y-63222500D01*
%TO.C,C9*%
X115142224Y-88322500D02*
X114632776Y-88322500D01*
X115142224Y-87277500D02*
X114632776Y-87277500D01*
%TO.C,RV2*%
X132070000Y-74265000D02*
X137120000Y-74265000D01*
X132070000Y-84015000D02*
X132070000Y-74265000D01*
X137120000Y-74265000D02*
X137120000Y-84015000D01*
X137120000Y-84015000D02*
X132070000Y-84015000D01*
%TD*%
M02*
