#VRML V2.0 utf8
# 3D model generated by easyeda2kicad.py (https://github.com/uPesy/easyeda2kicad.py)

Shape{
    appearance Appearance {
        material  Material 	{
            diffuseColor 0.6666666666666666 0.6666666666666666 0.6666666666666666
            specularColor 0.4666666666666667 0.4666666666666667 0.4666666666666667
            ambientIntensity 0.2
            transparency 0
            shininess 0.5
        }
    }
    geometry IndexedFaceSet {
        ccw TRUE
        solid FALSE
        coord DEF co Coordinate {
            point [
                0.9724 -0.6299 -0.622, 1.2677 -0.6299 -0.622, 1.2677 -1.3386 -0.622, -0.9724 0.1575 -0.622, -1.2677 0.1575 -0.622, -1.2677 0.2694 -0.622, -0.2065 0.8661 -0.622, -0.5713 0.6655 -0.622, -1.2677 0.8661 -0.622, -0.773 0.6655 -0.622, -0.3027 0.2694 -0.622, -0.2904 0.2702 -0.622, -0.2065 0.2694 -0.622, -0.2449 0.2826 -0.622, -0.2449 0.3354 -0.622, -0.2449 0.6019 -0.622, -0.2892 0.3164 -0.622, -0.2519 0.6058 -0.622, -0.3371 0.3102 -0.622, -0.3758 0.3145 -0.622, -0.4053 0.3252 -0.622, -0.4325 0.3434 -0.622, -0.4563 0.3696 -0.622, -0.4849 0.4728 -0.622, -0.4809 0.5154 -0.622, -0.4702 0.5493 -0.622, -0.3826 0.6229 -0.622, -0.3459 0.6271 -0.622, -0.4113 0.6124 -0.622, -0.4355 0.5961 -0.622, -0.454 0.5766 -0.622, -0.2937 0.6213 -0.622, -0.4715 0.6319 -0.622, -0.5713 0.6223 -0.622, -0.4399 0.6521 -0.622, -0.4017 0.6652 -0.622, -0.4726 0.4 -0.622, -0.483 0.4422 -0.622, -0.5168 0.3752 -0.622, -0.4937 0.3384 -0.622, -0.7202 0.2718 -0.622, -0.4581 0.3043 -0.622, -0.4206 0.2828 -0.622, -0.2449 0.6451 -0.622, -0.2868 0.6623 -0.622, -0.3424 0.6701 -0.622, -0.5011 0.6007 -0.622, -0.5221 0.5633 -0.622, -0.7202 0.6223 -0.622, -0.3768 0.2701 -0.622, -0.3672 0.2694 -0.622, -0.773 0.2718 -0.622, -0.3532 0.6703 -0.622, -0.5339 0.5216 -0.622, -0.5377 0.476 -0.622, -0.5321 0.4201 -0.622, -0.9521 -0.6272 -0.622, -0.9331 -0.6194 -0.622, -0.2065 -1.3386 -0.622, -0.9168 -0.6069 -0.622, -0.9042 -0.5906 -0.622, -0.9331 0.1469 -0.622, -0.9521 0.1548 -0.622, -0.9724 -0.6299 -0.622, -1.2677 -1.3386 -0.622, -1.2677 -0.6299 -0.622, -0.8964 0.0991 -0.622, -0.9042 0.1181 -0.622, -0.9168 0.1344 -0.622, -0.8964 -0.5716 -0.622, -0.8937 -0.5512 -0.622, -0.8937 0.0787 -0.622, -0.3375 0.267 -0.622, 0.9168 0.1344 -0.622, 0.9042 0.1181 -0.622, 0.8964 -0.5716 -0.622, 0.9042 -0.5906 -0.622, 1.2677 0.1575 -0.622, 0.9724 0.1575 -0.622, 1.2677 0.2694 -0.622, 0.9521 0.1548 -0.622, 0.9331 0.1469 -0.622, 0.9168 -0.6069 -0.622, 0.9331 -0.6194 -0.622, 0.9521 -0.6272 -0.622, 0.8964 0.0991 -0.622, 0.8937 0.0787 -0.622, 0.8937 -0.5512 -0.622, 0.4314 0.5164 -0.622, 0.4173 0.5575 -0.622, 0.4657 0.6655 -0.622, 0.0432 0.6655 -0.622, -0.168 0.6655 -0.622, 0.7236 0.555 -0.622, 0.5609 0.555 -0.622, 0.7634 0.6655 -0.622, 0.5233 0.6655 -0.622, 1.2677 0.8661 -0.622, 0.3947 0.5927 -0.622, 0.3623 0.6238 -0.622, 0.3212 0.6477 -0.622, 0.0336 0.315 -0.622, -0.1152 0.315 -0.622, -0.1152 0.4446 -0.622, 0.288 0.2778 -0.622, 0.3339 0.294 -0.622, 0.6146 0.2718 -0.622, 0.12 0.2718 -0.622, 0.024 0.4446 -0.622, 0.12 0.6655 -0.622, 0.024 0.4878 -0.622, 0.2311 0.2718 -0.622, 0.2759 0.6612 -0.622, 0.2271 0.6655 -0.622, 0.0432 0.6223 -0.622, -0.1152 0.6223 -0.622, -0.1152 0.4878 -0.622, 0.0336 0.2718 -0.622, -0.168 0.2718 -0.622, 0.3768 0.3227 -0.622, 0.3776 0.3234 -0.622, 0.4054 0.3542 -0.622, 0.4236 0.3881 -0.622, 0.4341 0.4269 -0.622, 0.4369 0.4637 -0.622, 0.6674 0.2718 -0.622, 0.821 0.6655 -0.622, -0.4561 0.9218 0.622, 0.4358 0.8865 0.622, -0.4724 0.9343 0.622, -0.4907 1.1811 0.622, -0.4907 0.942 0.622, 0.9869 -0.0865 0.622, 1.0018 -0.0959 0.622, 1.2677 1.3386 0.622, 1.0143 -0.1084 0.622, 1.0237 -0.1233 0.622, 0.9437 -0.9449 0.622, 1.2677 -1.3386 0.622, 0.9528 -0.9449 0.622, 0.9703 -0.9429 0.622, 0.4436 0.9055 0.622, 0.4561 0.9218 0.622, 0.4907 1.1811 0.622, 0.4724 0.9343 0.622, 0.4907 0.942 0.622, 1.0143 -0.9152 0.622, 1.0237 -0.9003 0.622, 1.0295 -0.8837 0.622, 1.0018 -0.9277 0.622, 0.9869 -0.9371 0.622, 1.0519 0.7901 0.622, 0.34 -0.1084 0.622, 1.0709 0.798 0.622, 0.3525 -0.0959 0.622, 1.0872 0.8105 0.622, 0.3674 -0.0865 0.622, 0.3841 -0.0807 0.622, 0.4016 -0.0787 0.622, 0.9528 -0.0787 0.622, 1.189 1.3386 0.622, 1.1102 1.2598 0.622, 1.1102 0.8661 0.622, 1.1076 0.8458 0.622, 0.9703 -0.0807 0.622, 1.0997 0.8268 0.622, 1.0295 -0.14 0.622, 1.0315 -0.1575 0.622, 1.0315 -0.8661 0.622, -1.0519 0.7901 0.622, -1.0709 0.798 0.622, -1.2677 -1.3386 0.622, -1.0872 0.8105 0.622, -1.0997 0.8268 0.622, -1.1076 0.8458 0.622, -1.1102 0.8661 0.622, -1.2677 1.3386 0.622, -0.4436 0.9055 0.622, -0.4358 0.8865 0.622, 0.4331 0.8661 0.622, -0.4331 0.8661 0.622, 0.4358 0.8458 0.622, -0.4358 0.8458 0.622, -0.4436 0.8268 0.622, 1.0315 0.7874 0.622, 0.5118 0.7874 0.622, 0.3306 -0.1233 0.622, 0.4914 0.7901 0.622, 0.3248 -0.14 0.622, 0.4842 -0.8941 0.622, 0.4754 -0.9109 0.622, 0.4628 -0.9251 0.622, 0.4472 -0.9359 0.622, 0.4295 -0.9426 0.622, -0.4754 -0.9109 0.622, -0.4842 -0.8941 0.622, -0.9071 -0.9359 0.622, -0.4561 0.8105 0.622, -0.4724 0.798 0.622, -0.4914 0.7901 0.622, 0.8789 -0.9109 0.622, 0.8701 -0.8941 0.622, 0.8655 -0.8757 0.622, -0.9528 -0.0787 0.622, -0.4016 -0.0787 0.622, 0.4561 0.8105 0.622, 1.1496 1.328 0.622, 1.1333 1.3155 0.622, 1.1686 1.3359 0.622, 1.1208 1.2992 0.622, 1.1129 1.2802 0.622, 0.9249 -0.9426 0.622, 0.9071 -0.9359 0.622, 0.8915 -0.9251 0.622, -0.3674 -0.9371 0.622, -0.3841 -0.9429 0.622, -0.4107 -0.9449 0.622, -0.4295 -0.9426 0.622, -0.4472 -0.9359 0.622, -0.4628 -0.9251 0.622, -0.9249 -0.9426 0.622, -0.9437 -0.9449 0.622, -0.9528 -0.9449 0.622, -1.189 1.3386 0.622, -1.1102 1.2598 0.622, -1.1129 1.2802 0.622, -0.8701 -0.8941 0.622, -0.8655 -0.8757 0.622, -0.4888 -0.8757 0.622, -0.8789 -0.9109 0.622, -0.8915 -0.9251 0.622, -0.9703 -0.9429 0.622, -0.9869 -0.9371 0.622, -1.0018 -0.9277 0.622, -1.1496 1.328 0.622, -1.1686 1.3359 0.622, -1.1333 1.3155 0.622, -1.1208 1.2992 0.622, 0.8003 -0.3447 0.622, 0.554 -0.3447 0.622, 0.4888 -0.8757 0.622, -1.0143 -0.9152 0.622, -1.0237 -0.9003 0.622, -1.0295 -0.8837 0.622, 0.3674 -0.9371 0.622, 0.3525 -0.9277 0.622, 0.34 -0.9152 0.622, 0.3306 -0.9003 0.622, -0.3674 -0.0865 0.622, -0.3525 -0.0959 0.622, 0.4724 0.798 0.622, -0.3306 -0.9003 0.622, -0.34 -0.9152 0.622, -0.3525 -0.9277 0.622, -0.4016 -0.9449 0.622, -0.6133 -0.2779 0.622, -0.6322 -0.2756 0.622, -0.554 -0.3447 0.622, -1.0237 -0.1233 0.622, -1.0143 -0.1084 0.622, -1.0018 -0.0959 0.622, -1.0315 0.7874 0.622, -0.5118 0.7874 0.622, 0.6133 -0.2779 0.622, 0.5956 -0.2846 0.622, -0.5674 -0.3095 0.622, -0.58 -0.2954 0.622, -0.5956 -0.2846 0.622, 0.7958 -0.3263 0.622, 0.7587 -0.2846 0.622, 0.7869 -0.3095 0.622, 0.7743 -0.2954 0.622, 0.741 -0.2779 0.622, 0.7222 -0.2756 0.622, 0.6322 -0.2756 0.622, 0.4107 -0.9449 0.622, 0.4016 -0.9449 0.622, 0.3841 -0.9429 0.622, -0.3841 -0.0807 0.622, -1.0315 -0.8661 0.622, -1.0315 -0.1575 0.622, -1.0295 -0.14 0.622, 0.4436 0.8268 0.622, -0.9869 -0.0865 0.622, -0.9703 -0.0807 0.622, 0.58 -0.2954 0.622, 0.5674 -0.3095 0.622, 0.5586 -0.3263 0.622, -0.3248 -0.8837 0.622, 0.3248 -0.8837 0.622, 0.3228 -0.8661 0.622, -0.5586 -0.3263 0.622, -0.7222 -0.2756 0.622, -0.8003 -0.3447 0.622, -0.741 -0.2779 0.622, -0.7587 -0.2846 0.622, -0.7743 -0.2954 0.622, -0.7869 -0.3095 0.622, -0.7958 -0.3263 0.622, -0.34 -0.1084 0.622, -0.3306 -0.1233 0.622, -0.3248 -0.14 0.622, 0.3228 -0.1575 0.622, -0.3228 -0.1575 0.622, -0.3228 -0.8661 0.622, 0.4561 0.8105 0.5039, 0.4724 0.798 0.5039, 0.4016 -0.0787 0.5039, 0.4907 1.1811 0.5039, -0.4561 0.9218 0.5039, -0.4907 1.1811 0.5039, -0.4724 0.9343 0.5039, -0.4907 0.942 0.5039, 0.4436 0.8268 0.5039, 1.2677 -1.3386 0.5039, 1.1102 0.8661 0.5039, 1.2677 1.3386 0.5039, 1.1102 1.2598 0.5039, 1.189 1.3386 0.5039, 0.4907 0.942 0.5039, 0.4724 0.9343 0.5039, 1.0519 0.7901 0.5039, 1.0709 0.798 0.5039, 1.0872 0.8105 0.5039, -0.4358 0.8865 0.5039, -0.4436 0.9055 0.5039, 0.4561 0.9218 0.5039, 0.4436 0.9055 0.5039, -0.4331 0.8661 0.5039, -1.1102 0.8661 0.5039, -1.1076 0.8458 0.5039, -1.2677 -1.3386 0.5039, -1.0997 0.8268 0.5039, 1.0997 0.8268 0.5039, 1.1076 0.8458 0.5039, -0.3228 -0.8661 0.5039, -0.3228 -0.1575 0.5039, 0.4358 0.8865 0.5039, -0.3248 -0.14 0.5039, -0.3306 -0.1233 0.5039, -1.2677 1.3386 0.5039, -1.189 1.3386 0.5039, -1.1102 1.2598 0.5039, -1.1129 1.2802 0.5039, -1.0872 0.8105 0.5039, -1.0709 0.798 0.5039, -1.0519 0.7901 0.5039, -0.34 -0.1084 0.5039, -0.3525 -0.0959 0.5039, -0.3674 -0.0865 0.5039, -0.3841 -0.0807 0.5039, -0.4016 -0.0787 0.5039, -0.4358 0.8458 0.5039, -1.1686 1.3359 0.5039, -1.1496 1.328 0.5039, -1.1333 1.3155 0.5039, -0.4724 0.798 0.5039, -0.4561 0.8105 0.5039, -0.4436 0.8268 0.5039, 1.1129 1.2802 0.5039, 1.1208 1.2992 0.5039, 1.1686 1.3359 0.5039, 1.1333 1.3155 0.5039, 1.1496 1.328 0.5039, -1.1208 1.2992 0.5039, 0.8701 -0.8941 0.5039, 0.8789 -0.9109 0.5039, -0.9249 -0.9426 0.5039, -0.9071 -0.9359 0.5039, -0.4842 -0.8941 0.5039, -0.8701 -0.8941 0.5039, -0.8655 -0.8757 0.5039, 0.4628 -0.9251 0.5039, 0.4754 -0.9109 0.5039, 0.4842 -0.8941 0.5039, 0.4888 -0.8757 0.5039, -0.8915 -0.9251 0.5039, -0.8789 -0.9109 0.5039, -0.4628 -0.9251 0.5039, -0.4472 -0.9359 0.5039, -0.4295 -0.9426 0.5039, 0.9869 -0.9371 0.5039, 1.0018 -0.9277 0.5039, 1.0143 -0.9152 0.5039, 1.0237 -0.9003 0.5039, 1.0295 -0.8837 0.5039, 1.0018 -0.0959 0.5039, 1.0143 -0.1084 0.5039, 1.0237 -0.1233 0.5039, 0.4914 0.7901 0.5039, 0.5118 0.7874 0.5039, 0.9528 -0.0787 0.5039, 1.0315 0.7874 0.5039, 0.9703 -0.0807 0.5039, 0.9869 -0.0865 0.5039, -1.0018 -0.9277 0.5039, -0.9869 -0.9371 0.5039, -0.9703 -0.9429 0.5039, -0.4754 -0.9109 0.5039, 0.3841 -0.9429 0.5039, 0.4016 -0.9449 0.5039, -0.3525 -0.9277 0.5039, 0.554 -0.3447 0.5039, 0.8003 -0.3447 0.5039, 0.8655 -0.8757 0.5039, 1.0315 -0.8661 0.5039, 1.0315 -0.1575 0.5039, 1.0295 -0.14 0.5039, -1.0295 -0.8837 0.5039, -1.0237 -0.9003 0.5039, -1.0143 -0.9152 0.5039, -0.3674 -0.9371 0.5039, 0.8915 -0.9251 0.5039, 0.9071 -0.9359 0.5039, 0.9249 -0.9426 0.5039, 0.9437 -0.9449 0.5039, -1.0237 -0.1233 0.5039, -1.0143 -0.1084 0.5039, -1.0018 -0.0959 0.5039, -0.9528 -0.9449 0.5039, -0.9437 -0.9449 0.5039, -0.7222 -0.2756 0.5039, -0.6322 -0.2756 0.5039, -0.554 -0.3447 0.5039, -0.6133 -0.2779 0.5039, 0.9528 -0.9449 0.5039, 0.9703 -0.9429 0.5039, -0.741 -0.2779 0.5039, -0.8003 -0.3447 0.5039, -0.4888 -0.8757 0.5039, 0.3841 -0.0807 0.5039, 0.4331 0.8661 0.5039, 0.4358 0.8458 0.5039, -1.0315 0.7874 0.5039, -0.5118 0.7874 0.5039, -0.4914 0.7901 0.5039, -0.7958 -0.3263 0.5039, -0.7869 -0.3095 0.5039, -0.7743 -0.2954 0.5039, -0.5956 -0.2846 0.5039, -0.58 -0.2954 0.5039, 0.5586 -0.3263 0.5039, 0.5674 -0.3095 0.5039, 0.58 -0.2954 0.5039, 0.5956 -0.2846 0.5039, 0.6133 -0.2779 0.5039, 0.6322 -0.2756 0.5039, 0.7222 -0.2756 0.5039, 0.7958 -0.3263 0.5039, 0.741 -0.2779 0.5039, 0.7869 -0.3095 0.5039, 0.7587 -0.2846 0.5039, 0.7743 -0.2954 0.5039, -0.9528 -0.0787 0.5039, -0.9703 -0.0807 0.5039, -0.9869 -0.0865 0.5039, -1.0295 -0.14 0.5039, -1.0315 -0.1575 0.5039, -1.0315 -0.8661 0.5039, -0.7587 -0.2846 0.5039, -0.5674 -0.3095 0.5039, -0.5586 -0.3263 0.5039, 0.4107 -0.9449 0.5039, 0.4295 -0.9426 0.5039, 0.4472 -0.9359 0.5039, 0.3674 -0.0865 0.5039, 0.3525 -0.0959 0.5039, 0.34 -0.1084 0.5039, 0.3306 -0.1233 0.5039, 0.3248 -0.14 0.5039, -0.3306 -0.9003 0.5039, -0.4107 -0.9449 0.5039, -0.4016 -0.9449 0.5039, -0.3841 -0.9429 0.5039, -0.3248 -0.8837 0.5039, 0.34 -0.9152 0.5039, 0.3525 -0.9277 0.5039, 0.3674 -0.9371 0.5039, 0.3228 -0.1575 0.5039, 0.3228 -0.8661 0.5039, -0.34 -0.9152 0.5039, 0.3248 -0.8837 0.5039, 0.3306 -0.9003 0.5039, 1.7598 1.3386 -0.5433, 2.1732 1.3386 -0.5433, 2.1732 1.3386 -0.6614, 1.7598 1.3386 -0.6614, 1.7336 1.3386 -0.6585, 1.7086 1.3386 -0.6497, 1.6862 1.3386 -0.6356, 1.6675 1.3386 -0.6169, 1.6534 1.3386 -0.5946, 1.3645 1.3386 0.4912, 1.3772 1.3386 0.6097, 1.4547 1.3386 0.4538, 1.4812 1.3386 0.5733, 1.5322 1.3386 0.3944, 1.6447 1.3386 -0.5696, 1.6417 1.3386 -0.5433, 1.7598 1.3386 0.1299, 1.6417 1.3386 0.1299, 1.7475 1.3386 0.2394, 1.629 1.3386 0.2267, 1.7111 1.3386 0.3434, 1.5916 1.3386 0.3169, 1.6525 1.3386 0.4368, 1.5746 1.3386 0.5147, 1.7598 -0.6299 -0.1299, 1.7598 -1.3386 -0.1299, 1.7475 -1.3386 -0.2394, 1.7475 -0.6299 -0.2394, 1.7111 -1.3386 -0.3434, 1.7111 -0.6299 -0.3434, 1.6525 -1.3386 -0.4368, 1.6525 -0.6299 -0.4368, 1.5746 -1.3386 -0.5147, 1.5746 -0.6299 -0.5147, 1.4812 -1.3386 -0.5733, 1.4812 -0.6299 -0.5733, 1.3772 -1.3386 -0.6097, 1.3772 -0.6299 -0.6097, 1.2677 -0.6299 -0.5039, 1.2677 -1.3386 -0.5039, 1.3645 -0.6299 -0.4912, 1.3645 -1.3386 -0.4912, 1.4547 -0.6299 -0.4538, 1.4547 -1.3386 -0.4538, 1.5322 -0.6299 -0.3944, 1.5322 -1.3386 -0.3944, 1.5916 -0.6299 -0.3169, 1.5916 -1.3386 -0.3169, 1.629 -0.6299 -0.2267, 1.629 -1.3386 -0.2267, 1.6417 -0.6299 -0.1299, 1.6417 -1.3386 -0.1299, 1.7598 0.8661 -0.1299, 1.7598 0.1575 -0.1299, 1.7475 0.1575 -0.2394, 1.3772 0.1575 -0.6097, 1.7475 0.8661 -0.2394, 1.7111 0.1575 -0.3434, 1.7111 0.8661 -0.3434, 1.6525 0.1575 -0.4368, 1.6525 0.8661 -0.4368, 1.5746 0.1575 -0.5147, 1.5746 0.8661 -0.5147, 1.4812 0.1575 -0.5733, 1.4812 0.8661 -0.5733, 1.3772 0.8661 -0.6097, 1.3772 -1.3386 0.6097, 1.4812 -1.3386 0.5733, 1.5746 -1.3386 0.5147, 1.6525 -1.3386 0.4368, 1.7111 -1.3386 0.3434, 1.7475 -1.3386 0.2394, 1.7598 -1.3386 0.1299, 1.7598 -0.6272 -0.0702, 1.7598 -0.6299 -0.0906, 1.7598 -0.6194 -0.0512, 1.7598 -0.6069 -0.0349, 1.7598 -0.5906 -0.0224, 1.7598 0.1181 -0.0224, 1.7598 0.8767 -0.0512, 1.7598 0.0991 -0.0145, 1.7598 0.0787 -0.0118, 1.7598 0.1344 -0.0349, 1.7598 0.1469 -0.0512, 1.7598 0.1548 -0.0702, 1.7598 -0.5118 -0.0224, 1.7598 -0.4955 -0.0349, 1.7598 -0.483 -0.0512, 1.7598 -0.4751 -0.0702, 1.7598 1.0006 -0.0349, 1.7598 1.0131 -0.0512, 1.7598 -0.5716 -0.0145, 1.7598 -0.5512 -0.0118, 1.7598 -0.5308 -0.0145, 1.7598 0.0231 -0.0349, 1.7598 0.0394 -0.0224, 1.7598 1.0236 -0.5433, 1.7598 1.0236 -0.0906, 1.7598 1.0209 -0.0702, 1.7598 0.1575 -0.0906, 1.7598 0.8661 -0.0906, 1.7598 0.8688 -0.0702, 1.7598 0.0105 -0.0512, 1.7598 -0.4724 -0.5433, 1.7598 0.0 -0.5433, 1.7598 -0.4724 -0.0906, 1.7598 0.0 -0.0906, 1.7598 0.0027 -0.0702, 1.7598 0.9449 -0.0118, 1.7598 0.9653 -0.0145, 1.7598 0.9843 -0.0224, 1.7598 0.8892 -0.0349, 1.7598 0.9055 -0.0224, 1.7598 0.9245 -0.0145, 1.7598 0.0584 -0.0145, -1.5322 -1.3386 -0.3944, -1.5746 -1.3386 -0.5147, -1.4547 -1.3386 -0.4538, -1.4812 -1.3386 -0.5733, -1.3645 -1.3386 -0.4912, -1.3772 -1.3386 -0.6097, -1.2677 -1.3386 -0.5039, -1.4547 -1.3386 0.4538, -1.5746 -1.3386 0.5147, -1.5322 -1.3386 0.3944, -1.6525 -1.3386 0.4368, -1.5916 -1.3386 0.3169, -1.7111 -1.3386 0.3434, -1.629 -1.3386 0.2267, -1.7475 -1.3386 0.2394, -1.6417 -1.3386 0.1299, -1.7598 -1.3386 0.1299, -1.6417 -1.3386 -0.1299, -1.7598 -1.3386 -0.1299, -1.629 -1.3386 -0.2267, -1.7475 -1.3386 -0.2394, -1.5916 -1.3386 -0.3169, -1.7111 -1.3386 -0.3434, -1.6525 -1.3386 -0.4368, 1.6417 -1.3386 0.1299, 1.629 -1.3386 0.2267, 1.5916 -1.3386 0.3169, 1.5322 -1.3386 0.3944, 1.4547 -1.3386 0.4538, 1.3645 -1.3386 0.4912, -1.3645 -1.3386 0.4912, -1.3772 -1.3386 0.6097, -1.4812 -1.3386 0.5733, 1.2677 0.8661 -0.5039, 1.2677 0.1575 -0.5039, 1.3645 0.8661 -0.4912, 1.3645 0.1575 -0.4912, 1.4547 0.8661 -0.4538, 1.4547 0.1575 -0.4538, 1.5322 0.8661 -0.3944, 1.5322 0.1575 -0.3944, 1.5916 0.8661 -0.3169, 1.5916 0.1575 -0.3169, 1.629 0.8661 -0.2267, 1.629 0.1575 -0.2267, 1.6417 0.8661 -0.1299, 1.6417 0.1575 -0.1299, -0.9724 -0.6299 -0.5039, -1.2677 -0.6299 -0.5039, 0.9724 -0.6299 -0.5039, 0.9521 -0.6272 -0.5039, 0.9724 0.1575 -0.5039, 0.9521 0.1548 -0.5039, -0.9168 -0.6069 -0.5039, -0.9331 -0.6194 -0.5039, -0.9521 -0.6272 -0.5039, -1.2677 0.1575 -0.5039, -0.9724 0.1575 -0.5039, -1.2677 0.8661 -0.5039, -0.9521 0.1548 -0.5039, -0.9331 0.1469 -0.5039, -0.9168 0.1344 -0.5039, -0.9042 0.1181 -0.5039, 0.9168 0.1344 -0.5039, -0.8964 0.0991 -0.5039, 0.9042 0.1181 -0.5039, 0.9331 -0.6194 -0.5039, 0.9168 -0.6069 -0.5039, 0.9042 -0.5906 -0.5039, -0.9042 -0.5906 -0.5039, -0.8964 -0.5716 -0.5039, 0.9331 0.1469 -0.5039, 0.8964 -0.5716 -0.5039, 0.8937 -0.5512 -0.5039, -0.8937 -0.5512 -0.5039, -0.8937 0.0787 -0.5039, 0.8937 0.0787 -0.5039, 0.8964 0.0991 -0.5039, 1.6417 0.1344 -0.0349, 1.6417 0.8767 -0.0512, 1.6417 0.1469 -0.0512, 1.6417 0.1548 -0.0702, 1.6417 0.1181 -0.0224, 1.6417 0.0991 -0.0145, 1.6417 0.0787 -0.0118, 1.6417 -0.4751 -0.0702, 1.6417 -0.483 -0.0512, 1.6417 -0.4955 -0.0349, 1.6417 -0.5118 -0.0224, 1.6417 -0.6272 -0.0702, 1.6417 -0.6299 -0.0906, 1.6417 1.0006 -0.0349, 1.6417 1.0131 -0.0512, 1.6417 1.0209 -0.0702, 1.6417 0.0 -0.5433, 1.6417 -0.4724 -0.5433, 1.6417 0.0 -0.0906, 1.6417 -0.4724 -0.0906, 1.6417 -0.5906 -0.0224, 1.6417 -0.6069 -0.0349, 1.6417 -0.6194 -0.0512, 1.6417 1.0236 -0.5433, 1.6417 1.0236 -0.0906, 1.6417 0.8661 -0.0906, 1.6417 -0.5308 -0.0145, 1.6417 -0.5512 -0.0118, 1.6417 -0.5716 -0.0145, 1.6417 0.0394 -0.0224, 1.6417 0.0231 -0.0349, 1.6417 0.8688 -0.0702, 1.6417 0.1575 -0.0906, 1.6417 0.9843 -0.0224, 1.6417 0.9653 -0.0145, 1.6417 0.9449 -0.0118, 1.6417 0.9245 -0.0145, 1.6417 0.9055 -0.0224, 1.6417 0.8892 -0.0349, 1.6417 0.0105 -0.0512, 1.6417 0.0027 -0.0702, 1.6417 0.0584 -0.0145, 2.2493 -0.4141 -0.5433, 2.252 -0.3937 -0.5433, 2.1732 -0.4724 -0.5433, 2.2126 -0.4619 -0.5433, 2.2289 -0.4494 -0.5433, 2.2414 -0.4331 -0.5433, 2.1936 -0.4698 -0.5433, 2.252 -0.0787 -0.5433, 2.1732 0.0 -0.5433, 2.2493 -0.0584 -0.5433, 2.2414 -0.0394 -0.5433, 2.2289 -0.0231 -0.5433, 2.2126 -0.0105 -0.5433, 2.1936 -0.0027 -0.5433, 2.252 -0.3937 -0.6614, 2.252 -0.0787 -0.6614, 2.1732 -0.4724 -0.6614, 1.7598 -0.4724 -0.6614, 2.2493 -0.0584 -0.6614, 2.1732 0.0 -0.6614, 1.7598 0.0 -0.6614, 2.2126 -0.0105 -0.6614, 2.2289 -0.0231 -0.6614, 2.2414 -0.0394 -0.6614, 2.2414 -0.4331 -0.6614, 2.2289 -0.4494 -0.6614, 2.2126 -0.4619 -0.6614, 2.2493 -0.4141 -0.6614, 2.1936 -0.4698 -0.6614, 2.1936 -0.0027 -0.6614, 1.7336 -0.4724 -0.6585, 1.7336 0.0 -0.6585, 1.7086 -0.4724 -0.6497, 1.7086 0.0 -0.6497, 1.6862 -0.4724 -0.6356, 1.6862 0.0 -0.6356, 1.6675 -0.4724 -0.6169, 1.6675 0.0 -0.6169, 1.6534 -0.4724 -0.5946, 1.6534 0.0 -0.5946, 1.6447 -0.4724 -0.5696, 1.6447 0.0 -0.5696, -1.7598 0.8661 -0.0906, -1.6417 0.8661 -0.0906, -1.7598 0.8661 -0.1299, -1.6417 0.8661 -0.1299, -1.7475 0.8661 -0.2394, -1.629 0.8661 -0.2267, -1.7111 0.8661 -0.3434, -1.5916 0.8661 -0.3169, -1.6525 0.8661 -0.4368, -1.5322 0.8661 -0.3944, -1.3645 0.8661 -0.4912, -1.3772 0.8661 -0.6097, -1.4547 0.8661 -0.4538, -1.4812 0.8661 -0.5733, -1.5746 0.8661 -0.5147, 1.6447 1.0236 -0.5696, 1.6534 1.0236 -0.5946, 1.6675 1.0236 -0.6169, 1.6862 1.0236 -0.6356, 1.7086 1.0236 -0.6497, 1.7336 1.0236 -0.6585, 1.7598 1.0236 -0.6614, 2.1732 1.0236 -0.6614, 2.252 1.1024 -0.6614, 2.2493 1.2802 -0.6614, 2.252 1.2598 -0.6614, 2.2126 1.328 -0.6614, 2.2289 1.3155 -0.6614, 2.2414 1.2992 -0.6614, 2.2414 1.063 -0.6614, 2.2289 1.0467 -0.6614, 2.2126 1.0342 -0.6614, 2.2493 1.082 -0.6614, 2.1936 1.0263 -0.6614, 2.1936 1.3359 -0.6614, 2.252 1.2598 -0.5433, 2.252 1.1024 -0.5433, 2.2493 1.082 -0.5433, 2.1732 1.0236 -0.5433, 2.2126 1.0342 -0.5433, 2.2289 1.0467 -0.5433, 2.2414 1.063 -0.5433, 2.2493 1.2802 -0.5433, 2.2414 1.2992 -0.5433, 2.2289 1.3155 -0.5433, 2.2126 1.328 -0.5433, 2.1936 1.3359 -0.5433, 2.1936 1.0263 -0.5433, -0.9239 1.1811 0.266, -0.983 1.1811 0.3683, -0.5301 1.1811 0.4934, -0.5891 1.1811 0.5957, -0.5111 1.1811 0.5013, -0.5417 1.1811 0.6153, 0.5111 1.1811 0.5013, 0.5417 1.1811 0.6153, 0.5301 1.1811 0.4934, 0.5891 1.1811 0.5957, 0.9239 1.1811 0.266, 0.983 1.1811 0.3683, 0.9239 0.9449 0.266, 0.5301 0.9449 0.4934, 0.9898 1.1227 0.228, 0.9921 1.1024 0.2266, 0.958 1.1706 0.2463, 0.9722 1.158 0.2382, 0.983 1.1417 0.2319, 0.9898 1.0032 0.228, 0.983 0.9843 0.2319, 0.9416 1.1784 0.2558, 0.9921 1.0236 0.2266, 0.9722 0.9679 0.2382, 0.958 0.9554 0.2463, 0.9416 0.9476 0.2558, 1.0512 1.1024 0.3289, 1.0512 1.0236 0.3289, 0.5891 0.9449 0.5957, 0.983 0.9449 0.3683, 1.042 1.1417 0.3342, 1.0312 1.158 0.3404, 1.0171 1.1706 0.3486, 1.0006 1.1784 0.3581, 1.0489 1.1227 0.3303, 1.0006 0.9476 0.3581, 1.0171 0.9554 0.3486, 1.0489 1.0032 0.3303, 1.0312 0.9679 0.3404, 1.042 0.9843 0.3342, 0.4914 0.9422 0.622, 0.5015 0.9442 0.6217, 0.5118 0.9449 0.6209, 0.5417 0.9449 0.6153, 0.4914 0.9422 0.5039, 0.5118 0.9449 0.5011, 0.5111 0.9449 0.5013, 0.5013 0.9442 0.5032, 0.4914 0.9422 0.622, -2.1732 1.3386 -0.6614, -2.1732 1.3386 -0.5433, -1.7598 1.3386 -0.6614, -1.7598 1.3386 -0.5433, -1.6862 1.3386 -0.6356, -1.7086 1.3386 -0.6497, -1.7336 1.3386 -0.6585, -1.5322 1.3386 0.3944, -1.5916 1.3386 0.3169, -1.7111 1.3386 0.3434, -1.7475 1.3386 0.2394, -1.629 1.3386 0.2267, -1.7598 1.3386 0.1299, -1.6417 1.3386 0.1299, -1.6417 1.3386 -0.5433, -1.6447 1.3386 -0.5696, -1.6534 1.3386 -0.5946, -1.6675 1.3386 -0.6169, -1.3772 1.3386 0.6097, -1.3645 1.3386 0.4912, -1.4812 1.3386 0.5733, -1.4547 1.3386 0.4538, -1.5746 1.3386 0.5147, -1.6525 1.3386 0.4368, -1.3772 -0.6299 -0.6097, -1.4812 -0.6299 -0.5733, -1.5746 -0.6299 -0.5147, -1.6525 -0.6299 -0.4368, -1.7111 -0.6299 -0.3434, -1.7475 -0.6299 -0.2394, -1.7598 -0.6299 -0.1299, -1.6417 -0.6299 -0.1299, -1.629 -0.6299 -0.2267, -1.5916 -0.6299 -0.3169, -1.5322 -0.6299 -0.3944, -1.4547 -0.6299 -0.4538, -1.3645 -0.6299 -0.4912, -1.3772 0.1575 -0.6097, -1.4812 0.1575 -0.5733, -1.5746 0.1575 -0.5147, -1.6525 0.1575 -0.4368, -1.7111 0.1575 -0.3434, -1.7475 0.1575 -0.2394, -1.7598 0.1575 -0.1299, -1.7598 0.0787 -0.0118, -1.7598 0.8767 -0.0512, -1.7598 0.0991 -0.0145, -1.7598 0.1181 -0.0224, -1.7598 -0.5906 -0.0224, -1.7598 -0.6069 -0.0349, -1.7598 0.0 -0.0906, -1.7598 0.0 -0.5433, -1.7598 -0.4724 -0.5433, -1.7598 -0.6194 -0.0512, -1.7598 -0.6272 -0.0702, -1.7598 -0.6299 -0.0906, -1.7598 0.0394 -0.0224, -1.7598 0.0231 -0.0349, -1.7598 -0.4751 -0.0702, -1.7598 0.0105 -0.0512, -1.7598 0.0027 -0.0702, -1.7598 -0.4724 -0.0906, -1.7598 0.1548 -0.0702, -1.7598 0.1469 -0.0512, -1.7598 0.1344 -0.0349, -1.7598 -0.483 -0.0512, -1.7598 -0.4955 -0.0349, -1.7598 -0.5118 -0.0224, -1.7598 1.0006 -0.0349, -1.7598 1.0131 -0.0512, -1.7598 1.0209 -0.0702, -1.7598 -0.5308 -0.0145, -1.7598 -0.5512 -0.0118, -1.7598 -0.5716 -0.0145, -1.7598 1.0236 -0.5433, -1.7598 1.0236 -0.0906, -1.7598 0.9843 -0.0224, -1.7598 0.9653 -0.0145, -1.7598 0.9449 -0.0118, -1.7598 0.9245 -0.0145, -1.7598 0.9055 -0.0224, -1.7598 0.8892 -0.0349, -1.7598 0.8688 -0.0702, -1.7598 0.1575 -0.0906, -1.7598 0.0584 -0.0145, -1.6417 0.1575 -0.1299, -1.629 0.1575 -0.2267, -1.5916 0.1575 -0.3169, -1.5322 0.1575 -0.3944, -1.4547 0.1575 -0.4538, -1.3645 0.1575 -0.4912, -1.6417 0.1181 -0.0224, -1.6417 0.8767 -0.0512, -1.6417 0.0991 -0.0145, -1.6417 0.0787 -0.0118, -1.6417 0.0231 -0.0349, -1.6417 0.0394 -0.0224, -1.6417 -0.4751 -0.0702, -1.6417 -0.6272 -0.0702, -1.6417 -0.6299 -0.0906, -1.6417 -0.6194 -0.0512, -1.6417 -0.6069 -0.0349, -1.6417 -0.5906 -0.0224, -1.6417 0.0105 -0.0512, -1.6417 -0.5118 -0.0224, -1.6417 -0.4955 -0.0349, -1.6417 -0.483 -0.0512, -1.6417 0.1344 -0.0349, -1.6417 0.1469 -0.0512, -1.6417 0.1548 -0.0702, -1.6417 -0.4724 -0.5433, -1.6417 0.0 -0.5433, -1.6417 -0.4724 -0.0906, -1.6417 0.0 -0.0906, -1.6417 0.0027 -0.0702, -1.6417 -0.5716 -0.0145, -1.6417 -0.5512 -0.0118, -1.6417 -0.5308 -0.0145, -1.6417 1.0006 -0.0349, -1.6417 1.0131 -0.0512, -1.6417 1.0236 -0.5433, -1.6417 1.0236 -0.0906, -1.6417 1.0209 -0.0702, -1.6417 0.1575 -0.0906, -1.6417 0.8688 -0.0702, -1.6417 0.8892 -0.0349, -1.6417 0.9055 -0.0224, -1.6417 0.9245 -0.0145, -1.6417 0.9449 -0.0118, -1.6417 0.9653 -0.0145, -1.6417 0.9843 -0.0224, -1.6417 0.0584 -0.0145, -2.2493 -0.0584 -0.5433, -2.252 -0.0787 -0.5433, -2.1732 0.0 -0.5433, -2.2126 -0.0105 -0.5433, -2.2289 -0.0231 -0.5433, -2.2414 -0.0394 -0.5433, -2.1936 -0.0027 -0.5433, -2.252 -0.3937 -0.5433, -2.1732 -0.4724 -0.5433, -2.2493 -0.4141 -0.5433, -2.2414 -0.4331 -0.5433, -2.2289 -0.4494 -0.5433, -2.2126 -0.4619 -0.5433, -2.1936 -0.4698 -0.5433, -2.252 -0.0787 -0.6614, -2.252 -0.3937 -0.6614, -2.2493 -0.4141 -0.6614, -2.1732 -0.4724 -0.6614, -1.7598 -0.4724 -0.6614, -2.2126 -0.4619 -0.6614, -2.2289 -0.4494 -0.6614, -2.2414 -0.4331 -0.6614, -1.7598 0.0 -0.6614, -2.1732 0.0 -0.6614, -2.2493 -0.0584 -0.6614, -2.2414 -0.0394 -0.6614, -2.2289 -0.0231 -0.6614, -2.2126 -0.0105 -0.6614, -2.1936 -0.0027 -0.6614, -2.1936 -0.4698 -0.6614, -1.6447 -0.4724 -0.5696, -1.6447 0.0 -0.5696, -1.6534 -0.4724 -0.5946, -1.6534 0.0 -0.5946, -1.6675 -0.4724 -0.6169, -1.6675 0.0 -0.6169, -1.6862 -0.4724 -0.6356, -1.6862 0.0 -0.6356, -1.7086 -0.4724 -0.6497, -1.7086 0.0 -0.6497, -1.7336 -0.4724 -0.6585, -1.7336 0.0 -0.6585, -1.7598 1.0236 -0.6614, -1.7336 1.0236 -0.6585, -1.7086 1.0236 -0.6497, -1.6862 1.0236 -0.6356, -1.6675 1.0236 -0.6169, -1.6534 1.0236 -0.5946, -1.6447 1.0236 -0.5696, -2.2493 1.082 -0.6614, -2.252 1.1024 -0.6614, -2.1732 1.0236 -0.6614, -2.2126 1.0342 -0.6614, -2.2289 1.0467 -0.6614, -2.2414 1.063 -0.6614, -2.1936 1.0263 -0.6614, -2.252 1.2598 -0.6614, -2.2493 1.2802 -0.6614, -2.2414 1.2992 -0.6614, -2.2289 1.3155 -0.6614, -2.2126 1.328 -0.6614, -2.1936 1.3359 -0.6614, -2.252 1.1024 -0.5433, -2.252 1.2598 -0.5433, -2.2493 1.2802 -0.5433, -2.2126 1.328 -0.5433, -2.2289 1.3155 -0.5433, -2.2414 1.2992 -0.5433, -2.1732 1.0236 -0.5433, -2.2493 1.082 -0.5433, -2.2414 1.063 -0.5433, -2.2289 1.0467 -0.5433, -2.2126 1.0342 -0.5433, -2.1936 1.0263 -0.5433, -2.1936 1.3359 -0.5433, -0.983 0.9843 0.2319, -0.9898 1.0032 0.228, -0.9239 0.9449 0.266, -0.9921 1.0236 0.2266, -0.5301 0.9449 0.4934, -0.9722 0.9679 0.2382, -0.9416 0.9476 0.2558, -0.958 0.9554 0.2463, -0.9921 1.1024 0.2266, -0.9898 1.1227 0.228, -0.983 1.1417 0.2319, -0.9722 1.158 0.2382, -0.958 1.1706 0.2463, -0.9416 1.1784 0.2558, -1.0512 1.0236 0.3289, -1.0512 1.1024 0.3289, -0.983 0.9449 0.3683, -0.5891 0.9449 0.5957, -1.0006 1.1784 0.3581, -1.042 1.1417 0.3342, -1.0489 1.1227 0.3303, -1.0312 1.158 0.3404, -1.0171 1.1706 0.3486, -1.0171 0.9554 0.3486, -1.0489 1.0032 0.3303, -1.0312 0.9679 0.3404, -1.042 0.9843 0.3342, -1.0006 0.9476 0.3581, -0.5417 0.9449 0.6153, -0.5118 0.9449 0.6209, -0.5015 0.9442 0.6217, -0.4914 0.9422 0.622, -0.4914 0.9422 0.5039, -0.5013 0.9442 0.5032, -0.5111 0.9449 0.5013, -0.5118 0.9449 0.5011, -0.4914 0.9422 0.622, -0.4914 0.9422 0.622
            ]
        }
        coordIndex [
            0,1,2,-1,3,4,5,-1,6,7,8,-1,8,7,9,-1,8,9,5,-1,10,11,12,-1,12,11,13,-1,12,13,14,-1,15,16,17,-1,17,16,18,-1,17,18,19,-1,19,20,17,-1,17,20,21,-1,17,21,22,-1,23,24,17,-1,17,24,25,-1,26,27,28,-1,28,27,29,-1,25,30,17,-1,17,30,29,-1,17,29,31,-1,31,29,27,-1,32,33,34,-1,34,33,35,-1,22,36,17,-1,17,36,37,-1,17,37,23,-1,38,39,40,-1,40,39,41,-1,40,41,42,-1,15,43,6,-1,6,43,44,-1,6,44,45,-1,32,46,33,-1,33,46,47,-1,33,47,48,-1,42,49,40,-1,40,49,50,-1,40,50,51,-1,33,7,35,-1,35,7,6,-1,35,6,52,-1,52,6,45,-1,47,53,48,-1,48,53,54,-1,48,54,40,-1,40,54,55,-1,40,55,38,-1,56,57,58,-1,58,57,59,-1,58,59,60,-1,61,62,50,-1,56,58,63,-1,63,58,64,-1,63,64,65,-1,9,51,5,-1,5,51,50,-1,5,50,3,-1,3,50,62,-1,66,67,50,-1,50,67,68,-1,50,68,61,-1,60,69,58,-1,58,69,70,-1,58,70,12,-1,12,70,71,-1,12,71,10,-1,10,71,66,-1,10,66,72,-1,72,66,50,-1,12,73,74,-1,75,76,58,-1,77,78,79,-1,79,78,80,-1,79,80,12,-1,12,80,81,-1,12,81,73,-1,76,82,58,-1,58,82,83,-1,58,83,2,-1,2,83,84,-1,2,84,0,-1,74,85,12,-1,12,85,86,-1,12,86,58,-1,58,86,87,-1,58,87,75,-1,88,89,90,-1,91,92,6,-1,6,92,12,-1,6,12,15,-1,15,12,14,-1,15,14,16,-1,93,94,95,-1,95,94,96,-1,95,96,97,-1,97,96,90,-1,89,98,90,-1,90,98,99,-1,90,99,100,-1,101,102,103,-1,104,105,106,-1,107,108,109,-1,109,108,110,-1,104,106,111,-1,100,112,90,-1,90,112,113,-1,90,113,97,-1,97,113,109,-1,6,97,91,-1,91,97,109,-1,91,109,114,-1,114,109,110,-1,114,110,115,-1,115,110,116,-1,103,108,101,-1,101,108,107,-1,101,107,117,-1,117,107,12,-1,117,12,118,-1,118,12,92,-1,105,119,106,-1,106,119,120,-1,106,120,121,-1,121,122,106,-1,106,122,123,-1,106,123,90,-1,90,123,124,-1,90,124,88,-1,107,111,12,-1,12,111,106,-1,12,106,79,-1,79,106,125,-1,79,125,97,-1,97,125,126,-1,97,126,95,-1,127,128,129,-1,129,128,130,-1,129,130,131,-1,132,133,134,-1,134,133,135,-1,134,135,136,-1,137,138,139,-1,139,138,140,-1,128,141,130,-1,130,141,142,-1,130,142,143,-1,143,142,144,-1,143,144,145,-1,146,138,147,-1,147,138,148,-1,146,149,138,-1,138,149,150,-1,138,150,140,-1,151,152,153,-1,153,152,154,-1,153,154,155,-1,155,154,156,-1,156,157,155,-1,155,157,158,-1,155,158,159,-1,160,161,134,-1,134,161,162,-1,134,162,163,-1,132,134,164,-1,164,134,163,-1,164,163,159,-1,159,163,165,-1,159,165,155,-1,136,166,134,-1,134,166,167,-1,134,167,138,-1,138,167,168,-1,138,168,148,-1,169,170,171,-1,171,170,172,-1,171,172,173,-1,173,174,171,-1,171,174,175,-1,171,175,176,-1,127,177,128,-1,128,177,178,-1,128,178,179,-1,179,178,180,-1,179,180,181,-1,181,180,182,-1,181,182,183,-1,151,184,152,-1,152,184,185,-1,152,185,186,-1,186,185,187,-1,186,187,188,-1,138,189,190,-1,190,191,138,-1,138,191,192,-1,138,192,193,-1,194,195,196,-1,183,197,181,-1,181,197,198,-1,181,198,199,-1,200,201,189,-1,189,201,202,-1,203,204,205,-1,206,207,208,-1,208,207,209,-1,208,209,160,-1,160,209,210,-1,160,210,161,-1,137,211,138,-1,138,211,212,-1,138,212,189,-1,189,212,213,-1,189,213,200,-1,138,214,215,-1,216,217,171,-1,171,217,218,-1,171,218,196,-1,196,218,219,-1,196,219,194,-1,196,220,171,-1,171,220,221,-1,171,221,222,-1,176,175,223,-1,223,175,224,-1,223,224,225,-1,226,195,227,-1,227,195,228,-1,226,229,195,-1,195,229,230,-1,195,230,196,-1,222,231,171,-1,171,231,232,-1,171,232,233,-1,234,235,236,-1,236,235,223,-1,236,223,237,-1,237,223,225,-1,238,239,202,-1,202,239,240,-1,202,240,189,-1,233,241,171,-1,171,241,242,-1,171,242,243,-1,244,245,214,-1,214,245,246,-1,214,246,247,-1,248,249,250,-1,251,252,247,-1,247,252,253,-1,247,253,214,-1,138,215,171,-1,171,215,254,-1,171,254,216,-1,255,256,257,-1,257,256,228,-1,258,259,169,-1,169,259,260,-1,169,260,261,-1,261,260,262,-1,263,264,239,-1,250,249,187,-1,265,266,267,-1,238,268,269,-1,269,268,270,-1,269,270,271,-1,269,272,238,-1,238,272,273,-1,238,273,239,-1,239,273,274,-1,239,274,263,-1,193,275,138,-1,138,275,276,-1,138,276,214,-1,214,276,277,-1,214,277,244,-1,205,204,250,-1,250,204,278,-1,250,278,248,-1,243,279,171,-1,171,279,280,-1,171,280,169,-1,169,280,281,-1,169,281,258,-1,199,262,181,-1,181,262,260,-1,181,260,282,-1,282,260,283,-1,282,283,205,-1,205,283,284,-1,205,284,203,-1,264,285,239,-1,239,285,286,-1,239,286,287,-1,251,247,288,-1,288,247,289,-1,288,289,290,-1,255,257,267,-1,267,257,291,-1,267,291,265,-1,228,256,227,-1,227,256,292,-1,227,292,293,-1,293,292,294,-1,293,294,295,-1,296,297,295,-1,295,297,298,-1,295,298,293,-1,249,299,187,-1,187,299,300,-1,187,300,188,-1,188,300,301,-1,188,301,302,-1,302,301,303,-1,302,303,290,-1,290,303,304,-1,290,304,288,-1,305,306,307,-1,308,309,310,-1,310,309,311,-1,310,311,312,-1,305,307,313,-1,314,315,316,-1,316,315,317,-1,316,317,318,-1,308,319,320,-1,321,322,314,-1,314,322,323,-1,320,324,308,-1,308,324,325,-1,308,325,309,-1,320,326,324,-1,324,326,327,-1,324,327,328,-1,329,330,331,-1,331,330,332,-1,323,333,314,-1,314,333,334,-1,314,334,315,-1,335,336,337,-1,337,336,338,-1,337,338,339,-1,331,340,329,-1,329,340,341,-1,329,341,342,-1,342,341,343,-1,332,344,331,-1,331,344,345,-1,331,345,346,-1,339,347,337,-1,337,347,348,-1,337,348,327,-1,348,349,327,-1,327,349,350,-1,327,350,328,-1,328,350,351,-1,328,351,352,-1,353,354,355,-1,356,357,351,-1,351,357,358,-1,351,358,352,-1,317,359,318,-1,318,359,360,-1,318,360,361,-1,361,360,362,-1,361,362,363,-1,353,355,341,-1,341,355,364,-1,341,364,343,-1,331,365,366,-1,331,367,368,-1,369,370,371,-1,372,373,365,-1,365,373,374,-1,365,374,375,-1,368,376,369,-1,369,376,377,-1,369,377,370,-1,378,379,331,-1,331,379,380,-1,381,382,314,-1,382,383,314,-1,314,383,384,-1,314,384,385,-1,386,321,387,-1,387,321,388,-1,306,389,307,-1,307,389,390,-1,307,390,391,-1,391,390,392,-1,391,392,393,-1,393,392,321,-1,393,321,394,-1,394,321,386,-1,395,396,331,-1,331,396,397,-1,368,369,331,-1,331,369,398,-1,331,398,378,-1,399,400,401,-1,402,403,375,-1,375,403,404,-1,375,404,365,-1,385,405,314,-1,314,405,406,-1,314,406,321,-1,321,406,407,-1,321,407,388,-1,408,409,331,-1,331,409,410,-1,331,410,395,-1,401,400,411,-1,366,412,331,-1,331,412,413,-1,331,413,314,-1,314,413,414,-1,314,414,415,-1,416,346,417,-1,417,346,418,-1,397,419,331,-1,331,419,420,-1,331,420,367,-1,421,422,423,-1,423,422,424,-1,415,425,314,-1,314,425,426,-1,314,426,381,-1,427,421,428,-1,428,421,423,-1,428,423,371,-1,371,423,429,-1,371,429,369,-1,430,431,307,-1,307,431,432,-1,307,432,313,-1,433,434,351,-1,351,434,435,-1,351,435,356,-1,436,437,438,-1,424,439,440,-1,441,442,402,-1,402,442,443,-1,402,443,444,-1,444,445,402,-1,402,445,446,-1,402,446,403,-1,403,446,447,-1,403,447,448,-1,448,447,449,-1,448,449,450,-1,450,449,451,-1,450,451,452,-1,351,453,433,-1,433,453,454,-1,433,454,346,-1,346,454,455,-1,346,455,418,-1,416,456,346,-1,346,456,457,-1,346,457,331,-1,331,457,458,-1,331,458,408,-1,436,438,428,-1,428,438,459,-1,428,459,427,-1,440,460,424,-1,424,460,461,-1,424,461,423,-1,400,462,331,-1,331,462,463,-1,331,463,365,-1,365,463,464,-1,365,464,372,-1,430,465,431,-1,431,465,466,-1,431,466,467,-1,468,469,470,-1,380,471,331,-1,331,471,472,-1,331,472,400,-1,400,472,473,-1,400,473,411,-1,467,468,431,-1,431,468,470,-1,431,470,337,-1,337,470,474,-1,337,474,335,-1,475,476,401,-1,401,476,477,-1,401,477,399,-1,469,478,470,-1,470,478,479,-1,470,479,480,-1,480,479,481,-1,480,481,401,-1,401,481,482,-1,401,482,475,-1,483,484,485,-1,485,486,483,-1,483,486,487,-1,483,487,488,-1,488,489,483,-1,483,489,490,-1,483,490,491,-1,318,160,316,-1,316,160,134,-1,316,134,492,-1,492,134,493,-1,492,493,494,-1,494,493,495,-1,494,495,496,-1,491,497,483,-1,483,497,498,-1,483,498,499,-1,499,498,500,-1,499,500,501,-1,501,500,502,-1,501,502,503,-1,503,502,504,-1,503,504,505,-1,505,504,496,-1,505,496,506,-1,506,496,495,-1,507,508,509,-1,507,509,510,-1,510,509,511,-1,510,511,512,-1,512,511,513,-1,512,513,514,-1,514,513,515,-1,514,515,516,-1,516,515,517,-1,516,517,518,-1,518,517,519,-1,518,519,520,-1,520,519,2,-1,520,2,1,-1,521,522,523,-1,523,522,524,-1,523,524,525,-1,525,524,526,-1,525,526,527,-1,527,526,528,-1,527,528,529,-1,529,528,530,-1,529,530,531,-1,531,530,532,-1,531,532,533,-1,533,532,534,-1,535,536,537,-1,538,77,79,-1,535,537,539,-1,539,537,540,-1,539,540,541,-1,541,540,542,-1,541,542,543,-1,543,542,544,-1,543,544,545,-1,545,544,546,-1,545,546,547,-1,547,546,538,-1,547,538,548,-1,548,538,79,-1,548,79,97,-1,134,138,549,-1,134,549,493,-1,493,549,550,-1,493,550,495,-1,495,550,551,-1,495,551,506,-1,506,551,552,-1,506,552,505,-1,505,552,553,-1,505,553,503,-1,503,553,554,-1,503,554,501,-1,501,554,555,-1,501,555,499,-1,556,555,557,-1,557,555,508,-1,557,508,507,-1,556,558,555,-1,555,558,559,-1,555,559,560,-1,561,562,563,-1,563,562,564,-1,561,565,562,-1,562,565,566,-1,562,566,567,-1,568,569,499,-1,499,569,570,-1,499,570,571,-1,499,572,573,-1,560,574,555,-1,555,574,575,-1,555,575,499,-1,499,575,576,-1,499,576,568,-1,577,578,571,-1,579,483,580,-1,580,483,499,-1,580,499,581,-1,581,499,573,-1,536,535,582,-1,582,535,583,-1,582,583,567,-1,567,583,584,-1,567,584,562,-1,577,571,585,-1,586,587,588,-1,588,587,589,-1,588,589,571,-1,571,589,590,-1,571,590,585,-1,591,592,499,-1,499,592,593,-1,499,593,572,-1,562,594,564,-1,564,594,595,-1,564,595,596,-1,578,597,571,-1,571,597,564,-1,571,564,499,-1,499,564,596,-1,499,596,591,-1,598,599,600,-1,600,599,601,-1,600,601,602,-1,602,601,603,-1,602,603,604,-1,605,606,607,-1,607,606,608,-1,607,608,609,-1,609,608,610,-1,609,610,611,-1,611,610,612,-1,611,612,613,-1,613,612,614,-1,613,614,615,-1,615,614,616,-1,615,616,617,-1,617,616,618,-1,617,618,619,-1,619,618,620,-1,619,620,598,-1,598,620,621,-1,598,621,599,-1,528,513,530,-1,530,513,511,-1,530,511,532,-1,532,511,509,-1,532,509,534,-1,534,509,508,-1,534,508,622,-1,622,508,555,-1,622,555,623,-1,623,555,554,-1,623,554,624,-1,603,64,604,-1,604,64,58,-1,604,58,522,-1,522,58,2,-1,522,2,524,-1,524,2,519,-1,524,519,526,-1,526,519,517,-1,526,517,528,-1,528,517,515,-1,528,515,513,-1,554,553,624,-1,624,553,552,-1,624,552,625,-1,625,552,551,-1,625,551,626,-1,626,551,550,-1,626,550,627,-1,627,550,549,-1,627,549,314,-1,314,549,138,-1,314,138,331,-1,331,138,171,-1,331,171,628,-1,628,171,629,-1,628,629,605,-1,605,629,630,-1,605,630,606,-1,631,632,633,-1,633,632,634,-1,633,634,635,-1,635,634,636,-1,635,636,637,-1,637,636,638,-1,637,638,639,-1,639,638,640,-1,639,640,641,-1,641,640,642,-1,641,642,643,-1,643,642,644,-1,645,646,604,-1,521,647,522,-1,522,647,648,-1,522,648,604,-1,632,631,649,-1,649,631,650,-1,651,652,604,-1,604,652,653,-1,604,653,645,-1,654,655,656,-1,656,655,657,-1,656,657,658,-1,659,660,661,-1,661,660,662,-1,661,662,663,-1,648,664,604,-1,604,664,665,-1,604,665,651,-1,651,665,666,-1,651,666,667,-1,667,666,668,-1,650,631,669,-1,669,631,656,-1,669,656,661,-1,661,656,658,-1,661,658,659,-1,666,670,668,-1,668,670,671,-1,668,671,672,-1,672,671,673,-1,673,671,674,-1,673,674,662,-1,662,674,675,-1,662,675,663,-1,500,622,502,-1,502,622,623,-1,502,623,504,-1,504,623,624,-1,504,624,496,-1,496,624,625,-1,496,625,494,-1,494,625,626,-1,494,626,492,-1,492,626,627,-1,492,627,316,-1,316,627,314,-1,676,677,678,-1,678,677,679,-1,676,680,677,-1,677,680,681,-1,677,681,682,-1,683,684,500,-1,500,684,685,-1,500,685,686,-1,622,687,534,-1,534,687,688,-1,534,688,533,-1,689,500,690,-1,690,500,691,-1,692,693,694,-1,694,693,695,-1,694,695,683,-1,696,697,622,-1,622,697,698,-1,622,698,687,-1,498,699,500,-1,500,699,700,-1,500,700,691,-1,701,643,644,-1,686,702,500,-1,500,702,703,-1,500,703,622,-1,622,703,704,-1,622,704,696,-1,683,705,706,-1,677,707,679,-1,679,707,701,-1,679,701,708,-1,708,701,644,-1,689,709,500,-1,500,709,710,-1,500,710,711,-1,712,713,682,-1,682,713,714,-1,682,714,677,-1,706,715,683,-1,683,715,716,-1,683,716,694,-1,711,712,500,-1,500,712,682,-1,500,682,683,-1,683,682,717,-1,683,717,705,-1,87,86,671,-1,671,86,674,-1,688,557,533,-1,533,557,507,-1,533,507,531,-1,531,507,510,-1,531,510,529,-1,0,647,1,-1,1,647,521,-1,1,521,520,-1,520,521,523,-1,520,523,518,-1,518,523,525,-1,518,525,516,-1,516,525,527,-1,516,527,514,-1,514,527,529,-1,514,529,512,-1,512,529,510,-1,649,78,632,-1,632,78,77,-1,632,77,634,-1,634,77,538,-1,634,538,636,-1,636,538,546,-1,636,546,638,-1,582,708,536,-1,536,708,644,-1,536,644,537,-1,537,644,642,-1,537,642,540,-1,540,642,640,-1,540,640,542,-1,542,640,638,-1,542,638,544,-1,544,638,546,-1,718,719,720,-1,720,719,586,-1,721,722,723,-1,718,720,723,-1,723,720,724,-1,723,724,721,-1,586,719,587,-1,587,719,725,-1,587,725,726,-1,726,725,727,-1,726,727,728,-1,729,730,728,-1,728,730,731,-1,728,731,726,-1,732,733,719,-1,719,733,725,-1,734,735,732,-1,736,733,737,-1,732,735,733,-1,733,735,738,-1,733,738,737,-1,739,740,741,-1,742,743,744,-1,732,745,734,-1,734,745,742,-1,734,742,746,-1,746,742,744,-1,736,737,741,-1,741,737,747,-1,741,747,739,-1,738,735,748,-1,738,748,749,-1,749,748,750,-1,749,750,751,-1,751,750,752,-1,751,752,753,-1,753,752,754,-1,753,754,755,-1,755,754,756,-1,755,756,757,-1,757,756,758,-1,757,758,759,-1,759,758,693,-1,759,693,692,-1,694,589,692,-1,692,589,587,-1,726,737,587,-1,587,737,738,-1,587,753,755,-1,738,749,587,-1,587,749,751,-1,587,751,753,-1,755,757,587,-1,587,757,759,-1,587,759,692,-1,586,752,750,-1,588,695,586,-1,586,695,693,-1,586,693,758,-1,734,720,735,-1,735,720,586,-1,735,586,748,-1,748,586,750,-1,758,756,586,-1,586,756,754,-1,586,754,752,-1,637,545,635,-1,635,545,547,-1,635,547,633,-1,633,547,548,-1,633,548,631,-1,701,583,643,-1,643,583,535,-1,643,535,641,-1,641,535,539,-1,641,539,639,-1,639,539,541,-1,639,541,637,-1,637,541,543,-1,637,543,545,-1,760,761,762,-1,762,761,763,-1,762,763,764,-1,764,763,765,-1,764,765,766,-1,766,765,767,-1,766,767,768,-1,768,767,769,-1,548,97,631,-1,631,97,6,-1,631,6,656,-1,656,6,8,-1,656,8,770,-1,770,8,771,-1,770,771,772,-1,772,771,773,-1,772,773,769,-1,769,773,774,-1,769,774,768,-1,699,498,497,-1,699,497,775,-1,775,497,491,-1,775,491,776,-1,776,491,490,-1,776,490,777,-1,777,490,489,-1,777,489,778,-1,778,489,488,-1,778,488,779,-1,779,488,487,-1,779,487,780,-1,780,487,486,-1,780,486,781,-1,782,781,783,-1,784,785,485,-1,783,781,785,-1,785,781,486,-1,785,486,485,-1,786,787,788,-1,789,790,791,-1,783,792,782,-1,782,792,789,-1,782,789,793,-1,793,789,791,-1,784,485,788,-1,788,485,794,-1,788,794,786,-1,795,796,785,-1,785,796,783,-1,797,796,798,-1,798,796,579,-1,799,800,801,-1,579,796,483,-1,483,796,795,-1,483,795,484,-1,484,795,802,-1,484,802,803,-1,804,805,803,-1,803,805,806,-1,803,806,484,-1,797,798,801,-1,801,798,807,-1,801,807,799,-1,782,798,781,-1,781,798,579,-1,580,700,579,-1,579,700,699,-1,579,699,775,-1,775,776,579,-1,579,776,777,-1,579,777,778,-1,778,779,579,-1,579,779,780,-1,579,780,781,-1,583,701,584,-1,584,701,707,-1,584,707,562,-1,562,707,677,-1,562,677,594,-1,594,677,714,-1,594,714,595,-1,595,714,713,-1,595,713,596,-1,596,713,712,-1,596,712,591,-1,591,712,711,-1,591,711,592,-1,592,711,710,-1,592,710,593,-1,593,710,709,-1,593,709,572,-1,572,709,689,-1,572,689,573,-1,573,689,690,-1,573,690,581,-1,581,690,691,-1,581,691,580,-1,580,691,700,-1,485,484,806,-1,485,806,794,-1,794,806,805,-1,794,805,786,-1,786,805,804,-1,786,804,787,-1,787,804,803,-1,787,803,788,-1,788,803,802,-1,788,802,784,-1,784,802,795,-1,784,795,785,-1,798,782,793,-1,798,793,807,-1,807,793,791,-1,807,791,799,-1,799,791,790,-1,799,790,800,-1,800,790,789,-1,800,789,801,-1,801,789,792,-1,801,792,797,-1,797,792,783,-1,797,783,796,-1,732,719,718,-1,732,718,745,-1,745,718,723,-1,745,723,742,-1,742,723,722,-1,742,722,743,-1,743,722,721,-1,743,721,744,-1,744,721,724,-1,744,724,746,-1,746,724,720,-1,746,720,734,-1,725,733,736,-1,725,736,727,-1,727,736,741,-1,727,741,728,-1,728,741,740,-1,728,740,729,-1,729,740,739,-1,729,739,730,-1,730,739,747,-1,730,747,731,-1,731,747,737,-1,731,737,726,-1,647,0,648,-1,648,0,84,-1,648,84,664,-1,664,84,83,-1,664,83,665,-1,665,83,82,-1,665,82,666,-1,666,82,76,-1,666,76,670,-1,670,76,75,-1,670,75,671,-1,671,75,87,-1,78,649,80,-1,80,649,650,-1,80,650,81,-1,81,650,669,-1,81,669,73,-1,73,669,661,-1,73,661,74,-1,74,661,663,-1,74,663,85,-1,85,663,675,-1,85,675,86,-1,86,675,674,-1,682,564,717,-1,717,564,597,-1,717,597,705,-1,705,597,578,-1,705,578,706,-1,706,578,577,-1,706,577,715,-1,715,577,585,-1,715,585,716,-1,716,585,590,-1,716,590,694,-1,694,590,589,-1,564,682,563,-1,563,682,681,-1,563,681,561,-1,561,681,680,-1,561,680,565,-1,565,680,676,-1,565,676,566,-1,566,676,678,-1,566,678,567,-1,567,678,679,-1,567,679,582,-1,582,679,708,-1,557,688,556,-1,556,688,687,-1,556,687,558,-1,558,687,698,-1,558,698,559,-1,559,698,697,-1,559,697,560,-1,560,697,696,-1,560,696,574,-1,574,696,704,-1,574,704,575,-1,575,704,703,-1,575,703,576,-1,576,703,702,-1,576,702,568,-1,568,702,686,-1,568,686,569,-1,569,686,685,-1,569,685,570,-1,570,685,684,-1,570,684,571,-1,571,684,683,-1,571,683,588,-1,588,683,695,-1,317,315,161,-1,161,315,162,-1,392,390,184,-1,184,390,185,-1,808,809,810,-1,810,809,811,-1,810,811,812,-1,812,811,813,-1,812,813,310,-1,310,813,130,-1,310,130,308,-1,308,130,143,-1,308,143,814,-1,814,143,815,-1,814,815,816,-1,816,815,817,-1,816,817,818,-1,818,817,819,-1,820,821,816,-1,822,823,818,-1,818,823,816,-1,824,825,826,-1,827,828,820,-1,822,818,826,-1,826,818,829,-1,826,829,824,-1,816,823,820,-1,820,823,830,-1,820,830,827,-1,828,831,820,-1,820,831,832,-1,820,832,833,-1,834,835,823,-1,823,835,830,-1,817,836,819,-1,819,836,837,-1,838,839,840,-1,837,835,819,-1,819,835,834,-1,819,834,841,-1,841,834,840,-1,840,834,842,-1,840,842,838,-1,837,843,835,-1,835,843,844,-1,835,844,845,-1,845,844,846,-1,845,846,847,-1,836,817,815,-1,143,145,848,-1,848,849,143,-1,143,849,850,-1,143,850,815,-1,815,850,851,-1,815,851,836,-1,852,319,308,-1,814,816,821,-1,821,853,814,-1,814,853,854,-1,814,854,308,-1,308,854,855,-1,308,855,852,-1,821,820,837,-1,850,853,851,-1,851,853,821,-1,851,821,836,-1,836,821,837,-1,834,823,822,-1,834,822,842,-1,842,822,826,-1,842,826,838,-1,838,826,825,-1,838,825,839,-1,839,825,824,-1,839,824,840,-1,840,824,829,-1,840,829,841,-1,841,829,818,-1,841,818,819,-1,317,161,210,-1,317,210,359,-1,359,210,209,-1,359,209,360,-1,360,209,207,-1,360,207,362,-1,362,207,206,-1,362,206,363,-1,363,206,208,-1,363,208,361,-1,361,208,160,-1,361,160,318,-1,830,835,845,-1,830,845,827,-1,827,845,847,-1,827,847,828,-1,828,847,846,-1,828,846,831,-1,831,846,844,-1,831,844,832,-1,832,844,843,-1,832,843,833,-1,833,843,837,-1,833,837,820,-1,162,315,163,-1,163,315,334,-1,163,334,165,-1,165,334,333,-1,165,333,155,-1,155,333,323,-1,155,323,153,-1,153,323,322,-1,153,322,151,-1,151,322,321,-1,151,321,184,-1,184,321,392,-1,431,179,432,-1,432,179,181,-1,432,181,313,-1,313,181,282,-1,313,282,305,-1,305,282,205,-1,305,205,306,-1,306,205,250,-1,306,250,389,-1,389,250,187,-1,389,187,390,-1,390,187,185,-1,179,431,128,-1,128,431,337,-1,128,337,141,-1,141,337,327,-1,141,327,142,-1,142,327,326,-1,142,326,144,-1,144,326,320,-1,144,320,145,-1,145,320,319,-1,145,319,856,-1,856,319,852,-1,856,852,849,-1,849,852,855,-1,849,855,850,-1,850,855,854,-1,850,854,853,-1,857,858,859,-1,859,858,860,-1,861,862,860,-1,860,862,863,-1,860,863,859,-1,864,865,866,-1,866,865,867,-1,867,865,868,-1,867,868,869,-1,869,868,870,-1,869,870,860,-1,860,870,871,-1,860,871,872,-1,872,873,860,-1,860,873,874,-1,860,874,861,-1,223,341,176,-1,176,341,340,-1,176,340,875,-1,875,340,876,-1,875,876,877,-1,877,876,878,-1,877,878,879,-1,879,878,864,-1,879,864,880,-1,880,864,866,-1,65,64,603,-1,65,603,881,-1,881,603,601,-1,881,601,882,-1,882,601,599,-1,882,599,883,-1,883,599,621,-1,883,621,884,-1,884,621,620,-1,884,620,885,-1,885,620,618,-1,885,618,886,-1,886,618,616,-1,886,616,887,-1,888,615,889,-1,889,615,617,-1,889,617,890,-1,890,617,619,-1,890,619,891,-1,891,619,598,-1,891,598,892,-1,892,598,600,-1,892,600,893,-1,893,600,602,-1,893,602,646,-1,646,602,604,-1,5,4,894,-1,5,894,8,-1,8,894,771,-1,771,894,895,-1,771,895,773,-1,773,895,896,-1,773,896,774,-1,774,896,897,-1,774,897,768,-1,768,897,898,-1,768,898,766,-1,766,898,899,-1,766,899,764,-1,764,899,900,-1,764,900,762,-1,869,614,612,-1,869,612,867,-1,867,612,610,-1,867,610,866,-1,866,610,608,-1,866,608,880,-1,880,608,606,-1,880,606,879,-1,879,606,630,-1,879,630,877,-1,877,630,629,-1,877,629,875,-1,875,629,171,-1,875,171,176,-1,901,902,903,-1,903,902,904,-1,905,906,614,-1,907,908,909,-1,906,910,614,-1,614,910,911,-1,614,911,616,-1,616,911,912,-1,616,912,887,-1,913,914,915,-1,915,914,916,-1,916,917,915,-1,915,917,907,-1,915,907,918,-1,918,907,909,-1,919,920,902,-1,902,920,921,-1,902,921,904,-1,915,922,869,-1,869,922,923,-1,869,923,924,-1,925,869,926,-1,926,869,927,-1,924,928,869,-1,869,928,929,-1,869,929,614,-1,614,929,930,-1,614,930,905,-1,860,931,869,-1,869,931,932,-1,869,932,927,-1,760,762,900,-1,925,933,869,-1,869,933,934,-1,869,934,935,-1,936,937,901,-1,901,937,938,-1,901,938,902,-1,902,939,919,-1,919,939,760,-1,919,760,940,-1,940,760,900,-1,935,936,869,-1,869,936,901,-1,869,901,915,-1,915,901,941,-1,915,941,913,-1,763,942,765,-1,765,942,943,-1,765,943,767,-1,767,943,944,-1,767,944,769,-1,769,944,945,-1,769,945,772,-1,772,945,946,-1,772,946,770,-1,770,946,947,-1,770,947,656,-1,656,947,654,-1,340,331,876,-1,876,331,628,-1,876,628,878,-1,878,628,605,-1,878,605,864,-1,864,605,607,-1,864,607,865,-1,865,607,609,-1,865,609,868,-1,868,609,611,-1,868,611,870,-1,870,611,613,-1,948,949,950,-1,950,949,951,-1,952,953,954,-1,955,613,956,-1,956,613,615,-1,956,615,888,-1,955,957,613,-1,613,957,958,-1,613,958,959,-1,952,954,960,-1,961,962,870,-1,870,962,963,-1,870,963,954,-1,948,964,949,-1,949,964,965,-1,949,965,966,-1,967,968,969,-1,969,968,970,-1,969,970,954,-1,954,970,971,-1,954,971,960,-1,959,972,613,-1,613,972,973,-1,613,973,870,-1,870,973,974,-1,870,974,961,-1,870,975,976,-1,977,871,978,-1,978,871,870,-1,978,870,979,-1,979,870,976,-1,942,763,980,-1,980,763,761,-1,980,761,966,-1,966,761,981,-1,966,981,949,-1,949,982,951,-1,951,982,983,-1,951,983,984,-1,985,986,870,-1,870,986,987,-1,870,987,975,-1,953,988,954,-1,954,988,951,-1,954,951,870,-1,870,951,984,-1,870,984,985,-1,71,70,673,-1,673,70,672,-1,645,63,646,-1,646,63,65,-1,646,65,893,-1,893,65,881,-1,893,881,892,-1,892,881,882,-1,892,882,891,-1,912,956,887,-1,887,956,888,-1,887,888,886,-1,886,888,889,-1,886,889,885,-1,885,889,890,-1,885,890,884,-1,884,890,891,-1,884,891,883,-1,883,891,882,-1,980,940,942,-1,942,940,900,-1,942,900,943,-1,943,900,899,-1,943,899,944,-1,3,655,4,-1,4,655,654,-1,4,654,894,-1,894,654,947,-1,894,947,895,-1,895,947,946,-1,895,946,896,-1,896,946,945,-1,896,945,897,-1,897,945,944,-1,897,944,898,-1,898,944,899,-1,989,990,991,-1,991,990,908,-1,992,993,994,-1,989,991,994,-1,994,991,995,-1,994,995,992,-1,908,990,909,-1,909,990,996,-1,909,996,997,-1,997,996,998,-1,997,998,999,-1,999,1000,997,-1,997,1000,1001,-1,997,1001,1002,-1,1003,1004,990,-1,990,1004,996,-1,1005,1004,1006,-1,1006,1004,1007,-1,1008,1009,1010,-1,1007,1004,1011,-1,1011,1004,1003,-1,1011,1003,1012,-1,1012,1003,1013,-1,1012,1013,1014,-1,1015,1016,1014,-1,1014,1016,1017,-1,1014,1017,1012,-1,1005,1006,1010,-1,1010,1006,1018,-1,1010,1018,1008,-1,968,967,1019,-1,968,1019,1020,-1,1020,1019,1021,-1,1020,1021,1022,-1,1022,1021,1023,-1,1022,1023,1024,-1,1024,1023,1025,-1,1024,1025,1026,-1,1026,1025,1027,-1,1026,1027,1028,-1,1028,1027,1029,-1,1028,1029,1030,-1,1030,1029,1007,-1,1030,1007,1011,-1,908,1026,1028,-1,907,970,908,-1,908,970,968,-1,908,968,1020,-1,1012,991,1011,-1,1011,991,908,-1,1011,908,1030,-1,1030,908,1028,-1,1020,1022,908,-1,908,1022,1024,-1,908,1024,1026,-1,969,918,967,-1,967,918,909,-1,997,1006,909,-1,909,1006,1007,-1,909,1025,1023,-1,1007,1029,909,-1,909,1029,1027,-1,909,1027,1025,-1,1023,1021,909,-1,909,1021,1019,-1,909,1019,967,-1,1031,859,863,-1,1031,863,1032,-1,1032,863,862,-1,1032,862,1033,-1,1033,862,861,-1,1033,861,1034,-1,1034,861,874,-1,1034,874,1035,-1,1035,874,873,-1,1035,873,1036,-1,1036,873,872,-1,1036,872,1037,-1,1037,872,871,-1,1037,871,977,-1,1038,1039,1040,-1,1040,1039,1031,-1,1041,1042,1043,-1,1038,1040,1043,-1,1043,1040,1044,-1,1043,1044,1041,-1,1031,1039,859,-1,859,1039,1045,-1,859,1045,857,-1,857,1045,1046,-1,857,1046,1047,-1,1048,1049,1047,-1,1047,1049,1050,-1,1047,1050,857,-1,1051,1052,1039,-1,1039,1052,1045,-1,1053,1052,858,-1,858,1052,860,-1,1054,1055,1056,-1,860,1052,931,-1,931,1052,1051,-1,931,1051,1057,-1,1057,1051,1058,-1,1057,1058,1059,-1,1060,1061,1059,-1,1059,1061,1062,-1,1059,1062,1057,-1,1053,858,1056,-1,1056,858,1063,-1,1056,1063,1054,-1,978,932,977,-1,977,932,931,-1,1057,1040,931,-1,931,1040,1031,-1,931,1031,1032,-1,1032,1033,931,-1,931,1033,1034,-1,931,1034,1035,-1,1035,1036,931,-1,931,1036,1037,-1,931,1037,977,-1,935,985,936,-1,936,985,984,-1,936,984,937,-1,937,984,983,-1,937,983,938,-1,938,983,982,-1,938,982,902,-1,902,982,949,-1,902,949,939,-1,939,949,981,-1,939,981,760,-1,760,981,761,-1,932,978,927,-1,927,978,979,-1,927,979,926,-1,926,979,976,-1,926,976,925,-1,925,976,975,-1,925,975,933,-1,933,975,987,-1,933,987,934,-1,934,987,986,-1,934,986,935,-1,935,986,985,-1,1045,1052,1053,-1,1045,1053,1046,-1,1046,1053,1056,-1,1046,1056,1047,-1,1047,1056,1055,-1,1047,1055,1048,-1,1048,1055,1054,-1,1048,1054,1049,-1,1049,1054,1063,-1,1049,1063,1050,-1,1050,1063,858,-1,1050,858,857,-1,1051,1039,1038,-1,1051,1038,1058,-1,1058,1038,1043,-1,1058,1043,1059,-1,1059,1043,1042,-1,1059,1042,1060,-1,1060,1042,1041,-1,1060,1041,1061,-1,1061,1041,1044,-1,1061,1044,1062,-1,1062,1044,1040,-1,1062,1040,1057,-1,1006,997,1002,-1,1006,1002,1018,-1,1018,1002,1001,-1,1018,1001,1008,-1,1008,1001,1000,-1,1008,1000,1009,-1,1009,1000,999,-1,1009,999,1010,-1,1010,999,998,-1,1010,998,1005,-1,1005,998,996,-1,1005,996,1004,-1,991,1012,1017,-1,991,1017,995,-1,995,1017,1016,-1,995,1016,992,-1,992,1016,1015,-1,992,1015,993,-1,993,1015,1014,-1,993,1014,994,-1,994,1014,1013,-1,994,1013,989,-1,989,1013,1003,-1,989,1003,990,-1,672,70,668,-1,668,70,69,-1,668,69,667,-1,667,69,60,-1,667,60,651,-1,651,60,59,-1,651,59,652,-1,652,59,57,-1,652,57,653,-1,653,57,56,-1,653,56,645,-1,645,56,63,-1,71,673,66,-1,66,673,662,-1,66,662,67,-1,67,662,660,-1,67,660,68,-1,68,660,659,-1,68,659,61,-1,61,659,658,-1,61,658,62,-1,62,658,657,-1,62,657,3,-1,3,657,655,-1,970,907,971,-1,971,907,917,-1,971,917,960,-1,960,917,916,-1,960,916,952,-1,952,916,914,-1,952,914,953,-1,953,914,913,-1,953,913,988,-1,988,913,941,-1,988,941,951,-1,951,941,901,-1,940,980,919,-1,919,980,966,-1,919,966,920,-1,920,966,965,-1,920,965,921,-1,921,965,964,-1,921,964,904,-1,904,964,948,-1,904,948,903,-1,903,948,950,-1,903,950,901,-1,901,950,951,-1,929,973,930,-1,930,973,972,-1,930,972,905,-1,905,972,959,-1,905,959,906,-1,906,959,958,-1,906,958,910,-1,910,958,957,-1,910,957,911,-1,911,957,955,-1,911,955,912,-1,912,955,956,-1,918,969,915,-1,915,969,954,-1,915,954,922,-1,922,954,963,-1,922,963,923,-1,923,963,962,-1,923,962,924,-1,924,962,961,-1,924,961,928,-1,928,961,974,-1,928,974,929,-1,929,974,973,-1,329,342,175,-1,175,342,224,-1,434,433,262,-1,262,433,261,-1,1064,1065,1066,-1,1066,1065,1067,-1,1066,1067,1068,-1,1064,1066,1069,-1,1069,1066,1070,-1,1069,1070,1071,-1,1068,1067,810,-1,810,1067,1072,-1,810,1072,808,-1,808,1072,1073,-1,808,1073,1074,-1,1074,1075,808,-1,808,1075,1076,-1,808,1076,1077,-1,1078,1079,1067,-1,1067,1079,1072,-1,1080,1081,811,-1,1080,811,1079,-1,1079,811,809,-1,1079,809,1082,-1,1083,1084,1085,-1,1085,1084,1079,-1,1085,1079,1086,-1,1086,1079,1082,-1,1087,1088,1089,-1,1089,1088,1090,-1,1079,1078,1080,-1,1080,1078,1088,-1,1080,1088,1091,-1,1091,1088,1087,-1,1092,1093,130,-1,1093,1094,130,-1,130,1094,1095,-1,130,1095,131,-1,130,813,1092,-1,1092,813,811,-1,1092,811,1081,-1,312,1096,310,-1,310,1096,1097,-1,310,1097,812,-1,812,1097,1098,-1,812,1098,810,-1,810,1098,1099,-1,810,1099,1068,-1,1080,1066,1081,-1,1081,1066,1068,-1,1081,1068,1092,-1,1092,1068,1099,-1,1092,1099,1093,-1,809,808,1077,-1,809,1077,1082,-1,1082,1077,1076,-1,1082,1076,1086,-1,1086,1076,1075,-1,1086,1075,1085,-1,1085,1075,1074,-1,1085,1074,1083,-1,1083,1074,1073,-1,1083,1073,1084,-1,1084,1073,1072,-1,1084,1072,1079,-1,341,223,235,-1,341,235,353,-1,353,235,234,-1,353,234,354,-1,354,234,236,-1,354,236,355,-1,355,236,237,-1,355,237,364,-1,364,237,225,-1,364,225,343,-1,343,225,224,-1,343,224,342,-1,1066,1080,1091,-1,1066,1091,1070,-1,1070,1091,1087,-1,1070,1087,1071,-1,1071,1087,1089,-1,1071,1089,1069,-1,1069,1089,1090,-1,1069,1090,1064,-1,1064,1090,1088,-1,1064,1088,1065,-1,1065,1088,1078,-1,1065,1078,1067,-1,261,433,169,-1,169,433,346,-1,169,346,170,-1,170,346,345,-1,170,345,172,-1,172,345,344,-1,172,344,173,-1,173,344,332,-1,173,332,174,-1,174,332,330,-1,174,330,175,-1,175,330,329,-1,434,262,435,-1,435,262,199,-1,435,199,356,-1,356,199,198,-1,356,198,357,-1,357,198,197,-1,357,197,358,-1,358,197,183,-1,358,183,352,-1,352,183,182,-1,352,182,328,-1,328,182,180,-1,328,180,324,-1,324,180,178,-1,324,178,325,-1,325,178,177,-1,325,177,309,-1,309,177,127,-1,309,127,311,-1,1099,1098,1093,-1,1093,1098,1097,-1,1093,1097,1094,-1,1094,1097,1096,-1,1094,1096,1100,-1,1100,1096,312,-1,1100,312,131,-1,131,312,311,-1,131,311,129,-1,129,311,127,-1,227,293,371,-1,371,293,428,-1,420,419,221,-1,221,419,222,-1,458,279,408,-1,408,279,243,-1,408,243,409,-1,409,243,242,-1,409,242,410,-1,410,242,241,-1,410,241,395,-1,395,241,233,-1,395,233,396,-1,396,233,232,-1,396,232,397,-1,397,232,231,-1,397,231,419,-1,419,231,222,-1,458,457,279,-1,279,457,280,-1,453,203,454,-1,454,203,284,-1,454,284,455,-1,455,284,283,-1,455,283,418,-1,418,283,260,-1,418,260,417,-1,417,260,259,-1,417,259,416,-1,416,259,258,-1,416,258,456,-1,456,258,281,-1,456,281,457,-1,457,281,280,-1,453,351,203,-1,203,351,204,-1,336,303,338,-1,338,303,301,-1,338,301,339,-1,339,301,300,-1,339,300,347,-1,347,300,299,-1,347,299,348,-1,348,299,249,-1,348,249,349,-1,349,249,248,-1,349,248,350,-1,350,248,278,-1,350,278,351,-1,351,278,204,-1,336,335,303,-1,303,335,304,-1,472,254,473,-1,473,254,215,-1,473,215,411,-1,411,215,214,-1,411,214,401,-1,401,214,253,-1,401,253,480,-1,480,253,252,-1,480,252,470,-1,470,252,251,-1,470,251,474,-1,474,251,288,-1,474,288,335,-1,335,288,304,-1,216,254,471,-1,471,254,472,-1,429,423,228,-1,228,423,257,-1,422,256,255,-1,422,255,424,-1,424,255,267,-1,424,267,439,-1,439,267,266,-1,439,266,440,-1,440,266,265,-1,440,265,460,-1,460,265,291,-1,460,291,461,-1,461,291,257,-1,461,257,423,-1,422,421,256,-1,256,421,292,-1,428,293,298,-1,428,298,436,-1,436,298,297,-1,436,297,437,-1,437,297,296,-1,437,296,438,-1,438,296,295,-1,438,295,459,-1,459,295,294,-1,459,294,427,-1,427,294,292,-1,427,292,421,-1,216,471,217,-1,217,471,380,-1,217,380,218,-1,218,380,379,-1,218,379,219,-1,219,379,378,-1,219,378,194,-1,194,378,398,-1,194,398,195,-1,195,398,369,-1,195,369,228,-1,228,369,429,-1,227,371,226,-1,226,371,370,-1,226,370,229,-1,229,370,377,-1,229,377,230,-1,230,377,376,-1,230,376,196,-1,196,376,368,-1,196,368,220,-1,220,368,367,-1,220,367,221,-1,221,367,420,-1,404,403,202,-1,202,403,238,-1,447,273,272,-1,447,272,449,-1,449,272,269,-1,449,269,451,-1,451,269,271,-1,451,271,452,-1,452,271,270,-1,452,270,450,-1,450,270,268,-1,450,268,448,-1,448,268,238,-1,448,238,403,-1,447,446,273,-1,273,446,274,-1,402,239,287,-1,402,287,441,-1,441,287,286,-1,441,286,442,-1,442,286,285,-1,442,285,443,-1,443,285,264,-1,443,264,444,-1,444,264,263,-1,444,263,445,-1,445,263,274,-1,445,274,446,-1,240,239,375,-1,375,239,402,-1,462,400,275,-1,275,400,276,-1,479,290,481,-1,481,290,289,-1,481,289,482,-1,482,289,247,-1,482,247,475,-1,475,247,246,-1,475,246,476,-1,476,246,245,-1,476,245,477,-1,477,245,244,-1,477,244,399,-1,399,244,277,-1,399,277,400,-1,400,277,276,-1,479,478,290,-1,290,478,302,-1,307,158,430,-1,430,158,157,-1,430,157,465,-1,465,157,156,-1,465,156,466,-1,466,156,154,-1,466,154,467,-1,467,154,152,-1,467,152,468,-1,468,152,186,-1,468,186,469,-1,469,186,188,-1,469,188,478,-1,478,188,302,-1,307,391,158,-1,158,391,159,-1,406,167,407,-1,407,167,166,-1,407,166,388,-1,388,166,136,-1,388,136,387,-1,387,136,135,-1,387,135,386,-1,386,135,133,-1,386,133,394,-1,394,133,132,-1,394,132,393,-1,393,132,164,-1,393,164,391,-1,391,164,159,-1,406,405,167,-1,167,405,168,-1,425,139,426,-1,426,139,140,-1,426,140,381,-1,381,140,150,-1,381,150,382,-1,382,150,149,-1,382,149,383,-1,383,149,146,-1,383,146,384,-1,384,146,147,-1,384,147,385,-1,385,147,148,-1,385,148,405,-1,405,148,168,-1,137,139,415,-1,415,139,425,-1,240,375,189,-1,189,375,374,-1,189,374,190,-1,190,374,373,-1,190,373,191,-1,191,373,372,-1,191,372,192,-1,192,372,464,-1,192,464,193,-1,193,464,463,-1,193,463,275,-1,275,463,462,-1,137,415,211,-1,211,415,414,-1,211,414,212,-1,212,414,413,-1,212,413,213,-1,213,413,412,-1,213,412,200,-1,200,412,366,-1,200,366,201,-1,201,366,365,-1,201,365,202,-1,202,365,404,-1,
        ]
    }
}
Shape{
    appearance Appearance {
        material  Material 	{
            diffuseColor 1.0 1.0 1.0
            specularColor 0.8784313725490196 0.8784313725490196 0.8784313725490196
            ambientIntensity 0.2
            transparency 0
            shininess 0.5
        }
    }
    geometry IndexedFaceSet {
        ccw TRUE
        solid FALSE
        coord DEF co Coordinate {
            point [
                0.6674 0.2718 -0.6142, 0.821 0.6655 -0.6142, 0.6674 0.2718 -0.622, 0.821 0.6655 -0.622, 0.7634 0.6655 -0.6142, 0.7634 0.6655 -0.622, 0.7236 0.555 -0.6142, 0.7236 0.555 -0.622, 0.5609 0.555 -0.6142, 0.5609 0.555 -0.622, 0.5233 0.6655 -0.6142, 0.5233 0.6655 -0.622, 0.4657 0.6655 -0.6142, 0.4657 0.6655 -0.622, 0.6146 0.2718 -0.6142, 0.6146 0.2718 -0.622, 0.5742 0.5118 -0.6142, 0.6329 0.3474 -0.6142, 0.6367 0.3337 -0.6142, 0.6392 0.3198 -0.6142, 0.6405 0.3198 -0.6142, 0.6431 0.3337 -0.6142, 0.7059 0.5118 -0.6142, 0.6466 0.3474 -0.6142, 0.5742 0.5118 -0.622, 0.7059 0.5118 -0.622, 0.6329 0.3474 -0.622, 0.6367 0.3337 -0.622, 0.6392 0.3198 -0.622, 0.6405 0.3198 -0.622, 0.6431 0.3337 -0.622, 0.6466 0.3474 -0.622, 0.2271 0.6655 -0.6142, 0.12 0.6655 -0.6142, 0.2271 0.6655 -0.622, 0.12 0.6655 -0.622, 0.12 0.2718 -0.6142, 0.12 0.2718 -0.622, 0.2311 0.2718 -0.6142, 0.2311 0.2718 -0.622, 0.4369 0.4637 -0.6142, 0.4369 0.4637 -0.622, 0.4341 0.4269 -0.622, 0.4341 0.4269 -0.6142, 0.4236 0.3881 -0.622, 0.4236 0.3881 -0.6142, 0.4054 0.3542 -0.622, 0.4054 0.3542 -0.6142, 0.3776 0.3234 -0.622, 0.3776 0.3234 -0.6142, 0.3768 0.3227 -0.622, 0.3768 0.3227 -0.6142, 0.3339 0.294 -0.622, 0.3339 0.294 -0.6142, 0.288 0.2778 -0.622, 0.288 0.2778 -0.6142, 0.2759 0.6612 -0.622, 0.2759 0.6612 -0.6142, 0.3212 0.6477 -0.622, 0.3212 0.6477 -0.6142, 0.3623 0.6238 -0.622, 0.3623 0.6238 -0.6142, 0.3947 0.5927 -0.622, 0.3947 0.5927 -0.6142, 0.4173 0.5575 -0.622, 0.4173 0.5575 -0.6142, 0.4314 0.5164 -0.622, 0.4314 0.5164 -0.6142, 0.3579 0.3702 -0.6142, 0.3388 0.3499 -0.6142, 0.31 0.3313 -0.6142, 0.2775 0.3199 -0.6142, 0.2309 0.315 -0.6142, 0.1728 0.315 -0.6142, 0.1728 0.6223 -0.6142, 0.2287 0.6223 -0.6142, 0.2703 0.6184 -0.6142, 0.3034 0.6081 -0.6142, 0.3302 0.5921 -0.6142, 0.3523 0.5703 -0.6142, 0.3689 0.5432 -0.6142, 0.3805 0.5061 -0.6142, 0.3841 0.4648 -0.6142, 0.3808 0.4256 -0.6142, 0.3716 0.3945 -0.6142, 0.2309 0.315 -0.622, 0.1728 0.315 -0.622, 0.2775 0.3199 -0.622, 0.31 0.3313 -0.622, 0.3388 0.3499 -0.622, 0.3579 0.3702 -0.622, 0.3716 0.3945 -0.622, 0.3808 0.4256 -0.622, 0.3841 0.4648 -0.622, 0.3805 0.5061 -0.622, 0.3689 0.5432 -0.622, 0.3523 0.5703 -0.622, 0.3302 0.5921 -0.622, 0.3034 0.6081 -0.622, 0.2703 0.6184 -0.622, 0.2287 0.6223 -0.622, 0.1728 0.6223 -0.622, 0.0432 0.6223 -0.6142, 0.0432 0.6655 -0.6142, 0.0432 0.6223 -0.622, 0.0432 0.6655 -0.622, -0.168 0.6655 -0.6142, -0.168 0.6655 -0.622, -0.168 0.2718 -0.6142, -0.168 0.2718 -0.622, 0.0336 0.2718 -0.6142, 0.0336 0.2718 -0.622, 0.0336 0.315 -0.6142, 0.0336 0.315 -0.622, -0.1152 0.315 -0.6142, -0.1152 0.315 -0.622, -0.1152 0.4446 -0.6142, -0.1152 0.4446 -0.622, 0.024 0.4446 -0.6142, 0.024 0.4446 -0.622, 0.024 0.4878 -0.6142, 0.024 0.4878 -0.622, -0.1152 0.4878 -0.6142, -0.1152 0.4878 -0.622, -0.1152 0.6223 -0.6142, -0.1152 0.6223 -0.622, -0.2449 0.6019 -0.6142, -0.2449 0.6451 -0.6142, -0.2449 0.6019 -0.622, -0.2449 0.6451 -0.622, -0.3532 0.6703 -0.6142, -0.3532 0.6703 -0.622, -0.3424 0.6701 -0.622, -0.3424 0.6701 -0.6142, -0.2868 0.6623 -0.622, -0.2868 0.6623 -0.6142, -0.5377 0.476 -0.6142, -0.5377 0.476 -0.622, -0.5339 0.5216 -0.622, -0.5339 0.5216 -0.6142, -0.5221 0.5633 -0.622, -0.5221 0.5633 -0.6142, -0.5011 0.6007 -0.622, -0.5011 0.6007 -0.6142, -0.4715 0.6319 -0.622, -0.4715 0.6319 -0.6142, -0.4399 0.6521 -0.622, -0.4399 0.6521 -0.6142, -0.4017 0.6652 -0.622, -0.4017 0.6652 -0.6142, -0.3375 0.267 -0.6142, -0.3375 0.267 -0.622, -0.3768 0.2701 -0.6142, -0.3672 0.2694 -0.622, -0.3768 0.2701 -0.622, -0.4206 0.2828 -0.622, -0.4206 0.2828 -0.6142, -0.4581 0.3043 -0.622, -0.4581 0.3043 -0.6142, -0.4937 0.3384 -0.622, -0.4937 0.3384 -0.6142, -0.5168 0.3752 -0.622, -0.5168 0.3752 -0.6142, -0.5321 0.4201 -0.622, -0.5321 0.4201 -0.6142, -0.3027 0.2694 -0.622, -0.2904 0.2702 -0.6142, -0.2904 0.2702 -0.622, -0.2449 0.2826 -0.6142, -0.2449 0.2826 -0.622, -0.2449 0.3354 -0.6142, -0.2449 0.3354 -0.622, -0.3371 0.3102 -0.6142, -0.3371 0.3102 -0.622, -0.2892 0.3164 -0.622, -0.2892 0.3164 -0.6142, -0.4849 0.4728 -0.6142, -0.4849 0.4728 -0.622, -0.483 0.4422 -0.622, -0.483 0.4422 -0.6142, -0.4726 0.4 -0.622, -0.4726 0.4 -0.6142, -0.4563 0.3696 -0.622, -0.4563 0.3696 -0.6142, -0.4325 0.3434 -0.622, -0.4325 0.3434 -0.6142, -0.4053 0.3252 -0.622, -0.4053 0.3252 -0.6142, -0.3758 0.3145 -0.622, -0.3758 0.3145 -0.6142, -0.3459 0.6271 -0.6142, -0.3459 0.6271 -0.622, -0.3826 0.6229 -0.622, -0.3826 0.6229 -0.6142, -0.4113 0.6124 -0.622, -0.4113 0.6124 -0.6142, -0.4355 0.5961 -0.622, -0.4355 0.5961 -0.6142, -0.454 0.5766 -0.622, -0.454 0.5766 -0.6142, -0.4702 0.5493 -0.622, -0.4702 0.5493 -0.6142, -0.4809 0.5154 -0.622, -0.4809 0.5154 -0.6142, -0.2519 0.6058 -0.622, -0.2519 0.6058 -0.6142, -0.2937 0.6213 -0.622, -0.2937 0.6213 -0.6142, -0.5713 0.6223 -0.6142, -0.5713 0.6655 -0.6142, -0.5713 0.6223 -0.622, -0.5713 0.6655 -0.622, -0.773 0.6655 -0.6142, -0.773 0.6655 -0.622, -0.773 0.2718 -0.6142, -0.773 0.2718 -0.622, -0.7202 0.2718 -0.6142, -0.7202 0.2718 -0.622, -0.7202 0.6223 -0.6142, -0.7202 0.6223 -0.622, -0.7202 0.6223 -0.622
            ]
        }
        coordIndex [
            0,1,2,-1,2,1,3,-1,1,4,3,-1,3,4,5,-1,4,6,5,-1,5,6,7,-1,6,8,7,-1,7,8,9,-1,8,10,9,-1,9,10,11,-1,10,12,11,-1,11,12,13,-1,12,14,13,-1,13,14,15,-1,14,0,15,-1,15,0,2,-1,16,17,14,-1,12,10,8,-1,17,18,14,-1,14,18,19,-1,14,19,0,-1,0,19,20,-1,0,20,21,-1,14,12,16,-1,16,12,8,-1,16,8,22,-1,22,8,6,-1,21,23,0,-1,0,23,22,-1,0,22,1,-1,1,22,6,-1,1,6,4,-1,16,22,24,-1,24,22,25,-1,17,16,26,-1,26,16,24,-1,17,26,27,-1,17,27,18,-1,18,27,28,-1,18,28,19,-1,20,19,29,-1,29,19,28,-1,20,29,30,-1,20,30,21,-1,21,30,31,-1,21,31,23,-1,22,23,25,-1,25,23,31,-1,32,33,34,-1,34,33,35,-1,33,36,35,-1,35,36,37,-1,36,38,37,-1,37,38,39,-1,40,41,42,-1,40,42,43,-1,43,42,44,-1,43,44,45,-1,45,44,46,-1,45,46,47,-1,47,46,48,-1,47,48,49,-1,49,48,50,-1,49,50,51,-1,51,50,52,-1,51,52,53,-1,53,52,54,-1,53,54,55,-1,55,54,39,-1,55,39,38,-1,32,34,56,-1,32,56,57,-1,57,56,58,-1,57,58,59,-1,59,58,60,-1,59,60,61,-1,61,60,62,-1,61,62,63,-1,63,62,64,-1,63,64,65,-1,65,64,66,-1,65,66,67,-1,67,66,41,-1,67,41,40,-1,45,47,68,-1,68,47,49,-1,68,49,69,-1,69,49,51,-1,69,51,70,-1,70,51,53,-1,70,53,71,-1,71,53,55,-1,71,55,72,-1,72,55,38,-1,72,38,73,-1,73,38,36,-1,73,36,74,-1,74,36,33,-1,74,33,75,-1,75,33,32,-1,75,32,76,-1,76,32,57,-1,76,57,77,-1,77,57,59,-1,77,59,78,-1,78,59,61,-1,78,61,79,-1,79,61,63,-1,79,63,80,-1,80,63,65,-1,80,65,81,-1,81,65,67,-1,81,67,82,-1,82,67,40,-1,82,40,83,-1,83,40,43,-1,83,43,84,-1,84,43,45,-1,84,45,68,-1,72,73,85,-1,85,73,86,-1,72,85,87,-1,72,87,71,-1,71,87,88,-1,71,88,70,-1,70,88,89,-1,70,89,69,-1,69,89,90,-1,69,90,68,-1,68,90,91,-1,68,91,84,-1,84,91,92,-1,84,92,83,-1,83,92,93,-1,83,93,82,-1,82,93,94,-1,82,94,81,-1,81,94,95,-1,81,95,80,-1,80,95,96,-1,80,96,79,-1,79,96,97,-1,79,97,78,-1,78,97,98,-1,78,98,77,-1,77,98,99,-1,77,99,76,-1,76,99,100,-1,76,100,75,-1,74,75,101,-1,101,75,100,-1,73,74,86,-1,86,74,101,-1,102,103,104,-1,104,103,105,-1,103,106,105,-1,105,106,107,-1,106,108,107,-1,107,108,109,-1,108,110,109,-1,109,110,111,-1,110,112,111,-1,111,112,113,-1,112,114,113,-1,113,114,115,-1,114,116,115,-1,115,116,117,-1,116,118,117,-1,117,118,119,-1,118,120,119,-1,119,120,121,-1,120,122,121,-1,121,122,123,-1,122,124,123,-1,123,124,125,-1,124,102,125,-1,125,102,104,-1,106,103,102,-1,102,124,106,-1,106,124,122,-1,106,122,108,-1,112,110,114,-1,114,110,108,-1,114,108,116,-1,116,108,122,-1,116,122,118,-1,118,122,120,-1,126,127,128,-1,128,127,129,-1,130,131,132,-1,130,132,133,-1,133,132,134,-1,133,134,135,-1,135,134,129,-1,135,129,127,-1,136,137,138,-1,136,138,139,-1,139,138,140,-1,139,140,141,-1,141,140,142,-1,141,142,143,-1,143,142,144,-1,143,144,145,-1,145,144,146,-1,145,146,147,-1,147,146,148,-1,147,148,149,-1,149,148,131,-1,149,131,130,-1,150,151,152,-1,152,151,153,-1,153,154,152,-1,152,154,155,-1,152,155,156,-1,156,155,157,-1,156,157,158,-1,158,157,159,-1,158,159,160,-1,160,159,161,-1,160,161,162,-1,162,161,163,-1,162,163,164,-1,164,163,137,-1,164,137,136,-1,151,150,165,-1,165,150,166,-1,165,166,167,-1,167,166,168,-1,167,168,169,-1,168,170,169,-1,169,170,171,-1,172,173,174,-1,172,174,175,-1,175,174,171,-1,175,171,170,-1,176,177,178,-1,176,178,179,-1,179,178,180,-1,179,180,181,-1,181,180,182,-1,181,182,183,-1,183,182,184,-1,183,184,185,-1,185,184,186,-1,185,186,187,-1,187,186,188,-1,187,188,189,-1,189,188,173,-1,189,173,172,-1,190,191,192,-1,190,192,193,-1,193,192,194,-1,193,194,195,-1,195,194,196,-1,195,196,197,-1,197,196,198,-1,197,198,199,-1,199,198,200,-1,199,200,201,-1,201,200,202,-1,201,202,203,-1,203,202,177,-1,203,177,176,-1,126,128,204,-1,126,204,205,-1,205,204,206,-1,205,206,207,-1,207,206,191,-1,207,191,190,-1,193,130,190,-1,190,130,133,-1,190,133,207,-1,207,133,135,-1,207,135,205,-1,205,135,127,-1,205,127,126,-1,170,168,175,-1,175,168,166,-1,175,166,172,-1,172,166,150,-1,172,150,189,-1,189,150,152,-1,189,152,187,-1,187,152,156,-1,187,156,185,-1,185,156,158,-1,185,158,183,-1,183,158,160,-1,183,160,181,-1,181,160,162,-1,181,162,179,-1,179,162,164,-1,179,164,176,-1,176,164,136,-1,176,136,203,-1,203,136,139,-1,203,139,201,-1,201,139,141,-1,201,141,199,-1,199,141,143,-1,199,143,197,-1,197,143,145,-1,197,145,195,-1,195,145,147,-1,195,147,193,-1,193,147,149,-1,193,149,130,-1,208,209,210,-1,210,209,211,-1,209,212,211,-1,211,212,213,-1,212,214,213,-1,213,214,215,-1,214,216,215,-1,215,216,217,-1,216,218,217,-1,217,218,219,-1,218,208,219,-1,219,208,210,-1,216,214,218,-1,218,214,212,-1,218,212,208,-1,208,212,209,-1,
        ]
    }
}
Shape{
    appearance Appearance {
        material  Material 	{
            diffuseColor 0.6666666666666666 0.6666666666666666 0.6666666666666666
            specularColor 0.4666666666666667 0.4666666666666667 0.4666666666666667
            ambientIntensity 0.2
            transparency 0
            shininess 0.5
        }
    }
    geometry IndexedFaceSet {
        ccw TRUE
        solid FALSE
        coord DEF co Coordinate {
            point [
                0.5742 0.5118 -0.622, 0.7059 0.5118 -0.622, 0.6329 0.3474 -0.622, 0.6466 0.3474 -0.622, 0.6367 0.3337 -0.622, 0.6431 0.3337 -0.622, 0.6392 0.3198 -0.622, 0.6405 0.3198 -0.622, 0.1728 0.315 -0.622, 0.1728 0.6223 -0.622, 0.2309 0.315 -0.622, 0.2287 0.6223 -0.622, 0.2703 0.6184 -0.622, 0.3841 0.4648 -0.622, 0.3808 0.4256 -0.622, 0.3716 0.3945 -0.622, 0.2775 0.3199 -0.622, 0.3034 0.6081 -0.622, 0.3302 0.5921 -0.622, 0.3523 0.5703 -0.622, 0.3689 0.5432 -0.622, 0.3805 0.5061 -0.622, 0.3579 0.3702 -0.622, 0.3388 0.3499 -0.622, 0.31 0.3313 -0.622, 0.31 0.3313 -0.622
            ]
        }
        coordIndex [
            0,1,2,-1,2,1,3,-1,2,3,4,-1,4,3,5,-1,4,5,6,-1,6,5,7,-1,8,9,10,-1,10,9,11,-1,10,11,12,-1,13,14,10,-1,10,14,15,-1,10,15,16,-1,12,17,10,-1,10,17,18,-1,10,18,19,-1,19,20,10,-1,10,20,21,-1,10,21,13,-1,22,23,15,-1,15,23,24,-1,15,24,16,-1,
        ]
    }
}
Shape{
    appearance Appearance {
        material  Material 	{
            diffuseColor 0.20784313725490197 0.20784313725490197 0.20784313725490197
            specularColor 0.01568627450980392 0.01568627450980392 0.01568627450980392
            ambientIntensity 0.2
            transparency 0
            shininess 0.5
        }
    }
    geometry IndexedFaceSet {
        ccw TRUE
        solid FALSE
        coord DEF co Coordinate {
            point [
                0.7087 0.9449 -0.5827, 0.7087 1.1417 -0.5827, 0.9646 1.1417 -0.5827, -1.6417 1.3386 -0.5827, -1.378 1.3386 -0.5827, -1.6417 0.8661 -0.5827, -1.378 1.1417 -0.5827, -1.2008 1.1417 -0.5827, 0.9646 0.9449 -0.5827, 1.2008 0.9449 -0.5827, 1.6417 0.8661 -0.5827, 1.378 1.3386 -0.5827, 1.6417 1.3386 -0.5827, 1.378 1.1417 -0.5827, 1.2008 1.1417 -0.5827, -0.9646 1.1417 -0.5827, -0.7087 1.1417 -0.5827, -0.9646 0.9449 -0.5827, -0.7087 0.9449 -0.5827, -1.2008 0.9449 -0.5827, -0.4882 0.9449 -0.5827, -0.0984 0.9449 -0.5827, -0.0984 1.1417 -0.5827, 0.0984 1.1417 -0.5827, 0.0984 0.9449 -0.5827, 0.2953 0.9449 -0.5827, -0.2953 0.9449 -0.5827, -0.2953 1.1417 -0.5827, -0.4882 1.1417 -0.5827, 0.4882 0.9449 -0.5827, 0.4882 1.1417 -0.5827, 0.2953 1.1417 -0.5827, 1.3509 1.1417 0.4946, 1.378 1.1417 0.4873, -1.378 1.1417 0.4873, -1.3509 1.1417 0.4946, -1.2677 1.1417 0.5039, -1.1496 1.1417 0.2087, -1.1496 1.1417 0.5039, 1.1496 1.1417 0.2087, 1.1496 1.1417 0.5039, 1.2677 1.1417 0.5039, 1.2008 1.1417 -0.563, 0.9646 1.1417 -0.563, 0.7087 1.1417 -0.563, 0.5091 1.1417 0.4936, 0.5261 1.1417 0.4866, 1.0075 1.1417 0.2087, 0.4882 1.1417 -0.563, 0.2953 1.1417 -0.563, -0.503 1.1417 0.495, -0.4907 1.1417 0.4961, 0.4907 1.1417 0.4961, 0.0984 1.1417 -0.563, -0.0984 1.1417 -0.563, -1.0075 1.1417 0.2087, -0.5261 1.1417 0.4866, -0.515 1.1417 0.4918, -0.2953 1.1417 -0.563, -0.4882 1.1417 -0.563, -0.7087 1.1417 -0.563, -1.2008 1.1417 -0.563, -0.9646 1.1417 -0.563, -1.378 1.3386 0.4873, -1.6417 1.3386 0.1299, -1.43 1.3386 0.4669, -1.6324 1.3386 0.2131, -1.6047 1.3386 0.2922, -1.5009 1.3386 0.4223, -1.5601 1.3386 0.3631, 1.378 0.0787 0.1378, 1.378 -0.7614 0.1378, 1.378 0.0787 -0.1378, 1.378 -0.7614 -0.1378, -1.2152 -1.0433 0.1378, 1.2152 -1.0433 0.1378, -1.378 -0.7614 0.1378, -1.378 0.0787 0.1378, -1.378 0.0787 -0.1378, -1.378 -0.7614 -0.1378, 1.2152 -1.0433 -0.1378, -1.2152 -1.0433 -0.1378, 1.1811 -1.1024 -0.0787, 1.1811 -1.1024 0.0787, -1.1811 -1.1024 -0.0787, -1.1811 -1.1024 0.0787, 1.5692 0.0787 0.2751, 1.5294 0.0787 0.3386, 1.5294 0.0787 -0.3386, 1.5692 0.0787 -0.2751, 1.594 0.0787 0.2044, -1.2677 0.0787 -0.4646, 1.2677 0.0787 -0.4646, 1.3422 0.0787 -0.4562, 1.3422 0.0787 0.4562, 1.2677 0.0787 0.4646, 1.594 0.0787 -0.2044, 1.6024 0.0787 -0.1299, 1.6024 0.0787 0.1299, -1.4764 0.0787 -0.3916, -1.4129 0.0787 -0.4314, -1.3422 0.0787 -0.4562, -1.594 0.0787 -0.2044, -1.5692 0.0787 -0.2751, -1.5294 0.0787 -0.3386, -1.2677 0.0787 0.4646, -1.3422 0.0787 0.4562, -1.4129 0.0787 0.4314, 1.4129 0.0787 -0.4314, 1.4764 0.0787 -0.3916, -1.5692 0.0787 0.2751, -1.594 0.0787 0.2044, -1.6024 0.0787 0.1299, -1.6024 0.0787 -0.1299, -1.4764 0.0787 0.3916, -1.5294 0.0787 0.3386, 1.4764 0.0787 0.3916, 1.4129 0.0787 0.4314, -1.6417 0.1181 -0.1299, -1.6417 0.8661 -0.1299, -1.6324 0.8661 -0.2131, -1.6324 0.1181 -0.2131, -1.6047 0.8661 -0.2922, -1.6047 0.1181 -0.2922, -1.5601 0.8661 -0.3631, -1.5601 0.1181 -0.3631, -1.5009 0.8661 -0.4223, -1.5009 0.1181 -0.4223, -1.43 0.8661 -0.4669, -1.43 0.1181 -0.4669, -1.3509 0.8661 -0.4946, -1.3509 0.1181 -0.4946, -1.2677 0.8661 -0.5039, -1.2677 0.1181 -0.5039, 1.2677 0.1181 -0.5039, 1.2677 0.8661 -0.5039, 1.3509 0.8661 -0.4946, 1.3509 0.1181 -0.4946, 1.43 0.8661 -0.4669, 1.43 0.1181 -0.4669, 1.5009 0.8661 -0.4223, 1.5009 0.1181 -0.4223, 1.5601 0.8661 -0.3631, 1.5601 0.1181 -0.3631, 1.6047 0.8661 -0.2922, 1.6047 0.1181 -0.2922, 1.6324 0.8661 -0.2131, 1.6324 0.1181 -0.2131, 1.6417 0.8661 -0.1299, 1.6417 0.1181 -0.1299, 1.6417 1.3386 0.1299, 1.5601 1.3386 0.3631, 1.6047 1.3386 0.2922, 1.6324 1.3386 0.2131, 1.378 1.3386 0.4873, 1.43 1.3386 0.4669, 1.5009 1.3386 0.4223, 1.6417 0.1181 0.1299, 1.3509 0.1181 0.4946, 1.2677 0.1181 0.5039, 1.43 0.1181 0.4669, 1.5009 0.1181 0.4223, 1.5601 0.1181 0.3631, 1.6047 0.1181 0.2922, 1.6324 0.1181 0.2131, 1.1496 0.9449 0.5039, -1.1496 0.9449 0.5039, -1.2677 0.1181 0.5039, -1.43 0.1181 0.4669, -1.3509 0.1181 0.4946, -1.5009 0.1181 0.4223, -1.5601 0.1181 0.3631, -1.6047 0.1181 0.2922, -1.6324 0.1181 0.2131, -1.6417 0.1181 0.1299, 1.1496 0.9449 0.2087, 1.0075 0.9449 0.2087, 0.5261 0.9449 0.4866, 0.5091 0.9449 0.4936, -1.0075 0.9449 0.2087, -1.1496 0.9449 0.2087, -0.5261 0.9449 0.4866, -0.515 0.9449 0.4918, 0.4907 0.9449 0.4961, -0.4907 0.9449 0.4961, -0.503 0.9449 0.495, -0.503 0.9449 0.495
            ]
        }
        coordIndex [
            0,1,2,-1,3,4,5,-1,5,4,6,-1,5,6,7,-1,8,9,10,-1,11,12,13,-1,13,12,10,-1,13,10,14,-1,14,10,9,-1,15,16,17,-1,17,16,18,-1,7,19,5,-1,5,19,17,-1,5,17,10,-1,10,17,18,-1,10,18,20,-1,21,22,23,-1,24,25,10,-1,23,24,21,-1,21,24,10,-1,21,10,26,-1,26,10,20,-1,26,20,27,-1,27,20,28,-1,2,8,0,-1,0,8,10,-1,0,10,29,-1,29,10,25,-1,29,25,30,-1,30,25,31,-1,32,33,13,-1,34,35,6,-1,6,35,36,-1,6,36,37,-1,37,36,38,-1,39,40,41,-1,13,14,42,-1,2,1,43,-1,43,1,44,-1,45,46,43,-1,43,46,47,-1,43,47,42,-1,42,47,39,-1,42,39,13,-1,13,39,41,-1,13,41,32,-1,30,31,48,-1,48,31,49,-1,48,50,44,-1,44,50,51,-1,44,51,43,-1,43,51,52,-1,43,52,45,-1,53,23,22,-1,22,54,53,-1,53,54,55,-1,53,55,49,-1,49,55,56,-1,49,56,48,-1,48,56,57,-1,48,57,50,-1,27,28,58,-1,58,28,59,-1,60,37,59,-1,59,37,55,-1,59,55,58,-1,58,55,54,-1,7,6,61,-1,61,6,37,-1,61,37,62,-1,62,37,60,-1,62,60,15,-1,15,60,16,-1,4,3,63,-1,63,3,64,-1,63,64,65,-1,64,66,65,-1,65,66,67,-1,65,67,68,-1,68,67,69,-1,70,71,72,-1,72,71,73,-1,74,75,76,-1,76,75,71,-1,76,71,77,-1,77,71,70,-1,78,79,77,-1,77,79,76,-1,78,72,73,-1,80,81,73,-1,73,81,79,-1,73,79,78,-1,82,83,84,-1,84,83,85,-1,76,79,74,-1,74,79,81,-1,74,81,85,-1,85,81,84,-1,83,82,75,-1,75,82,80,-1,75,80,71,-1,71,80,73,-1,80,82,81,-1,81,82,84,-1,74,85,75,-1,75,85,83,-1,86,87,70,-1,72,88,89,-1,86,70,90,-1,78,91,72,-1,72,91,92,-1,72,92,93,-1,94,95,70,-1,89,96,72,-1,72,96,97,-1,72,97,70,-1,70,97,98,-1,70,98,90,-1,99,100,78,-1,78,100,101,-1,78,101,91,-1,102,103,78,-1,78,103,104,-1,78,104,99,-1,70,95,77,-1,95,105,77,-1,77,105,106,-1,77,106,107,-1,93,108,72,-1,72,108,109,-1,72,109,88,-1,110,111,77,-1,77,111,112,-1,77,112,78,-1,78,112,113,-1,78,113,102,-1,107,114,77,-1,77,114,115,-1,77,115,110,-1,87,116,70,-1,70,116,117,-1,70,117,94,-1,118,119,120,-1,118,120,121,-1,121,120,122,-1,121,122,123,-1,123,122,124,-1,123,124,125,-1,125,124,126,-1,125,126,127,-1,127,126,128,-1,127,128,129,-1,129,128,130,-1,129,130,131,-1,131,130,132,-1,131,132,133,-1,133,132,134,-1,134,132,135,-1,134,135,136,-1,134,136,137,-1,137,136,138,-1,137,138,139,-1,139,138,140,-1,139,140,141,-1,141,140,142,-1,141,142,143,-1,143,142,144,-1,143,144,145,-1,145,144,146,-1,145,146,147,-1,147,146,148,-1,147,148,149,-1,150,12,11,-1,151,152,153,-1,11,154,150,-1,150,154,155,-1,150,155,153,-1,153,155,156,-1,153,156,151,-1,10,12,148,-1,148,12,150,-1,148,150,149,-1,149,150,157,-1,32,41,158,-1,158,41,159,-1,155,154,33,-1,32,158,33,-1,33,158,160,-1,33,160,155,-1,155,160,161,-1,155,161,156,-1,156,161,162,-1,156,162,151,-1,151,162,163,-1,151,163,152,-1,152,163,164,-1,152,164,153,-1,153,164,157,-1,153,157,150,-1,41,40,165,-1,38,36,166,-1,166,36,167,-1,166,167,165,-1,165,167,159,-1,165,159,41,-1,34,63,65,-1,35,34,168,-1,168,169,35,-1,35,169,167,-1,35,167,36,-1,34,65,168,-1,168,65,68,-1,168,68,170,-1,170,68,69,-1,170,69,171,-1,171,69,67,-1,171,67,172,-1,172,67,66,-1,172,66,173,-1,173,66,64,-1,173,64,174,-1,118,174,119,-1,119,174,64,-1,119,64,5,-1,5,64,3,-1,144,10,146,-1,146,10,148,-1,119,5,120,-1,120,5,122,-1,130,128,5,-1,144,142,10,-1,10,142,140,-1,10,140,138,-1,128,126,5,-1,5,126,124,-1,5,124,122,-1,138,136,10,-1,10,136,135,-1,10,135,5,-1,5,135,132,-1,5,132,130,-1,105,167,169,-1,105,169,106,-1,106,169,168,-1,106,168,107,-1,107,168,170,-1,107,170,114,-1,114,170,171,-1,114,171,115,-1,115,171,172,-1,115,172,110,-1,110,172,173,-1,110,173,111,-1,111,173,174,-1,111,174,112,-1,118,113,174,-1,174,113,112,-1,95,159,105,-1,105,159,167,-1,113,118,121,-1,113,121,102,-1,102,121,123,-1,102,123,103,-1,103,123,125,-1,103,125,104,-1,104,125,127,-1,104,127,99,-1,99,127,129,-1,99,129,100,-1,100,129,131,-1,100,131,101,-1,101,131,133,-1,101,133,91,-1,98,157,164,-1,98,164,90,-1,90,164,163,-1,90,163,86,-1,86,163,162,-1,86,162,87,-1,87,162,161,-1,87,161,116,-1,116,161,160,-1,116,160,117,-1,117,160,158,-1,117,158,94,-1,94,158,159,-1,94,159,95,-1,134,92,133,-1,133,92,91,-1,97,149,98,-1,98,149,157,-1,92,134,137,-1,92,137,93,-1,93,137,139,-1,93,139,108,-1,108,139,141,-1,108,141,109,-1,109,141,143,-1,109,143,88,-1,88,143,145,-1,88,145,89,-1,89,145,147,-1,89,147,96,-1,96,147,149,-1,96,149,97,-1,175,176,165,-1,165,176,177,-1,165,177,178,-1,179,180,181,-1,181,180,166,-1,181,166,182,-1,178,183,165,-1,165,183,184,-1,165,184,166,-1,166,184,185,-1,166,185,182,-1,38,166,37,-1,37,166,180,-1,37,180,55,-1,55,180,179,-1,55,179,56,-1,56,179,181,-1,184,51,50,-1,184,50,185,-1,185,50,57,-1,185,57,182,-1,182,57,56,-1,182,56,181,-1,51,184,52,-1,52,184,183,-1,177,46,45,-1,177,45,178,-1,178,45,52,-1,178,52,183,-1,46,177,47,-1,47,177,176,-1,47,176,39,-1,39,176,175,-1,39,175,40,-1,40,175,165,-1,13,33,11,-1,11,33,154,-1,6,4,34,-1,34,4,63,-1,
        ]
    }
}
Shape{
    appearance Appearance {
        material  Material 	{
            diffuseColor 0.6666666666666666 0.6666666666666666 0.6666666666666666
            specularColor 0.4666666666666667 0.4666666666666667 0.4666666666666667
            ambientIntensity 0.2
            transparency 0
            shininess 0.5
        }
    }
    geometry IndexedFaceSet {
        ccw TRUE
        solid FALSE
        coord DEF co Coordinate {
            point [
                0.2953 1.1417 -0.563, 0.2953 1.378 -0.563, 0.0984 1.1417 -0.563, 0.0984 1.378 -0.563, 0.0984 1.0855 -0.6417, 0.0984 1.378 -0.6417, 0.2953 1.0855 -0.6417, 0.2953 1.378 -0.6417, 0.2953 1.1417 -0.5827, 0.2953 0.9449 -0.5827, 0.2953 0.9749 -0.6077, 0.2953 1.0092 -0.6264, 0.2953 1.0466 -0.6379, 0.0984 1.1417 -0.5827, 0.0984 1.0466 -0.6379, 0.0984 1.0092 -0.6264, 0.0984 0.9749 -0.6077, 0.0984 0.9449 -0.5827, 0.7087 1.1417 -0.563, 0.7087 1.378 -0.563, 0.4882 1.1417 -0.563, 0.4882 1.378 -0.563, 0.4882 1.0855 -0.6417, 0.4882 1.378 -0.6417, 0.7087 1.0855 -0.6417, 0.7087 1.378 -0.6417, 0.7087 1.1417 -0.5827, 0.7087 0.9449 -0.5827, 0.7087 0.9749 -0.6077, 0.7087 1.0092 -0.6264, 0.7087 1.0466 -0.6379, 0.4882 1.1417 -0.5827, 0.4882 1.0466 -0.6379, 0.4882 1.0092 -0.6264, 0.4882 0.9749 -0.6077, 0.4882 0.9449 -0.5827, 1.2008 1.1417 -0.563, 1.2008 1.378 -0.563, 0.9646 1.1417 -0.563, 0.9646 1.378 -0.563, 0.9646 1.0855 -0.6417, 0.9646 1.378 -0.6417, 1.2008 1.0855 -0.6417, 1.2008 1.378 -0.6417, 1.2008 1.1417 -0.5827, 1.2008 0.9449 -0.5827, 1.2008 0.9749 -0.6077, 1.2008 1.0092 -0.6264, 1.2008 1.0466 -0.6379, 0.9646 1.1417 -0.5827, 0.9646 1.0466 -0.6379, 0.9646 1.0092 -0.6264, 0.9646 0.9749 -0.6077, 0.9646 0.9449 -0.5827, -0.0984 1.378 -0.563, -0.2953 1.378 -0.563, -0.0984 1.1417 -0.563, -0.2953 1.1417 -0.563, -0.2953 1.378 -0.6417, -0.0984 1.378 -0.6417, -0.2953 1.0855 -0.6417, -0.0984 1.0855 -0.6417, -0.2953 1.1417 -0.5827, -0.2953 1.0466 -0.6379, -0.2953 1.0092 -0.6264, -0.2953 0.9749 -0.6077, -0.2953 0.9449 -0.5827, -0.0984 1.1417 -0.5827, -0.0984 0.9449 -0.5827, -0.0984 0.9749 -0.6077, -0.0984 1.0092 -0.6264, -0.0984 1.0466 -0.6379, -0.4882 1.378 -0.563, -0.7087 1.378 -0.563, -0.4882 1.1417 -0.563, -0.7087 1.1417 -0.563, -0.7087 1.378 -0.6417, -0.4882 1.378 -0.6417, -0.7087 1.0855 -0.6417, -0.4882 1.0855 -0.6417, -0.7087 1.1417 -0.5827, -0.7087 1.0466 -0.6379, -0.7087 1.0092 -0.6264, -0.7087 0.9749 -0.6077, -0.7087 0.9449 -0.5827, -0.4882 1.1417 -0.5827, -0.4882 0.9449 -0.5827, -0.4882 0.9749 -0.6077, -0.4882 1.0092 -0.6264, -0.4882 1.0466 -0.6379, -0.9646 1.378 -0.563, -1.2008 1.378 -0.563, -0.9646 1.1417 -0.563, -1.2008 1.1417 -0.563, -1.2008 1.378 -0.6417, -0.9646 1.378 -0.6417, -1.2008 1.0855 -0.6417, -0.9646 1.0855 -0.6417, -1.2008 1.1417 -0.5827, -1.2008 1.0466 -0.6379, -1.2008 1.0092 -0.6264, -1.2008 0.9749 -0.6077, -1.2008 0.9449 -0.5827, -0.9646 1.1417 -0.5827, -0.9646 0.9449 -0.5827, -0.9646 0.9749 -0.6077, -0.9646 1.0092 -0.6264, -0.9646 1.0466 -0.6379, -0.9646 1.0466 -0.6379
            ]
        }
        coordIndex [
            0,1,2,-1,2,1,3,-1,4,5,6,-1,6,5,7,-1,1,7,3,-1,3,7,5,-1,1,0,7,-1,7,0,8,-1,7,8,6,-1,8,9,10,-1,10,11,8,-1,8,11,12,-1,8,12,6,-1,13,2,3,-1,3,5,13,-1,13,5,4,-1,13,4,14,-1,14,15,13,-1,13,15,16,-1,13,16,17,-1,18,19,20,-1,20,19,21,-1,22,23,24,-1,24,23,25,-1,19,25,21,-1,21,25,23,-1,19,18,25,-1,25,18,26,-1,25,26,24,-1,26,27,28,-1,28,29,26,-1,26,29,30,-1,26,30,24,-1,31,20,21,-1,21,23,31,-1,31,23,22,-1,31,22,32,-1,32,33,31,-1,31,33,34,-1,31,34,35,-1,36,37,38,-1,38,37,39,-1,40,41,42,-1,42,41,43,-1,37,43,39,-1,39,43,41,-1,37,36,43,-1,43,36,44,-1,43,44,42,-1,44,45,46,-1,46,47,44,-1,44,47,48,-1,44,48,42,-1,49,38,39,-1,39,41,49,-1,49,41,40,-1,49,40,50,-1,50,51,49,-1,49,51,52,-1,49,52,53,-1,4,6,12,-1,4,12,14,-1,14,12,11,-1,14,11,15,-1,15,11,10,-1,15,10,16,-1,16,10,9,-1,16,9,17,-1,22,24,30,-1,22,30,32,-1,32,30,29,-1,32,29,33,-1,33,29,28,-1,33,28,34,-1,34,28,27,-1,34,27,35,-1,40,42,48,-1,40,48,50,-1,50,48,47,-1,50,47,51,-1,51,47,46,-1,51,46,52,-1,52,46,45,-1,52,45,53,-1,54,55,56,-1,56,55,57,-1,58,55,59,-1,59,55,54,-1,60,58,61,-1,61,58,59,-1,62,57,55,-1,55,58,62,-1,62,58,60,-1,62,60,63,-1,63,64,62,-1,62,64,65,-1,62,65,66,-1,54,56,59,-1,59,56,67,-1,59,67,61,-1,67,68,69,-1,69,70,67,-1,67,70,71,-1,67,71,61,-1,72,73,74,-1,74,73,75,-1,76,73,77,-1,77,73,72,-1,78,76,79,-1,79,76,77,-1,80,75,73,-1,73,76,80,-1,80,76,78,-1,80,78,81,-1,81,82,80,-1,80,82,83,-1,80,83,84,-1,72,74,77,-1,77,74,85,-1,77,85,79,-1,85,86,87,-1,87,88,85,-1,85,88,89,-1,85,89,79,-1,90,91,92,-1,92,91,93,-1,94,91,95,-1,95,91,90,-1,96,94,97,-1,97,94,95,-1,98,93,91,-1,91,94,98,-1,98,94,96,-1,98,96,99,-1,99,100,98,-1,98,100,101,-1,98,101,102,-1,90,92,95,-1,95,92,103,-1,95,103,97,-1,103,104,105,-1,105,106,103,-1,103,106,107,-1,103,107,97,-1,68,66,65,-1,68,65,69,-1,69,65,64,-1,69,64,70,-1,70,64,63,-1,70,63,71,-1,71,63,60,-1,71,60,61,-1,86,84,83,-1,86,83,87,-1,87,83,82,-1,87,82,88,-1,88,82,81,-1,88,81,89,-1,89,81,78,-1,89,78,79,-1,104,102,101,-1,104,101,105,-1,105,101,100,-1,105,100,106,-1,106,100,99,-1,106,99,107,-1,107,99,96,-1,107,96,97,-1,
        ]
    }
}